<svg width="306" height="371" viewBox="0 0 306 371" fill="none" xmlns="http://www.w3.org/2000/svg">
<path d="M66.7001 224.8C66.7001 224.8 55.0001 228.5 50.9001 234.2C44.6001 242.9 39.3001 259.9 33.5001 276.7C22.9001 307.2 23.2001 352.6 23.2001 352.6H251.4C251.4 352.6 251.6 303.6 243.1 270.2C241.6 264.2 236.5 254.4 234.1 250.4C229.3 242.4 220.8 238.4 217.5 236.1C217.5 236.1 223.8 275.1 179.6 277.4C135.4 279.7 82.0001 265.6 80.7001 257.4C79.4001 249.1 66.7001 224.8 66.7001 224.8Z" fill="white"/>
<path d="M231.6 354.4C168.8 383.4 65.3998 357.2 65.3998 357.2C65.3998 357.2 63.2998 331.7 70.8998 285.8C71.1998 283.7 71.4998 281.6 71.6998 279.7C73.8998 258.9 71.1998 232.3 65.7998 223.3C65.7998 221 68.1998 221.6 70.8998 219.3C71.9998 218.4 73.4998 218.3 74.2998 218.9C75.6998 220.9 79.4998 230.7 80.5998 232.8C91.7998 253.5 108.9 266.8 132.3 269.1C164.2 272.3 177.5 271.8 193.4 268.3C208.7 264.9 215.6 255.9 211.3 240.9C208.8 232 204.6 227.6 204.5 227.4C206.9 228.4 212.9 231.1 215.1 235.1C215.7 236.1 219.7 242.3 222.8 255.6C225 265.1 226.1 273 227.4 283.7C231.8 318.7 231.6 354.4 231.6 354.4Z" fill="black" stroke="black" stroke-width="5.1257" stroke-miterlimit="10" stroke-linecap="round" stroke-linejoin="round"/>
<path d="M174.3 283.8C176.178 283.8 177.7 282.278 177.7 280.4C177.7 278.522 176.178 277 174.3 277C172.423 277 170.9 278.522 170.9 280.4C170.9 282.278 172.423 283.8 174.3 283.8Z" fill="white"/>
<path d="M175.2 296.4C177.078 296.4 178.6 294.878 178.6 293C178.6 291.122 177.078 289.6 175.2 289.6C173.322 289.6 171.8 291.122 171.8 293C171.8 294.878 173.322 296.4 175.2 296.4Z" fill="white"/>
</svg>
