<svg width="306" height="371" viewBox="0 0 306 371" fill="none" xmlns="http://www.w3.org/2000/svg">
<path d="M212.001 230.2C212.001 230.2 200.001 223.4 180.701 218.5C180.701 218.5 166.901 212.8 146.901 210C120.701 206.3 109.901 208.8 109.901 208.8C109.901 208.8 86.801 211.4 69.501 220.7C69.501 220.7 74.101 259.5 109.301 274.7C144.401 289.9 193.301 282.4 204.901 272.6C216.401 262.8 214.801 233.5 212.001 230.2Z" fill="black" stroke="black" stroke-width="5.1257" stroke-miterlimit="10" stroke-linecap="round" stroke-linejoin="round"/>
<path d="M61.4008 225.8C61.4008 225.8 54.7008 228.5 47.3008 236.1C39.0008 244.6 32.3008 266.2 26.7008 282.4C16.1008 312.9 23.2008 352.7 23.2008 352.7H257.201C257.201 352.7 259.301 302 246.101 271.3C244.401 267.4 241.601 257.5 238.201 252C232.701 243 226.501 237.7 221.601 235.4C221.601 235.4 223.801 275.3 179.601 277.5C135.401 279.7 82.0008 265.7 80.7008 257.5C79.4008 249.1 61.4008 225.8 61.4008 225.8Z" fill="white"/>
<path d="M60.8007 228.2C61.2007 228.4 62.1007 228.3 62.4007 228.1H62.3007L62.1007 228.2C57.0007 230 52.4007 233.1 48.4007 236.8C44.3007 240.7 41.5007 245.9 39.1007 251C36.6007 256.2 34.6007 261.7 32.7007 267.2C30.8007 272.7 28.9007 278.2 27.1007 283.7C20.4007 305.8 21.3007 329.8 25.9007 352.2L23.4007 350.1H257.401L254.801 352.6C256.901 326.9 255.801 298.8 247.001 274.4C243.801 267.2 241.901 259.3 237.701 252.6C233.501 246.4 227.901 240.3 220.701 237.8L224.301 235.3C224.601 254.4 213.901 271.9 195.201 277.5C186.701 280.3 177.601 280.4 168.801 280.4C160.101 280.4 151.401 279.8 142.701 278.8C131.501 277.7 79.2007 269.8 78.1007 257.3C75.7007 250.2 71.1007 244 67.0007 237.8C64.7007 234.5 62.2007 231 59.7007 227.8L59.6007 227.6L59.5007 227.5C59.4007 227.4 59.7007 227.8 59.9007 227.9C60.2007 228 60.5007 228.2 60.8007 228.2ZM62.1007 223.3C63.0007 223.5 63.5007 224.3 64.0007 224.9C69.1007 231.7 74.0007 238.5 78.3007 245.8C80.3007 249.3 82.5007 253 83.3007 257C92.1007 266 129.901 272.2 143.301 273.6C151.801 274.5 160.301 275.1 168.801 275.1C177.201 275.1 185.701 275 193.601 272.5C210.101 267.6 219.301 252.3 219.101 235.5L219.901 233.8C220.401 232.8 221.701 232.4 222.701 233C227.801 236.2 231.401 240.3 234.701 244.7C237.901 249.1 240.501 253.9 242.301 259C244.101 264 245.601 269.1 247.701 274C249.601 279 251.101 284.1 252.301 289.3C254.801 299.7 256.301 310.2 257.501 320.8C258.601 331.4 259.301 342 259.701 352.8C259.701 354.2 258.501 355.3 257.201 355.3H23.2007C21.9007 355.3 20.9007 354.4 20.7007 353.2C18.6007 329.9 18.5007 305.9 25.8007 283.5C30.7007 269.8 34.9007 255.7 41.5007 242.7C45.5007 234.9 52.4007 228.5 59.9007 223.9L60.2007 223.7L60.3007 223.6C60.7007 223.2 61.6007 223.1 62.1007 223.3Z" fill="black"/>
<path d="M231.6 354.401C168.8 383.401 65.4004 357.201 65.4004 357.201C65.4004 357.201 63.3004 331.701 70.9004 285.801C71.2004 283.701 71.5004 281.601 71.7004 279.701C73.9004 258.901 66.3004 236.501 60.9004 227.501C60.9004 225.201 63.3004 223.601 66.0004 221.301C67.1004 220.401 68.6004 220.301 69.4004 220.901C70.8004 222.901 72.1004 224.901 73.2004 227.001C84.4004 247.701 108.9 266.801 132.3 269.101C164.2 272.301 177.5 271.801 193.4 268.301C208.7 264.901 216.3 246.101 212 231.101C211.9 230.901 211.9 230.601 211.8 230.301C214.5 230.101 220.8 235.301 222.9 243.001C225.1 252.501 226.1 273.001 227.4 283.701C231.8 318.701 231.6 354.401 231.6 354.401Z" fill="black" stroke="black" stroke-width="5.1257" stroke-miterlimit="10" stroke-linecap="round" stroke-linejoin="round"/>
<path d="M87.3002 219.4C98.2002 236.3 110.7 252.1 125.8 265.4C130.4 269.5 135.4 273.3 140.5 276.6C141.5 277.2 141.8 277.6 142.7 277.8C144 278.1 145.5 277.8 146.6 276.8L149.1 274.1C153.5 269.5 158.1 264.9 162.2 260.1C163.9 258.2 165.5 256.2 166.2 253.6C166.6 252.9 167.5 252.8 168.2 253.2C173.5 257.9 179 262.4 184.4 267L188.4 270.4L190.4 272.1L190.6 272.3L190.7 272.4C191.7 273.3 193.5 273.1 194.3 272C194.9 271.1 195.2 269 195.5 267.8C198 254.2 196.3 240.1 192.6 226.9C192.5 226.7 192.7 226.5 192.8 226.5C193 226.5 193.2 226.5 193.2 226.7C195.8 233.2 197.8 240.1 198.9 247.1C200 254.1 200.1 261.3 199.1 268.5C198.7 270.6 198.8 272.3 197.5 274.3C196 276.4 193.3 277.5 190.9 276.9C188.9 276.6 187.2 274.7 185.8 273.4C179.4 267.5 173 261.4 166.6 255.5L168.8 255.3C164.3 258.2 162.3 263.1 159.4 267.3C156.9 271.3 154.4 275.6 151.9 279.6C148.9 284.8 141.6 285.9 137 282.2C133.3 279.7 129.4 276.9 126 274C116.7 266 108.4 256.7 101.4 246.7C95.5002 238.2 90.3002 229.4 86.3002 219.9C86.2002 219.6 86.3002 219.2 86.6002 219.1C86.8002 219 87.2002 219.2 87.3002 219.4Z" fill="white"/>
<path d="M170.8 340.601C172.1 326.401 171.5 311.901 170.6 297.701C169.6 283.401 168.4 269.001 166 254.801C165.7 252.901 168.6 252.301 169 254.301C171.5 282.801 175.3 312.301 173.8 340.901C173.7 342.801 170.7 342.601 170.8 340.601Z" fill="white"/>
<path d="M183.201 287.4C185.189 287.4 186.801 285.788 186.801 283.8C186.801 281.812 185.189 280.2 183.201 280.2C181.212 280.2 179.601 281.812 179.601 283.8C179.601 285.788 181.212 287.4 183.201 287.4Z" fill="white"/>
<path d="M184.8 305.4C186.788 305.4 188.4 303.788 188.4 301.8C188.4 299.812 186.788 298.2 184.8 298.2C182.812 298.2 181.2 299.812 181.2 301.8C181.2 303.788 182.812 305.4 184.8 305.4Z" fill="white"/>
</svg>
