<svg width="306" height="370" viewBox="0 0 306 370" fill="none" xmlns="http://www.w3.org/2000/svg">
<path d="M236.1 278.4C235.4 278.9 234.6 279.4 233.9 279.9C233.1 280.4 232.4 280.9 231.6 281.3C230.9 281.7 230.3 282.1 229.6 282.5C229.5 282.6 229.4 282.6 229.3 282.7C227 284.1 224.6 285.4 222.2 286.6C221.5 287 220.7 287.4 220 287.7C220 287.7 219.9 287.8 219.8 287.8C219 288.2 218.2 288.6 217.4 289C215.8 289.8 214.1 290.5 212.5 291.2C211.7 291.6 210.8 291.9 210 292.2C209.2 292.5 208.3 292.9 207.5 293.2C206.7 293.5 205.8 293.9 205 294.2C205 294.2 205 294.2 204.9 294.2C204.1 294.5 203.2 294.8 202.4 295.1C200.6 295.7 198.7 296.3 196.9 296.9C196.3 297.1 195.6 297.3 195 297.5C193.1 298.1 191.2 298.6 189.3 299C188.6 299.2 187.9 299.3 187.1 299.5C185.3 299.9 183.4 300.3 181.6 300.7C181.201 300.8 180.9 300.8 180.5 300.9C179.9 301 179.201 301.1 178.6 301.2C177.701 301.3 176.9 301.5 176 301.6C175.6 301.7 175.2 301.7 174.8 301.8C174.3 301.9 173.701 302 173.1 302C171.5 302.2 169.8 302.4 168.2 302.6C167.7 302.7 167.1 302.7 166.6 302.8H166.5C165.8 302.9 165.1 302.9 164.4 303C163.7 303.1 163 303.1 162.3 303.1C161.9 303.1 161.4 303.2 161 303.2C160.2 303.2 159.5 303.3 158.8 303.3C157.8 303.3 156.9 303.4 155.9 303.4C154.9 303.4 154 303.4 153 303.4C152.3 303.4 151.6 303.4 150.9 303.4C108.7 302.8 70.8005 284.9 43.7005 256.5C43.7005 256.5 43.7005 256.4 43.6005 256.4C40.6005 254.9 42.7005 237.8 54.8005 228.7C70.0005 217.2 106.9 211.5 106.9 211.5C106.9 211.5 121 209.2 173.3 220.1C201.3 225.9 227.3 235.1 236.8 251.1C239.4 255.5 245.701 264.1 244.6 270.6C244 274.1 239.1 275.7 236.1 278.4Z" fill="white"/>
<path d="M173.601 219C192.201 223 214.001 226.5 229.301 238.6C239.101 246.4 242.301 258.8 247.001 270C247.401 270.7 247.001 271.4 246.701 272C244.001 276.2 239.601 279 235.601 281.8C223.901 289.7 210.801 295.7 197.301 299.6C152.101 312.7 101.001 304.5 62.7006 277C55.0006 271.5 47.9006 265.2 41.6006 258.2L42.1006 258.6C40.5006 257.5 40.1006 255.5 40.1006 253.8C40.6006 246.8 43.7006 240.4 46.8006 234.2C47.8006 232.4 48.9006 230.4 50.5006 229C65.2006 215.5 89.4006 210.3 108.701 208.5C109.901 208.4 110.001 210.1 108.901 210.3C91.0006 213.6 72.4006 217.8 57.2006 228.2C55.2006 229.8 52.8006 231.4 51.4006 233.6C49.1006 237.2 41.0006 252.8 44.0006 256C64.9006 280.9 96.3006 295.2 128.201 299C159.601 303.2 192.701 298.9 220.801 284C224.801 281.9 228.701 279.6 232.401 277C235.801 274.7 239.201 272.5 241.801 269.4L241.701 269.6L241.601 271.4C241.301 267.7 239.401 264.1 238.201 260.6C236.801 257.1 235.301 253.4 233.501 250.2C229.901 243.7 223.701 239.1 217.201 235.6C210.501 232 203.201 229.4 195.701 227.2C188.201 225 180.701 223.1 173.001 221.4C171.501 221 172.001 218.7 173.601 219Z" fill="black"/>
<path d="M56.9004 226.5C56.9004 226.5 61.9004 227.1 68.8004 231.3C81.7004 239.2 101.9 288.3 66.7004 317.7C66.7004 317.7 60.4004 354.5 66.7004 361.5C66.7004 361.5 181.9 367.3 231.6 361.5C231.6 361.5 238.2 339.9 235 316.8C231 287.5 232.2 256.7 212.9 230.4C204.1 218.4 160 208 134.5 208.2C108.7 208.5 98.0004 211.2 91.2004 212.9C84.3004 214.7 57.4004 221.2 56.9004 226.5Z" fill="black" stroke="black" stroke-width="5.1257" stroke-miterlimit="10" stroke-linecap="round" stroke-linejoin="round"/>
<path d="M59.9004 230.5C72.0004 219.4 70.6004 228.8 93.3004 225.1C102 223.7 112.3 216.5 125.6 216.8C135.2 217 145.6 224.2 157.9 225.8C167.8 227.1 179.6 222.6 191.4 225C201.3 227.1 210.5 235.8 221.9 238.9" stroke="white" stroke-width="4" stroke-miterlimit="10" stroke-linecap="round" stroke-linejoin="round"/>
<path d="M60.8008 243.8C75.0008 235.3 72.3008 244.2 94.8008 241.1C103.701 239.9 114.301 232.5 127.501 232.6C137.301 232.7 147.901 239.8 160.301 241C170.401 242 182.201 237.1 194.101 239.1C204.301 240.9 213.801 249.5 225.301 252.2" stroke="white" stroke-width="4" stroke-miterlimit="10" stroke-linecap="round" stroke-linejoin="round"/>
<path d="M61.7002 257.2C77.3002 251 73.9002 259.4 96.2002 257C105.4 256 116.2 248.6 129.4 248.6C139.4 248.6 150.3 255.6 162.7 256.6C173 257.4 184.9 252 196.8 253.7C207.2 255.2 217.1 263.6 228.8 265.9" stroke="white" stroke-width="4" stroke-miterlimit="10" stroke-linecap="round" stroke-linejoin="round"/>
<path d="M62.6006 270.8C79.1006 266.7 75.3006 274.6 97.4006 272.8C106.801 272 117.901 264.7 131.101 264.6C141.401 264.5 152.601 271.5 165.001 272.2C175.601 272.8 187.401 266.9 199.501 268.2C210.201 269.3 220.601 277.5 232.401 279.4" stroke="white" stroke-width="4" stroke-miterlimit="10" stroke-linecap="round" stroke-linejoin="round"/>
<path d="M63.3008 284.4C80.4008 282 76.3008 289.5 98.4008 288.4C108.101 287.9 119.501 280.6 132.801 280.5C143.301 280.4 154.801 287.5 167.301 287.9C178.101 288.3 190.001 282 202.201 282.8C213.201 283.6 224.101 291.5 236.001 292.8" stroke="white" stroke-width="4" stroke-miterlimit="10" stroke-linecap="round" stroke-linejoin="round"/>
<path d="M64 298C81.5 297 77.3 304.3 99.4 303.8C109.4 303.6 121.1 296.4 134.4 296.4C145.2 296.4 156.9 303.5 169.5 303.7C180.6 303.9 192.6 297.2 204.8 297.6C216.1 298 227.5 305.6 239.6 306.3" stroke="white" stroke-width="4" stroke-miterlimit="10" stroke-linecap="round" stroke-linejoin="round"/>
<path d="M64.7002 311.7C82.6002 311.9 78.2002 319 100.3 319.1C110.5 319.2 122.7 312.1 136.1 312.2C147.2 312.3 159.2 319.5 171.8 319.5C183.3 319.6 195.3 312.5 207.5 312.5C219.2 312.5 231.2 319.7 243.2 319.7" stroke="white" stroke-width="4" stroke-miterlimit="10" stroke-linecap="round" stroke-linejoin="round"/>
<path d="M65.3008 325.4C83.4008 326.6 79.0008 333.5 101.201 334.3C111.701 334.7 124.201 327.8 137.701 328C149.101 328.2 161.301 335.6 174.001 335.5C185.801 335.5 197.901 328 210.201 327.6C222.301 327.2 234.801 334 246.801 333.2" stroke="white" stroke-width="4" stroke-miterlimit="10" stroke-linecap="round" stroke-linejoin="round"/>
<path d="M65.9004 339.1C84.3004 341.1 79.8004 348 102.1 349.4C112.8 350.1 125.8 343.3 139.4 343.8C151.1 344.1 163.5 351.7 176.3 351.6C188.5 351.5 200.7 343.7 213 343C225.5 342.2 238.7 348.4 250.5 346.8" stroke="white" stroke-width="4" stroke-miterlimit="10" stroke-linecap="round" stroke-linejoin="round"/>
<path d="M66.5 352.8C85.1 355.5 80.5 362.4 103.1 364.4C114.1 365.4 127.4 358.8 141.2 359.4C153.2 359.9 165.8 367.7 178.7 367.6C191.2 367.5 203.6 359.4 215.9 358.3C228.9 357.1 242.7 362.7 254.3 360.1" stroke="white" stroke-width="4" stroke-miterlimit="10" stroke-linecap="round" stroke-linejoin="round"/>
</svg>
