<svg width="306" height="371" viewBox="0 0 306 371" fill="none" xmlns="http://www.w3.org/2000/svg">
<path d="M211.3 240C211.3 240 195.6 223.7 180.3 220.2C180.3 220.2 182.3 247.7 164.1 245.8C134.7 242.7 107 211.5 107 211.5C107 211.5 89.3002 209.3 73.7002 221.2C73.7002 221.2 74.1002 259.5 109.3 274.7C144.4 289.9 193.3 282.4 204.9 272.6C216.4 262.8 214.1 243.3 211.3 240Z" fill="white" stroke="black" stroke-width="3" stroke-miterlimit="10" stroke-linecap="round" stroke-linejoin="round"/>
<path d="M53.7006 230.2C53.7006 230.2 48.5006 233.3 44.2006 242.3C40.6006 250.1 39.1006 262.6 35.8006 277.2C28.6006 309.3 23.1006 352.6 23.1006 352.6H251.301C251.301 352.6 254.201 268.1 233.401 243.3C231.201 240.6 222.701 236.4 222.301 236.8C215.601 243 214.401 275.6 179.501 277.4C135.201 279.6 81.9006 265.6 80.6006 257.4C79.4006 249.1 53.7006 230.2 53.7006 230.2Z" fill="white" stroke="black" stroke-width="3" stroke-miterlimit="10" stroke-linecap="round" stroke-linejoin="round"/>
<path d="M231.601 354.4C168.801 383.4 65.4006 357.2 65.4006 357.2C65.4006 357.2 63.3006 331.7 70.9006 285.8C71.2006 283.7 71.5006 281.6 71.7006 279.7C73.9006 258.9 59.0006 239.3 53.6006 230.3C53.6006 228 55.6006 225.9 58.7006 224.1C71.1006 216.9 88.8006 212.7 89.6006 213.3C91.0006 215.3 92.7006 221 93.9006 223.1C105.101 243.8 109.001 266 132.301 269.2C155.301 272.4 177.501 271.9 193.401 268.4C208.701 265 198.201 237.9 191.501 225.4C191.201 224.9 190.601 223.3 190.401 223.1C192.701 221.6 221.901 232 223.901 239.6C228.301 250.6 227.801 272.1 229.101 282.8C233.501 317.7 231.601 354.4 231.601 354.4Z" fill="black"/>
<path d="M233.701 355.9C231.9 357.1 229.701 358.1 227.701 358.9C189.301 373.8 146.8 372.1 106.6 367.3C92.5005 365.4 78.6005 363 64.8005 359.7C63.7005 359.4 62.9005 358.5 62.9005 357.4C61.9005 335.2 64.3005 313.2 67.5005 291.3C67.9005 288.4 69.0005 282 69.2005 279.2C70.3005 267.3 65.8005 255.8 60.1005 245.5C57.5005 240.8 54.5005 236.3 51.5005 231.5C50.2005 228.7 52.6005 225.6 54.5005 223.9C58.9005 220.4 63.9005 218.5 68.9005 216.3C73.8005 214.4 78.8005 212.7 84.0005 211.4C85.9005 211 87.8005 210.4 89.9005 210.5C90.4005 210.5 91.4005 211 91.8005 211.6C94.0005 215.1 94.7005 219 96.6005 222.5C105.3 238.1 109.5 261.2 129 266.3C136.4 267.9 144.2 268.5 151.7 269C163.2 269.7 174.8 269.6 186.201 268C188.1 267.7 190.001 267.4 191.9 267C193.6 266.7 195.4 266.3 196.701 265.2C204.201 258.7 197.701 241.5 194.601 233.6C193.401 230.8 192.201 228.1 190.801 225.4C190.501 224.8 190.201 224 189.9 223.4C189.9 223.3 189.8 223.2 189.9 223.3L190.001 222C190.801 221.1 191.501 221 192.501 220.8C195.201 220.8 197.9 221.9 200.501 222.7C206.801 224.8 212.801 227.3 218.501 230.7C220.701 232.1 223.001 233.6 224.701 235.7C225.301 236.5 225.901 237.4 226.301 238.6L226.201 238.3C228.1 243.2 228.9 248.1 229.501 253C231.001 264.9 230.901 277.2 232.601 289C234.701 310.1 235.1 331.3 234.201 352.5V353.4V353.9C234.201 354.7 234.001 355.4 233.701 355.9ZM229.501 353C229.301 353.2 229.201 353.4 229.101 353.7V353.8V353.9C229.201 352.2 229.301 349 229.301 347.2C229.801 325.7 229.201 304 226.701 282.7C225.701 273 225.701 263.5 224.601 253.9C224.001 249.2 223.301 244.5 221.701 240.5C221.6 240 221.4 239.7 220.9 239.1C217.4 235.3 212.4 233.1 207.701 230.9C202.4 228.7 196.9 226.3 191.201 225.5C191.201 225.5 191.201 225.5 191.301 225.5C191.501 225.4 191.701 225.4 191.9 225.2L192.301 221.2C192.401 221.3 192.4 221.4 192.501 221.4C192.801 221.7 193.001 222.2 193.201 222.6C193.501 223.2 193.701 223.9 194.001 224.4C199.701 235.2 212.201 263.6 195.9 270.2C193.001 271.2 189.901 271.6 186.801 272.1C171.201 274.4 155.4 274.2 139.7 272.6C135.7 272.1 131.8 271.8 127.8 270.9C110.701 267 103.5 249.6 97.1005 235.4C94.8005 230 91.7005 225 89.6005 219.5C89.0005 218 88.3005 216 87.5005 214.8L88.0005 215.4C88.3005 215.7 88.8005 215.8 89.2005 215.9C89.2005 215.9 89.2005 215.9 89.1005 215.9L88.6005 216C82.6005 216.8 56.9005 225 56.1005 230.5L55.7005 229.2C64.6005 243.1 74.3005 258.4 74.3005 275.6C74.2005 280.6 73.1005 287.4 72.3005 292.3C70.7005 303.1 69.3005 313.9 68.5005 324.8C67.7005 335.5 67.2005 346.6 67.7005 357.3L65.8005 355C79.3005 358.2 93.2005 360.6 107 362.5C146.4 367.2 188.001 369 225.501 354.5C226.701 353.8 228.4 352.9 229.501 353Z" fill="black"/>
<path d="M94.3008 267.6C97.3383 267.6 99.8008 265.138 99.8008 262.1C99.8008 259.063 97.3383 256.6 94.3008 256.6C91.2632 256.6 88.8008 259.063 88.8008 262.1C88.8008 265.138 91.2632 267.6 94.3008 267.6Z" fill="white"/>
<path d="M213.701 269.8C216.131 269.8 218.101 267.831 218.101 265.4C218.101 262.97 216.131 261 213.701 261C211.271 261 209.301 262.97 209.301 265.4C209.301 267.831 211.271 269.8 213.701 269.8Z" fill="white"/>
<path d="M139.2 278.1C151.1 279 163 279.5 174.9 279.2C179.4 279.1 183.8 278.8 188.2 278.3C192.8 277.6 197.7 278.4 201.7 280.9C207.1 284.1 210.7 290 211.3 296.3C211.6 299.3 211.8 302.3 212.1 305.3C212.6 311.3 212.8 317.4 212.7 323.4C212.6 326.5 212.4 329.7 211.9 332.8C210.7 338 206.4 341.7 201.9 344.1C183.5 353.7 153.8 353.4 134 348.1C126.3 345.8 115.7 341.8 115.2 332.2C115.1 331.5 115 329.6 114.9 328.9C114.6 324.4 113.8 315.5 113.5 311.1C113.3 308.4 112.8 304.5 113 301.8C113.3 288.4 125.8 277 139.2 278.1ZM138.9 282.3C126.9 281.6 116.3 291.8 117.2 303.9C117.7 311.2 118.7 321.1 119.3 328.4L119.5 330.6L119.6 331.7C119.7 336 123.4 338.5 127.2 340.4C144.4 348 169.1 347.6 187.3 343.6C194.4 341.8 204.4 338.9 207 331.4C208.7 322.8 209.2 314 209.4 305.2C209.3 299.5 210 293.3 206.8 288.2C203.9 283.2 198.4 280 192.7 279.8C189.8 279.7 186.9 280.5 183.9 280.8C180.9 281.2 177.9 281.5 174.9 281.7C163 282.8 150.9 282.8 138.9 282.3Z" fill="white"/>
<path d="M168.101 245.8C168.101 245.8 149.801 268 144.201 266.3C138.601 264.6 103.801 244.1 98.3008 212.4C98.3008 212.4 102.601 207.4 106.401 205.3C106.401 205.3 117.201 203.4 117.901 204.4C118.601 205.5 110.301 211.1 111.701 213C116.401 219.4 123.901 227.9 135.901 234.9C154.001 245.5 168.101 245.8 168.101 245.8Z" fill="white"/>
<path d="M170.501 244.8C171.201 245.5 170.101 247.9 170.101 247.5C170.001 247.7 169.701 247.9 169.501 248.1C163.201 254.1 157.401 260.4 150.201 265.4C148.201 266.7 145.501 268.3 143.101 267.1C137.001 264.3 131.601 260.3 126.301 256.2C112.601 245.1 100.601 230.4 97.101 212.7C97.001 212.3 97.101 212 97.401 211.7C98.501 210.1 99.701 208.7 100.901 207.2C102.201 205.8 103.701 204.1 105.601 203C107.601 202.5 109.701 202.4 111.801 202.2C114.001 202.1 116.101 201.7 118.301 202.2C118.601 202.3 118.901 202.3 119.501 202.8C121.401 204.6 119.801 206.7 118.401 208C116.801 209.6 115.001 210.9 113.801 212.6C113.501 213 113.801 212.8 113.601 212.2C113.601 212 113.301 211.8 113.501 212C113.601 212.2 114.001 212.7 114.101 212.9C117.901 218.7 122.601 223.8 127.901 228.2C139.101 237 153.201 243.4 167.701 243.4C168.701 243.1 170.001 243.8 170.501 244.8ZM165.801 246.9C166.001 247.6 167.101 248.4 167.801 248.4H167.601L167.201 248.3C145.501 243.7 125.201 232.1 110.901 215.2C110.501 214.6 110.101 214.4 109.701 213.5C109.201 211.6 110.201 210.3 111.201 209.1C112.701 207.2 114.601 205.8 115.901 204C115.501 204.5 115.801 205.7 116.401 206.2C116.801 206.5 116.901 206.5 117.001 206.5C117.101 206.5 116.901 206.5 116.801 206.5C113.501 206.6 110.201 207.3 107.001 207.9L107.801 207.6C104.801 208.8 101.901 211.1 99.401 213.3L99.701 212.3C103.101 235.1 123.901 255.6 144.001 265.2C147.501 266.9 155.901 257.2 158.301 254.6C161.101 251.4 163.801 248 166.201 244.5L166.301 244.4C166.201 243.8 165.101 246.2 165.801 246.9Z" fill="black"/>
<path d="M168.101 245.8C168.101 245.8 182.301 262.4 187.001 262.6C191.701 262.8 193.701 233.6 179.601 218.8C179.601 218.8 169.501 210.4 176.501 219.6C176.501 219.6 183.501 240.9 168.101 245.8Z" fill="white"/>
<path d="M170.601 246.5C171.001 245.8 170.301 244.2 170.101 244.2V244.3C170.001 245.2 170.301 245.9 170.601 246.5C173.901 250.7 177.801 254.5 181.801 257.7C183.401 258.9 185.201 260.5 187.001 260.9C187.001 260.9 187.001 260.9 186.901 260.9C186.801 260.9 186.701 260.9 186.701 260.9C187.501 260 187.801 258.4 188.101 256.9C189.801 244.5 186.701 229.4 178.101 220.1L178.301 220.3C177.001 219.2 175.301 217.9 174.001 217.1C174.001 217.1 174.001 217.2 174.701 217.1C175.301 217 175.901 216.3 175.901 215.7C175.901 215.6 175.901 215.5 175.901 215.4C175.901 215.2 175.901 215.2 175.901 215.2C176.301 216.4 177.301 217.6 177.901 218.8C178.001 224.4 179.901 229.2 178.901 234.9C178.401 240.2 174.801 245.4 169.801 247.7H169.701C170.301 247.7 170.601 247.1 170.601 246.5ZM165.701 245.1C166.101 244.3 167.101 243.5 168.001 243.2C168.801 243 169.701 242.7 170.501 242.3C176.101 239.7 177.401 232.8 177.101 227.1C177.001 224.6 176.701 221.9 175.001 220L175.201 220.5C174.701 218.8 173.701 217.4 173.501 215.6C173.801 213.5 176.601 216.5 177.301 216.9L179.501 218.8C188.701 228.6 193.701 246.7 190.701 260C190.201 262 188.701 264.9 186.101 264.2C183.401 263.5 181.601 261.8 179.701 260.1C177.401 258 175.301 255.7 173.201 253.5L170.001 250.2C169.301 249.5 168.701 248.7 167.901 248.2C167.301 247.9 166.701 247.6 166.101 247.5C166.001 247.5 165.301 245.8 165.701 245.1Z" fill="black"/>
<path d="M166.701 247.5C166.701 247.5 163.901 250.6 164.901 257.4C165.901 264.1 165.701 270.8 165.701 270.8" fill="white"/>
<path d="M168.701 249.2C168.701 249.1 168.701 249.1 168.701 249.2C168.401 249.3 168.201 249.5 168.001 249.7C165.901 252.2 165.901 255.7 166.201 258.8C166.601 263 166.601 266.8 168.301 270.8C169.701 274.2 164.701 276.3 163.201 273C162.901 272.2 163.001 271.4 163.201 270.7C163.601 268.8 163.801 266.9 163.801 264.9C163.901 259.7 161.901 254.6 163.301 249.4C163.601 248.1 164.101 246.9 164.901 245.8C167.101 243.3 170.801 246.6 168.701 249.2Z" fill="black"/>
<path d="M171.901 262.5C173.171 262.5 174.201 261.471 174.201 260.2C174.201 258.93 173.171 257.9 171.901 257.9C170.63 257.9 169.601 258.93 169.601 260.2C169.601 261.471 170.63 262.5 171.901 262.5Z" fill="black"/>
<path d="M106.2 202.8C107.2 204.1 107.9 204.2 108.7 204.1L111 203.9C123.5 203.2 136 202.1 148.5 203.6C156.4 204.5 164.1 207.4 170.7 212C173.3 214 176 216.2 177.1 219.4C177.2 219.7 177 220.1 176.6 220.2C176.2 220.3 175.9 220.1 175.8 219.8C174.3 217.4 171.6 215.7 169.2 214.3C164 211.4 158.3 209.1 152.4 207.8C140.4 205.3 128 205 115.7 205.7C113.5 205.8 111 206.1 108.8 206.3C108 206.3 107.3 206.5 106.7 208C103.4 208.2 102.8 203.3 106.2 202.8Z" fill="black"/>
</svg>
