<svg width="306" height="344" viewBox="0 0 306 344" fill="none" xmlns="http://www.w3.org/2000/svg">
<path d="M269.3 340.4H16.4004C16.4004 340.4 31.3004 309 37.9004 273.2C42.5004 248.4 45.9004 233.9 58.8004 225.9C67.9004 220.3 93.5004 212.2 111.7 209.6C119.1 208.6 133.8 207.5 146.5 208.5C156.1 209.7 175.9 215.3 183.5 217.4C194.9 220.6 219.6 230.1 230.5 240.1C234.8 244.1 245 264.1 251.6 293.1C259.2 326.1 269.3 340.4 269.3 340.4Z" fill="white"/>
<path d="M271.6 341.6C196.3 342.2 90.7001 343.6 16.5001 343.5C14.3001 343.6 12.7001 341.1 13.7001 339.1C15.5001 335.3 17.2001 331.4 18.8001 327.4C26.0001 309.6 32.1001 291.3 35.8001 272.5C38.8001 257.8 41.2001 241.4 52.3001 230.3C55.4001 227.2 59.2001 224.8 63.1001 223C71.0001 219.4 79.1001 216.4 87.3001 213.8C103.8 208.4 121.3 206.1 138.7 206.4C147.4 206.4 156.2 207.8 164.7 209.8C168.4 210.5 173.6 212.1 177.2 213.1L180.3 214C180.9 214.3 181.1 215.5 181.4 216.1C181.6 216.5 181.8 216.6 182.1 216.7C182.6 216.8 183.4 216.1 183.9 216.3C194 219.3 203.7 223.7 213 228.6C219.6 232.3 226.4 235.9 231.8 241.3C236.5 247.3 240.3 254 243.8 260.8C252.3 278.3 254.7 298.1 261.2 316.2C263.6 323.1 266.4 330 269.8 336.5L270.5 337.8L270.9 338.5L271.1 338.8L271.2 339C271.8 339.4 272 340.9 271.6 341.6ZM267 339.2C266.5 339.8 266.6 341.1 267 341.6L266.9 341.4L266.7 341L266.3 340.3C262.2 333.1 259.3 325.4 256.7 317.6C249.9 297.2 247.7 275.4 238.1 256C235.7 251.1 233.3 246.1 229.7 242C227.6 240.1 225.3 238.5 222.9 237C212.1 230.4 200 225.9 188.1 221.6C187.1 221.2 184.6 220.4 183.6 220.1C182.8 219.9 182.5 219.8 182.3 218.8C182.1 218 181.9 217 181 217.4C180.5 217.6 179.6 218.8 179 218.7C177 218.2 171.7 216.8 169.7 216.3C162 214.3 154.4 211.8 146.6 210.3C122.6 208.2 98.6001 212.4 75.7001 219.5C67.8 222.2 59.1001 224.7 53.4001 231.2C43.5001 243.5 41.8001 264.2 38.7001 279.5C34.4001 300.8 27.9001 321.5 19.2001 341.6L16.4001 337.2C88.8001 337.5 193.6 338.4 267 339.2Z" fill="black"/>
<path d="M108.6 219.7C105.5 220 102.2 220.7 99.3998 222.3C99.0998 222.5 98.6998 222 98.9998 221.8C101.6 219.5 104.9 218.2 108.1 217.2C108.8 217 109.5 217.4 109.6 218.1C109.9 218.9 109.4 219.7 108.6 219.7Z" fill="black"/>
<path d="M116.6 232.5C113 233.3 109.5 235 106.6 237.4C104.3 237.8 110.1 233.1 110.5 232.9C112.2 231.7 113.9 230.8 115.9 230C116.5 229.8 117.3 230.1 117.5 230.7C117.9 231.6 117.4 232.4 116.6 232.5Z" fill="black"/>
<path d="M129.499 245.3C126.599 247.6 124.099 250.7 122.499 254.1C122.399 254.3 122.099 254.4 121.899 254.3C121.699 254.2 121.599 254 121.699 253.8C122.299 251.9 123.099 250 124.199 248.3C125.299 246.5 126.499 244.9 127.899 243.4C128.399 242.9 129.199 242.9 129.699 243.4C130.199 243.9 130.199 244.9 129.499 245.3Z" fill="black"/>
<path d="M151.1 255.2C149.4 258.8 148.1 262.7 147.9 266.7C147.9 267.4 146.7 267.4 146.7 266.7C146.5 263.5 147 260.3 147.9 257.3C148.4 256.1 148.5 252.9 150.5 253.5C151.1 253.7 151.4 254.5 151.1 255.2Z" fill="black"/>
<path d="M173.999 255.6C174.599 257 179.199 268.2 176.999 268.3C176.699 268.3 176.399 268.1 176.399 267.8C176.299 266.8 175.999 265.9 175.599 264.9C174.599 262.1 173.199 259.3 171.699 256.7C170.999 255.2 173.299 254 173.999 255.6Z" fill="black"/>
<path d="M183.5 233.5C187.2 234.2 190.3 236.4 192.6 239.2C192.7 239.3 192.7 239.6 192.6 239.7C192.5 239.8 192.3 239.8 192.1 239.7C189.7 237.6 186.5 236.1 183.3 236C181.4 235.9 181.7 233.2 183.5 233.5Z" fill="black"/>
<path d="M179.9 221.8C183 222.6 185.9 223.9 188.2 226.1C188.4 226.3 188.4 226.6 188.2 226.8C188 227 187.8 227 187.6 226.9C185.2 225.3 182.3 224.5 179.5 224.3C177.7 224.1 178.1 221.4 179.9 221.8Z" fill="black"/>
<path d="M183.5 247.6C186.3 249.9 189.1 252.3 190.9 255.5C191 255.6 190.9 255.8 190.8 255.9C190.7 256 190.5 255.9 190.4 255.8C188.2 253.1 185.2 251.3 182.2 249.6C180.6 248.8 182 246.5 183.5 247.6Z" fill="black"/>
</svg>
