<svg width="306" height="344" viewBox="0 0 306 344" fill="none" xmlns="http://www.w3.org/2000/svg">
<path d="M269.3 340.401H16.4004C16.4004 340.401 31.3004 309.001 37.9004 273.201C42.5004 248.401 45.9004 233.901 58.8004 225.901C67.9004 220.301 87.4004 214.501 95.8004 211.501C101.5 209.501 102.7 211.201 106.8 210.101C106.8 210.601 106.9 211.001 106.9 211.501C106.9 211.501 117.7 243.601 145.8 255.001C168.7 264.301 182.3 258.101 184.4 247.801C185.7 241.201 181.6 230.401 179.5 226.901C178.3 225.901 177.5 224.401 177.1 222.901L176.3 219.601C178.2 219.201 180 218.701 181.8 218.101C182.4 217.901 182.9 217.701 183.5 217.501C195 220.501 219.6 230.201 230.5 240.201C234.8 244.201 245 264.201 251.6 293.201C259.2 326.101 269.3 340.401 269.3 340.401Z" fill="black"/>
<path d="M271.6 341.6C196.3 342.1 90.6 343.3 16.5 343C14.7 343 13.4 341 14.2 339.4C23.1 319.8 30.1 298.9 34.6 277.8C35.1 275.1 36.2 269.8 36.7 267.1C39 256.1 40.8 245.2 46.7 235.1C48.7 231.8 51.3 228.7 54.4 226.2C57.4 223.8 60.9 222 64.4 220.4C75.6 215.6 86.9 211.8 98.4 208.3C101.1 207.7 103.8 208.4 106.4 207.8C107.9 207.4 109.5 208.5 109.6 210.1L109.7 211.5L107 209C108.1 209 109.1 209.7 109.4 210.7C110.2 213 111.3 215.4 112.4 217.7C115.8 224.6 120 231.1 125.1 236.8C131.8 244.4 140.2 250.4 149.8 253.8C159.5 257.4 176.8 260.5 181.6 248.9C182.4 246.8 182.3 244.6 182 242.3C181.3 237.6 179.7 232.6 177.4 228.4L177.9 229C176.3 226.9 175.7 224.4 175.9 222V219.9V219.6C175.9 219.4 176.1 219.2 176.3 219.2C177.5 218.8 178.6 218.3 179.8 217.9C180.9 217.4 182 216.9 183.1 216.3C183.4 216.1 183.7 216.2 184 216.3C190.6 218 196.9 220.3 203.2 222.9C212.6 226.8 221.9 231.2 230 237.5C232.9 239.6 235 242.7 236.7 245.8C240.1 251.8 242.8 258 245.2 264.3C249.4 275.3 252.5 286.7 255.2 298.2C258.6 310.9 262.7 323.5 269 335.1C269.7 336.3 270.4 337.5 271.1 338.7L271.3 338.9V339C271.9 339.5 272 340.9 271.6 341.6ZM267 339.2C266.5 339.7 266.6 341.1 267 341.6V341.5L266.8 341.2C259.8 329.7 255.4 316.8 251.8 303.9C250 297.6 248.7 290.8 246.9 284.4C243.4 271.8 239.1 259.1 232.8 247.6C231.7 245.7 230.5 243.6 229 242.1C226.1 239.4 222.7 237.2 219.3 235.1C213.7 231.8 207.7 228.9 201.6 226.4C195.5 223.9 189.3 221.6 183 219.9L184.5 219.8C181.8 220 179.2 220.1 176.6 220L177 219.4C177.6 220.4 178.3 222.1 178.9 223C179.6 223.9 180.4 224.6 181.3 225C181.5 225.2 181.7 225.4 181.8 225.6C185.4 232.5 189 242.8 186.4 250.5C180.4 265.6 160.3 263.2 148 258.5C137.7 255 128.4 248.3 121.2 240.1C114 231.9 108.3 222.5 104.5 212.3L106.9 214C105.5 214 104.4 213 104.3 211.6L104.2 210.3L107.4 212.6C106.4 212.9 105.2 213 104.1 213.1C101.3 213 99.4 212.9 96.8 213.9C93.4 215.1 89.9 216.3 86.4 217.4C79.5 219.7 72.7 222.1 66.2 225C51.4 230.9 47.1 242.7 43.7 257.4C42.1 264.2 40.8 271.9 39.4 278.8C34.8 300.4 27.8 321.3 18.7 341.5L16.4 337.8C88.9 337.8 193.5 338.5 267 339.2Z" fill="black"/>
<path d="M137.2 265.5C102.7 250 89.3001 222.3 91.9001 214.8C91.9001 214.8 91.9001 214.7 92.0001 214.6C93.8001 210.9 96.7001 207.9 100.3 205.8C102.3 204.6 104.5 203.5 106.3 202.9C133.6 196.1 169.8 207.6 182 218.1C186.4 223.4 190.9 228.7 192.6 242.7C195 262.9 172.9 281.6 137.2 265.5Z" fill="white"/>
<path d="M136.7 266.6C119.4 258.8 103.2 246.6 94 229.7C92.2 226.2 90.6 222.6 90.1 218.5C90 217.1 89.9 215.4 90.6 214C92.7 209.8 96.5 206.5 100.7 204.5C103.9 202.8 107.4 201.6 110.9 200.5C115.9 199.6 120.9 199.3 126 199.4C142.7 199.9 159.3 204.3 174.1 212C175.2 212.6 176.3 213.2 177.4 213.9C177.8 214.1 178.1 214.4 178.6 214.3C179.1 214.2 179.5 214.4 179.9 214.6C181.1 215.3 182.1 216.2 183.2 217.2C185.9 220.5 188.6 224 190.4 228C192.2 232 193.2 236.3 193.8 240.5C195.4 249.1 192.5 258.7 185.8 264.6C172.2 276.8 151.8 273.5 136.7 266.6ZM137.6 264.5C148.8 269.4 161.6 272.5 173.5 268.7C183.1 265.8 191 257.1 191.3 246.9C191.4 240.9 190 234.6 187.6 229.1C186.3 225.7 182.7 221.4 180.9 219.2C179.8 218.3 178.6 217.6 177.6 216.7C177.5 216.5 177.4 216.3 177.3 216.1C177.1 215.6 176.7 215.5 176.4 215.2C175.4 214.6 174.3 214 173.2 213.4C164.5 208.9 154.9 206.3 145.3 204.4C134.1 202.3 122.6 201.7 111.3 203.3C109.7 203.5 108 203.3 106.4 203.7C105.2 204.2 103 205.2 101.6 206.2C98 208.3 95.3 211.4 93.4 215.1L93.3 215.2C93.3 215.3 93.2 215.5 93.2 215.6C92.7 219.8 94.7 224.1 96.6 228C98.3 231.2 100.3 234.3 102.6 237.3C111.8 249.2 124.1 258.4 137.6 264.5Z" fill="black"/>
</svg>
