<svg width="306" height="359" viewBox="0 0 306 359" fill="none" xmlns="http://www.w3.org/2000/svg">
<path d="M89.1006 210.6C89.1006 210.6 103.701 204.8 106.401 204.6L106.601 206.9C106.601 206.9 95.0006 211.9 94.3006 212.7C93.7006 213.4 89.1006 210.6 89.1006 210.6Z" fill="#7E5D6D"/>
<path d="M269.3 340.4H16.4004C16.4004 340.4 17.9004 294 33.1004 260.9C44.6004 235.9 72.2004 219.4 92.3004 212.2C98.0004 210.2 102.4 208 106.5 206.9C106.5 207.4 106.8 211.1 106.8 211.5C106.8 211.5 118.5 194.1 154.2 196C170.7 196.9 183.9 201.4 183.9 201.4C185.8 201 183.1 210.8 184.8 210.3C185.4 210.1 186.6 216.1 187.1 215.9C200 219.3 215.8 228.9 238.7 248.1C264.7 269.9 269.3 340.4 269.3 340.4Z" fill="black"/>
<path d="M220.6 238.7C227.062 238.7 232.3 233.462 232.3 227C232.3 220.538 227.062 215.3 220.6 215.3C214.139 215.3 208.9 220.538 208.9 227C208.9 233.462 214.139 238.7 220.6 238.7Z" fill="#FFFF8D"/>
<path d="M65.9004 340.4L61.4004 303.3" stroke="#544D4D" stroke-width="3" stroke-miterlimit="10" stroke-linecap="round" stroke-linejoin="round"/>
<path d="M240.6 290.7C240.6 290.7 237.6 298 238.5 305.3C239.4 312.6 242 323.3 238.3 340.4" stroke="#544D4D" stroke-width="3" stroke-miterlimit="10" stroke-linecap="round" stroke-linejoin="round"/>
<path d="M89.0998 210.601C90.9998 210.001 94.2998 210.601 95.2998 212.301C99.1998 218.701 108.6 237.401 112.5 274.501C115.6 303.501 110.9 355.701 110.9 355.701L13.7998 351.101C13.7998 351.101 16.6998 301.801 25.1998 268.701C33.5998 236.601 55.3998 222.201 89.0998 210.601Z" fill="white"/>
<path d="M88.4002 208.5C91.7002 207.6 95.7002 208.4 97.5002 211.5C102.9 220.6 106.3 230.8 109 241C112.2 253.5 114.3 266.3 115.4 279.1C117 304.8 115.5 330.3 113.5 356C113.4 357.4 112.2 358.4 110.8 358.3L13.7002 353.7C12.3002 353.7 11.2002 352.5 11.2002 351C12.2002 336.4 13.7002 322 15.6002 307.5C17.7002 293 19.9002 278.6 24.0002 264.5C33.5002 233 59.1002 218.5 88.4002 208.5ZM89.9002 212.8C76.4002 217.4 61.7002 220.7 50.5002 230.1C45.1002 234.7 41.1002 240.9 37.3002 246.8C29.4002 258.7 26.6002 272.9 24.2002 286.9C20.5002 308.2 18.3002 329.8 16.5002 351.3C16.5002 351.3 14.0002 348.6 14.1002 348.6L111.2 353.2L108.5 355.5C109.3 342.8 110.1 330.1 110.5 317.4C111.8 286 110.1 253.8 98.7002 224.3C97.2002 220.6 95.6002 217 93.5002 213.6C92.7002 212.8 90.8002 212.5 89.9002 212.8Z" fill="black"/>
<path d="M189.7 216.7C189.7 216.7 220.6 274.8 211.6 352.4H278.3C278.3 352.4 278 290.8 263 257.3C248 223.9 195.5 214.1 195.5 214.1C195.5 214.1 192.2 215.8 189.7 216.7Z" fill="white"/>
<path d="M192.1 217.6C192.4 217.3 192.5 216.7 192.4 216.3V216.2C192.9 217.3 193.5 218.4 194 219.5C208.4 251.6 215.4 286.9 215.8 322C215.9 325.2 215.6 332 215.5 335.2C215.4 340.4 214.5 347.5 214.2 352.7L211.7 349.8H278.4L275.8 352.4C275.8 345 275.4 337.5 275 330.1C273.3 305 269.6 261.5 252.1 242.9C238.5 228.3 214.5 219.5 195.1 216.6L196.7 216.4C195.3 217.1 193.7 217.8 192.3 218.4L191.5 218.7L191.3 218.8C191.6 218.7 192 218.1 192.1 217.6ZM187.3 215.8C187.7 215.1 188.6 214.3 189.5 214L190.2 213.7C191.6 213.1 193.1 212.4 194.5 211.7C195 211.5 195.5 211.4 196 211.6C199.8 212.7 203.4 213.8 207 215C210.6 216.3 214.1 217.6 217.6 219.1C228 223.6 238.2 228.9 246.9 236.1C253.9 241.8 260.9 248.1 264.8 256.5C271.9 272.6 275.2 290 277.6 307.3C279.7 322.3 280.7 337.3 280.9 352.4C280.9 353.8 279.8 355 278.3 355H211.6C210.1 355 208.9 353.6 209.1 352.1C209.5 346.9 210.3 340 210.4 334.9C210.5 331.8 210.8 325 210.7 322C210.5 291.9 204.9 261.7 194.3 233.5C192.4 228.5 190.3 223.5 188 218.8C187.4 218 187.1 216.7 187.3 215.8Z" fill="black"/>
<path d="M189.7 216.7L187.3 216C187.3 216 190.8 214.3 192.3 213.3L193.2 212.8C193.2 212.8 198 215 199.7 215.8C201.4 216.6 193.8 220.3 193.8 220.3C193.8 220.3 190 216.8 189.7 216.7Z" fill="#7E5D6D"/>
<path d="M80.8003 244.9C80.8003 244.9 67.0003 254.6 68.3003 264.9C69.6003 275.2 112.1 339.7 112.1 339.7C112.1 339.7 117.1 304.7 111.4 265.1C111.4 265.1 107.3 259.6 99.8003 254.1C94.8003 250.6 88.5003 247 80.8003 244.9Z" fill="white"/>
<path d="M81.3004 247.5C81.6004 247.5 81.9004 247.3 82.2004 247.1L82.0004 247.2C76.3004 250.8 69.3004 257.3 69.8004 264.6C70.4004 267.7 72.1004 270.8 73.6004 273.7C76.8004 279.8 80.3004 285.8 83.9004 291.8C91.1004 303.7 98.7004 315.4 106.5 326.9L114.4 338.4L109.7 339.4C110.5 333.4 111 327.2 111.3 321C112.3 302.5 111.6 283.9 109 265.6L109.5 266.8C105.8 262.2 101.2 258.2 96.4004 254.9C91.9004 251.9 87.1004 249.5 81.9004 247.9L81.7004 247.8C81.4004 247.7 81.4004 247.6 81.3004 247.5ZM80.4004 242.4C81.3004 242.5 82.4004 242.7 83.3004 243C92.0004 245.7 100 250.5 106.8 256.6C109.3 258.8 111.4 261 113.6 263.7C113.9 264 114 264.4 114.1 264.8C116.7 283.5 117.4 302.4 116.5 321.3C116.2 327.6 115.7 333.8 114.9 340.2C114.7 342.6 111.4 343.3 110.2 341.2C103.5 330 95.3004 316.5 88.7004 305.3C84.5004 298.1 78.6004 288.3 74.7004 281.1C72.5004 277 70.2004 272.9 68.5004 268.5C67.8004 266.9 67.4004 264.9 67.4004 263C68.1004 255 73.9004 248.8 79.2004 243.2C79.3004 242.8 79.9004 242.5 80.4004 242.4Z" fill="black"/>
<path d="M242.3 265C242.7 258.6 227.9 248.2 227.9 248.2C222 249.9 217.8 252.6 214.8 255.5C208.1 261.8 207.2 268.9 207.2 268.9L207.6 270.7C214.7 301.6 212.6 341.8 212.6 341.8C212.6 341.8 241.9 271.4 242.3 265Z" fill="white"/>
<path d="M241.1 264.9C240.6 259 231.3 252.9 226.4 250.3L228.6 250.7C219.6 253.2 211.6 259.9 209.7 269.3L209.6 268.3C211 274.3 212.2 280.5 212.9 286.6C215.3 305 215.8 323.4 215.1 341.9C215.1 342 210.2 340.8 210.2 340.8C215.3 330.1 222 314.2 226.7 303.1C229.4 296.8 231.9 290.4 234.4 284C236.8 277.7 239.6 271.4 241.1 264.9ZM242.9 265C242.3 268.5 241 271.7 239.9 275C236.5 284.7 232.6 294.3 229.1 304C225.8 312.8 219.7 329.1 216.6 337.8L214.9 342.7C213.9 345.5 209.7 344.6 210 341.6C210.7 323.5 210.2 305.2 207.8 287.2C207.1 281.2 205.9 275.3 204.6 269.5C204.4 268.4 204.8 267.3 205.1 266.3C208 256.1 217.2 248.5 227.2 245.8C228 245.5 228.8 245.7 229.4 246.2C231.7 248.8 235.2 252.2 237.4 254.9C239.7 257.7 242.9 260.9 242.9 265Z" fill="black"/>
<path d="M207.201 268.3C207.201 268.3 200.501 242.3 197.201 234C193.901 225.8 187.701 216.5 187.401 216C166.301 196.1 127.701 196.1 135.201 188.7C143.501 180.5 177.901 186.1 190.401 192.3C201.601 198.2 249.001 225.7 250.601 234.9C252.201 245.1 213.401 244.5 207.201 268.3Z" fill="white"/>
<path d="M207.2 270.9C206.1 270.8 204.9 269.8 204.6 268.7V268.6L204.5 268.2L204.3 267.4L203.9 265.7C201.3 255.7 198.8 245.2 195.4 235.5C193 229.1 189.5 223.1 185.8 217.2L186.1 217.5C182.5 214 178.2 211.2 173.8 208.7C164.7 203.8 154.8 200.7 144.9 197.8C141.5 196.5 133.2 195.1 132.7 190.9C132.7 186.5 139.5 184.6 142.7 184C155.9 182 169.4 184.4 182.1 187.9C185.3 188.9 188.5 190 191.5 191.5C192.6 192.1 195.6 193.8 196.7 194.4C205.8 199.6 214.7 205.1 223.5 210.9C232.3 216.7 241.2 222.3 248.6 230C254.6 236.2 251 240.2 244.4 243.1C235 247.3 224.7 250.2 217.1 257.1C214.4 259.6 212.2 262.5 210.9 265.8C210.4 266.9 210.4 267.4 209.9 268.7C209.4 269.5 208.1 270.6 207.2 270.9ZM207.2 265.8C206.6 265.4 205.5 265.8 205.2 266.3C205 266.7 205.2 266.3 205.3 266.2C205.6 265.4 206 264.5 206.4 263.7C213.6 249.8 230.1 246.3 243.3 240.8C248.4 238.5 252.2 236.5 246.9 231.2C239.6 223.8 230.6 218.4 221.9 212.9C213 207.5 203.9 202.4 194.7 197.5L191.3 195.7C183.5 191.5 174.7 189.7 166 188.3C158.4 187.3 142.4 185.5 136.8 190.9C136.8 190.9 136.9 190.7 136.9 190.4C136.9 190.1 136.8 190 136.8 189.9C136.8 189.9 137.1 190.2 137.5 190.4C140.1 191.8 143.1 192.6 146.1 193.5C156.2 196.5 166.5 199.6 175.9 204.7C180.8 207.4 185.6 210.5 189.6 214.6C193.5 220.6 197.2 226.9 199.9 233.6C203.5 243.6 206.1 254 208.9 264.2L209.3 265.9L209.5 266.8L209.6 267.2V267.3C209.4 266.4 208.1 265.6 207.2 265.8Z" fill="black"/>
<path d="M111.401 265.2C111.401 265.2 104.401 257.8 96.0007 252.6C77.4007 241.1 50.1007 235.8 49.8007 226.9C49.6007 216.9 82.8007 196 104.801 188.9C137.901 179.7 142.201 190.6 142.601 195.2C142.801 197.4 106.701 209 106.901 211.3V211.4C106.901 211.4 102.301 212.9 105.601 235.8C106.401 241.5 109.901 251.3 111.401 265.2Z" fill="white"/>
<path d="M112.5 267.5C111.6 267.9 110.1 267.6 109.4 266.8L109.3 266.6L109 266.3C108.7 265.9 107.6 264.8 107.2 264.5C104.8 262.1 102.2 259.7 99.6005 257.6C92.4005 251.8 83.9005 248 75.5005 244.2C69.0005 241.4 62.3005 238.9 56.1005 235.4C46.4005 230 46.9005 224.6 54.2005 217C64.4005 207 76.6005 199.3 89.4005 193C94.2005 190.7 99.2005 188.6 104.3 187C115.4 184 141.4 178.2 144.2 194.6C144.2 194.9 144.3 195.1 144.2 195.5C144.1 195.9 143.9 196.1 143.8 196.3C142.6 197.5 141 198.1 139.6 198.7C133.1 201.4 126.4 203.6 119.7 205.9C115.6 207.4 111.3 208.6 107.5 210.7C107.3 210.9 107 211.1 107.1 211.4C105.3 212.9 105.4 215.6 105.1 217.7C104.9 224.4 106 231.4 107.5 237.9C109.3 244.4 111.5 251.2 112.8 257.9C113.2 260 113.8 261.9 113.7 264C113.5 265.3 113 266.6 112.5 267.5ZM110.3 262.9C109.8 262.5 108.9 262.6 108.5 263C108 259.4 107.4 255.8 106.6 252.2C105.2 245.6 103 238.7 102.4 231.8L102.1 228.3C101.8 223.2 101 213.8 104.8 209.9C105.1 209.7 105.1 209.5 106.1 209.1L104.3 211.5C104.2 211 104.7 209.8 104.9 209.6C105.5 208.8 106 208.6 106.7 208.1C110.4 206 114.4 204.6 118.3 203C122.7 201.3 133.6 197.1 137.8 195.3C138.7 194.9 139.9 194.4 140.6 193.9C140.4 194.2 140.3 194.2 140.1 194.9C140 195.1 140.1 196 140 195.5C138.6 186.3 124.2 187.9 117.2 188.9C103.5 191.1 90.8005 196.5 78.6005 203.1C70.6005 207.6 62.5005 212.4 55.9005 218.9C53.7005 221.2 51.2005 223.8 51.0005 226.9C51.5005 231.4 59.7005 234.4 63.5005 236.3C72.1005 240 81.0005 243.1 89.5005 247.1C97.1005 250.6 104.2 255.4 110.5 260.9C111.2 261.5 112.4 262.6 113 263.2C112.9 263 112.2 262.6 111.6 262.5C111.2 262.6 110.7 262.7 110.3 262.9Z" fill="black"/>
</svg>
