<svg width="306" height="343" viewBox="0 0 306 343" fill="none" xmlns="http://www.w3.org/2000/svg">
<path d="M116.5 220.8C116.5 220.8 114.5 208.4 111.1 209.1C103 211 76.8004 216.5 60.8004 225.1C57.3004 227 54.8004 228.5 51.8004 231.3C46.3004 236.5 42.5004 250 37.9004 266.4C28.1004 301.5 16.4004 340.3 16.4004 340.3H269.3C269.3 340.3 253.5 321.4 248.5 288C243.8 256.6 234.5 245.3 232.9 243.3C228.5 237.8 208.3 226.7 198.5 222.5C183.5 216.1 168.4 229.5 164.1 229.2C156.5 229 116.5 220.8 116.5 220.8Z" fill="black" stroke="black" stroke-width="5.1257" stroke-miterlimit="10" stroke-linecap="round" stroke-linejoin="round"/>
<path d="M65.9004 340.4L61.4004 303.3" stroke="white" stroke-width="3" stroke-miterlimit="10" stroke-linecap="round" stroke-linejoin="round"/>
<path d="M240.601 290.7C240.601 290.7 237.601 298 238.501 305.3C239.401 312.6 242.001 323.3 238.301 340.4" stroke="white" stroke-width="3" stroke-miterlimit="10" stroke-linecap="round" stroke-linejoin="round"/>
<path d="M104.9 199C104.9 199 97.7001 201.6 96.4001 203C95.1001 204.4 94.5001 205.3 94.5001 205.3C94.5001 205.3 90.9001 209.3 88.9001 219C88.0001 223.1 90.1001 229.8 88.5001 235.1C83.9001 249.8 105.7 272.4 141.7 285.7C169 295.8 199.1 286.6 203.3 267.6C207.3 249.3 204.9 241 203 235.1C199.2 223.7 198 220.5 192.9 216.1C189.7 213.3 187.5 219.1 175.5 222.4C171.8 223.4 167.3 224.2 161.5 224.4C127 225.7 126.2 204.8 121 199.3C119.8 198.1 113 196.1 104.9 199Z" fill="white"/>
<path d="M105.5 200.4C102.9 201.4 99.9 202.4 97.6 204C97 204.6 96.3 205.5 95.7 206.2C93.7 208.8 92.4 212.1 91.4 215.2C90.3 218.5 89.9 221.5 90.3 225C90.5 228.1 90.8 231.5 90.1 234.6C88.9 238.1 89.2 241.8 90.6 245.3C98.6 265.9 136.9 285.8 158.2 287.8C173.8 289.4 195.5 285.1 201.4 268.8C204.4 257.2 205.6 244.6 201.2 233.3C199.5 228.5 198.1 223.2 194.9 219.3C194.4 218.7 193.8 218.1 193.2 217.5L192.3 216.7C192 216.5 191.8 216.3 191.5 216.3C190.2 216.1 188.6 217.4 187.4 218.1C178.4 224 167.2 225.5 156.6 225.1C146 224.9 134.6 221.7 128 212.9C124.7 209 123.2 204 120.2 200.1L120.1 200L119.9 199.9C115.3 198 109.9 198.7 105.5 200.4ZM104.7 198.2C109.9 196.3 116.4 195.3 121.4 198.1C122.7 199.3 123.5 201.1 124.3 202.7C125.8 205.9 127.2 209 129.2 211.8C135.1 220.7 146.3 223.6 156.5 223.6C163.4 223.7 170.5 223.1 177 220.9C180.3 219.8 183.4 218.3 186.3 216.4C188.3 215.1 191.1 213.1 193.3 215.2C195.8 217.2 197.9 219.8 199.3 222.6C201.6 227.5 203.2 232.5 204.9 237.6C207.9 248.1 206.5 259.1 204.1 269.5C197.9 287.7 175 292.4 158 290.6C137.2 288.4 106.5 272.1 93.7 255.5C89.4 249.8 85.5 242.6 87.4 235.2C88.5 232 88.2 228.6 87.9 225.1C87.4 221.6 87.9 217.8 89.1 214.4C90.1 211 91.8 207.2 93.8 204.7C94.8 203.4 96 201.9 97.4 201.2C99.7 200 102.1 198.9 104.7 198.2Z" fill="black"/>
<path d="M175.701 223.8C167.101 225.7 158.301 225.7 149.601 225C138.001 224 126.201 220.2 117.901 211.7C115.801 209.7 113.901 207.3 112.001 205.4C111.401 204.8 111.401 203.8 112.001 203.2C112.601 202.6 113.701 202.6 114.201 203.3C116.101 205.7 117.701 207.9 119.601 210C129.201 220.8 144.301 223.9 158.201 223.5C163.801 223.3 169.501 222.8 174.901 221C176.901 220.3 177.801 223.3 175.701 223.8Z" fill="black"/>
<path d="M193.601 212.5C202.701 220.1 218.501 240 214.701 284.5C212.801 306.5 223.501 315.6 221.101 319.1C220.701 319.7 220.201 320 219.801 320.1C218.101 320.5 216.501 321.3 215.701 322.9C215.401 323.6 214.901 324.1 214.201 324.5C213.601 324.9 212.901 324.9 212.301 324.8C210.201 324.3 207.901 325.5 206.601 327.3C206.101 328 205.501 328.5 204.601 328.7C204.001 328.9 203.401 328.8 203.001 328.7C201.301 328.2 199.401 328.7 197.901 329.9C197.501 330.2 197.101 330.4 196.601 330.4C195.701 330.4 195.001 330 194.401 329.4C193.001 328.1 191.001 327.6 189.001 328.3C188.801 328.4 188.701 328.4 188.501 328.4C187.101 328.6 186.001 327.5 185.201 325.6C184.401 323.8 182.501 323 180.501 323.2C180.101 323.2 179.701 323.2 179.201 323.1C175.301 322.2 170.301 316.8 170.201 310.2C170.101 303.7 171.601 292.4 174.101 287.1C181.801 270.8 184.601 259.1 185.001 250.3C185.801 234.2 175.601 219.8 176.601 219.5C186.801 217.4 193.601 212.5 193.601 212.5Z" fill="white"/>
<path d="M193.601 211C196.201 212.4 198.301 215 200.301 217.2C210.601 229.5 214.901 245.6 216.101 261.4C216.501 267.5 216.601 273.7 216.101 279.8L215.801 284.4C215.101 291.8 215.801 299.4 218.301 306.4C219.301 309.2 220.501 311.9 221.701 314.8C222.401 316.4 222.901 318.8 221.401 320.2C220.901 320.9 219.801 321.1 218.901 321.4C218.001 321.7 217.201 322.2 216.701 323C215.901 324.7 214.101 326.2 212.101 325.8C210.601 325.4 209.001 326.1 207.901 327.2C206.801 328.7 205.301 330 203.301 329.7C202.001 329.4 200.701 329.2 199.401 329.9C198.901 330.1 198.501 330.5 198.101 330.8C196.901 331.5 195.401 331.3 194.301 330.6C193.501 330.1 193.301 329.6 192.601 329.3C191.601 328.8 190.301 328.7 189.201 329.1C186.701 329.9 184.901 327.7 184.101 325.7C183.401 324.2 181.501 323.9 180.001 324.1C178.901 324.1 177.801 323.7 176.801 323.2C172.501 320.8 169.701 316.3 169.101 311.4C168.801 306.7 169.401 302.1 170.101 297.5C170.601 294.5 171.301 291.4 172.301 288.5C173.401 285.6 174.801 283 176.001 280.1C180.501 269.1 184.701 257.2 183.901 245.1C183.101 236.8 180.001 229 176.101 221.7C175.701 220.8 174.701 219.2 176.101 218.7C181.601 217.4 186.901 215.1 191.601 211.9C192.401 211.6 192.901 211 193.601 211ZM193.501 214C193.701 214 193.901 214 194.101 213.9C194.401 213.7 194.201 213.8 194.201 213.8C191.501 215.3 188.701 216.6 185.801 217.7C183.001 218.7 179.001 219.9 176.701 220.3C176.901 220.2 177.101 220 177.101 219.7C177.301 220.5 178.301 222.3 178.601 223.1C189.701 245.2 188.001 258.9 178.601 281.2C177.501 283.9 176.001 286.7 174.901 289.5C172.801 295.7 171.901 302.5 171.701 309.1C171.401 314.2 174.601 320.2 179.601 321.6C179.801 321.6 179.901 321.6 180.101 321.6C181.701 321.5 183.301 321.8 184.601 322.8C185.301 323.3 185.901 324.1 186.301 325C186.701 325.9 187.201 327.1 188.201 326.9C190.401 326.2 192.901 326.5 194.701 328.1C195.401 328.8 195.901 329.2 196.801 328.9C198.001 328 199.401 327.3 201.001 327.2C202.301 327 203.601 328 204.801 327.2C205.401 326.8 205.701 326.2 206.201 325.7C207.701 324.2 209.901 323.2 212.101 323.7C213.501 324.1 214.301 323 214.801 321.9C215.801 320.4 217.501 319.6 219.201 319.2C220.701 318.6 220.001 316.9 219.601 315.6C218.501 312.9 217.201 310 216.201 307.1C215.201 304.2 214.401 301.2 214.001 298.1C213.001 292.1 213.501 285.8 213.901 279.7C214.301 273.7 214.201 267.6 213.801 261.6C212.501 246.1 207.901 230 197.201 218.3C196.301 217.2 195.101 216.2 194.101 215.2C194.001 214.8 193.801 214.5 193.501 214Z" fill="black"/>
<path d="M179.1 276.8C161.4 277.5 142.6 274.5 128.2 263.7C127.6 263.3 128.3 262.3 128.9 262.8C139.6 270.4 152.8 273.4 165.8 274.1C170.1 274.3 174.6 274.3 178.8 273.9C180.9 273.7 181.2 276.6 179.1 276.8Z" fill="black"/>
<path d="M187.601 222.3C192.101 227 194.501 233.6 194.201 240.1C194.201 240.4 193.701 240.5 193.601 240.2C192.201 235.7 190.601 231.4 188.501 227.3C187.801 225.9 187.101 224.5 186.501 223.1C186.401 222.4 187.201 221.9 187.601 222.3Z" fill="black"/>
<path d="M198.501 329.3C194.501 317.5 196.501 304.6 199.101 292.7C201.501 281.1 203.601 269 202.201 257.2C202.001 256.4 203.301 256 203.501 256.9C205.201 269 203.501 281.2 201.301 293.1C200.101 299 199.201 304.9 199.101 310.8C199.001 316.5 199.301 322.5 201.401 327.9C202.101 329.9 199.401 331.2 198.501 329.3Z" fill="black"/>
<path d="M90.1004 223.4C93.6004 230.8 97.8004 238.3 103.8 243.9C104.3 244.3 103.7 245.2 103.1 244.7C96.3004 239.4 91.5004 232.1 87.3004 224.7C86.5004 222.9 89.3004 221.5 90.1004 223.4Z" fill="black"/>
<path d="M184.5 246C179 260.6 163.4 259.7 151.4 254C151 253.8 150.8 253.4 151 253C151.2 252.6 151.6 252.4 152 252.6C154.8 253.7 157.7 254.7 160.6 255.2C169.3 257.1 178.7 254.3 181.6 245.2C182.1 243.2 185 244.1 184.5 246Z" fill="black"/>
</svg>
