<svg width="306" height="359" viewBox="0 0 306 359" fill="none" xmlns="http://www.w3.org/2000/svg">
<path d="M89.0996 210.6C89.0996 210.6 103.7 204.8 106.4 204.6L106.6 206.9C106.6 206.9 94.9996 211.9 94.2996 212.7C93.6996 213.4 89.0996 210.6 89.0996 210.6Z" fill="#7E5D6D"/>
<path d="M269.299 340.4H16.3994C16.3994 340.4 17.8994 294 33.0994 260.9C44.5994 235.9 72.1994 219.4 92.2994 212.2C97.9994 210.2 102.399 208 106.499 206.9C106.499 207.4 106.799 211.1 106.799 211.5C106.799 211.5 120.399 204.9 156.099 206.9C172.599 207.8 177.799 206.5 177.799 206.5C179.699 206.1 180.099 218.6 181.799 218C182.399 217.8 186.599 216.1 187.099 215.9C199.999 219.3 215.799 228.9 238.699 248.1C264.699 269.9 269.299 340.4 269.299 340.4Z" fill="white" stroke="black" stroke-width="5.1257" stroke-miterlimit="10" stroke-linecap="round" stroke-linejoin="round"/>
<path d="M220.599 238.7C227.061 238.7 232.299 233.462 232.299 227C232.299 220.538 227.061 215.3 220.599 215.3C214.138 215.3 208.899 220.538 208.899 227C208.899 233.462 214.138 238.7 220.599 238.7Z" fill="#FFFF8D"/>
<path d="M65.8994 340.4L61.3994 303.3" stroke="#544D4D" stroke-width="3" stroke-miterlimit="10" stroke-linecap="round" stroke-linejoin="round"/>
<path d="M240.6 290.7C240.6 290.7 237.6 298 238.5 305.3C239.4 312.6 242 323.3 238.3 340.4" stroke="#544D4D" stroke-width="3" stroke-miterlimit="10" stroke-linecap="round" stroke-linejoin="round"/>
<path d="M89.0998 210.6C90.9998 210 94.2998 210.6 95.2998 212.3C99.1998 218.7 152.9 228.3 156.8 265.4C159.9 294.4 154.1 355.7 154.1 355.7L13.7998 351.1C13.7998 351.1 16.6998 301.8 25.1998 268.7C33.5998 236.6 55.3998 222.2 89.0998 210.6Z" fill="black" stroke="black" stroke-width="5.1257" stroke-miterlimit="10" stroke-linecap="round" stroke-linejoin="round"/>
<path d="M179.6 265.4C179.6 265.4 185.8 297.5 184.7 352.4H278.2C278.2 352.4 277.9 290.8 262.9 257.3C247.9 223.9 195.4 214.1 195.4 214.1C195.4 214.1 182.2 264.4 179.6 265.4Z" fill="black" stroke="black" stroke-width="5.1257" stroke-miterlimit="10" stroke-linecap="round" stroke-linejoin="round"/>
<path d="M189.7 216.7L187.3 216C187.3 216 190.8 214.3 192.3 213.3L193.2 212.8C193.2 212.8 198 215 199.7 215.8C201.4 216.6 193.8 220.3 193.8 220.3C193.8 220.3 190 216.8 189.7 216.7Z" fill="#7E5D6D"/>
<path d="M156.9 265.4C156.9 265.4 140.8 252.1 104.7 244.9C73.1999 238.6 40.5999 241.6 43.3999 233.2C52.1999 206.9 105.1 191.4 105.1 191.6C105.1 191.7 135.5 182.2 150.3 199.5C152.8 202.5 156.8 251.2 156.9 265.4Z" fill="white"/>
<path d="M158 267.7C157.2 268.1 155.8 267.9 155.1 267.2C155 267.1 154.6 266.8 154.4 266.7C139.1 255.7 120.6 250 102.3 246.2C89.6001 243.7 76.6001 242.6 63.7001 241.4C58.8001 240.6 39.2001 240.5 42.5001 232.5C50.5001 211.1 84.1001 196.3 104.7 190C113.5 187.7 122.8 187 131.8 188.7C139 190 146.1 193.1 151 198.6C151.8 199.5 152.1 200.9 152.3 201.9C154 209.9 154.7 218.1 155.8 226.2C157.1 237.5 158.2 248.9 159.2 260.3C159.2 261 159.4 263.3 159.4 264V264.3V264.5C159.5 265.7 158.8 267.1 158 267.7ZM155.8 263.1C155.5 263.1 155.1 263.3 154.8 263.6C154.4 263.9 154.3 264.6 154.3 264.7C154.3 264.5 154.3 263.3 154.3 263.1C154.3 251 153.6 238.8 152.7 226.7C152.2 220.2 151.6 213.8 150.7 207.4C150.4 205.2 150.1 202.6 149.3 200.6C145 195.2 138.1 192.1 131.3 191.1C115.3 189.3 99.6001 194.8 84.9001 200.7C69.5001 207.2 50.7001 216.2 43.9001 232.5C41.9001 236.2 46.5001 237.3 49.3001 237.9C54.1001 238.9 58.9001 239.2 63.8001 239.6C73.5001 240.3 83.3001 241 93.0001 242.2C115.1 245 138.9 250.9 157.8 263L158.1 263.2C158.1 263.2 158.3 263.3 158.1 263.2C157.5 262.7 156.3 262.7 155.8 263.1Z" fill="black"/>
<path d="M254.9 240.7C253.3 231.4 204.4 197.2 199.6 198.1C197.5 200.9 174 198.9 167.7 199.6C166.7 199.7 166.1 200.7 166.4 201.6C171.1 214.3 177.1 252.4 179.6 265.4C191.5 253.7 204.9 248.5 217.1 246.1C238.4 241.9 255.9 246.5 254.9 240.7Z" fill="white"/>
<path d="M253.8 240.9C249.8 230.4 210.4 203.8 200.1 200.6L201.7 199.6C200.2 201.1 198.8 200.9 197.1 201C195.1 200.9 192.6 200.8 190.6 200.6C185.7 200.2 179.9 200.1 174.9 200.1C172.6 200.1 170.2 200.1 168 200.3C167.5 200.3 167.3 200.6 167.2 201C168.9 205.8 170.2 211 171.4 215.9C174.8 229.7 177.7 244.8 180.8 258.8L182.2 264.9L177.9 263.5C193.8 248.7 214.7 243 236 242.8C239.5 242.7 242.9 242.7 246.3 242.7C247.9 242.6 254.2 242.9 253.8 240.9ZM255.2 240.7C255.8 244.6 248.7 244.1 246.3 244.4C242.9 244.5 239.4 244.6 236 244.7C215.9 245.2 195 251.8 181.4 267.2C180 268.7 177.3 267.9 177.1 265.8C173.9 245.1 170.9 221 165.2 201C165.2 199.7 166.4 198.5 167.7 198.5H168.5C170.7 198.4 172.7 198.5 174.8 198.6C178.5 198.8 183.6 199 187.3 199C190.9 199 194.6 199 198 198C198.4 197.9 198.9 197.6 198.9 197.5C198.9 197.4 199 197.2 199.1 197.2C200.3 197 201.1 197.4 202 197.8C211.9 202.3 253.2 231.6 255.2 240.7Z" fill="black"/>
<path d="M143.2 283.6C147.563 283.6 151.1 280.063 151.1 275.7C151.1 271.337 147.563 267.8 143.2 267.8C138.837 267.8 135.3 271.337 135.3 275.7C135.3 280.063 138.837 283.6 143.2 283.6Z" fill="white"/>
<path d="M95.4994 308.2C105.772 308.2 114.099 299.873 114.099 289.6C114.099 279.328 105.772 271 95.4994 271C85.2269 271 76.8994 279.328 76.8994 289.6C76.8994 299.873 85.2269 308.2 95.4994 308.2Z" fill="white"/>
<path d="M228 308.2C236.837 308.2 244 299.873 244 289.6C244 279.328 236.837 271 228 271C219.163 271 212 279.328 212 289.6C212 299.873 219.163 308.2 228 308.2Z" fill="white"/>
<path d="M190.7 282.6C194.842 282.6 198.2 279.242 198.2 275.1C198.2 270.958 194.842 267.6 190.7 267.6C186.558 267.6 183.2 270.958 183.2 275.1C183.2 279.242 186.558 282.6 190.7 282.6Z" fill="white"/>
<path d="M156.6 254.4C156.2 254.1 155.8 253.8 155.4 253.5" stroke="black" stroke-width="3" stroke-linecap="round" stroke-linejoin="round"/>
<path d="M147.4 248.1C139.4 243.7 130.5 240.9 120 238C95.7998 231.2 79.2998 233.4 58.3998 227.1C57.2998 226.8 55.9998 226.4 54.7998 225.9" stroke="black" stroke-width="3" stroke-linecap="round" stroke-linejoin="round" stroke-dasharray="2.9 2.9"/>
<path d="M51.0002 223C50.8002 222.6 50.7002 222.1 50.7002 221.6" stroke="black" stroke-width="3" stroke-linecap="round" stroke-linejoin="round"/>
<path d="M178 255.7C178 255.7 178.4 255.3 179.1 254.7" stroke="black" stroke-width="3" stroke-linecap="round" stroke-linejoin="round"/>
<path d="M187.3 249C192.4 246 199.6 242.4 209.1 239.4C224.1 234.7 237.1 235 244.7 235" stroke="black" stroke-width="3" stroke-linecap="round" stroke-linejoin="round" stroke-dasharray="3 3"/>
<path d="M249.7 235C250.3 234.9 250.8 234.8 251.2 234.7" stroke="black" stroke-width="3" stroke-linecap="round" stroke-linejoin="round"/>
<path d="M147.499 271.2C154.799 272.5 168.799 274 186.499 270.9C189.299 270.4 191.899 272.4 192.099 275.2V275.7C192.299 278.1 190.699 280.3 188.399 280.8C181.299 282.5 165.399 284.9 145.499 280.6C143.299 280.1 141.699 278.1 141.699 275.9C141.799 273 144.499 270.7 147.499 271.2Z" fill="white"/>
<path d="M147.6 270.7C154.5 271.8 161.6 271.7 168.5 271.5C173.2 271.5 177.8 271.3 182.5 270.8C184.9 270.7 187.5 269.6 189.8 270.9C193.4 272.7 193.8 278.5 190.4 280.7C189.5 281.4 188 281.7 186.9 281.9C173.3 285.4 159 284.7 145.5 281.3C138.9 279.5 140.8 269.8 147.6 270.7ZM147.4 271.7C142.3 270.8 140.2 277.9 145 279.9C149.5 281 154.2 281.4 158.8 281.7C163.4 282 168.1 282.1 172.7 281.9C177.3 281.7 182 281.4 186.6 280.6C187.7 280.4 188.8 280.3 189.8 279.7C192.6 278 192.3 273.2 189.3 271.8C188.3 271.3 187.3 271.3 186.2 271.6C182.7 272.3 179.2 272.9 175.7 273.3C166.3 274.6 156.7 273.7 147.4 271.7Z" fill="black"/>
</svg>
