<svg width="306" height="344" viewBox="0 0 306 344" fill="none" xmlns="http://www.w3.org/2000/svg">
<path d="M269.3 340.4H16.4004C16.4004 340.4 31.3004 309 37.9004 273.2C42.5004 248.4 45.9004 233.9 58.8004 225.9C67.9004 220.3 93.5004 212.2 111.7 209.6C119.1 208.6 133.8 207.5 146.5 208.5C156.1 209.7 175.9 215.3 183.5 217.4C194.9 220.6 219.6 230.1 230.5 240.1C234.8 244.1 245 264.1 251.6 293.1C259.2 326.1 269.3 340.4 269.3 340.4Z" fill="black"/>
<path d="M271.6 341.6C197.7 342.3 89.5001 343.8 16.5001 343.5C14.3001 343.6 12.7001 341.1 13.7001 339.1C23.3001 317.9 30.6001 295.3 35.1001 272.4C38.8001 254.5 41.1001 231.9 59.2001 222.5C68.1001 218 77.5001 215 87.0001 212.2C103.7 207.3 121.4 204.9 138.8 205.4C141.5 205.5 144.3 205.6 147.1 205.8C153.1 206.7 159 208.2 164.8 209.7C170 211 175.3 212.5 180.4 214C181 214.3 181.2 215.5 181.5 216.1C181.9 216.8 182.4 216.7 183.1 216.4C183.4 216.3 183.7 216.1 184 216.2C184.7 216.3 185.7 216.7 186.4 216.9C201.9 221.9 217.5 227.8 230.6 237.7C232.5 239.1 234 241 235.2 243C237.6 246.8 239.6 250.7 241.4 254.7C246.8 266.6 250.8 279.1 253.8 291.8C257.7 307.7 262.3 323.7 270.6 337.9L271 338.5L271.2 338.8C271.8 339.3 272 340.8 271.6 341.6ZM267 339.2C266.5 339.8 266.6 341.1 267 341.6L266.9 341.4L266.7 341C262.1 333.8 258.7 325.8 255.8 317.9C252.8 309.8 250.5 301.2 248.5 292.8C245.6 280.4 241.8 268.2 236.7 256.6C234.5 251.7 232.3 246.8 229 242.7C227.1 240.8 224.9 239.2 222.6 237.7C211.1 230.3 198.2 224.9 185.2 220.7C184.7 220.5 183.5 220.2 182.9 220C182.3 219.8 182.3 218.1 181.9 217.7C181 216.9 180 219.1 179.1 218.9C174 217.5 168.7 216.1 163.5 214.9C157.3 213.5 151.2 211.9 145 211.4C117.6 209.6 89.9001 215.4 64.7001 226.3C52.5 231.3 47.9001 242.6 45.0001 254.7C42.4001 264.9 40.9001 276 38.5001 286.3C33.9001 305.4 27.5001 323.8 19.4001 341.8L16.6001 337.4C87.6001 337.2 195 338.3 267 339.2Z" fill="black"/>
</svg>
