<svg width="306" height="343" viewBox="0 0 306 343" fill="none" xmlns="http://www.w3.org/2000/svg">
<path d="M254.3 309.3C245.8 264.2 240.1 252.8 235 247.9C219.3 232.9 209.5 231 200.3 227.6C199.9 225.1 175.2 222.3 176.5 219.6L177.3 222.9C177.7 224.5 179.7 231.9 176.6 241.4C174 249.4 163.5 253 145.7 244.9C111 229.2 107 211.5 107 211.5C106.5 203.4 74.3 217.6 67.2 221.2C60.5 224.6 58.3 225.6 53.4 230.1C41.6 240.8 37.6 276.3 32 295.6C22.4 328.4 11 340.3 11 340.3H269.4C269.3 340.4 260.1 340.2 254.3 309.3Z" fill="black" stroke="black" stroke-width="5.1257" stroke-miterlimit="10" stroke-linecap="round" stroke-linejoin="round"/>
<path d="M64.4001 227.3C64.4001 227.3 54.2001 248.2 66.2001 257.4C74.8001 264 91.9001 264.9 91.9001 264.9C91.9001 264.9 93.1001 285.5 109.7 287.1C126.3 288.7 135.9 276.2 135.9 276.2C135.9 276.2 149.5 294.6 169 293.3C188.5 291.9 187.6 269.2 187.6 269.2C187.6 269.2 199.4 275.1 209.1 273.4C223.8 270.8 221.4 249.9 212 244.8C212 244.8 227 248.6 222.4 240.4C218.8 234 201.1 224.6 187.3 221.1C179.9 219.2 172.8 216.4 166 213.1C154.4 207.4 127 200.9 100.8 207.8C93.2001 209.5 61.9001 217.9 64.4001 227.3Z" fill="white"/>
<path d="M65.8997 227.4C65.7997 227.8 65.5997 228.3 65.3997 228.7C62.1997 236.6 59.3997 247.3 65.3997 254.5C68.4997 257.8 73.2997 259.6 77.6997 260.8C82.2997 262.1 87.1997 262.8 91.9997 263.2C92.8997 263.3 93.4997 263.9 93.5997 264.8C94.3997 272.6 97.8997 281.7 105.9 284.5C116.2 287.7 127.9 283.1 134.7 275.1C135.4 274.3 136.7 274.3 137.3 275.1C140.8 279.6 145.4 283.7 150.4 286.6C157.7 291 167 293.3 175 290.2C183.1 286.9 186.2 277.3 186.2 269.1C186.2 268.2 186.9 267.5 187.8 267.5C188 267.5 188.3 267.6 188.5 267.6C192.7 269.6 197.4 271.1 202 271.7C206.6 272.3 211.5 272 214.7 269.1C221.2 263.1 218.5 250.1 211.7 245.3C210.8 244.7 211.5 243.4 212.5 243.8C215.2 244.6 218.2 245.3 221 244.8C224.7 244.3 222.6 240.5 221 238.8C217 234.5 211.8 231.6 206.6 228.8C203.1 227 199.7 225 195.9 223.8C188.4 221.1 180.2 221.2 172.8 218C169.1 216.6 165.6 214.6 162 213.1C158.5 211.6 154.8 210.4 151 209.4C132.2 204.1 111.7 203.6 93.0997 210C86.9997 211.8 63.3997 219.4 65.8997 227.4ZM62.9997 227.1C61.0997 217.5 85.4997 210.5 92.5997 208.2C115.4 200.7 140.8 201.3 163.2 209.9C170.4 213.1 177.4 216.6 185 218.6C196.6 221.6 208.2 225.5 217.7 233.2C220.1 235.2 222.6 237.3 223.9 240.3C226 245.1 222.2 246.7 218 246.3C215.9 246.2 214 245.9 211.9 245.5L212.6 243.6C219.9 247.3 222.5 256.7 220.6 264.3C217.5 276.6 203.9 276.3 194 273.1C191.6 272.3 189.3 271.5 186.9 270.4L189.1 269C189.2 278.5 185.4 289.3 176 293.2C160.4 299 144 289.1 134.5 277.1H137C129.3 286.3 116.2 291.3 104.6 287.6C95.2997 284.3 90.8997 274.2 90.0997 264.9L91.5997 266.4C82.0997 265.5 69.7997 263.6 62.8997 256.5C59.1997 252.4 58.2997 246.6 58.7997 241.4C59.2997 236.3 60.6997 231.4 62.7997 226.7V226.6C62.7997 226.6 62.7997 226.5 62.7997 226.7C62.9997 226.9 62.9997 227 62.9997 227.1Z" fill="black"/>
<path d="M89.0995 239.3C89.0995 239.3 67.4995 239.9 74.5995 249.8C81.5995 259.6 89.0995 239.3 89.0995 239.3Z" fill="black"/>
<path d="M117.2 259.9C117.2 259.9 99.2999 271.3 110.2 276C121.1 280.7 117.2 259.9 117.2 259.9Z" fill="black"/>
<path d="M167.2 266.6C167.2 266.6 159.8 285.7 171 283.1C182.2 280.5 167.2 266.6 167.2 266.6Z" fill="black"/>
<path d="M194.5 251.2C194.5 251.2 197.4 268 204.3 261.4C211.2 254.8 194.5 251.2 194.5 251.2Z" fill="black"/>
<path d="M199.8 229.2C199.8 229.2 207.3 241 210.5 236C213.7 231 199.8 229.2 199.8 229.2Z" fill="black"/>
</svg>
