<svg width="306" height="343" viewBox="0 0 306 343" fill="none" xmlns="http://www.w3.org/2000/svg">
<path d="M249.8 292.6C247.9 277.8 239.5 252.9 234.4 246.2C228.8 238.9 226.5 236.6 207.8 230.3C206.8 225.3 203.1 212.7 198.7 207.4C192 197.3 173.7 195 168.2 196.2C168.2 196.2 138.6 185.8 104.5 185.8C93.6996 188.2 81.1996 193.1 74.3996 203.4C69.7996 210.2 74.9996 212.4 72.6996 218.6C72.0996 220.2 58.0996 228.2 52.3996 233C49.7996 235.1 46.8996 240.4 44.8996 247.3C40.8996 261.4 45.1996 280.9 40.1996 297.9C30.5996 330.7 11.0996 340.5 11.0996 340.5H269.5C269.3 340.4 253.9 323.8 249.8 292.6Z" fill="white"/>
<path d="M248.3 292.8C246.3 279.7 242.3 266.7 237.2 254.5C234.7 248.6 230.9 242.9 225.6 239.4C222.9 237.7 219.9 236.4 216.8 235.1C213.7 233.9 210.5 232.8 207.4 231.7C206.9 231.5 206.5 231.1 206.4 230.6C206 228.6 205.5 226.7 204.9 224.7C202.3 216.6 199.5 207.6 191.9 202.9C186.1 199.4 179.2 197.7 172.5 197.4C171.2 197.4 169.8 197.4 168.6 197.6H168.2C168.1 197.6 167.9 197.6 167.8 197.5C163 195.2 157.7 193.8 152.5 192.4C136.9 188.8 120.6 187.3 104.6 187.2C94.8 189.5 81.1 194.9 75.1 204.9C74.1 206.5 73.6 208.1 73.8 209.9C74 211.9 74.7 214.1 74.2 216.2C74 217.1 73.8 218.1 73.4 218.9C72.6 220 71.3 220.7 70.3 221.4C65.1 224.8 59.8 227.8 54.8 231.3C53.1 232.5 51.5 233.6 50.3 235.3C46.8 240.3 44.7 246.3 43.8 252.3C42.2 264.5 43.8 276.9 42.2 289.1C40.4 301.3 35.7 313.1 29.1 323.5C24.5 330.5 18.9 337 11.8 341.5L11.1 338.7H269.5L268.4 341.2C265.4 337.8 263 334.1 260.8 330.2C254 318.8 250 305.9 248.3 292.8ZM251.3 292.4C252.4 300.9 254.5 309.3 257.7 317.3C260.9 325.2 264.9 332.9 270.5 339.4C271.3 340.3 270.6 342 269.4 341.9H11C10.2 341.9 9.5 341.2 9.5 340.4C9.5 339.8 9.8 339.3 10.3 339.1C11.9 338.2 13.5 336.9 15 335.6C28.1 323.8 36.3 306.3 39 288.9C41.3 272.6 37 255 44.3 239.5C46 235.9 48.1 232.1 51.5 229.8C57.7 225.2 64.5 221.8 70.6 217.3C70.7 217.3 70.7 217.2 70.7 217.2C70.6 217.3 70.5 217.5 70.5 217.6C71.1 216.2 71.3 215 71.1 213.4C70.8 211.4 70.3 208.7 71 206.6C71.3 205.4 71.9 204.3 72.5 203.4C79.7 192.6 92.4 187.8 104.5 185.1C107.9 185.2 111.4 184.6 114.8 184.6C119.5 184.6 124.3 185.3 129 185.9C142.5 188 155.5 191.6 168.8 194.5L167.9 194.4C171 193.8 173.9 194.1 176.9 194.5C196.1 197.4 202.6 205.8 207.8 223.7C208.4 225.7 208.9 227.7 209.4 229.8L208.4 228.6C218 232 228.8 235.1 234.9 244C237.1 246.7 238.7 249.9 240.1 253.1C245.2 265.9 249.2 278.8 251.3 292.4Z" fill="black"/>
<path d="M92.2002 226.8C99.6002 242.6 111.1 256 124.8 266.6C125.3 267 124.8 267.8 124.2 267.5C112 261.7 101.7 251.8 95.6002 239.8C93.6002 235.8 91.9003 231.5 91.3003 227C91.1003 226.5 91.9002 226.3 92.2002 226.8Z" fill="black"/>
<path d="M209.3 230.1C209.6 246.8 202.8 263.9 189.8 274.7C189.5 275 189.1 274.9 188.8 274.6C188.5 274.3 188.6 273.9 188.9 273.6C191.8 270.8 194.7 267.9 196.9 264.5C201.5 257.9 204.3 250.1 205.6 242.2C206.2 238.3 206.6 234.1 206.3 230.2C206.2 228.3 209.2 228.1 209.3 230.1Z" fill="black"/>
<path d="M150.4 269.8C148.1 277.9 146.2 286.7 147.3 295.1C147.6 297 144.7 297.5 144.3 295.5C143.8 290.9 144.4 286.4 145.2 282C146.1 277.6 147.2 273.4 148.7 269.2C149.1 268.2 150.8 268.7 150.4 269.8Z" fill="black"/>
<path d="M182.2 268.3C185.5 275.4 187.8 282.8 189.6 290.3C189.8 291.1 189.3 291.9 188.5 292.1C187.7 292.3 186.9 291.8 186.7 291C185.7 285.4 184.4 279.8 182.6 274.3C182 272.5 181.4 270.7 180.7 268.9C180.3 268 181.7 267.3 182.2 268.3Z" fill="black"/>
<path d="M74.8 218.2C78.5 238.4 92.7 255.5 109.8 266.4C115.6 270.1 121.8 273.3 128.2 275.9C128.6 276.1 128.8 276.5 128.6 276.9C128.5 277.3 128 277.5 127.7 277.3C121.1 274.9 114.7 271.9 108.7 268.3C96.5 261.1 85.8 251.1 78.6 238.9C74.9 232.6 72 226 70.6 218.8C70.4 217.6 71.2 216.5 72.4 216.3C73.5 216 74.7 216.9 74.8 218.2Z" fill="black"/>
<path d="M144.4 297.3C141.6 297 139.6 294.4 140.2 291.6L141.3 286.3C141.7 284.2 143.7 282.7 145.8 283C147.9 283.2 149.6 285 149.6 287.2V292.6C149.7 295.4 147.3 297.6 144.4 297.3Z" fill="black"/>
<path d="M190.5 293.6C187.8 294.6 184.9 293 184.2 290.2L182.9 284.9C182.4 282.8 183.5 280.7 185.6 279.9C187.6 279.2 189.9 280.1 190.8 282L193.2 286.9C194.4 289.6 193.2 292.7 190.5 293.6Z" fill="black"/>
<path d="M60.1998 340.4C60.1998 340.4 59.2998 318.1 56.2998 312.1" stroke="black" stroke-width="5.1257" stroke-miterlimit="10" stroke-linecap="round" stroke-linejoin="round"/>
<path d="M236.7 290.6C236.7 290.6 242.3 322 240.1 340.4" stroke="black" stroke-width="5.1257" stroke-miterlimit="10" stroke-linecap="round" stroke-linejoin="round"/>
<path d="M220.6 320.8C220.6 320.8 205.8 323 192.8 322.4" stroke="black" stroke-width="5.1257" stroke-miterlimit="10" stroke-linecap="round" stroke-linejoin="round"/>
<path d="M106.1 214.6C104.7 210.6 104.1 206.5 104.4 202.3C104.4 201.9 104.7 201.7 105.1 201.7C105.4 201.7 105.7 202 105.7 202.3C106 206.1 107.1 210 108.9 213.3C109.8 215.3 106.8 216.6 106.1 214.6Z" fill="black"/>
<path d="M173.7 219.9C170.9 213.6 164 210.4 157.9 208.2C154.1 207 149.9 206.1 145.9 205.5C136.2 204 122.5 201.7 112.8 200.7C112.7 200.7 112.7 200.5 112.8 200.5C115.6 200.2 118.4 200.2 121.2 200.2C129.6 200.4 138 201.3 146.3 202.6C154.6 203.9 163.5 206.4 169.8 212.4C171.8 214.5 173.6 216.9 174.1 219.8C174.2 220.1 173.8 220.2 173.7 219.9Z" fill="black"/>
</svg>
