<svg width="306" height="343" viewBox="0 0 306 343" fill="none" xmlns="http://www.w3.org/2000/svg">
<path d="M269.299 340.4H16.3994C16.3994 340.4 28.1994 302.2 37.0994 266.9C40.5994 253.1 47.0994 234.3 55.0994 228.8C66.0994 221.2 84.2994 216.9 92.4994 214C98.1994 212 102.599 211.3 106.699 210.2C106.699 210.7 106.799 211.1 106.799 211.6C106.799 211.6 115.899 232 143.999 243.3C166.899 252.6 174.899 248.9 176.999 238.6C178.299 232 181.599 230.5 179.499 227C178.299 226 177.499 224.5 177.099 223L176.299 219.7C178.199 219.3 179.999 218.8 181.799 218.2C182.399 218 182.899 217.8 183.499 217.6C194.599 223.9 209.899 225.9 228.399 239.5C231.699 241.9 241.299 252.3 245.299 277.6C250.899 310.9 269.299 340.4 269.299 340.4Z" fill="black"/>
<path d="M271.1 341.4C196 341.7 90.3998 342.7 16.3998 342.5C15.1998 342.5 14.2998 341.6 14.2998 340.4C17.1998 328 21.8998 310.1 25.0998 297.6C27.5998 287.5 30.6998 276.2 33.1998 266C36.7998 252.7 41.2998 235.4 52.5998 226.6C56.2998 224.2 60.3998 222.5 64.2998 221C72.8998 217.8 81.6998 215.4 90.4998 212.7C95.4998 210.8 101.1 209.6 106.3 208.1C107.4 207.8 108.5 208.4 108.8 209.4C108.9 209.7 108.9 211 109 211.3L106.9 209.4C107.7 209.4 108.5 209.9 108.8 210.6C109.6 212.3 110.7 214.1 111.8 215.7C122.4 231 139.5 240.8 157.3 245.4C162.4 246.5 169.2 247.8 172.9 243.3C175.3 240.2 175.2 235.4 177.1 232C177.8 230.4 178.6 229.4 177.8 228L178.2 228.5C176.9 227.3 175.9 225.8 175.4 224.2C175 222.7 174.7 221.4 174.4 220.1C174.1 219 174.9 217.8 176 217.6C178.3 217.1 180.7 216.4 182.9 215.6C183.5 215.4 184.1 215.5 184.6 215.7C187.5 217 190.5 218.1 193.6 219.2C203.3 222.3 213 225.6 221.9 230.7C224.9 232.4 227.8 234.3 230.6 236.3C233.9 238.8 236 241.6 238.1 244.9C245.7 256.8 248.1 270.5 250.6 284.1C254.4 301.7 261 318.7 268.8 334.9L269.9 337.1L270.4 338.2L270.7 338.7L270.8 339L270.9 339.1C270.9 339 271 339.2 271.1 339.5C271.5 340.2 271.4 341 271.1 341.4ZM267.5 339.4C267.2 339.8 267.1 340.5 267.3 341C267.4 341.3 267.5 341.5 267.5 341.4L267.4 341.3L267.2 341L266.9 340.5C260.3 329.2 254.8 317.3 250.5 305C247.7 297 245.4 288.9 243.9 280.5C242.1 269.4 239.3 257.8 233.3 248.2C231.7 245.7 229.7 243 227.3 241.2C224.6 239.3 221.9 237.4 219.1 235.8C213.5 232.4 207.5 229.7 201.4 227.3C195.3 224.8 188.8 222.9 182.7 219.4L184.4 219.5C182 220.4 179.5 221.1 176.9 221.6L178.5 219.1C179.1 221.3 179.2 223.9 181 225.4C182.1 226.6 182.6 228.7 182.3 230.4C182 231.9 181.4 232.9 181 233.8C180.1 235.7 179.5 237.3 179.1 239.4C175.6 256.8 155.5 250.1 144.1 245.6C128.1 239.2 113.2 228 105.1 212.5L107 213.7C105.9 213.7 105 212.9 104.9 211.8L104.8 210.5L107.4 212.3C101.8 213.3 96.7998 214.1 91.5998 216C79.6998 219.7 66.9998 222.8 56.6998 229.9C45.9998 237.7 39.8998 265.4 36.4998 278.2C32.7998 292.3 28.8998 306.3 24.7998 320.2C22.6998 327.2 20.5998 334.1 18.3998 341.1L16.3998 338.4C88.9998 338.3 193.9 338.8 267.5 339.4Z" fill="black"/>
<path d="M167.899 250.8C167.999 250.9 167.999 250.9 168.099 251C168.099 250.9 168.099 250.8 168.099 250.8C168.099 250.8 167.999 250.8 167.899 250.8Z" fill="white"/>
<path d="M191.8 213.7C191.8 213.7 191.8 204.1 183.4 201.6C167.9 196.9 138.6 194.8 119 194.8C119 194.8 110.7 195.4 107.7 196.9C104.8 198.3 101.3 199.2 100.5 205.7C100.1 208.9 100.1 214 100.2 218.5C100.3 224.5 102.7 230.3 106.9 234.6C113.6 241.5 127.5 250.5 143.4 253.2C181.7 259.6 192.1 242.9 191.8 234C191.4 223.7 191.8 213.7 191.8 213.7Z" fill="black"/>
<path d="M189.7 213.6C189.5 209.3 187.2 204.7 182.8 203.5C181.4 203.1 180 202.7 178.7 202.4C159.2 198.1 139 197.1 119 196.8C116.4 197.1 111.4 197.5 108.5 198.7C107.3 199.3 105.8 199.9 104.8 200.7C102.5 202.7 102.4 206.2 102.3 209.3C102.2 211.1 102.2 212.9 102.2 214.7C101.6 226.9 107 233.4 116.7 239.9C124 244.9 132.2 248.5 140.9 250.5C152.8 252.8 166 253.9 177.4 249.3C183.4 246.9 189 241.8 189.7 235.2C189.8 233.8 189.7 231.4 189.7 230C189.5 224.8 189.5 218.9 189.7 213.6ZM193.8 213.7C193.7 219 193.7 224.7 193.8 230C193.8 231.7 194 234.1 193.8 235.7C192.9 244.1 186.2 250.4 178.9 253.4C167.4 258.2 154.6 257.4 142.6 255.5C140 255 136.8 254.3 134.3 253.5C123.5 250 113.4 244.4 105.3 236.4C99.5002 230.7 97.3002 222.7 97.8002 214.8C98.1002 209 97.1002 202.1 101.9 197.6C103.4 196.4 104.9 195.7 106.5 195C110.6 193.4 114.6 193.1 118.8 192.7C132.3 192.8 145.8 193.5 159.3 195.1C167.3 196.1 175.4 197.2 183.2 199.5L183.8 199.7L184.5 200C188 201.7 189.5 205.4 191.5 208.4C192.8 210 193.7 211.7 193.8 213.7Z" fill="black"/>
<path d="M100.9 218.4C103.1 250.5 152.6 284.8 182 267C189.7 261.8 191.8 251.9 191.6 243.2C191.6 240.2 191.3 237.2 191.1 234.1C191 233.4 192.2 233.2 192.3 233.9C196.5 250.7 194.4 269.3 174.8 274.3C147.3 281 116.1 260.8 104 236.6C101.2 231 99.3998 224.8 99.2998 218.6C99.3998 217.6 100.8 217.4 100.9 218.4Z" fill="white"/>
</svg>
