<svg width="306" height="342" viewBox="0 0 306 342" fill="none" xmlns="http://www.w3.org/2000/svg">
<path d="M269.3 340.399H16.4004C16.4004 340.399 20.5004 299.199 36.1004 266.299C41.8004 254.299 43.7004 236.699 55.0004 228.999C66.6004 221.099 91.3004 214.799 99.9004 213.799C104.7 213.199 103.6 212.799 107 211.899C108.1 214.899 119.2 244.299 145.8 255.099C168.7 264.399 182.3 258.199 184.4 247.899C185.7 241.299 181.6 230.499 179.5 226.999C178.3 225.999 177.5 224.499 177.1 222.999L176.3 219.699C178.1 219.299 179.8 218.799 181.6 218.299C182.5 218.499 183.5 218.399 184.3 218.899C192.7 223.499 218 229.999 231.2 243.899C236.4 249.299 244.5 268.499 245.8 280.999C249.5 315.299 269.3 340.399 269.3 340.399Z" fill="white"/>
<path d="M270.701 341C195.701 341.2 90.4007 342.1 16.5007 341.8C15.6007 341.8 14.9007 341 15.0007 340.1C15.9007 333 17.1007 326.1 18.5007 319.1C22.2007 300 27.8007 281.2 36.2007 263.7C39.6007 255.5 41.3007 246.9 45.4007 238.9C47.8007 234.1 51.4007 229.5 56.2007 226.8C63.9007 222.2 72.4007 219.3 80.9007 216.7C86.0007 215.2 91.2007 213.8 96.4007 212.8C99.0007 212.2 101.601 212.3 104.001 211.3C105.301 210.8 107.801 209.3 108.601 211.2C115.901 230.1 130.001 248 149.701 254.7C159.901 258.4 177.601 261.5 182.801 249C184.401 244.3 182.901 239.2 181.501 234.5C180.701 232.1 179.701 229.6 178.501 227.6L178.801 227.9C177.001 226.4 176.001 224 175.701 221.8L175.201 219.8C175.001 219 175.501 218.2 176.301 218C178.101 217.7 179.901 217.1 181.701 216.6C182.701 216.6 184.301 216.8 185.601 217.5C196.601 222.6 209.101 226.3 219.601 232.7C225.501 236.2 231.501 240.3 235.301 246.2C242.301 257.9 246.801 271.2 248.101 284.7C250.901 304 258.701 322.5 269.901 338.4L270.301 338.9L270.501 339.1L270.601 339.2C270.601 339.2 270.601 339.1 270.701 339.4C270.801 340 270.801 340.7 270.701 341ZM268.001 339.7C267.801 340 267.801 340.7 268.001 341C268.201 341.2 268.101 341.1 268.101 341.1L268.001 341L267.801 340.7L267.401 340.2C261.101 330.6 255.901 320.3 252.101 309.6C249.101 301.7 246.901 293.5 245.701 285.1C245.301 282.1 244.801 278.1 244.101 275.2C241.801 265.6 238.101 256 232.801 247.7C231.101 245 228.601 242.9 226.101 240.9C218.201 234.9 208.901 231.2 199.701 227.6L190.301 224.1C187.201 222.9 183.501 221.6 181.601 219.7H182.401C180.601 220.3 178.801 220.8 177.001 221.2L178.101 219.4L178.601 221.4C179.001 223.2 179.401 224.8 180.801 226C180.901 226.1 181.001 226.2 181.101 226.3C183.801 231.2 185.401 236.3 186.201 241.8C187.901 251.3 181.901 258.8 172.701 260.6C160.001 263.1 144.801 257.6 134.301 250.5C121.101 241.2 111.601 227.4 105.801 212.5L107.601 213.4C106.701 213.7 106.101 214 105.201 214.4C104.301 214.9 103.201 215.2 102.201 215.4C102.301 216 102.001 214.2 102.401 216.6C100.501 216.8 99.0007 216.9 97.2007 217.3C92.1007 218.1 87.0007 219.3 82.0007 220.7C75.3007 222.5 68.7007 224.7 62.5007 227.6C59.4007 229.1 56.4007 230.7 54.1007 232.8C51.7007 234.9 49.8007 237.7 48.2007 240.7C43.5007 249.8 41.2007 260.7 36.4007 269.9C26.4007 292.2 20.8007 316.5 18.1007 340.8L16.6007 339.2C89.2007 338.9 194.201 339.3 268.001 339.7Z" fill="black"/>
<path d="M188.101 275C184.601 276 172.401 263.3 169.901 261.1C167.601 263.7 151.401 282 143.401 280.8C134.601 279.5 112.101 264.4 100.701 240.7C94.401 227.7 94.201 219.8 94.901 215.5C95.201 213.5 95.801 212.2 96.101 211.5C97.101 209.2 104.301 200.3 106.101 200.4V200.5C107.001 210.1 110.101 219.4 115.301 227.5C121.701 237.4 131.801 249.3 145.901 255C168.801 264.3 180.701 255.1 182.701 244.8C184.001 238.2 181.701 230.4 179.601 226.9C178.401 225.9 177.601 224.4 177.201 222.9L176.401 219.6C178.201 219.2 179.901 218.7 181.701 218.2C182.201 218 182.801 217.9 183.301 217.7C183.601 218.1 184.001 218.5 184.301 218.9C188.501 223.7 192.901 230.3 195.301 241.5C199.301 259.4 192.001 273.8 188.101 275Z" fill="black"/>
<path d="M169.601 260.5C169.601 260.5 176.901 264.7 176.701 268.2C176.501 271.7 178.601 282.8 178.601 282.8" stroke="black" stroke-width="3" stroke-miterlimit="10" stroke-linecap="round" stroke-linejoin="round"/>
<path d="M169.501 273.8C170.826 273.8 171.901 272.725 171.901 271.4C171.901 270.075 170.826 269 169.501 269C168.175 269 167.101 270.075 167.101 271.4C167.101 272.725 168.175 273.8 169.501 273.8Z" fill="black"/>
<path d="M170.3 283.2C171.626 283.2 172.7 282.125 172.7 280.8C172.7 279.474 171.626 278.4 170.3 278.4C168.975 278.4 167.9 279.474 167.9 280.8C167.9 282.125 168.975 283.2 170.3 283.2Z" fill="black"/>
<path d="M65.9004 340.4L61.4004 303.3" stroke="#544D4D" stroke-width="3" stroke-miterlimit="10" stroke-linecap="round" stroke-linejoin="round"/>
<path d="M240.601 290.7C240.601 290.7 237.601 298 238.501 305.3C239.401 312.6 242.001 323.3 238.301 340.4" stroke="#544D4D" stroke-width="3" stroke-miterlimit="10" stroke-linecap="round" stroke-linejoin="round"/>
<path d="M106.1 200.4C106.1 200.4 138.4 190.4 183.4 217.6C183.4 217.6 195.8 251 188.1 256.1C180.4 261.2 156.2 261.7 139.3 256.1C122.3 250.6 100.5 223.1 106.1 200.4Z" fill="black"/>
</svg>
