<svg width="306" height="373" viewBox="0 0 306 373" fill="none" xmlns="http://www.w3.org/2000/svg">
<path d="M271 340.8L17.7002 335.2C33.3002 283.1 42.0002 237.2 53.7002 230.2C75.9002 216.9 95.9002 214.8 107.8 213.7C110.8 221.1 122.2 245.4 145.9 255C168.8 264.3 182.4 258.1 184.5 247.8C185.8 241.2 181.7 230.4 179.6 226.9C178.4 225.9 177.6 224.4 177.2 222.9L176.4 219.6C178.1 219.2 179.8 218.8 181.5 218.2C199.7 221.4 227.3 236.4 233.2 244.8C240.3 254.9 250.1 280.2 249.7 294.1C249.1 316.7 271 340.8 271 340.8Z" fill="white"/>
<path d="M273.4 341.9C198 340.8 92.0002 339.7 17.7002 337.8C16.3002 337.8 15.2002 336.6 15.2002 335.2C23.3002 307.9 29.8002 280.4 38.5002 253.2C39.6002 249.8 40.8002 246.5 42.2002 243.1C44.6002 237.8 47.0002 231.9 52.0002 228.3C54.9002 226.6 58.0002 224.9 61.0002 223.4C75.5002 216.2 91.6002 212.5 107.6 211.2C108.8 211.1 109.8 211.8 110.2 212.8C117.8 231 131.6 247.9 150.9 254.2C160.4 257.5 177.3 260.3 181.8 248.5C183.3 242.8 181.1 236.8 179.1 231.4C178.6 230.3 178.1 229.2 177.6 228.3L178.1 228.9C176.2 227.3 175 224.6 174.6 222.2L174.1 220.2C173.8 218.8 174.7 217.4 176.1 217.1C177.8 216.7 179.4 216.3 181 215.8C195 216.8 223.7 231 233.6 241C239.4 247.7 242.7 256.4 246 264.5C248.4 271 250.5 277.7 251.7 284.6C252.2 287.2 252.5 289.9 252.5 292.6C252.4 296.6 252.7 300.7 253.8 304.7C257.1 317.2 264.4 328.7 272.7 338.6L272.9 338.8L273 338.9C273 338.9 272.9 338.8 273.3 339.2C273.6 340 273.7 341.2 273.4 341.9ZM268.7 339.8C268.6 340.1 268.4 340.5 268.5 341C268.5 341.5 268.7 341.9 268.9 342.2C269.2 342.6 269.1 342.4 269.1 342.5L269 342.4C268.3 341.4 266.9 339.4 266.2 338.3C258 325.4 249.9 311.1 249.6 295.4C249.8 285.1 246.6 275.2 243.2 265.7C240.8 259.3 238 253.1 234.4 247.3C233.5 245.9 232.6 244.5 231.4 243.3C227.8 239.8 223.4 237 219 234.5C207.3 228 194.6 222.6 181.3 220.9L182.5 220.8C180.7 221.4 178.9 221.8 177.1 222.2L179.1 219.1C179.7 221.2 179.8 223.7 181.5 225.1C182.6 226.4 183.2 228.1 183.9 229.5C185.5 233.3 186.6 237.2 187.3 241.3C189.1 251.1 183.3 259.2 173.7 261.4C165.6 263.3 157.1 261.6 149.4 259.1C128.7 252.5 113.7 234.4 105.6 214.8L108.2 216.4C92.4002 216.2 76.7002 219.3 62.4002 226.1C59.3002 227.6 56.1002 229.3 53.2002 231.1C49.1002 234.4 47.1002 239.6 45.0002 244.3C38.5002 260.7 34.7002 277.9 30.4002 294.9C27.4002 306.9 23.4002 323.9 20.4002 336L18.0002 332.7C90.4002 334.2 195.1 337.4 268.7 339.8Z" fill="black"/>
<path d="M62.1 340.4C62.1 340.4 60.8 308 59.5 302" stroke="black" stroke-width="5.1512" stroke-miterlimit="10" stroke-linecap="round" stroke-linejoin="round"/>
<path d="M239.3 340.4C239.3 340.4 236.3 320.3 236.3 316.8C236.3 313.4 238.9 302.2 239.3 292.4" stroke="black" stroke-width="5.1512" stroke-miterlimit="10" stroke-linecap="round" stroke-linejoin="round"/>
<path d="M91.6006 315.2V303.3L120.301 315C120.201 315 97.1006 315.6 91.6006 315.2Z" fill="white"/>
<path d="M127.601 314.6C127.601 314.6 99.3006 316.5 84.1006 314.6" stroke="black" stroke-width="5.1512" stroke-miterlimit="10" stroke-linecap="round" stroke-linejoin="round"/>
<path d="M160 276.5L156.4 351.1C156.4 351.1 188.1 372.7 188.1 372.1C188.1 371.5 203.1 345.3 203.1 345.3L179.7 273.5C179.7 273.5 176.7 276.6 160 276.5Z" fill="black"/>
<path d="M167.201 252.5C167.201 252.5 153.501 265.4 151.701 268.8C149.901 272.2 159.401 277.6 159.401 277.6C159.401 277.6 174.701 280.8 181.601 274.6C181.601 274.6 185.501 270.3 184.701 266.2C184.001 262.2 167.201 252.5 167.201 252.5Z" fill="black"/>
<path d="M103.7 204.1C103.8 204 103.9 203.9 104 203.8C105.1 202.5 106.7 201.7 108.5 201.5C116.9 200.5 117.8 201.4 119.6 204.2C128.3 217.8 139.6 243.8 167.3 252.6L140.6 279.8C139.2 281.6 136.7 281.9 134.9 280.6C126.3 274.2 109.1 254.6 99.5998 230.7C97.5998 225.7 97.1998 220.2 98.1998 215C97.9998 214.8 102 206.5 103.7 204.1Z" fill="white"/>
<path d="M103 203.6C104.5 202.2 106.2 201 108.3 200.7C111.1 200.4 114 199.8 116.9 200.4C119.9 201.3 121 204.6 122.7 206.9C130.2 219.2 138 231.7 149.5 240.4C153.6 243.7 158.3 246.2 163.1 248.2C164.9 248.9 166.8 249.5 168.6 250.3C170.1 251 170.4 253.2 169.1 254.2C161.7 260.2 154.7 266.7 147.8 273.4C146.2 275 142.5 278.7 141.1 280.1C139.5 282.2 136.3 282.5 134.3 280.9L133.3 280.1C129.9 277.3 126.8 274.1 123.8 270.9C113.1 259.1 104.1 245.7 98.0998 230.9C95.9998 225.6 95.4998 219.6 96.7998 214.1C98.2998 210.4 100.3 206.7 103 203.6ZM105 205C102.8 208.1 100.9 211.9 99.2998 215.4L99.3998 215.1C98.7998 218.4 98.7998 221.8 99.4998 225C100.1 228.4 101.6 231.4 102.9 234.5C105.6 240.9 109 247 112.6 252.9C116.2 258.8 120.3 264.5 124.9 269.8C128 273.4 131.3 276.9 135.1 279.8C135.4 280.1 135.7 280.2 136.1 280.4C137.5 281 139.2 280.5 140.1 279.3L143.4 275.9L146.7 272.4C153.3 265.5 159.6 258.3 165.5 250.8L166.5 254.9C159.3 252.7 152.5 248.8 146.6 243.9C134.9 234.4 127.3 221.2 120.1 208.4C119.2 207 118.3 205.2 117.4 203.9C117 203.3 116.7 203.1 116.1 202.9C113.8 202.3 111.1 202.7 108.7 203C107.1 203.2 105.8 203.9 105 205Z" fill="black"/>
<path d="M195.2 269.9C194.6 273.2 192.2 276.3 188.2 272.2L167.1 252.5C167.1 252.5 179.4 240.8 176.4 219.6C180.5 218.7 184.4 217.4 188 215.7C188.1 215.9 189.5 218.6 191.1 223.1C194.5 232.4 198.8 249.5 195.2 269.9Z" fill="white"/>
<path d="M195.8 270C195.2 274.8 191.6 276.8 187.9 273.1L180.8 266.5L173.7 259.9L166.6 253.3C166.2 252.9 166.2 252.3 166.5 251.9C172 245.5 174.8 236.8 174.8 228.4C174.8 225.4 174.4 222.5 173.9 219.5C173.7 218.3 174.7 217.2 176 217.1C180 217 184 216.5 188 215.5C188.1 215.4 188.3 215.5 188.3 215.6C196.3 232.4 198.8 251.7 195.8 270ZM194.7 269.8C197.1 252 194.5 233.5 186.2 217.6L186 217.3C185.9 217.2 185.8 217 185.8 217L189.2 218C185.3 219.9 181.2 221.2 177 222.1L179 219.2C179.6 225.4 179.1 231.7 177.3 237.6C175.4 243.5 172.4 248.9 167.9 253.3V251.8C171.5 255.1 178.6 261.8 182.1 265.1L189.1 271.8C191.6 274.4 194 273.4 194.7 269.8Z" fill="black"/>
</svg>
