<svg width="306" height="352" viewBox="0 0 306 352" fill="none" xmlns="http://www.w3.org/2000/svg">
<path d="M90.9002 214.6C94.4002 220.8 107.7 245.7 109.8 267.7L122.2 271.9C122.2 271.9 112.8 230.3 96.0002 211C96.0002 211 94.0002 210.1 91.5002 211.8C90.7002 212.5 90.3002 213.6 90.9002 214.6Z" fill="black"/>
<path d="M197.3 268C197.3 268 197.9 240.3 185.9 222.1C185.6 221.6 186 220.9 186.6 221C187.4 221.2 188.6 221.5 190.5 222.4C193.7 223.9 204.1 239.8 205 265.9C205 265.8 198.3 268 197.3 268Z" fill="black"/>
<path d="M231.5 242C226.3 236.5 210.6 228.3 207.9 228.5C208 228.7 208 229 208.1 229.3C212.3 244.4 208.9 264.9 193.6 268.3C177.7 271.8 164.4 272.3 132.5 269.1C109.1 266.8 87.0998 245.8 75.8998 225C74.7998 222.9 73.4998 220.8 72.0998 218.9C71.2998 218.3 69.7998 218.4 68.6998 219.3C65.8998 221.6 62.1998 221.4 62.1998 223.6C62.1998 223.6 40.9998 230.2 33.5998 276.7C29.3998 303 23.4998 337.1 23.2998 348.7H251C249.4 333.1 251 263.6 231.5 242Z" fill="black"/>
<path d="M229.6 243.8C226.6 240.8 222.7 238.5 219 236.3C215.6 234.3 211.4 232.1 207.9 231.1L210.2 227.9L210.3 228.5C213.1 240.2 212.5 254.1 204.4 263.7C201.6 266.9 197.5 269.2 193.3 269.9C185.5 271.5 177.4 272.4 169.4 272.4C155.4 272.3 141.6 271.2 127.8 269.3C118 267.2 108.9 262.3 101 256.2C89.9002 247.6 81.4002 236.3 73.5002 224.8C72.4002 223.2 71.1002 221.7 69.7002 220.4L70.2002 221C70.4002 221.2 70.5002 221.1 70.4002 221.1C70.4002 221.1 70.2002 221.1 70.1002 221.2C70.0002 221.2 70.0002 221.2 69.9002 221.4C68.3002 222.8 65.7002 223.5 64.1002 224.4C64.2002 224.4 64.4002 223.8 64.4002 223.7L62.6002 226.1L62.3002 226.2L61.9002 226.4C48.2002 233.8 41.6002 251.4 38.0002 265.8C34.5002 282.2 32.4002 299.1 29.6002 315.6C28.0002 326.6 26.0002 337.9 25.5002 348.8L22.9002 346.2H251L248.5 349C246.4 321.3 247.5 265.1 229.6 243.8ZM233.4 240.3C252.7 262.8 251.5 319.3 253.6 348.5C253.7 349.9 252.7 351.2 251.3 351.3C251.2 351.5 23.4002 351.2 23.3002 351.3C21.9002 351.3 20.7002 350.2 20.7002 348.8C20.9002 342.9 21.7002 337.2 22.4002 331.6C24.7002 314.8 27.5002 298.1 30.2002 281.4C31.9002 270.2 34.2002 258.7 38.7002 248.1C43.2002 237.6 49.9002 226.6 60.7002 221.5C60.9002 221.4 61.1002 221.3 61.4002 221.2L59.6002 223.6C59.5002 220.1 63.3002 219.2 65.7002 218.2C67.3002 217.3 68.6002 216 70.6002 216C71.6002 215.9 73.4002 216.3 74.2002 217.5C75.6002 220.3 76.8002 223.1 78.0002 225.9C80.0002 230.4 82.6002 234.6 85.6002 238.5C96.4002 252.2 111 264.2 128.4 267.7C134.2 268.7 140.2 268.9 146 269.4C161.7 270.5 177.5 270.7 192.8 266.9C196.4 266.1 199.5 264.2 201.8 261.4C208.6 252.8 208.6 240.2 205.6 230L205.4 229.2C204.9 227.7 206.1 226 207.7 226C210.6 226.1 212.8 227.5 215.4 228.6C221.8 231.8 228.1 235.2 233.4 240.3Z" fill="black"/>
<path d="M199.701 279.1C183.301 286.1 129.401 287.7 102.001 272.9C84.7006 263.6 73.5006 243.1 68.1006 235.2C64.1006 229.2 62.1006 223.6 62.1006 223.6C62.1006 221.4 65.9006 221.6 68.6006 219.3C69.7006 218.4 71.2006 218.3 72.0006 218.9C73.4006 220.9 74.7006 222.9 75.8006 225C87.0006 245.7 104.701 266.5 132.401 269.1C164.301 272.1 177.601 271.8 193.501 268.3C208.801 264.9 212.201 244.4 208.001 229.3C207.901 229.1 207.901 228.8 207.801 228.5C210.501 228.3 215.701 228.8 217.601 233.6C217.701 233.6 225.401 268.2 199.701 279.1Z" fill="white"/>
<path d="M200.3 280.5C193.7 283.2 186.8 284.2 179.9 285C173 285.8 166.1 286.1 159.2 286.1C141.9 285.9 124.3 284.3 108 278.1C89.4003 271.4 77.4003 254.5 67.4003 238.5C64.4003 234.1 61.6003 229.6 59.9003 224.5C59.4003 223.2 60.2003 221.4 61.3003 220.6C62.8003 219.4 64.5003 219.4 66.0003 218.8C67.0003 218.5 67.6003 217.9 68.5003 217.4C70.1003 216.7 71.9003 216.1 73.9003 217C85.4003 242.1 104.3 266.1 133.9 268.2C153.5 270 173.5 272 192.9 267.5C200.7 266.2 205.8 259.2 207.6 251.8C209.6 244.3 209 236.2 206.9 228.8C206.7 228.1 207.2 227.4 207.9 227.4C212.2 227 217.5 228.9 219 233.4C220.7 242.4 220.7 251.6 218.1 260.3C215.5 269.2 208.9 277 200.3 280.5ZM199.1 277.7C207.1 274.5 213 267.7 215.7 259.6C218.4 251.4 218.7 242.3 217 233.8C215.8 230.5 211.6 229.1 208 229.6L209 228.2C212.4 241 211.7 259.4 199 267.1C197.2 268.1 195.2 268.8 193.2 269.2C189.3 270 185.3 270.7 181.4 271.2C165.5 272.9 149.5 271.6 133.7 270.3C106.6 268.9 85.7003 247.6 74.1003 224.6C73.3003 222.8 72.4003 221.1 71.5003 219.3L71.7003 219.5C70.2003 218.6 68.6003 220.7 67.2003 221.2C65.9003 221.9 64.5003 222.2 63.4003 222.9C63.2003 223.1 63.1003 223.3 63.1003 223.6V223.3C65.4003 229.6 69.6003 235.3 73.2003 240.9C82.3003 254.9 93.3003 269 109.5 274.8C132.1 283.8 175.9 286 199.1 277.7Z" fill="black"/>
</svg>
