<svg width="306" height="306" viewBox="0 0 306 306" fill="none" xmlns="http://www.w3.org/2000/svg">
<path d="M229.2 123.5C230.5 119.6 229.6 84.2 214.4 70.4C199.3 56.6 148.5 56.3 148.5 56.3C114.4 56 98.4996 67.8 87.1996 104.8C80.2996 127.5 89.5996 105.5 58.4996 143.6C45.6996 160.4 45.7996 176.4 52.5996 189.7C69.9996 223.9 121.7 239.6 121.7 201.9C121.7 195.4 120 187.5 116.1 178C115.2 175.9 114.7 173.7 114.6 171.6C88.9996 162.2 93.4996 133.9 105.7 132.3C114.4 131.2 119 136.1 121.3 140.2C121.7 141.1 122 141.8 122.4 142.5C127.9 152.7 131 137.6 130.7 123.9C131.7 123.8 137.7 123.5 146.6 123.3C150.3 123.2 153.2 120.1 153 116.4C152.8 112.2 152.7 108 154.1 103.9C155.3 108.3 156 112.7 156.5 117.2C156.9 120.5 159.7 123.1 163 123.1C170.7 123.1 179.2 123.3 187.8 123.6C191.1 123.7 194 121.4 194.6 118.2C195.1 115.6 195.5 112.9 196.1 110.3C196.5 110.3 196.3 110.3 196.7 110.4C196.6 112.9 196.5 115.4 196.5 117.9C196.4 121.4 199.1 124.3 202.6 124.6H202.7C205.8 124.9 208.7 122.9 209.5 119.9C210.1 118 210.7 116 211.3 114.1C211.7 114.2 211.6 114.1 212 114.2C211.9 115.7 211.8 117.3 211.6 118.8C211.2 122 213.2 125 216.1 125.9C220.4 125.9 224.6 125.7 228.2 124.5C228.8 124.3 229.1 123.9 229.2 123.5Z" fill="black"/>
<path d="M122.6 142.7C122.2 142 121.9 141.3 121.5 140.4C121.9 141.2 122.3 142 122.6 142.7Z" fill="black"/>
</svg>
