<svg width="306" height="306" viewBox="0 0 306 306" fill="none" xmlns="http://www.w3.org/2000/svg">
<path d="M231.606 194.7C220.006 165.1 221.506 155.8 224.306 130.9C229.906 81.9003 212.206 70.0003 202.906 65.3003C163.306 45.2003 117.906 55.0003 100.806 82.6003C90.1062 99.8003 89.7062 113.6 83.7062 133.4C73.4062 167.3 48.6062 182.3 56.3062 217C66.9062 251.2 134.706 266.3 133.406 230.7C132.606 209.2 116.506 206.3 116.206 176.6C116.206 174.6 116.306 172.7 116.506 170.9C88.9062 162.2 93.3062 132.6 105.806 131C114.506 129.9 119.106 134.8 121.406 138.9C121.606 139.5 121.906 140 122.206 140.6C124.206 144 147.806 137.6 165.806 126.5C176.306 120 192.706 108.8 197.206 96.5003C197.406 96.0003 200.606 111.4 215.606 131.4C214.906 143.3 217.906 173 202.706 197.5C191.706 215.4 177.906 217 177.906 217C177.906 228.9 199.006 228.3 207.806 230.3C218.806 232.7 229.706 239.3 229.706 239.3C229.706 239.3 242.306 222 231.606 194.7Z" fill="black"/>
</svg>
