<svg width="306" height="306" viewBox="0 0 306 306" fill="none" xmlns="http://www.w3.org/2000/svg">
<path d="M219.9 110.1C219.7 108.9 219.4 107.7 219.2 106.4C218.1 101.5 216.5 96.9001 214.4 92.6001L202.6 97.5001C199.2 98.9001 195.4 99.3001 191.7 98.7001L144.9 90.6001C139.2 89.6001 133.7 92.9001 131.8 98.3001C130.4 102.2 128.2 107.7 126.4 111.6C112.2 113.9 107.5 110.5 96.1002 105.2C95.2002 104.8 93.9002 103.5 92.9002 103C94.7002 93.9001 87.8002 55.9001 96.4002 46.0001C99.3002 42.7001 102.2 42.3001 105 43.3001C111.5 45.6001 108.8 44.3001 113.5 39.3001C117.3 35.4001 122.1 32.0001 128 31.9001C130.9 31.8001 133.2 32.4001 135.1 33.5001C141.1 36.8001 148.4 35.7001 153.8 31.6001C155.5 30.4001 157.3 29.6001 159.3 29.6001C162.2 29.6001 164.8 30.8001 166.9 32.4001C170.9 35.4001 176.2 36.1001 181.1 35.1001C181.4 35.0001 181.7 35.0001 182 35.0001C183.2 35.0001 184.5 35.3001 185.6 35.8001C189.8 37.6001 194.5 37.8001 198.7 36.0001C200.7 35.2001 203.1 35.2001 205.5 37.5001C208.5 40.4001 212.4 42.3001 216.6 42.4001C217.7 42.4001 219.1 42.9001 220.8 44.0001C221.6 44.6001 222.3 45.7001 222.8 47.2001C223.6 49.5001 225.5 51.2001 227.9 51.9001C229.4 52.4001 230.5 53.9001 230.8 57.3001C231.7 68.0001 222.4 101.4 219.9 110.1Z" fill="black"/>
<path d="M227.701 51.7C223.301 53.3 222.501 52.4 217.501 51.1C212.501 49.8 208.101 55.4 204.501 49.6C199.301 41.1 189.701 46.9 187.801 45.3C185.901 43.7 180.001 38.4 171.701 44C166.201 47.7 159.201 41.1 150.401 41.1C132.801 41.1 129.601 54 123.501 48.1C117.401 42.3 120.901 46.2 111.901 47.8C102.901 49.4 98.3008 44 98.3008 44C100.501 42.5 102.701 42.5 104.801 43.2C111.301 45.5 108.601 44.2 113.301 39.2C117.101 35.3 121.901 31.9 127.801 31.8C130.701 31.7 133.001 32.3 134.901 33.4C140.901 36.7 148.201 35.6 153.601 31.5C155.301 30.3 157.101 29.5 159.101 29.5C162.001 29.5 164.601 30.7 166.701 32.3C170.701 35.3 176.001 36 180.901 35C181.201 34.9 181.501 34.9 181.801 34.9C183.001 34.9 184.301 35.2 185.401 35.7C189.601 37.5 194.301 37.7 198.501 35.9C200.501 35.1 202.901 35.1 205.301 37.4C208.301 40.3 212.201 42.2 216.401 42.3C217.501 42.3 218.901 42.8 220.601 43.9C221.401 44.5 222.101 45.6 222.601 47.1C223.401 49.3 225.301 51 227.701 51.7Z" fill="black"/>
<path d="M122.7 140.3C122.7 140.9 121.9 141.2 121.6 140.6C119.3 136.4 114.7 131.3 105.9 132.4C95.3004 133.7 90.5004 155.2 106.1 167C109.8 169.7 113.7 171.2 114.9 171.7C115.2 171.8 115.3 172.1 115.3 172.3L114.3 179.3C114.2 179.7 113.8 180.1 113.5 179.8C110 175.8 108.6 173.6 100.2 164.9C94.1004 158.6 87.2004 149.7 86.3004 134.9C85.6004 121.9 88.7004 111.7 92.6004 103.4C92.7004 103.1 93.1004 103 93.4004 103.1C106.6 109.2 111.5 112.7 125.7 110.6C126.2 110.5 126.5 111 126.3 111.4C124.7 114.5 123.1 117 121.4 118.2C116.5 122 122.2 131.2 122.7 140.3Z" fill="#D6D6D6"/>
<path d="M123.4 140.2C123.5 141.8 121.4 142.1 120.8 140.7C118.8 137.1 115.5 134.2 111.5 133.4C106.9 132.5 102.3 133.5 99.8005 137.9C95.2005 145.9 97.7005 156.8 104.2 163.1C107.4 166 110.5 170 115 171.2C115.5 171.3 115.8 171.9 115.7 172.3V172.4V172.6V173.1V174C115.7 175.5 115.7 177.6 115.6 179.1C115.6 180.7 113.5 181.9 112.4 180.5C111.2 179.3 109.4 176.9 108.3 175.5C102.2 167.9 94.3005 161.3 90.2005 152.2C84.0005 138.6 85.3005 122.6 90.3005 108.9C91.1005 106.9 91.8005 104.8 92.9005 103C93.2005 102.8 93.5005 102.9 93.8005 103.1C100.3 106 107.2 110 114.4 110.9C118.1 111.3 121.8 111.1 125.4 110.6C125.7 110.6 126 110.4 126.3 110.6C127.2 111.1 126 112.5 125.8 113.2C124.9 115.2 123.8 117.3 122.2 118.8C119 121.9 123 128.4 123.4 132.4C123.6 135.1 123.2 137.7 123.4 140.2ZM121.9 140.3C121.8 137.9 120.3 135.7 119.3 133.5C117.8 129.2 116.2 124.3 117.9 119.7C118.5 118.3 119.7 117.2 120.9 116.4C122.5 114.9 123.9 112.9 124.9 110.9C124.6 111.3 125 112.4 125.8 112.3C112.3 114.6 105 110.4 93.0005 104.7L92.8005 104.6C93.2005 104.8 93.7005 104.6 93.9005 104.2V104.1C93.6005 104.8 93.2005 105.5 92.9005 106.3C86.8005 120.3 85.2005 137.4 92.1005 151.4C96.4005 160.2 104.3 166.3 110.3 173.9C111.3 175.1 113.4 177.6 114.4 178.9C114.1 178.5 113.1 178.4 112.9 178.9L112.8 179.1C112.9 178.6 113 178 113.2 177.5C113.6 175.9 114.2 173.9 114.6 172.2C114.6 172.1 114.6 172.1 114.6 172.1C113.7 171.7 112.7 171.3 111.8 170.9C109.5 169.9 106.9 169.4 104.7 168C97.3005 162.9 93.2005 153 95.0005 144C96.1005 137.6 100.8 130.8 108 131.4C113.9 131.3 119.4 134.8 122.1 140L122.2 140.2C122.1 140.1 122 140.1 121.9 140.3Z" fill="black"/>
<path d="M122.801 117C122.301 117.5 121.901 118 121.401 118.3C120.201 119.2 119.601 120.5 119.401 122C113.201 122.3 104.301 119.7 101.201 118.7C100.501 118.5 100.101 117.9 100.101 117.2V116.7C100.101 115.6 101.101 114.9 102.101 115.1C109.101 117 122.401 117 122.801 117Z" fill="black"/>
<path d="M120.801 130.4C115.301 130 110.001 129 107.601 128.5C106.801 128.3 106.301 127.7 106.301 126.9C106.301 125.9 107.201 125.2 108.201 125.3C112.701 126 117.501 125.9 119.801 125.8C119.901 127.2 120.301 128.7 120.801 130.4Z" fill="black"/>
</svg>
