<svg width="306" height="306" viewBox="0 0 306 306" fill="none" xmlns="http://www.w3.org/2000/svg">
<path d="M227.2 91.0999C234 85.1999 244 76.2999 233.7 63.8999C223.4 51.4999 204.4 56.2999 204.4 56.2999C204.4 56.2999 208.4 44.8999 197.3 40.7999C183.9 35.8999 145.9 50.6999 145.9 50.6999C143.1 50.5999 140.4 50.4999 137.9 50.4999C105.1 49.7999 95.5999 70.4999 95.1999 89.0999C95.1999 89.0999 84.1 92.7999 81.3 110.5C80.4 116.2 79.4999 123.5 81.6999 132.3C87.5999 156.3 103.5 173 113.6 181.5C117.4 178.7 110.7 174.8 111.2 170.2C89.4999 159.6 94.1999 133.9 105.8 132.4C114.7 131.3 119.4 136.5 121.6 140.7C122.5 141.9 110.5 74.9999 179.7 96.8999C193.4 101.2 207.5 105 217.1 98.0999C218.2 100.2 218.9 102.7 219.1 106.4C219.1 106.4 235.8 99.8999 233.3 93.0999C232.5 90.7999 227.2 91.0999 227.2 91.0999Z" fill="black"/>
</svg>
