<svg width="306" height="306" viewBox="0 0 306 306" fill="none" xmlns="http://www.w3.org/2000/svg">
<path d="M199.3 97C201.4 98.1 203.2 97.1 204.3 94.9C215.9 93.1 218.6 116.3 219 117.7C220.3 123 227.3 124 229.9 119.3C237 106.3 241.6 88 221.5 76.6C224 72.9 222.2 54.5 201.3 50C193.8 48.4 184 55.4 171.7 52.7C123.6 42 73.7 52.2 77.6 115.7C78.5 129.6 79.4 144.6 55.8 154.6C28.4 166.2 29.8 196.5 49.1 202.7C57.1 205.3 30.7 223.3 46.1 239.3C54.1 247.7 68.4 230.7 82.9 239.9C104.8 253.8 115.7 247.5 120 242C128.8 230.8 117.9 208.3 117.9 208.3C117.9 208.3 122.2 201.4 123.6 197.7C130.4 179.5 114.2 171.3 114.2 171.3C89.2 161.7 93.7 133.8 105.9 132.2C118.7 130.6 122.7 142 123.4 144.8C123.4 144.8 134.7 160.4 156.5 124.8C178.1 89.3 189.8 91.9 199.3 97Z" fill="black"/>
</svg>
