<svg width="306" height="306" viewBox="0 0 306 306" fill="none" xmlns="http://www.w3.org/2000/svg">
<path d="M236.3 85.8001C233 64.8001 218.1 51.8001 194.6 56.0001C192.3 50.4001 187.4 42.5001 177.3 41.0001C169.2 39.8001 167 44.0001 166.8 48.5001C162.7 46.1001 156.9 44.0001 149.3 45.1001C143 46.0001 140.8 48.5001 140.3 51.2001C128.6 52.0001 116.2 54.9001 104.7 61.6001C74.9999 78.9001 81.9999 120.8 91.3999 143.5C91.5999 144.4 91.8999 145.4 92.0999 146.3C89.2999 144.8 78.0999 140 62.7999 146.7C46.6999 153.8 55.0999 174.1 65.3999 172.6C65.3999 172.6 45.9999 180.1 53.1999 196.1C58.9999 209 76.5999 201.5 76.5999 201.5C76.5999 201.5 68.2999 214.8 80.4999 220.8C92.8999 226.9 99.1999 209.7 99.1999 209.7C99.1999 209.7 102.1 223.8 114.8 221.6C130.5 218.9 122.5 200.2 122.5 200.2C122.5 200.2 131 205.8 134.8 196.1C138.1 187.7 128.1 179.5 123.1 176.2C118.9 173.4 116.1 172.6 114.2 171.5C89.1999 161.9 93.6999 134 105.9 132.4C118.7 130.8 122.7 142.2 123.4 145C125.5 142.5 126.1 132.5 127.3 122.2C165.9 128 189.4 104 197.8 93.3001C201.1 95.0001 209.4 99.9001 215 108C222.1 118.3 234.9 115.9 236.7 96.8001C237.1 94.1001 237 90.5001 236.3 85.8001Z" fill="black"/>
</svg>
