<svg width="306" height="306" viewBox="0 0 306 306" fill="none" xmlns="http://www.w3.org/2000/svg">
<path d="M171.6 54.7999C126.8 50.4999 111.9 65.4999 106 70.7999C97.7004 78.0999 85.1004 107 85.6004 123.5C86.2004 146.5 104.6 170.8 105.4 172C109.5 178.1 113.7 181.8 114.8 183.1C114.2 180.9 113.2 173 114.1 171.6C89.1004 162 93.6004 134.1 105.8 132.5C118.6 130.9 122.6 142.3 123.3 145.1C123.3 145.1 123.3 145.4 123.4 145.9C123.5 145.9 123.6 146 123.7 146C128.1 147.5 132.2 143.1 130.7 138.8C128.4 132.5 125.8 125.2 125.4 120.5C124.8 106.9 130.3 91.3999 170.8 93.5999C176 93.8999 180.5 94.6999 184.9 95.5999C187.1 96.1999 193 98.4999 191 104.2C189.1 109.7 185.2 105.2 184.1 105.7C183.5 106 187.3 111.1 192.9 110.1C197.5 109.3 201.2 104.6 199.6 98.3999C201.2 98.5999 202.9 98.7999 204.6 98.9999C215.4 99.7999 225.1 91.3999 224.8 80.5999C224.5 69.5999 214.2 58.8999 171.6 54.7999Z" fill="black"/>
<path d="M115.101 183.5C115.101 183.4 115.001 183.3 114.801 183C115.001 183.6 115.101 183.8 115.101 183.5Z" fill="black"/>
</svg>
