<svg width="306" height="306" viewBox="0 0 306 306" fill="none" xmlns="http://www.w3.org/2000/svg">
<path d="M224.7 82.9C226.6 77.4 225.8 70.4 219.3 61.6C197.2 31.8 126 43.4 126 43.4C126 43.4 133.5 45.4 142 49.5C118 47.4 100.9 52.6 85.5998 51C85.5998 51 92.4998 59 108.3 65.5C92.7998 71.2 80.2998 84 69.2998 112.6C69.2998 112.6 76.7998 107.9 89.0998 103.7C81.9998 130 91.6998 150 98.8998 162.5C103.2 170.3 105.6 173.8 108.7 179.3C113 187 115.4 194.9 115.4 194.9C116.4 177.1 114 171.5 114 171.5C88.9998 161.9 93.4998 134 105.7 132.4C118.5 130.8 122.5 142.2 123.2 145C125.6 142.2 123.4 131.5 123.8 120.6C125.6 149.4 141.5 178 141.5 178C141.5 178 137.5 113.2 152.9 100C153.2 99.7 153.6 99.4 153.9 99.2C150.6 118 159 126.4 159 126.4C159.6 107.9 164.1 99.1 169.8 95.6C174.7 97.1 179.8 98.9 185.4 100.3C188.5 101.1 191.8 101.8 195.3 102.3C195.9 102.4 196.5 102.4 197.1 102.4C203.6 102.4 209.8 98.1 214.5 98.9C216.1 99.2 217.3 100.4 217.8 102C218.2 103.5 218.6 105 219 106.6C220.6 113.7 224.3 170.7 224.9 165.4C226.8 150.8 261.4 102.1 224.7 82.9Z" fill="black"/>
</svg>
