<svg width="306" height="306" viewBox="0 0 306 306" fill="none" xmlns="http://www.w3.org/2000/svg">
<path d="M226.7 82.6001C233.8 56.9001 205 40.8001 197.3 52.4001C191.7 60.8001 170.1 54.3001 137.3 53.7001C104.5 53.0001 95.7003 70.4001 95.3003 89.1001C95.3003 89.1001 80.9003 96.7001 81.8003 123.5C82.7003 151.3 111.3 173.7 114.8 187.8C114.8 187.8 115.2 189.6 111.4 170.3C89.6003 159.8 94.2003 133.9 105.9 132.4C114.8 131.3 119.5 136.5 121.7 140.7C122.6 141.9 131.1 152.3 131.3 118.3C131.4 95.1001 154 87.5001 179.7 96.9001C193.1 101.8 207.2 105.4 216.9 98.4001C218.5 103 220.2 108.1 218.9 114.3C222.8 110.7 226.1 105.4 227 98.9001C227.6 95.0001 226.6 91.6001 224.4 88.6001C225.3 86.9001 226.1 84.8001 226.7 82.6001Z" fill="black"/>
</svg>
