<svg width="306" height="306" viewBox="0 0 306 306" fill="none" xmlns="http://www.w3.org/2000/svg">
<path d="M208.3 39.9001C208.2 39.9001 208.1 39.9001 207.9 40.0001C207.9 40.0001 207.9 40.0001 207.8 40.0001C207.3 40.1001 206.7 40.2001 206.2 40.4001C193.3 43.5001 189.6 50.8001 189.2 57.2001C182.9 56.0001 176.8 54.6001 171.5 52.9001C149 45.7001 124.1 40.9001 107.7 67.9001C107.7 67.9001 98.7002 69.1001 92.7002 74.3001C84.4002 81.6001 85.0003 107.1 85.5003 123.5C86.1003 146.5 104.6 171.5 105.6 172.6C111.9 180.2 115.5 188 114.5 181C114.2 178.6 112.7 175.1 114.1 171.5C89.1002 161.9 93.6003 134 105.8 132.4C118.6 130.8 122.6 142.2 123.3 145C123.3 145 123.7 153.3 125.2 155.7C126.7 158.1 136.6 162.1 136.6 162.1C136.6 162.1 135.7 145.3 135.5 143.6C135.3 141.9 126.7 138.7 125.2 120.4C124.6 106.8 127.5 81.9001 164.4 98.8001C173.1 102.8 192.5 107.7 211.4 105.3C211.4 105.3 233.7 106.3 244.1 86.4001C254.6 66.6001 236.2 34.5001 208.3 39.9001Z" fill="black"/>
<path d="M137.001 164.4C137.001 164.4 127.701 158.9 126.901 159.6C126.101 160.2 137.801 166.9 137.001 164.4Z" fill="black"/>
<path d="M137 165.9C137 165.9 130.9 163.2 130 163.7C129 164.2 138.1 168.7 137 165.9Z" fill="black"/>
</svg>
