<svg width="306" height="306" viewBox="0 0 306 306" fill="none" xmlns="http://www.w3.org/2000/svg">
<path d="M227.103 123.1C231.603 107.7 223.803 96.9998 218.203 91.7998C215.603 84.7998 211.203 77.8998 204.203 72.5998C202.803 71.4998 201.303 70.4998 199.603 69.5998C198.203 68.7998 196.703 68.0998 195.203 67.3998C182.003 61.6998 160.903 54.9998 140.003 58.5998C132.003 59.8998 124.003 62.7998 116.503 67.6998C116.403 67.6998 116.403 67.7998 116.403 67.7998C115.803 68.1998 115.203 68.5998 114.703 68.9998C113.303 67.2998 111.703 65.7998 109.903 64.3998C97.403 54.9998 83.803 56.5998 74.403 69.1998C65.003 81.6998 63.403 100.4 75.903 109.8C79.803 112.7 84.203 114.5 88.703 115.2C88.603 115.7 88.603 116.3 88.503 116.8C83.003 166.1 120.703 188.3 117.803 172.8C117.003 172.5 116.603 172.2 116.603 172C88.903 163.2 93.303 133.6 105.803 132C110.303 131.4 113.603 132.5 116.203 134.1C117.203 135.1 118.103 136 119.003 136.9C121.403 139.9 123.503 143.7 123.503 145.2C123.603 144 123.703 142.6 124.003 141.2C136.103 150.2 147.003 147 166.803 115.4C179.903 94.4998 187.703 90.3998 192.003 90.9998C193.703 91.5998 195.303 92.8998 196.803 95.0998C197.203 95.6998 197.603 96.2998 197.903 96.8998C206.703 96.6998 210.803 101.8 212.903 107.1C212.903 107.1 212.903 107.1 212.903 107.2C214.603 111.7 214.803 116.3 215.003 117.5C215.003 117.7 215.003 117.8 215.103 117.8C214.903 121.8 214.403 128.6 214.303 137.4C214.303 141.4 214.703 149.4 214.403 154C214.303 155.4 214.203 156.8 214.103 158.1C214.003 158.8 214.003 159.5 213.903 160.1C213.803 160.7 213.803 161.4 213.703 162.1C213.603 162.9 213.503 163.6 213.503 164.4C215.503 166.8 218.403 167.2 220.803 168.8C221.403 162 219.603 156.3 218.903 148.6C219.503 151.2 220.303 153.7 221.503 156.3C225.503 164.9 223.303 171.2 223.303 171.2L229.903 171.6C230.603 169.7 231.203 166.2 229.103 161.6C225.903 154.5 225.703 151.2 225.703 151.2C225.703 151.2 227.403 157 230.603 160.9C233.103 164.1 234.103 168.4 233.103 171.8L235.503 172C242.703 161.2 220.403 145.8 227.103 123.1ZM145.503 131.8C137.903 137.3 131.503 136.2 127.603 134.5C127.703 134.5 127.803 134.4 127.803 134.4C130.203 134.2 132.603 133.7 134.903 132.8C145.903 128.9 156.103 118.8 165.103 109.5C157.503 118.9 150.203 128.4 145.503 131.8Z" fill="black"/>
</svg>
