<svg width="306" height="306" viewBox="0 0 306 306" fill="none" xmlns="http://www.w3.org/2000/svg">
<path d="M222.2 60.5003C198.2 53.7003 195.6 66.1003 171.6 52.9003C147.6 39.6003 104.1 48.5003 95.9999 79.4003C95.9999 79.4003 82.5999 87.6003 81.6999 115.9C81.0999 134.9 90.9999 152.3 97.4999 161.6C101.9 168.8 106.5 174.1 109.2 178.9C113.5 186.6 115.6 195 115.6 195C116.6 185.4 118.9 176.6 117.5 172.7L114.2 171.6C89.1999 162 93.6999 134.1 105.9 132.5C118.7 130.9 122.7 142.3 123.4 145.1C125.1 143 124.5 136.7 124.1 129.2C144.1 139.1 164.1 116.6 170.8 99.2003C179.1 77.7003 197.4 94.5003 197.4 94.5003C197.4 94.5003 215.5 128.4 234.7 113.3C251.7 99.7003 248.3 67.8003 222.2 60.5003Z" fill="black"/>
</svg>
