<svg width="306" height="306" viewBox="0 0 306 306" fill="none" xmlns="http://www.w3.org/2000/svg">
<path d="M224.4 84.5001C224.3 87.8001 224.2 95.6001 222.3 98.2001C215.6 107.4 220.1 102.9 216.1 98.2001C210.7 96.9001 205 98.8001 193.8 98.6001C190.4 98.5001 157.4 96.7001 153.5 97.4001C150.5 97.9001 123.4 93.9001 133 134.8C133.7 138.5 133.7 138.8 134.5 141.9C135.8 147.1 135.1 153.1 128.8 152.5C126.9 152.3 124.6 150.2 123.5 145.5C123.5 145.5 120.4 130.5 105.8 132.3C93.2002 133.9 88.8002 164 117.1 172.4C117.1 172.4 120.9 184.9 126.5 193.2C131.4 200.5 123 211.2 114.7 198.4C115.5 213 100.1 211 99.8002 189.2C99.7002 188.3 99.6002 187.3 99.6002 186.3C98.0002 192 96.5002 196.5 95.9002 197.6C90.2002 208.5 81.3002 206.8 81.2002 190.8C81.2002 156.8 91.3002 128.2 91.3002 128.2C89.9002 112.5 89.8002 87.4001 97.6002 73.2001C111.2 48.2001 176.8 53.7001 189.2 55.2001C209.1 57.6001 225 59.8001 224.4 84.5001Z" fill="black"/>
</svg>
