<svg width="306" height="306" viewBox="0 0 306 306" fill="none" xmlns="http://www.w3.org/2000/svg">
<path d="M108.599 169.3C110.799 170.8 113.999 172.4 113.999 172.4C113.999 172.4 114.599 181.3 114.499 184.4C114.399 187.3 113.299 196.2 113.299 196.2C113.299 196.2 110.599 181.1 102.599 172.7C98.1994 168.1 91.0994 163 86.8994 145.1L90.9994 145.8C90.9994 145.8 93.6994 137.3 93.6994 137.9C93.6994 138.4 93.6994 146.6 93.6994 146.6L96.1994 146.8C95.6994 154.3 99.2994 163 108.599 169.3Z" fill="#D6D6D6"/>
<path d="M109.5 168C111.4 169.2 113.5 170.3 115.5 171.3L115.6 172.2C115.8 175.8 116.3 180.7 116.2 184.3C115.9 190.9 114.4 198.6 113.6 205.1C111.7 195.5 109.7 184.9 104 176.7C101.3 172.8 97.1998 169.8 94.2998 165.8C89.6998 159.8 87.0998 152.5 85.2998 145.3L84.7998 143.1C86.1998 143.3 89.6998 143.9 91.0998 144.2L89.3998 145.2L90.6998 141.1C90.8998 140.5 91.4998 138.6 91.6998 138C91.8998 137.6 91.9998 137.1 92.2998 136.7C93.1998 135.6 94.9998 136.3 94.8998 137.8V146.4L93.4998 144.9L95.7998 146.6C96.4998 155.6 102 163.5 109.5 168ZM108.2 170C100.5 164.8 94.8998 156.2 95.0998 146.7L95.9998 147.8L93.4998 148L92.2998 148.1C92.0998 147.1 92.1998 139.1 92.1998 137.9V137.8V137.9C92.1998 138 92.1998 138.1 92.2998 138.2C92.5998 139.3 94.1998 139.5 94.7998 138.7C94.8998 138.6 94.8998 138.5 94.9998 138.4L94.8998 138.6C94.5998 139.5 93.9998 141.2 93.6998 142.1C93.3998 143 92.2998 146.5 91.9998 147.4C91.0998 147.2 87.5998 146.7 86.5998 146.5L88.2998 144.7C90.4998 154 94.2998 162.8 101.5 169.4C109 176.2 112.7 186.1 114.8 195.9L111.8 196C112.7 190.3 113.8 184.2 113.3 178.4L113 172.5L113.5 173.3C111.7 172.2 109.9 171.2 108.2 170Z" fill="black"/>
<path d="M235.4 132.3L227.8 133.9C227.6 144 227.2 151.3 227.2 151.3H215.7C215.7 151.3 214.1 145.5 215.8 129.3C216.4 124.1 219.5 118 218.9 113.7C217.8 105.8 215.2 99.5 212.7 95.7C208 91.5 199.5 97.5 199.1 97.8L200 95.7C197.5 97.3 195.7 98.9 195.7 98.9C195.7 98.9 194.6 96.6 192.5 93.6C192.6 94.6 192.7 95.6 192.6 96.4C192.6 96.4 191.1 93.8 188.6 90.9C189.6 94.1 189.3 96.8 189.3 96.8C180.6 84.2 173.1 86 169.3 88.3C158.5 100.5 157.9 132.3 157.9 132.3L147.1 131.2C147.1 131.2 147 127.6 147.3 122C145 137.5 144.6 151.3 144.6 151.3L124.4 149.8L123.5 145.6C123.5 145.6 120.4 130.6 105.8 132.4C100.3 133.1 96.3002 139.3 96.0002 146.7L93.5002 146.5C93.5002 146.5 93.5002 138.3 93.5002 137.8C93.5002 137.3 90.8002 145.7 90.8002 145.7L82.7002 145L77.7002 143.6C77.7002 143.6 82.8002 82.8 101.9 67.4C112.7 58.7 120.4 57.9 120.4 57.9C123.9 54.3 131.2 47.9 140.3 47.2C153.2 46.2 214.9 61.7 222.6 77.7C222.9 78.3 223.2 79 223.4 79.7C226.1 85.9 233 105.3 235.4 132.3Z" fill="black"/>
</svg>
