<svg width="306" height="306" viewBox="0 0 306 306" fill="none" xmlns="http://www.w3.org/2000/svg">
<path d="M219.372 134.6C220.372 128.3 221.072 122.5 221.472 117C229.572 109.4 230.272 78.1999 210.772 77.9999C210.772 77.9999 207.072 57.7999 189.872 54.8999C176.872 52.6999 171.172 54.9999 151.972 58.6999C151.672 58.7999 151.372 58.8999 150.972 58.8999C127.972 60.5999 108.572 70.7999 99.7725 83.0999C92.3725 93.4999 89.0725 102.3 88.2725 114C88.2725 114.7 88.1725 115.4 88.1725 116.1V116.3C88.0725 118.5 88.0725 120.8 88.1725 123.2C87.7725 128.8 86.0725 136.4 80.5725 142C73.9725 148.7 70.9725 154.5 72.6725 166C58.2725 174.6 42.6725 189.3 58.1725 226.7C66.3725 221.8 76.4725 218.1 86.1725 216.5C89.2725 216 92.5725 215.6 96.0725 215.4C110.072 214.4 119.672 201.2 116.872 187.5C116.372 184.8 115.972 181.9 115.972 178.6C115.972 176.6 116.072 174.7 116.272 172.9C88.7725 164.2 93.1725 134.6 105.672 133C110.172 132.4 113.472 133.5 116.072 135.1C116.572 136 117.172 136.8 117.772 137.6C133.672 158.7 117.272 162.2 124.372 175.7C128.472 183.5 133.072 185.7 133.072 185.7C132.772 182.6 120.572 174.5 129.472 164.2C138.372 153.9 130.172 147.3 129.972 139.5C129.672 129.7 131.672 122.7 134.172 117.8C137.972 114.7 143.172 112.5 150.272 112.1C188.172 110 196.372 99.1999 197.772 92.4999C200.472 100.2 205.372 110.7 213.672 117.1C214.072 117.7 214.572 118.3 214.972 118.9C214.272 130.8 218.172 171.7 202.672 199.5C198.472 207.1 193.472 213.7 187.872 214.7C183.872 215.4 183.072 216.5 179.872 217.3C176.972 218.1 177.272 218.9 177.272 218.9C177.272 230.8 195.172 227.1 204.172 228.1C212.272 229 219.272 233.3 219.272 233.3C219.272 233.3 226.072 224.5 224.572 204.5C222.872 182.3 211.772 184.3 219.372 134.6Z" fill="black"/>
</svg>
