<svg width="306" height="306" viewBox="0 0 306 306" fill="none" xmlns="http://www.w3.org/2000/svg">
<path d="M225.33 204.7C223.63 182.4 212.43 184.3 220.03 134.6C221.03 128.3 221.73 122.5 222.13 117C230.43 106.1 234.23 75.1999 203.33 73.3999C203.33 73.3999 188.13 56.0999 151.63 57.8999C128.63 59.5999 109.23 70.7999 100.43 83.0999C93.0301 93.4999 89.7301 102.3 88.9301 114C88.9301 114.7 88.8301 115.4 88.8301 116.1V116.3C88.7301 118.5 88.7301 120.8 88.8301 123.2C88.5301 128.8 86.8301 136.4 81.3301 142C74.7301 148.7 71.7301 154.5 73.4301 166C68.7301 168.8 60.5301 177.2 58.3301 186C76.3301 202.9 112.73 209.9 114.63 210.5C116.43 206.3 118.73 192.4 117.73 187.6C117.23 184.9 116.83 182 116.83 178.7C116.83 176.7 116.93 174.8 117.13 173C89.5301 164.2 93.9301 134.6 106.43 133C110.93 132.4 114.23 133.5 116.83 135.1C117.33 136 117.93 136.8 118.53 137.6C134.43 158.7 142.03 107.9 149.03 108.6C192.53 112.9 197.03 99.1999 198.53 92.4999C215.03 96.5999 215.23 118.3 215.73 118.9C215.53 122.9 215.03 129.7 214.93 138.5C214.93 142.6 215.33 150.5 215.03 155.1C214.03 170.6 212.33 183.5 203.53 199.6C200.83 204.5 197.83 208.9 194.53 211.8C204.83 211.6 215.23 210.8 225.63 209.7C225.53 208.1 225.43 206.4 225.33 204.7Z" fill="black"/>
<path d="M197.93 89.6001C197.93 89.6001 205.23 102.5 197.93 110.5C190.63 118.5 212.23 106 205.13 89.6001" fill="black"/>
</svg>
