<svg width="306" height="306" viewBox="0 0 306 306" fill="none" xmlns="http://www.w3.org/2000/svg">
<path d="M208.3 39.9001C188.3 42.9001 177.2 53.4001 171.6 52.9001C126.8 48.5001 106 65.0001 100.1 70.3001C91.7995 77.6001 85.0995 107 85.5995 123.5C86.1995 146.5 104.6 171.5 105.5 172.6C111.6 179.9 113.1 189.5 114.6 184.2C115.1 182.5 113.7 173.5 114.2 171.5C89.1995 161.9 93.6995 134 105.9 132.4C118.7 130.8 122.7 142.2 123.4 145C123.4 145 123.8 153.3 125.3 155.7C126.8 158.1 136.7 162.1 136.7 162.1C136.7 162.1 135.8 145.3 135.6 143.6C135.4 141.9 126.8 138.7 125.3 120.4C124.7 106.8 127.6 81.9001 164.5 98.8001C173.2 102.8 192.6 107.7 211.5 105.3C211.5 105.3 233.8 106.3 244.2 86.4001C254.6 66.6001 236.4 35.6001 208.3 39.9001Z" fill="black"/>
<path d="M137 164.4C137 164.4 127.7 158.9 126.9 159.6C126.1 160.2 137.8 166.9 137 164.4Z" fill="black"/>
<path d="M137 165.9C137 165.9 130.9 163.2 130 163.7C129 164.2 138.1 168.7 137 165.9Z" fill="black"/>
</svg>
