<svg width="306" height="306" viewBox="0 0 306 306" fill="none" xmlns="http://www.w3.org/2000/svg">
<path d="M224.8 92.8C229 88.1 231.6 81.9 231.6 75.1C231.6 60.4 219.7 48.5 205 48.5C194.9 48.5 186.1 54.2 181.6 62.5C163 56.3 145.7 56.4 131.3 61.3C125.9 53.6 117 48.5 106.9 48.5C90.4998 48.5 77.2998 61.8 77.2998 78.1C77.2998 89.1 83.2998 98.8 92.2998 103.9C82.7998 139.1 98.1998 163.2 106.1 172.7C114.1 182.3 114.8 189.6 114.8 189.6C118.9 187.3 114.1 177 114.2 171.6C89.1998 162 93.6998 134.1 105.9 132.5C118.7 130.9 122.7 142.3 123.4 145.1C125.8 142.3 126.3 129.7 127.9 117.9L128.8 135C128.8 135 150.9 132.5 175.7 132.3C176 128 176.7 119.8 176.5 115.9C176.5 115.9 178.6 124.8 179.5 132.3C180.5 132.3 181.4 132.3 182.4 132.3C183.9 132.3 185.5 132.3 187.3 132.4C187.6 128.8 188.2 122.4 188.2 119.5C188.2 119.5 189.4 126.5 189.9 132.5C196.7 132.7 204.6 133.1 211.6 134C212 131.4 213.1 124.6 213.3 120.5C213.3 120.5 215 126.5 214.3 134.4C215.9 134.6 217.5 134.9 218.9 135.2C218.8 136.1 218.2 139 218.2 139C222.1 139.6 226.2 137.2 226.2 137.2C226 137.1 232.2 116.7 224.8 92.8Z" fill="black"/>
</svg>
