<svg width="306" height="306" viewBox="0 0 306 306" fill="none" xmlns="http://www.w3.org/2000/svg">
<path d="M232 113.1C229.2 121.8 222.5 129.1 218.2 134C219.2 129.3 218.3 126.5 218.5 123.2C218.8 118.7 220.4 113.7 220.1 111.7C219.9 109.9 219.5 108.2 219.1 106.4C218.6 104.2 218 102.1 217.3 100C201.6 115.3 174.7 100.2 174.7 100.2C174.7 100.2 169 104.9 159 103.8C148.3 102.7 145.4 96.1 145.4 96.1C142.5 116.3 123.4 108.6 126.9 128.7C127.9 134.2 127.9 139.5 123.2 145C122.4 142.2 118.5 130.8 105.7 132.4C93.6 133.9 89 161.9 114 171.5C113.7 180.8 114.7 193.4 113.7 190.1C106.7 168.5 92.7 171.9 86.1 155.6C83 147.8 83.5 140.9 85.1 135.8C86.7 130.9 86.6 125.6 85 120.7C83.2 115 81.8 106.4 85.1 96C90.7 78.2 102.7 74.1 105.8 72C108.9 69.9 107.4 50.7 129.1 44.7C146.4 39.9 159.4 50 163.2 49.3C167 48.6 193.6 31.1 214.1 47.6C233.9 63.6 226.5 82.5 226.5 82.5C226.5 82.5 238.8 92 232 113.1Z" fill="black"/>
</svg>
