<svg width="306" height="306" viewBox="0 0 306 306" fill="none" xmlns="http://www.w3.org/2000/svg">
<path d="M219.1 106.4C218.6 104.2 218 102.1 217.3 99.9999C212 95.7999 206.4 93.0999 197.9 91.8999C175 88.7999 156.9 90.8999 137.6 95.0999C125.5 97.6999 128 139.5 123.3 145C122.5 142.2 118.6 130.8 105.8 132.4C93.7 133.9 89.1 161.9 114.1 171.5C113.9 177 116.1 183.1 114.7 189.5C114.7 189.5 114 182.2 106 172.6C98 163 72 138.1 82.8 101.7C93.6 65.2999 142.5 46.2999 188 64.7999C195.8 67.9999 202.2 72.4999 207.3 77.1999C219.3 88.1999 225.5 91.7999 223.7 107.9C223.1 113.3 220.7 113.5 219.1 106.4Z" fill="black"/>
<path d="M203.2 89.1999C203.2 89.1999 173.7 134.4 118.7 120.4C118.7 120.4 108 93.4999 131.3 83.1999C154.6 72.8999 197.5 80.1999 203.2 89.1999Z" fill="black"/>
<path d="M200.101 89.8003C200.101 89.8003 203.901 100.3 211.401 108.8C216.301 114.3 222.701 118.9 230.701 119.1C230.701 119.1 233.201 91.9003 215.401 81.3003C197.601 70.7003 200.101 89.8003 200.101 89.8003Z" fill="black"/>
<path d="M127 72.4999C127 72.4999 94.8004 22.3999 66.5004 58.6999C38.2004 94.9999 69.1004 189.8 51.9004 218.3C51.9004 218.3 71.6004 204 76.8004 176C76.8004 176 77.4004 187.6 73.9004 203.8C73.9004 203.8 94.8004 179.7 94.8004 150.8C94.8004 121.9 115.7 79.8999 127 72.4999Z" fill="black"/>
<path d="M220.601 128.9C224.201 144.2 220.601 170.7 220.601 170.7C220.601 170.7 264.601 100.8 229.001 74.3002C199.001 51.9002 134.301 74.7002 134.301 74.7002C134.301 74.7002 195.001 60.1002 206.901 88.0002C217.701 113.2 212.101 91.9002 215.501 106.9C215.801 108.4 220.101 126.8 220.601 128.9Z" fill="black"/>
</svg>
