<svg width="306" height="306" viewBox="0 0 306 306" fill="none" xmlns="http://www.w3.org/2000/svg">
<path d="M222.4 97.7999C224.3 96.9999 222.2 84.9999 223.9 83.8999C224.9 63.9999 227.3 70.5999 202.9 57.9999C163.5 37.5999 108.4 45.8999 87.9005 71.0999C70.5005 92.2999 75.6005 103.4 71.2005 118.4C66.9005 132.9 47.5005 133.3 56.4005 163.3C60.9005 178.5 42.8005 186.5 46.8005 212.1C74.7005 224.6 103.8 230.5 133.5 232.3C141.6 212.4 116.6 207.9 116.3 178.2C116.3 176.2 116.4 174.3 116.6 172.5C88.9005 163.8 93.4005 134.2 105.9 132.6C114.6 131.5 119.2 136.4 121.5 140.5C121.7 141.1 122 141.6 122.3 142.2C126.1 148.7 146.2 142.8 159.7 127.1C174.2 110.3 173.1 111.6 180.4 101.5C195.1 81.2999 209.1 94.3999 213.1 96.4999C225.3 102.7 213.7 90.2999 214.9 91.8999C220 98.7999 215.3 101.3 222.4 97.7999Z" fill="black"/>
<path d="M122.3 142C122 141.5 121.7 140.9 121.5 140.3C121.8 140.9 122.1 141.5 122.3 142Z" fill="black"/>
<path d="M214.9 93.7998C217.4 108.3 236.1 96.2998 227.5 69.9998C222.5 54.6998 204.3 51.2998 185.7 55.1998C153.7 61.8998 205.6 54.1998 208.8 77.2998C210.4 89.0998 212.5 79.7998 214.9 93.7998Z" fill="black"/>
</svg>
