<svg width="306" height="306" viewBox="0 0 306 306" fill="none" xmlns="http://www.w3.org/2000/svg">
<path d="M221.8 77.5001C219.4 70.2001 216 63.9001 212.5 60.5001C205.2 53.3001 202.8 63.0001 202.8 63.0001C202.8 63.0001 191.7 42.3001 176.4 39.5001C165.5 37.5001 168.4 50.1001 168.4 50.1001C168.4 50.1001 155.3 36.0001 137 36.0001C122.5 36.0001 128 48.5001 128 48.5001C128 48.5001 127.7 33.7001 116.8 36.3001C105.9 38.9001 110 60.4001 110 60.4001C101.3 38.6001 86.5005 59.8001 84.0005 105.4C82.5005 132.5 90.5005 150.1 95.9005 158.8C100.7 167.4 106.1 173.4 109.1 178.8C113.4 186.5 115.5 194.9 115.5 194.9C116.5 190.8 118.6 176.5 117.4 172.6L114.1 171.5C89.1005 161.9 93.6005 134 105.8 132.4C118.6 130.8 122.6 142.2 123.3 145C127.9 139.5 115.4 103.8 137.6 95.1001C159.1 86.7001 172.5 99.1001 195.5 102.2C202.7 103.2 209.5 97.9001 214.7 98.8001C216.3 99.1001 217.5 100.3 218 101.9C218.4 103.4 218.8 104.9 219.2 106.5C220.5 112.6 246.5 82.3001 221.8 77.5001Z" fill="black"/>
</svg>
