<svg width="306" height="306" viewBox="0 0 306 306" fill="none" xmlns="http://www.w3.org/2000/svg">
<path d="M222.6 203.4C228.1 194.1 227.3 182.6 227.3 182.6C226.5 192.8 221.4 199.8 218 203.4C214.6 203 210.8 201.9 206.4 199.9C227.3 179.3 222.4 125.1 222.3 120.4C221.7 96.1001 208.4 93.1001 192.7 100.6C123.7 76.8001 138.4 108.5 121.6 140.7C105.8 115.1 78.4004 153.1 111.2 170.2L114.3 203.6C107.1 204.6 100.8 204.8 95.3004 204.3C93.2004 198.4 87.3004 181.5 86.8004 179.8C86.2004 177.7 90.0004 200.8 90.0004 200.8C90.0004 200.8 82.9004 191.5 80.7004 186C80.7004 186 82.3004 195.9 85.8004 202.5C32.5004 187 91.8004 85.5001 95.4004 86.1001C95.4004 86.1001 85.6004 55.2001 109.7 41.6001C133.3 28.3001 151.6 44.8001 151.6 44.8001C159.7 24.3001 200.8 25.0001 207.8 50.2001C247.3 51.3001 230.7 106.5 230 107C231.4 119.4 252.9 199.9 222.6 203.4Z" fill="black"/>
</svg>
