<svg width="306" height="306" viewBox="0 0 306 306" fill="none" xmlns="http://www.w3.org/2000/svg">
<path d="M231.1 70.7997C217.3 56.6997 200.7 56.5997 191.6 57.9997C183.8 54.5997 161.7 46.7997 122.9 48.0997C82.2001 49.4997 102.3 69.9997 102.3 69.9997C102.3 69.9997 71.9001 70.3997 65.4001 80.6997C59.0001 90.9997 77.9001 98.1997 77.9001 98.1997C77.9001 98.1997 55.1001 105.8 64.1001 118.3C68.3001 124.1 78.9001 125.6 89.0001 125.6C89.0001 148.7 98.7001 165.4 104.7 172.6C112.7 182.2 114.7 189.5 114.7 189.5C116.1 182.7 113.9 176.9 114.1 171.5C89.1001 161.9 93.6001 134 105.8 132.4C118.6 130.8 122.6 142.2 123.3 145C127.9 139.5 124.8 103.5 137.6 95.0997C150.4 86.6997 168.8 92.8997 191.7 96.0997C196.9 96.7997 207.1 93.8997 210.7 95.6997C214.9 97.7997 221.1 105.9 220.4 121.5C222.9 121.6 225.2 121.8 227.5 121.9C228 117.4 228.4 109.1 227 100.5C227.2 101.2 230.9 113.2 230.9 122.1C232.4 122.2 233.9 122.2 235.5 122.3C235.9 119.7 236.4 115.8 236.4 113.9C236.4 111.8 237.3 118.2 237.8 122.3C239.1 122.3 242.3 122.5 243.7 122.5C248.6 105.8 243.2 83.1997 231.1 70.7997Z" fill="black"/>
</svg>
