<svg width="306" height="306" viewBox="0 0 306 306" fill="none" xmlns="http://www.w3.org/2000/svg">
<path d="M223.627 73.793C225.427 69.593 225.427 64.993 222.427 60.993C213.727 49.493 186.827 58.193 171.827 53.393C149.327 46.093 121.427 45.1931 105.027 72.1931C100.927 78.9931 98.9266 80.893 93.1266 86.293C87.1266 91.893 82.4266 102.193 82.0266 116.293C81.1266 144.593 103.327 169.193 103.327 169.193C104.427 170.693 105.427 171.993 106.327 173.093C114.327 182.693 116.827 201.193 114.427 171.993C89.5266 162.393 94.0266 134.493 106.127 132.993C118.927 131.393 122.927 142.793 123.627 145.593C132.227 140.093 129.127 128.393 128.127 117.493C134.827 114.493 140.527 107.293 143.527 100.793C146.827 105.393 150.827 108.993 155.627 109.393C160.727 109.893 163.727 105.593 164.727 99.493C171.327 108.193 183.027 118.993 201.427 121.093C210.227 122.093 217.527 118.393 222.427 112.293C223.727 112.493 224.927 112.593 226.127 112.493C239.027 111.193 253.427 85.093 223.627 73.793Z" fill="black"/>
</svg>
