<svg width="306" height="306" viewBox="0 0 306 306" fill="none" xmlns="http://www.w3.org/2000/svg">
<path d="M228.9 85.3999C223.7 40.9999 179.6 25.9999 188.1 55.5999C188.1 55.5999 176.5 36.9999 150.4 35.9999C128 35.1999 141.6 51.0999 141.6 51.0999C141.6 51.0999 124.2 41.0999 94.7002 56.0999C69.0002 69.1999 92.8002 80.6999 92.8002 80.6999C92.8002 80.6999 73.4002 90.9999 73.1002 113.2C73.0002 119 77.8002 127.9 89.2002 125C86.3002 147.1 99.8002 165.2 106 172.6C114 182.2 114.7 189.5 114.7 189.5C118.8 187.2 114 176.9 114.1 171.5C89.1002 161.9 93.6002 134 105.8 132.4C118.6 130.8 122.6 142.2 123.3 145C125.4 142.5 126 132.8 127.2 122.5C130.9 121.3 134.2 120 136.9 118.3C147.5 112 152.5 101.1 163.3 94.6999C182.2 83.3999 187.1 108.9 197.2 99.4999C208.9 88.6999 217.4 97.2999 220 110.6C221 115.4 227.1 115 228 110.2C229.4 103.2 230 94.7999 228.9 85.3999Z" fill="black"/>
</svg>
