<svg width="306" height="306" viewBox="0 0 306 306" fill="none" xmlns="http://www.w3.org/2000/svg">
<path d="M216.504 162.7C216.704 168.6 217.004 172.4 217.004 172.4L228.304 169.3C228.304 169.3 224.904 149.7 226.604 132.8C229.904 100.8 226.604 91.7997 226.604 91.7997C224.904 83.4997 219.404 76.0997 207.204 73.8997C203.504 71.5997 199.404 69.7997 194.904 68.2997C178.804 62.5997 143.404 50.6997 116.204 68.5997C89.0043 86.4997 88.0043 119.8 84.3043 142C80.6043 164.2 56.4043 180.4 56.4043 180.4L62.0043 188.4C65.0043 190.6 73.1043 180.7 74.4043 180.4C75.7043 180.1 67.1043 190.5 67.1043 190.5C69.3043 199.4 78.7043 204.6 78.7043 204.6C78.7043 204.6 93.3043 195.2 90.3043 199.5C87.3043 203.8 81.7043 207.2 81.7043 207.2C81.7043 207.2 96.3043 220.1 102.304 219C108.304 217.9 116.904 204.2 116.204 207.2C115.604 210.2 110.704 221.2 110.704 221.2L118.604 225.7C143.504 217.7 123.704 186.3 137.904 167C152.004 147.7 134.004 137.4 145.304 131C148.204 129.3 151.004 127.5 153.504 125.5L169.704 128.3C169.704 128.3 180.204 128.1 177.204 107.1C176.104 99.3997 178.704 91.1997 179.704 88.4997C179.804 88.4997 179.804 88.4997 179.904 88.4997C179.504 91.1997 178.804 99.1997 181.104 109.5C184.304 124 174.304 129.6 174.304 129.6L184.404 132.8C194.704 127.7 186.404 111.4 184.404 98.3997C183.804 94.1997 184.604 91.5997 186.004 90.0997C193.004 92.1997 197.504 94.5997 197.904 92.4997C214.404 96.5997 214.604 118.3 215.104 118.9C214.904 122.9 214.404 129.7 214.304 138.5C214.304 142.6 214.704 150.5 214.404 155.1C214.104 160.7 213.604 165.9 212.804 171.1C211.304 179.1 209.004 187.5 205.704 192.7C199.104 203 193.904 211.7 184.404 216.1C175.004 220.4 164.304 221.3 164.304 221.3C164.304 221.3 167.304 223.2 174.404 223.6C181.504 224 186.604 221.2 191.804 220.4C197.004 219.5 208.904 222.8 208.904 222.8C210.204 220.5 209.304 212 210.604 213.7C211.904 215.4 211.704 222.8 211.704 222.8L222.404 224.7C224.704 219.3 225.004 209.7 225.004 209.7C225.004 208.1 224.904 206.5 224.804 204.7C223.104 187.7 216.404 184.8 216.504 162.7Z" fill="black"/>
</svg>
