<svg width="306" height="306" viewBox="0 0 306 306" fill="none" xmlns="http://www.w3.org/2000/svg">
<path d="M219.6 115.7L198.9 115.1L138.4 113.3C134.5 113.2 131.2 116.3 131.2 120.2V129.3C131.2 133.9 127.5 137.7 122.8 137.7H119.5L122.8 143.6C127.4 143.6 131.2 147.3 131.2 152V155.2C131.2 159.5 135 162.7 139.2 162.1L195 153.4C196.2 153.2 197.3 153.2 198.5 153.3C200.2 153.5 201.8 153.9 203.3 154.7L214.5 160.3C217.4 161.7 220.8 159.8 221.1 156.6L224.2 121C224.5 118.2 222.4 115.8 219.6 115.7Z" fill="black"/>
<path d="M153.3 129.2L211.2 130.5C214.4 130.6 216.9 133.4 216.5 136.6C216.2 139.4 213.9 141.5 211.1 141.5H153.2C150.1 141.5 147.6 138.9 147.7 135.8L147.8 134.5C147.9 131.4 150.4 129.2 153.3 129.2Z" fill="white" stroke="black" stroke-width="3" stroke-miterlimit="10" stroke-linecap="round" stroke-linejoin="round"/>
</svg>
