<svg width="306" height="306" viewBox="0 0 306 306" fill="none" xmlns="http://www.w3.org/2000/svg">
<path d="M174.7 157.5C174.7 157.5 165.3 163.4 154.7 163.3C144.1 163.2 142.8 154.9 142.7 150.4C142.7 150.4 144.1 156.9 150.5 159.3C156.8 161.7 174.7 157.5 174.7 157.5Z" fill="black"/>
<path d="M204.899 156.4C204.899 156.4 207.199 159.2 210.299 161.2C212.399 162.6 215.199 161.1 215.199 158.6C215.199 158.6 209.399 158.9 204.899 156.4Z" fill="black"/>
<path d="M178.2 130.8C172.8 130.3 159.2 129.2 154 128.7L150 128.4C146.7 128.2 144.1 131 143.5 134.2C143.3 135.2 143.3 136.9 143.3 137.9V142C143.3 144.5 143.2 147.1 144.1 149.5C145.7 155.1 150.8 159.6 156.8 158.9C157.4 158.8 161.1 158.4 161.8 158.3L169.9 157.4C172.5 157.2 174.9 156.5 177.2 155.1C180.4 153.2 183.5 150.3 183.3 146.2L183.5 142.2C183.7 137.2 185.1 131.3 178.2 130.8ZM178.5 127.5C183.2 127.9 186.4 132.8 186.1 137.3C186.1 137.9 185.9 141.7 185.8 142.4C185.8 143.2 185.6 146.8 185.5 147.5C185 154.3 177.4 159.1 171.2 160C168 160.4 161.3 161.3 158.1 161.7C157.3 161.8 156.2 161.9 155.4 162C155 162 154.1 161.9 153.7 161.9C145.2 160.8 139.8 152.1 140 144C140 142.7 140 139.3 140 137.9C140 137.2 140 135.4 140.1 134.7C140.4 131.2 142.3 127.8 145.5 125.9C146.9 125.1 148.6 124.7 150.3 124.8L154.4 125.2C159.4 125.8 173.2 127.1 178.5 127.5Z" fill="black"/>
<path d="M201.7 129.1C203.9 128.8 214.7 127.6 216.7 127.4C217.2 127.4 218.5 127.2 218.9 127.2C223.2 126.6 225.2 131.3 225.6 134.8C225.8 137.9 225.6 140.9 225.7 143.9C225.7 146 225.5 148.1 225 150.1C223.7 155.5 219.9 161.2 213.6 159.4C212.1 159.1 209.1 158.7 207.7 158.4L206.2 158.1C203.3 157.6 200.9 155.6 199.3 153.4C196.3 149.9 196.9 145.2 196.6 141C196.2 136.8 196.3 130.3 201.7 129.1ZM202.1 132C199 133.4 199.8 138.1 199.8 140.9L200 146.9C200.1 150.7 203.1 154.5 206.7 155.5C207.6 155.7 210.1 156.2 211.1 156.4L214 157C221.2 159.3 224 149.3 223.9 143.8C223.6 139.2 225 133.7 221.7 130C220.9 129.2 220.1 129 219.2 129.2C218.7 129.3 217.4 129.5 217 129.6C215 130 204.2 131.7 202.1 132Z" fill="black"/>
<path d="M141.6 138.4C140.8 140.2 140.1 140 138.7 140L135.8 139.9C132.1 139.7 128 139.4 124.3 138.9C122.3 138.6 120.2 138.3 118.2 137.8C117.4 137.6 116.9 136.8 117.1 136C117.3 135.3 117.9 134.8 118.6 134.9L124.4 135.2L130.2 135.4C132.1 135.5 137 135.6 138.9 135.7C139.9 135.7 140.8 135.8 141.8 135.5C142.2 135.4 142.6 135.6 142.7 136C142.8 136.2 142.7 136.3 142.7 136.5L141.6 138.4Z" fill="black"/>
<path d="M184.2 136.3C187.8 134.3 197.3 131.5 199.1 136.9C199.9 138.3 197.8 139.6 196.9 138.2C196.9 138.4 196.4 138.2 196.2 138.2C192.4 137.9 188.5 138.5 184.7 138.8C183.1 139 182.8 136.9 184.2 136.3Z" fill="black"/>
</svg>
