<svg width="306" height="306" viewBox="0 0 306 306" fill="none" xmlns="http://www.w3.org/2000/svg">
<path d="M204.3 171.3C203.8 168.3 202 163.3 199.2 165.5C198.1 166.4 192.4 168.2 191.3 168.3C188.1 168.6 185.7 168.2 183.4 166.4C180.8 164.3 180.8 163.4 180.2 163.2C169.7 159.7 156.5 156.2 152.2 170.3C151.2 173.6 142.6 200.1 159.5 216.4C161.2 216.8 171.2 221.7 191.8 216.2C194.3 215.1 197.5 214 198.9 211.4C205 200.1 205.3 177.7 204.3 171.3ZM170.3 196.6C161.6 196.6 160 191 159.6 189.2C158.9 181.4 160.3 174.9 162.3 172.6C167.5 166.9 175.1 173.5 183.3 174.1C191.4 174.7 197.2 170.8 197.9 179.9C198.1 182.1 198 184.6 197.9 187.1C197.9 187.2 197.9 187.3 197.9 187.4C197.6 190.2 197.1 194.3 193.9 195C186.4 196.6 189.1 193.3 184.6 193.3C180.4 193.4 183.4 196.6 170.3 196.6Z" fill="black"/>
</svg>
