<svg width="306" height="306" viewBox="0 0 306 306" fill="none" xmlns="http://www.w3.org/2000/svg">
<path d="M165.5 244.3C165.5 244.3 150.2 235 143.9 236.6C137.5 238.2 139.7 261.2 143.8 264.9C147.9 268.6 165.4 256.8 166.5 255.8C167.6 254.8 167 245.9 165.5 244.3Z" fill="white"/>
<path d="M163.9 246.3C164 246.4 164.1 246.4 163.9 246.3C162.6 245.1 161.2 244 159.8 243.1C155.3 240.3 149.6 237 144.2 237.8C143.8 237.9 143.4 238.3 143.1 238.6C141.6 240.7 141.4 243.5 141.2 246.1C141.1 249.8 141.4 253.5 142.1 257.1C142.6 259.4 143.3 262.4 144.9 263.9C145.3 264.2 146 264.2 146.6 264.1C150 263.7 153.4 261.7 156.4 260.1C159.4 258.4 162.3 256.5 165 254.3L164.9 254.4C164.8 254.5 164.7 254.8 164.7 254.7C164.7 254.7 164.7 254.7 164.7 254.6V254.4C164.9 251.7 164.6 248.6 163.5 246.1C163.5 245.8 163.7 246.2 163.9 246.3ZM167.1 242.3C168.4 243.6 168.6 244.8 168.9 246.4C169.3 249.5 169.6 252.5 168.9 255.5C168.7 256.1 168.4 256.8 167.8 257.4C163.3 260.5 147.9 270 143.1 266.2C138.1 262.1 136.4 239.4 142.5 235.9C143 235.6 143.7 235.4 144.3 235.3C148.5 234.9 152.1 236.6 155.9 237.9C159 239.1 162.3 240.4 165.4 241.6C165.9 241.8 166.6 242 167.1 242.3Z" fill="black"/>
<path d="M171.301 244.5C171.301 244.5 177.301 235.1 183.401 233.9C189.401 232.7 192.201 258.1 189.501 260.5C186.801 262.8 174.201 257.8 172.801 256.2C171.301 254.6 170.401 247.6 171.301 244.5Z" fill="white"/>
<path d="M168.901 243.4C169.001 243.2 169.201 242.9 169.401 242.8C169.601 242.7 170.001 242.3 170.101 242.2C173.601 239.2 176.401 235.5 180.601 233.4C181.201 233.1 181.901 232.9 182.501 232.7C182.701 232.6 183.001 232.5 183.201 232.5C190.501 231.4 193.501 256.1 191.101 260.8C188.701 265.6 174.901 260.3 171.601 258C168.701 255.8 167.901 246.8 168.901 243.4ZM173.601 245.5C173.101 248.4 173.201 252 174.301 254.8C174.601 255.1 175.001 255.3 175.401 255.5C177.901 256.9 180.901 258 183.701 258.8C185.301 259.2 186.901 259.6 188.301 259.2C188.801 257.9 188.901 254.8 188.801 252.8C188.501 247.6 187.901 242.1 185.601 237.3C185.101 236.4 184.401 235 183.401 235.2C178.801 236.5 174.801 240.9 173.401 245.5V245.6C173.401 245.7 173.501 245.6 173.501 245.5C173.501 245.6 173.601 245.5 173.601 245.5Z" fill="black"/>
<path d="M177.6 252.5C177.9 247 174 242.3 168.8 241.8C163.6 241.3 159.1 245.3 158.6 250.8C158.2 256.4 162.1 261.3 167.4 261.8C172.8 262.2 177.3 258 177.6 252.5Z" fill="black"/>
<path d="M158.7 250.7C158.8 258.6 167.6 264.1 173.7 258.6C179.4 253.5 176.6 243.2 168.8 241.7C176.6 241.7 180.9 251.3 177 257.6C171.2 267.4 156.9 261.7 158.7 250.7Z" fill="white"/>
</svg>
