<svg width="306" height="306" viewBox="0 0 306 306" fill="none" xmlns="http://www.w3.org/2000/svg">
<path d="M112.3 148.7C112.3 148.7 104.3 147.5 104.9 158.7C105.2 164.4 105.2 167.5 105.1 169.1C105 170.2 105.7 171.2 106.7 171.6C107.9 172.1 109.2 171.6 109.8 170.4C110.7 168.8 111.7 166.6 111.7 164.8C111.7 161.8 114.9 159.1 114.9 159.1C114.9 159.1 112 156.6 112.3 148.7Z" fill="white"/>
<path d="M112 149C112 149.1 112.1 149.2 112.2 149.2C112.2 149.2 112.2 149.2 112.1 149.2H111.9C107.1 149.6 105.6 153.8 105.8 158.1C105.9 160.9 106.1 163.7 106 166.4C106.2 167.9 105.3 169.9 106.8 170.7C107.7 171.2 108.9 170.8 109.3 169.8C110.2 168 111.1 166.2 111.1 164.2C111.5 161.9 113 160.1 114.6 158.7V159.5C112.5 157.3 112 154.3 111.7 151.5C111.8 150.8 111.8 149.7 112 149ZM112.7 148.3C113 151.1 113 154 114.2 156.5C114.5 157.2 115 158 115.6 158.5C116 158.8 116 159.4 115.6 159.7C114.2 161 113 162.6 112.8 164.4C112.8 166.6 111.9 168.7 110.9 170.6C110.1 172.3 107.8 173.2 106.1 172.2C105 171.6 104.2 170.4 104.2 169.1C104.2 168.1 104.3 167.3 104.3 166.3C104.3 163.5 104.1 160.8 104 158C104 156.2 104.1 154.1 104.9 152.3C105.9 149.5 109 147.6 112 148.1C112.3 148.1 112.6 148.2 112.7 148.3Z" fill="black"/>
<path d="M111 267.1C114.3 252.7 110 236.5 106.3 222.1C104.8 216.4 103.3 211 102.6 206.3C101.3 198.4 102.2 190.9 105.4 183.9C109.3 175.2 108.7 167.8 108.7 167.5L106.7 167.7C106.7 167.8 107.3 175 103.6 183.1C100.3 190.4 99.2999 198.3 100.6 206.6C101.4 211.4 102.8 216.9 104.3 222.6C108 236.7 112.2 252.7 109 266.6C107.2 274.3 110.7 286.9 115.7 299.5C116.5 299.6 117.2 299.7 118 299.8C112.9 287.2 109.3 274.5 111 267.1Z" fill="black"/>
<path d="M105.2 164.5C105.3 166.7 105.2 168.2 105.2 169.1C105.1 170.2 105.8 171.2 106.8 171.6C108 172.1 109.3 171.6 109.9 170.4C110.8 168.8 111.8 166.6 111.8 164.8C111.8 164.7 111.8 164.5 111.8 164.4C109.8 165.2 107.4 165.8 105.2 164.5Z" fill="white"/>
<path d="M105.5 164.9C105.6 166.3 105.7 167.6 105.7 169C105.6 169.6 105.8 170.2 106.2 170.7C107.5 172 109.3 171.2 109.8 169.6C110.6 168 111.3 166.3 111.3 164.5L112 165C109.8 165.4 107.5 166 105.4 165.1C105.4 165.1 105.5 165 105.5 164.9ZM105 164C105.2 164 105.6 164.1 105.8 164.3C107.6 165.6 109.9 165 111.7 164C112 163.8 112.5 164.1 112.4 164.5C112.3 166.8 111.4 169 110.2 171C109.1 172.5 106.8 172.6 105.5 171.3C104.9 170.7 104.6 169.7 104.7 168.9C104.7 167.2 104.9 165.6 105 164Z" fill="black"/>
<path d="M199.4 231C201.1 219.2 199.5 210.8 198.9 208.3C198.6 208.5 198.4 208.8 198.1 209C197.8 209.3 197.5 209.5 197.2 209.8C197.8 213 198.9 220.6 197.4 230.7C196.7 235.4 196.5 242.8 196.4 251.4C196.2 259.7 193.6 280.4 190.5 300C191.2 299.8 191.9 299.6 192.6 299.5C195.7 280.1 198.2 259.8 198.4 251.5C198.6 242.9 198.7 235.6 199.4 231Z" fill="black"/>
</svg>
