<svg width="306" height="306" viewBox="0 0 306 306" fill="none" xmlns="http://www.w3.org/2000/svg">
<path d="M157.301 158.4C147.901 157.1 138.901 154.1 130.601 149.5C127.801 148 125.301 146.2 122.701 144.4C122.301 144.1 122.201 143.5 122.501 143C122.801 142.6 123.501 142.5 123.901 142.8C131.301 148.1 139.801 151.7 148.601 153.8C151.601 154.5 154.601 155.1 157.501 155.4C159.601 155.6 159.301 158.6 157.301 158.4Z" fill="black"/>
<path d="M143.8 189C135.5 186.3 127.8 182.2 120.6 177.3C118.2 175.7 116 173.9 113.7 172.1C113.4 171.9 113.4 171.4 113.6 171.1C113.8 170.8 114.3 170.8 114.5 171C121.3 176.1 128.7 180.3 136.6 183.4C139.2 184.4 141.9 185.4 144.6 186.1C146.6 186.6 145.8 189.5 143.8 189Z" fill="black"/>
<path d="M217.4 158.6C217.3 156.9 216.4 155.5 215 154.6C211.6 152.4 204.7 148.1 199.3 146.4C198.1 146 196.9 145.8 195.9 145.7C191.5 145.4 159.8 148.2 148.2 158.9C137.8 168.5 141.7 193.3 155.4 206.5C164.1 214.9 179.4 219.1 192.4 214.5C197.3 212.8 201.9 209.7 205.6 205.2C217.8 190.3 218.2 168.1 217.4 158.6Z" fill="white"/>
<path d="M216 158.7C215.9 157.2 215.1 156.2 213.7 155.4L212.2 154.4C210.2 153.1 208.2 151.8 206.1 150.6C203 148.9 199.8 147.2 196.3 146.7C190.3 146.6 184.3 147.6 178.4 148.7C168.6 150.8 152.6 154.2 146.8 162.9C138.8 176.7 146.6 197.8 158.4 207.2C172.2 218.1 194.5 217.6 205.9 203.3C216.3 191.2 217.2 174 216 158.7ZM218.8 158.5C220.1 175 213.8 202.8 199.4 212.6C186.5 221.2 168.4 218.6 156.6 209.3C144.1 199.3 136 175.9 144.3 161.3C148.5 154.7 156.5 151.8 163.5 149.5C173 146.7 182.8 145.4 192.6 144.8C197.7 144.2 202.6 146.4 207 148.5C209.2 149.6 211.4 150.8 213.5 152C216.2 153.4 218.7 155.3 218.8 158.5Z" fill="black"/>
<path d="M165.8 207.5C174.968 207.5 182.4 200.068 182.4 190.9C182.4 181.732 174.968 174.3 165.8 174.3C156.633 174.3 149.2 181.732 149.2 190.9C149.2 200.068 156.633 207.5 165.8 207.5Z" fill="black"/>
<path d="M160 208.5C169.168 208.5 176.6 201.068 176.6 191.9C176.6 182.732 169.168 175.3 160 175.3C150.832 175.3 143.4 182.732 143.4 191.9C143.4 201.068 150.832 208.5 160 208.5Z" fill="white" stroke="black" stroke-width="3" stroke-miterlimit="10" stroke-linecap="round" stroke-linejoin="round"/>
<path d="M159.1 202.3C164.844 202.3 169.5 197.644 169.5 191.9C169.5 186.156 164.844 181.5 159.1 181.5C153.357 181.5 148.7 186.156 148.7 191.9C148.7 197.644 153.357 202.3 159.1 202.3Z" fill="black" stroke="black" stroke-width="3" stroke-miterlimit="10" stroke-linecap="round" stroke-linejoin="round"/>
<path d="M155.5 182.1L155 201.4" stroke="white" stroke-miterlimit="10" stroke-linecap="round" stroke-linejoin="round"/>
<path d="M162.801 182.1L162.301 201.4" stroke="white" stroke-miterlimit="10" stroke-linecap="round" stroke-linejoin="round"/>
<path d="M149.2 195.2L168.5 195.7" stroke="white" stroke-miterlimit="10" stroke-linecap="round" stroke-linejoin="round"/>
<path d="M149.2 187.8L168.5 188.4" stroke="white" stroke-miterlimit="10" stroke-linecap="round" stroke-linejoin="round"/>
<path d="M198.501 174.7C198.601 173.6 197.801 172.5 196.601 172.5C190.801 172.2 178.401 171.2 169.501 168.6C158.701 165.5 176.501 173.5 193.401 176.6C195.801 177 198.301 177.1 198.501 174.7Z" fill="black"/>
<path d="M217.501 171C217.501 171 213.701 172.8 210.601 173.2C207.501 173.6 208.801 179.8 216.501 174.3L217.501 171Z" fill="black"/>
<path d="M175.8 204.1C175.8 204.1 173.3 215.8 176.4 216C179.5 216.3 165.9 215 159.9 210L175.8 204.1Z" fill="black"/>
</svg>
