<svg width="306" height="306" viewBox="0 0 306 306" fill="none" xmlns="http://www.w3.org/2000/svg">
<path d="M203.1 195.805C204.6 187.905 205.1 179.905 203.8 172.005C203.3 169.005 201.5 164.005 198.7 166.205C197.6 167.105 191.9 168.905 190.8 169.005C187.6 169.305 185.2 168.905 182.9 167.105C180.3 165.005 180.3 164.105 179.7 163.905C169.2 160.405 156 156.905 151.7 171.005C148.2 182.505 139.4 193.805 132.9 182.605C127.9 174.105 128.2 157.905 127.5 154.505C125.8 146.105 123.4 142.005 122 143.205C122 145.905 122.9 177.805 123 179.505C123.7 188.305 124.8 191.105 128.8 196.805C132.8 202.505 146.8 218.005 165 219.305C183.3 220.605 193.4 219.105 203.6 207.405C212.8 196.805 213.1 174.805 213.1 174.805C208.6 188.105 205.5 192.505 203.1 195.805ZM161.9 173.305C167.1 167.605 174.7 174.205 182.9 174.805C191 175.405 194.3 170.305 194.9 179.305C195.1 181.505 195.4 185.205 195.3 187.705C195.3 187.805 195.3 187.905 195.3 188.005C195 190.805 194.1 193.905 191.3 195.605C185.4 199.305 175.9 198.405 169.8 197.205C161.3 195.505 159.5 191.605 159.1 189.805C158.5 182.105 159.8 175.605 161.9 173.305Z" fill="black"/>
</svg>
