<svg width="306" height="306" viewBox="0 0 306 306" fill="none" xmlns="http://www.w3.org/2000/svg">
<path d="M205.101 154.6C202.401 151.3 198.901 149 194.701 148.9C190.301 148.8 183.401 149.8 176.501 155.3C167.501 162.5 149.501 161.4 142.401 160.7C140.401 160.5 138.501 161.5 137.601 163.3C135.601 167.3 132.901 175.6 134.201 189C135.901 207.3 150.801 223.9 171.801 222.5C199.401 220.8 215.501 198.6 216.501 168.9C216.301 160.7 211.401 162.4 205.101 154.6Z" fill="white"/>
<path d="M204.301 155.2C202.001 152.3 198.801 150 195.001 149.8C188.701 149.5 182.401 151.8 177.401 155.8C176.101 156.8 174.601 157.8 173.101 158.6C164.901 162.5 155.401 162.7 146.501 162.3C144.701 162.3 142.801 161.8 140.901 162C139.701 162.2 138.701 163.2 138.201 164.4C133.901 174.4 133.801 188.7 137.701 198.9C140.901 207.1 147.101 214.1 155.001 218C161.201 221.1 168.401 221.9 175.301 221C176.601 220.9 179.701 220.2 181.001 220C181.701 219.8 184.901 218.8 185.601 218.6C186.201 218.4 187.701 217.7 188.201 217.5C202.601 211.2 211.401 196.3 213.801 181.2C214.301 178.7 214.601 176.1 214.801 173.5C214.901 170.9 215.401 168.3 214.701 166.1C214.101 163.7 212.001 162.6 210.101 161C208.001 159.2 206.001 157.3 204.301 155.2ZM205.801 154C208.301 157.2 211.701 158.8 214.801 161.4C218.301 164.3 217.601 169.6 217.301 173.5C217.301 174.6 216.901 176.3 216.801 177.5C215.101 189.3 210.301 200.9 202.101 209.7C190.701 221.8 171.701 227.5 155.801 221.4C140.701 215.4 132.201 199.8 132.401 184C132.301 177.3 133.101 170.5 135.701 164.2C135.901 163.7 136.101 163.3 136.301 162.8C137.301 160.7 139.501 159.3 141.801 159.4C148.601 160.1 155.501 160.4 162.201 159.4C167.301 158.7 172.301 157.3 176.201 154.1C182.301 149.4 191.701 146.1 199.201 148.9C201.901 150.1 204.001 151.9 205.801 154Z" fill="black"/>
<path d="M168.4 160.2C178.8 164 198.8 171.7 209.4 169.1C211.2 168.6 212.6 167.5 213.4 165.7C213.6 165.1 214.5 165.4 214.4 165.9C211.8 178.1 187 168.8 179.4 166C175.5 164.5 171.7 162.9 168 161C167.4 160.9 167.8 160 168.4 160.2Z" fill="black"/>
<path d="M151.4 173.8C168.7 181.7 193.8 192.6 212.4 184.9C212.9 184.7 213.4 185.3 213 185.7C201.6 196.6 177.8 188 165.3 182.4C160.3 180.1 155.5 177.6 150.9 174.7C150.4 174.4 150.8 173.5 151.4 173.8Z" fill="black"/>
<path d="M150.1 191.1C157.1 196.3 165.3 200 173.7 202.1C178.7 203.3 183.9 204.1 189.1 204C193.8 204.1 198.4 203.3 203.1 203.5C203.4 203.5 203.6 203.7 203.6 204C203.6 204.2 203.5 204.4 203.3 204.4C202.2 204.9 201 205.3 199.9 205.6C196.4 206.7 192.7 206.9 189.1 206.8C178.2 206.8 167.4 203.6 158.1 198C155 196.1 152.1 194.1 149.4 191.6C149 191.4 149.6 190.7 150.1 191.1Z" fill="black"/>
<path d="M155.9 162.7C152.5 168.8 151.3 176 150.5 182.9C149.1 194.5 151.6 206.5 156.8 217C157.1 217.5 156.3 218.1 155.9 217.5C148.6 204.9 146.3 189.7 149.7 175.5C150.5 172 151.6 168.5 153.2 165.2C153.8 164.1 154.3 163.1 155.1 162.1C155.3 161.9 155.6 161.8 155.8 162C156 162.2 156.1 162.5 155.9 162.7Z" fill="black"/>
<path d="M140.7 164.5C134.7 159.8 129.7 154.3 125.3 148.1C123.8 146.1 122.6 143.9 121.3 141.8C121.1 141.5 121.2 141 121.6 140.8C121.9 140.6 122.4 140.7 122.6 141.1C126.5 147.3 131.3 152.8 136.8 157.6C138.6 159.2 140.6 160.8 142.5 162.1C144.1 163.2 142.4 165.7 140.7 164.5Z" fill="black"/>
<path d="M116.8 172.3C120.8 184.4 129.2 194.5 139.4 202C141 203.2 139.2 205.6 137.6 204.4C127.4 196.3 119 185.4 115.4 172.7C115.1 171.8 116.5 171.3 116.8 172.3Z" fill="black"/>
</svg>
