<svg width="306" height="306" viewBox="0 0 306 306" fill="none" xmlns="http://www.w3.org/2000/svg">
<path d="M141.5 165C144.3 163.5 147 161.9 150.1 161.1C150.4 161.1 150.6 161 151.2 161.2C153.3 162.8 147.2 166.8 146.1 167.8C146.4 167.4 146.3 166.7 145.8 166.5C145.7 166.5 145.7 166.4 145.6 166.4C145.4 166.4 145.4 166.4 145.4 166.4C147.9 165.5 150.4 164.5 152.8 163.3C154.2 162.7 156.1 161.4 157.6 161.3C158.2 161.3 158.9 161.9 158.8 162.5C158.7 163.3 158.5 163.6 158.3 164.1C158.1 164.5 157.7 165.1 157.6 165.5C157.6 165.6 157.5 165.4 157.5 165.4C157.5 165.5 158.1 165.5 158.2 165.4C159.8 165.2 161.5 164.6 163.1 164C163.4 163.9 163.6 164.3 163.3 164.5C161.6 165.6 159.8 166.8 157.6 167C156.2 167.1 155.5 165.8 156 164.6C156.2 163.9 156.7 163.1 156.9 162.5C156.9 162.7 157.1 163 157.3 163.1C157.5 163.2 157.6 163.1 157.5 163.2C156.5 163.5 154.5 164.6 153.6 165C151 166.2 148.5 167.3 145.7 168.1C145.5 168.1 145.5 168.2 145.2 168.1C144.4 168 144.2 167 144.8 166.5C146 165.5 147.4 164.7 148.5 163.7C149.1 163.2 149.8 162.5 150.2 161.9C150.2 162 150.3 162.2 150.4 162.3C149.5 162.4 147.7 162.9 146.6 163.4C145 164 143.3 164.7 141.7 165.4C141.5 165.6 141.2 165.1 141.5 165Z" fill="black"/>
<path d="M206.3 165C207.2 164 211 159.2 212 161.7C212 161.9 212 162.1 212 162.2C211.6 164.2 210.3 165.9 209.3 167.6C209.5 167.1 209.1 166.4 208.6 166.3C208.4 166.3 208.3 166.3 208.2 166.3C208.1 166.3 208.2 166.3 208.3 166.2C210.3 164.9 211.8 163.3 213.8 161.9C214.2 161.7 214.7 161.4 215.2 161.7C215.7 162.1 215.6 162.7 215.4 163.1C215.2 163.6 215 164 214.8 164.5C214.7 164.6 214.6 164.7 214.4 164.6C214.3 164.6 214.3 164.5 214.3 164.4C214.3 164.2 214.3 162.9 214.3 162.7C214.2 162.5 214.3 162.6 214.3 162.7C214.3 162.8 214.5 163 214.7 163C214.8 163 215 163 215 163C213.3 165 211.3 166.9 209 168.2C208.3 168.5 207.5 167.9 207.6 167.1C207.6 167 207.7 166.8 207.8 166.7C208.5 165.7 209.3 164.7 209.9 163.7C210.2 163.2 210.6 162.5 210.7 162C210.7 162.2 211.1 162.5 211.2 162.4C209.6 163 208.2 164.3 206.8 165.3C206.4 165.6 206.1 165.2 206.3 165Z" fill="black"/>
</svg>
