<svg width="306" height="306" viewBox="0 0 306 306" fill="none" xmlns="http://www.w3.org/2000/svg">
<path d="M202.8 196.1C200.9 198.7 199.9 199.4 198.2 199.3C196.3 199.2 194.7 196.2 189.1 196.1C184.5 196 177 198.5 167.5 200.5C156.4 202.8 136.8 193.6 132.5 179.8C131.3 175.9 130.3 171.9 129.3 168.5C129 167.5 127.7 167.2 127.1 168C126.4 168.9 125.7 169.7 124.9 170.4C123.9 171.4 123.3 172.8 123.3 174.2C123.3 176 123.4 177.6 123.4 178.7C124.1 187.5 125.2 190.3 129.2 196C133.2 201.7 147.2 217.1 165.4 218.5C183.7 219.8 193.8 218.3 204 206.6C213.2 196 213.5 174 213.5 174C208.6 188.8 205.3 192.6 202.8 196.1Z" fill="black"/>
</svg>
