<svg width="306" height="306" viewBox="0 0 306 306" fill="none" xmlns="http://www.w3.org/2000/svg">
<path d="M180.2 163.1C180.2 163.1 170 156.9 161.3 156.9C149.8 156.9 147 171.4 148.2 172.6C151.7 176.2 154.8 166.8 154.8 166.8C154.8 166.8 149.1 177.7 152.9 177.3C156.7 176.9 160.6 170.3 160.6 170.3C160.6 170.3 155.5 177.3 159 177.3C162.5 177.3 166.4 171 171.8 172.7C177.1 174.4 182.6 176 188.1 175.8C193.6 175.6 195.5 172.6 197.1 175.8C199.9 181.3 202.7 180.1 202.5 176.9C202.3 173.7 201 172.5 201 172.5C201 172.5 203.8 175.6 204.9 174.9C207.7 173.1 203.3 168.2 203.3 168.2C203.3 168.2 206.6 173 207 170.2C208.2 162.4 201.5 162.3 201.5 162.3C201.5 162.3 196.9 168.5 192 168.5C187.1 168.5 182.7 167.7 180.2 163.1Z" fill="black"/>
</svg>
