<svg width="306" height="306" viewBox="0 0 306 306" fill="none" xmlns="http://www.w3.org/2000/svg">
<path d="M158.8 145.2C156.4 145.1 154.6 143.1 154.8 140.7L154.9 137.9C155 135.5 157 133.7 159.4 133.9C161.8 134 163.6 136 163.4 138.4L163.3 141.2C163.2 143.5 161.2 145.3 158.8 145.2Z" fill="black"/>
<path d="M200.9 146.7C198.7 146.6 197 144.7 197.1 142.5L197.2 139.9C197.3 137.7 199.2 136 201.4 136.1C203.6 136.2 205.3 138.1 205.2 140.3L205.1 142.9C205 145.1 203.1 146.8 200.9 146.7Z" fill="black"/>
<path d="M167.8 139.8C164.5 137.6 160.9 136.1 156.9 136.9C155.6 137.1 154.3 137.5 153.5 138.4C153.2 138.8 152.5 138.7 152.5 138.1C152.6 136.1 154.3 134.8 155.9 134C159 132.4 163.3 132.7 166.1 134.8C167.1 135.4 170.5 139.1 168.7 139.9C168.3 140.1 168.1 140 167.8 139.8Z" fill="black"/>
<path d="M196.4 140.3C196.4 136.1 201.6 134.6 204.8 136.1C206.6 136.9 207.9 138.5 208.4 140.4C208.6 141 207.7 141.5 207.3 141C205.6 139 202.7 138 200.4 139.2C199.7 139.6 199.6 139.9 199.4 140.3C199.4 142.3 196.5 142.2 196.4 140.3Z" fill="black"/>
<path d="M172.6 123.3C174.7 124 176.8 122.1 176.4 119.8C176.2 118.6 175.7 117.4 174.7 116.5C171.7 113.8 159.3 111.4 151.8 114.9C145.2 118.1 163 120.1 172.6 123.3Z" fill="black"/>
<path d="M202.501 124.9C200.801 125.5 199.001 123.7 199.301 121.6C199.401 120.5 199.801 119.4 200.601 118.6C203.001 116.2 211.201 114.3 216.401 118C220.901 121.1 210.301 122 202.501 124.9Z" fill="black"/>
</svg>
