<svg width="306" height="306" viewBox="0 0 306 306" fill="none" xmlns="http://www.w3.org/2000/svg">
<path d="M173.5 124.4C175.7 124.7 177.4 122.4 176.6 120.2C176.2 119 175.5 117.9 174.4 117.2C171 115.1 158.3 114.9 151.6 119.7C145.6 124.1 163.5 123 173.5 124.4Z" fill="black"/>
<path d="M201.2 125.5C199.4 125.5 198.3 123.2 199.2 121.3C199.7 120.3 200.4 119.4 201.4 118.9C204.5 117.4 212.8 118.3 216.5 123.4C219.8 127.9 209.5 125.4 201.2 125.5Z" fill="black"/>
<path d="M169.8 137.3C164.7 135.1 158.9 135.7 153.6 136.9C153 137.1 152.6 136.3 153.1 135.9C157.7 132.1 166.4 131.6 170.1 136.8C170.4 137 170.2 137.4 169.8 137.3Z" fill="black"/>
<path d="M209.1 139.4C206.7 137.7 203.2 138 200.4 138.3C199.4 138.4 198.4 138.6 197.3 138.9C197 139 196.7 138.5 196.9 138.3L197.1 138.1C199.6 135.5 203.5 134.9 206.9 136.2C208.1 136.7 209.3 137.4 209.9 138.8C210.2 139.3 209.5 139.8 209.1 139.4Z" fill="black"/>
</svg>
