<svg width="306" height="306" viewBox="0 0 306 306" fill="none" xmlns="http://www.w3.org/2000/svg">
<path d="M183 245.6C180.9 255.9 167.3 262.1 144.4 252.8C120.6 243.2 110.3 220.3 107.7 213.5C121.8 187.1 112 168.8 112 168.8C144.5 166 172.9 204 172.9 204L177.3 222.8C177.7 224.4 178.5 225.8 179.7 226.8C181.8 230.5 184.3 239 183 245.6Z" fill="white"/>
<path d="M107.201 213.8C109.101 210.9 110.301 207.5 111.101 204.2C112.601 197.3 113.101 190.3 113.201 183.3V180.7C112.901 178.1 112.001 175.4 111.001 173C109.701 169.8 114.401 167.8 115.901 171C116.101 171.4 116.101 172.1 116.101 172.5C116.401 186.1 117.001 203.6 108.401 214.9C107.801 215.5 106.601 214.6 107.201 213.8Z" fill="black"/>
<path d="M174 203.8C175.5 204.7 176 205.9 176.2 207.1C176.8 209.5 176.6 212.1 177.2 214.6C177.7 217 179.2 219.3 179.6 221.8C180.1 224.4 181.6 229.9 182.2 232.6C182.4 233.2 182 233.9 181.3 234C180.9 234.1 180.6 234 180.3 233.8C179 232.7 178.4 231.6 177.6 230.2C176.3 227.8 175.4 225.6 174.6 222.9C173.9 220.5 174.2 217.9 173.6 215.4C173.1 213 171.7 210.7 171.2 208.2C170.9 207 170.8 205.7 171.7 204.2C172.3 203.6 173.3 203.4 174 203.8Z" fill="black"/>
<path d="M181.201 230.2C162.101 229.2 146.501 223.2 131.301 196.1C144.101 207.4 159.201 211.7 175.101 213.7L177.201 222.9C177.601 224.5 180.001 229.2 181.201 230.2Z" fill="black"/>
<path d="M180.401 226.5C183.801 232.9 185.801 240.9 183.701 248C182.101 253 177.501 256.7 172.501 258.1C160.901 261.2 147.501 256.3 137.201 250.8C124.501 243.7 115.101 231.8 109.101 218.8C108.701 217.8 110.101 217 110.701 218C112.801 222.2 115.201 226.3 117.901 230C120.601 233.8 123.701 237.3 127.201 240.4C137.401 249.6 151.201 255.3 165.001 255.3C179.201 254.9 184.601 247.4 181.301 233.6C180.801 231.4 180.001 229.1 178.901 227.2C178.301 226.4 179.801 225.5 180.401 226.5Z" fill="black"/>
<path d="M219.1 106.4C220.9 114.8 217.4 118.6 217.4 141.1C217.4 152.4 216.3 165.3 214.1 177.7C211.8 190.5 205.4 202.6 194.7 211.6C178.5 225.1 161.5 225.7 141.4 210C138.6 207.8 128.8 200.4 126.3 197.9C120.7 192.4 120.2 178.2 116.6 172.7C114.1 168.9 112.6 175 106.9 168.7C98.9998 160.1 89.4998 142.8 94.1998 112.2C101.8 62.6002 141.1 56.8002 170.2 62.3002C199.3 67.7002 214.3 84.3002 219.1 106.4Z" fill="white"/>
<path d="M111.7 177.4C108.2 171.7 103.3 166.9 100.1 161C90.4002 143.1 88.4002 121.3 93.6002 101.7C104.7 59.7001 145.5 52.5001 182.5 63.9001C202.5 70.1001 217.2 85.2001 221.3 106C222.8 113.5 219.6 120.7 219.1 128C218.6 132.4 218.4 136.8 218.5 141.2C219 154.6 218.6 168.2 214.6 181.1C210.5 194 203.8 206.8 192.7 215.1C171.8 230.7 147.1 219.3 130.9 202.8C130.4 202.3 131.1 201.5 131.7 201.9C142.3 209.5 153.6 216.7 166.6 218.1C189.3 220.7 205.1 199.5 211.8 180.3C214.7 172 216.2 163.3 216.5 154.6C216.8 145.7 216.1 136.8 216.4 127.9C216.5 125.7 216.6 123.4 216.8 121.2C217.1 117.7 218 111.9 217.3 108.5C215.2 98.1001 210.6 88.1001 203.2 80.4001C185.9 62.5001 153.3 57.4001 130.3 65.7001C103.3 75.6001 96.2002 102.7 94.7002 128.7C93.7002 144.3 98.3002 159.5 110.1 170.2L114.8 175.1C116.7 177.1 113.3 179.8 111.7 177.4Z" fill="black"/>
<path d="M123.5 145.6C123.5 145.6 120.4 130.6 105.8 132.4C93.2001 134 88.8001 164.2 117.4 172.6" fill="white"/>
<path d="M116.101 159.5C113.801 158.2 112.201 156 112.101 153.3C112.201 151.3 112.501 149 112.001 147C111.701 145.1 109.701 144.6 108.201 144.7C106.601 145 105.601 147 105.301 148.6C105.301 148.7 105.201 149 105.201 149.1C105.101 149.6 104.301 149.6 104.101 149.1C102.801 145.2 105.701 140.9 109.901 141.4C115.801 141.8 116.601 148 115.501 152.7C114.901 154.7 115.701 156.5 116.801 158.2L117.001 158.5C117.501 159.1 116.701 159.9 116.101 159.5Z" fill="black"/>
<path d="M196.101 135C197.601 142.1 200.401 148.7 203.901 154.9C207.001 162.5 199.001 169.7 191.901 169.4C191.101 169.4 191.001 168.3 191.701 168.1C196.201 166.7 200.301 163.7 201.001 159.1C201.301 157.7 200.901 156.5 200.201 155.3C196.901 149.1 194.901 142 195.401 135C195.401 134.5 196.101 134.5 196.101 135Z" fill="black"/>
<path d="M123 145.7C120.7 139.8 115.7 134.2 109 134.3C108.4 134.2 107.4 134.4 106.8 134.4C105.1 134.5 103.7 135.1 102.4 136.3C96.0003 142.7 97.1003 154 102.3 161.1C104.1 163.6 106.4 165.8 109 167.6C111.6 169.4 114.5 170.8 117.6 172C118.3 172.2 118 173.3 117.3 173.2C110.6 171.8 104.2 168.5 99.8003 163C93.0003 154.8 91.6003 141.1 99.7003 133.1C101.5 131.5 104 130.3 106.5 130.3C107.3 130.3 108.5 130.1 109.3 130.3C113.5 130.5 117.5 132.6 120.1 135.9C122.4 138.7 123.7 142.1 124.1 145.5C124.1 146.1 123.2 146.3 123 145.7Z" fill="black"/>
</svg>
