<svg width="306" height="306" viewBox="0 0 306 306" fill="none" xmlns="http://www.w3.org/2000/svg">
<path d="M183 245.6C180.9 255.9 167.3 262.1 144.4 252.8C120.6 243.2 110.3 220.3 107.7 213.5C121.8 187.1 112 168.8 112 168.8C144.5 166 172.9 204 172.9 204L177.3 222.8C177.7 224.4 178.5 225.8 179.7 226.8C181.8 230.5 184.3 239 183 245.6Z" fill="white"/>
<path d="M107.2 213.8C109.1 210.9 110.3 207.5 111.1 204.2C112.6 197.3 113.1 190.3 113.2 183.3V180.7C112.9 178.1 112 175.4 111 173C109.7 169.8 114.4 167.8 115.9 171C116.1 171.4 116.1 172.1 116.1 172.5C116.4 186.1 117 203.6 108.4 214.9C107.8 215.5 106.6 214.6 107.2 213.8Z" fill="black"/>
<path d="M174 203.8C175.5 204.7 176 205.9 176.2 207.1C176.8 209.5 176.6 212.1 177.2 214.6C177.7 217 179.2 219.3 179.6 221.8C180.1 224.4 181.6 229.9 182.2 232.6C182.4 233.2 182 233.9 181.3 234C180.9 234.1 180.6 234 180.3 233.8C179 232.7 178.4 231.6 177.6 230.2C176.3 227.8 175.4 225.6 174.6 222.9C173.9 220.5 174.2 217.9 173.6 215.4C173.1 213 171.7 210.7 171.2 208.2C170.9 207 170.8 205.7 171.7 204.2C172.3 203.6 173.3 203.4 174 203.8Z" fill="black"/>
<path d="M181.2 230.2C162.1 229.2 146.5 223.2 131.3 196.1C144.1 207.4 159.2 211.7 175.1 213.7L177.2 222.9C177.6 224.5 180 229.2 181.2 230.2Z" fill="black"/>
<path d="M180.401 226.5C183.801 232.9 185.801 240.9 183.701 248C182.101 253 177.501 256.7 172.501 258.1C160.901 261.2 147.501 256.3 137.201 250.8C124.501 243.7 115.101 231.8 109.101 218.8C108.701 217.8 110.101 217 110.701 218C112.801 222.2 115.201 226.3 117.901 230C120.601 233.8 123.701 237.3 127.201 240.4C137.401 249.6 151.201 255.3 165.001 255.3C179.201 254.9 184.601 247.4 181.301 233.6C180.801 231.4 180.001 229.1 178.901 227.2C178.301 226.4 179.801 225.5 180.401 226.5Z" fill="black"/>
<path d="M219.1 106.4C220.9 114.8 219.5 120.4 218.7 143.6C218.3 154.6 216.6 158.7 216.1 171C215.9 176.6 211.8 184.3 210.3 188.8C208.3 194.9 206.3 203.1 201.7 209C199.3 212 196.4 213.8 191.6 214.6C190 214.9 188.4 212.5 187.1 213C171.4 219.9 154.2 216.7 138.6 203.1C131.8 197.1 121.6 182.6 117.3 172.6C116.4 170.5 112.4 174.9 106.7 168.6C98.8003 160 89.3003 142.7 94.0003 112.1C101.6 62.5001 140.9 56.7001 170 62.2001C199.3 67.7001 214.3 84.3001 219.1 106.4Z" fill="white"/>
<path d="M111.7 177.4C109.4 173.6 106.4 170.2 103.7 166.6C99.7004 161.1 96.7004 154.8 94.7004 148.3C84.4004 116.1 94.2004 72.4 130.2 62C143.4 58 157.4 58.3 170.8 60.8C188.8 63.9 206.8 73.1 215.6 89.8C218.8 96 221.2 102.7 221.9 109.6C222.3 114.2 221.5 118.8 221 123.3C220.4 127.8 220.3 132.2 220.1 136.7C219.6 143.4 218.7 150 218.4 156.7C218 161.2 218.3 165.7 217.6 170.2C216.1 179.2 212.7 187.6 209.9 196.1C207.7 202.6 205.5 210.6 198.8 213.9C194 216.8 188.2 216.9 182.9 216.5C182.1 216.5 181.5 216.3 180.9 216.5C168 219 156 216.8 145.2 209C140 204.9 133.8 201 129.9 195.6C129.5 195 130.3 194.3 130.8 194.8C133.9 197.9 137.6 200.3 141.4 202.6C145.3 205 148.8 207.5 152.7 209.2C161 213.2 170.3 213.8 179.3 212.2C179.8 212.1 180.8 211.9 181.3 212C184.6 212.2 187.8 212.5 191 212C194.9 211.4 198.7 209.7 200.9 206.5C203.2 203.3 204.4 198.9 206 194.7C209.1 186.4 212.8 178.2 214.7 169.6C215.5 165.9 215.7 160.3 216 156.4C216.7 147.5 218.3 138.7 218.3 129.7C218.4 125.2 218.5 120.7 218.4 116.3C217.2 93.9 204.3 74.7 183 66.8C159.3 57.9 127.7 58.5 110.3 79.2C101.9 89.1 98.0004 102.1 96.2004 114.8C92.8004 135 94.1004 155 110.2 169.7L114.9 174.6C116.7 177.2 113.3 179.8 111.7 177.4Z" fill="black"/>
<path d="M123.5 145.6C123.5 145.6 120.4 130.6 105.8 132.4C93.2004 134 88.8004 164.2 117.4 172.6" fill="white"/>
<path d="M116.1 159.5C113.8 158.2 112.2 156 112.1 153.3C112.2 151.3 112.5 149 112 147C111.7 145.1 109.7 144.6 108.2 144.7C106.6 145 105.6 147 105.3 148.6C105.3 148.7 105.2 149 105.2 149.1C105.1 149.6 104.3 149.6 104.1 149.1C102.8 145.2 105.7 140.9 109.9 141.4C115.8 141.8 116.6 148 115.5 152.7C114.9 154.7 115.7 156.5 116.8 158.2L117 158.5C117.5 159.1 116.7 159.9 116.1 159.5Z" fill="black"/>
<path d="M196.1 135C197.6 142.1 200.4 148.7 203.9 154.9C207 162.5 199 169.7 191.9 169.4C191.1 169.4 191 168.3 191.7 168.1C196.2 166.7 200.3 163.7 201 159.1C201.3 157.7 200.9 156.5 200.2 155.3C196.9 149.1 194.9 142 195.4 135C195.4 134.5 196.1 134.5 196.1 135Z" fill="black"/>
<path d="M123 145.7C120.7 139.8 115.7 134.2 109 134.3C108.4 134.2 107.4 134.4 106.8 134.4C105.1 134.5 103.7 135.1 102.4 136.3C96 142.7 97.1 154 102.3 161.1C104.1 163.6 106.4 165.8 109 167.6C111.6 169.4 114.5 170.8 117.6 172C118.3 172.2 118 173.3 117.3 173.2C110.6 171.8 104.2 168.5 99.8 163C93 154.8 91.6 141.1 99.7 133.1C101.5 131.5 104 130.3 106.5 130.3C107.3 130.3 108.5 130.1 109.3 130.3C113.5 130.5 117.5 132.6 120.1 135.9C122.4 138.7 123.7 142.1 124.1 145.5C124.1 146.1 123.2 146.3 123 145.7Z" fill="black"/>
<path d="M179 212.8C183.6 211.8 186.3 207.3 185.9 202.7C185.8 202 186.9 201.8 187 202.5C188.7 208.2 185.6 214.4 180.1 216.6C177.2 217.7 176 213.3 179 212.8Z" fill="black"/>
</svg>
