<svg width="306" height="306" viewBox="0 0 306 306" fill="none" xmlns="http://www.w3.org/2000/svg">
<path d="M182.999 245.6C180.899 255.9 167.299 262.1 144.399 252.8C120.599 243.2 110.299 220.3 107.699 213.5C121.799 187.1 111.999 168.8 111.999 168.8C144.499 166 172.899 204 172.899 204L177.299 222.8C177.699 224.4 178.499 225.8 179.699 226.8C181.799 230.5 184.299 239 182.999 245.6Z" fill="white"/>
<path d="M107.2 213.8C109.1 210.9 110.3 207.5 111.1 204.2C112.6 197.3 113.1 190.3 113.2 183.3V180.7C112.9 178.1 112 175.4 111 173C109.7 169.8 114.4 167.8 115.9 171C116.1 171.4 116.1 172.1 116.1 172.5C116.4 186.1 117 203.6 108.4 214.9C107.8 215.5 106.6 214.6 107.2 213.8Z" fill="black"/>
<path d="M174 203.8C175.5 204.7 176 205.9 176.2 207.1C176.8 209.5 176.6 212.1 177.2 214.6C177.7 217 179.2 219.3 179.6 221.8C180.1 224.4 181.6 229.9 182.2 232.6C182.4 233.2 182 233.9 181.3 234C180.9 234.1 180.6 234 180.3 233.8C179 232.7 178.4 231.6 177.6 230.2C176.3 227.8 175.4 225.6 174.6 222.9C173.9 220.5 174.2 217.9 173.6 215.4C173.1 213 171.7 210.7 171.2 208.2C170.9 207 170.8 205.7 171.7 204.2C172.3 203.6 173.3 203.4 174 203.8Z" fill="black"/>
<path d="M181.2 230.2C162.1 229.2 146.5 223.2 131.3 196.1C144.1 207.4 159.2 211.7 175.1 213.7L177.2 222.9C177.6 224.5 180 229.2 181.2 230.2Z" fill="black"/>
<path d="M180.4 226.5C183.8 232.9 185.8 240.9 183.7 248C182.1 253 177.5 256.7 172.5 258.1C160.9 261.2 147.5 256.3 137.2 250.8C124.5 243.7 115.1 231.8 109.1 218.8C108.7 217.8 110.1 217 110.7 218C112.8 222.2 115.2 226.3 117.9 230C120.6 233.8 123.7 237.3 127.2 240.4C137.4 249.6 151.2 255.3 165 255.3C179.2 254.9 184.6 247.4 181.3 233.6C180.8 231.4 180 229.1 178.9 227.2C178.3 226.4 179.8 225.5 180.4 226.5Z" fill="black"/>
<path d="M219.1 106.4C220.9 114.8 221.8 121.6 216.9 144C212.1 166.3 223.8 170.9 196.1 206.6C184.8 221.2 157.4 217.1 135.2 202C127.7 196.9 124.5 183.8 118.9 174.5C114.5 167.2 112.5 174.8 106.7 168.5C98.7998 159.9 89.2998 142.6 93.9998 112C101.6 62.4 140.9 56.6 170 62.1C199.3 67.7 214.3 84.3 219.1 106.4Z" fill="white"/>
<path d="M111.7 177.4C109.4 173.5 106.4 170.1 103.6 166.5C100.9 162.8 98.6998 158.7 96.8998 154.5C84.9998 125.3 89.5998 84.2001 118.8 67.0001C130.9 60.0001 145.5 58.3001 159.1 59.4001C188.2 61.5001 214.9 74.9001 221.2 105.7C224.6 119.3 220 133.3 217.4 146.6C216.2 153.2 217.2 160 217.1 166.8C217 173.7 215.1 180.6 212.5 187C210.9 191.4 208.1 195.3 205.2 198.9C200.4 204.7 195.6 210.6 189.5 215.1C188.1 216.1 185.6 216.6 183.9 216.8C179.2 217.5 174.6 217.7 169.9 217.4C151.5 216.6 131.8 207.7 124.4 189.9C124.1 189.2 125.1 188.7 125.5 189.3C135.1 204.5 152.7 212 170.2 213C175.6 213.3 181.1 213.2 186.4 212.1C189 210.8 191.3 208.5 193.5 206.4C198.9 201 204.4 195.2 208.3 188.6C213 179.7 215.6 170 214.8 159.9C214.6 155.4 214.5 150.7 215.4 146.2C216.2 141.7 217.2 137.4 217.8 132.8C218.4 128.4 218.7 123.9 218.7 119.5C218.2 106.6 214 93.3001 205.8 83.3001C187.7 60.8001 144.9 54.9001 120.8 70.3001C105.6 79.7001 98.4998 97.3001 96.1998 114.4C92.6998 134.9 93.6998 155.1 110 170L114.8 175C116.7 177.2 113.3 179.8 111.7 177.4Z" fill="black"/>
<path d="M123.499 145.6C123.499 145.6 120.399 130.6 105.799 132.4C93.1994 134 88.7994 164.2 117.399 172.6" fill="white"/>
<path d="M116.1 159.5C113.8 158.2 112.2 156 112.1 153.3C112.2 151.3 112.5 149 112 147C111.7 145.1 109.7 144.6 108.2 144.7C106.6 145 105.6 147 105.3 148.6C105.3 148.7 105.2 149 105.2 149.1C105.1 149.6 104.3 149.6 104.1 149.1C102.8 145.2 105.7 140.9 109.9 141.4C115.8 141.8 116.6 148 115.5 152.7C114.9 154.7 115.7 156.5 116.8 158.2L117 158.5C117.5 159.1 116.7 159.9 116.1 159.5Z" fill="black"/>
<path d="M196.1 135C197.6 142.1 200.4 148.7 203.9 154.9C207 162.5 199 169.7 191.9 169.4C191.1 169.4 191 168.3 191.7 168.1C196.2 166.7 200.3 163.7 201 159.1C201.3 157.7 200.9 156.5 200.2 155.3C196.9 149.1 194.9 142 195.4 135C195.4 134.5 196.1 134.5 196.1 135Z" fill="black"/>
<path d="M123 145.7C120.7 139.8 115.7 134.2 109 134.3C108.4 134.2 107.4 134.4 106.8 134.4C105.1 134.5 103.7 135.1 102.4 136.3C95.9998 142.7 97.0998 154 102.3 161.1C104.1 163.6 106.4 165.8 109 167.6C111.6 169.4 114.5 170.8 117.6 172C118.3 172.2 118 173.3 117.3 173.2C110.6 171.8 104.2 168.5 99.7998 163C92.9998 154.8 91.5998 141.1 99.6998 133.1C101.5 131.5 104 130.3 106.5 130.3C107.3 130.3 108.5 130.1 109.3 130.3C113.5 130.5 117.5 132.6 120.1 135.9C122.4 138.7 123.7 142.1 124.1 145.5C124.1 146.1 123.2 146.3 123 145.7Z" fill="black"/>
</svg>
