<svg width="306" height="306" viewBox="0 0 306 306" fill="none" xmlns="http://www.w3.org/2000/svg">
<path d="M182.999 245.6C180.899 255.9 167.299 262.1 144.399 252.8C120.599 243.2 110.299 220.3 107.699 213.5C121.799 187.1 111.999 168.8 111.999 168.8C144.499 166 172.899 204 172.899 204L177.299 222.8C177.699 224.4 178.499 225.8 179.699 226.8C181.799 230.5 184.299 239 182.999 245.6Z" fill="white"/>
<path d="M107.2 213.8C109.1 210.9 110.3 207.5 111.1 204.2C112.6 197.3 113.1 190.3 113.2 183.3V180.7C112.9 178.1 112 175.4 111 173C109.7 169.8 114.4 167.8 115.9 171C116.1 171.4 116.1 172.1 116.1 172.5C116.4 186.1 117 203.6 108.4 214.9C107.8 215.5 106.6 214.6 107.2 213.8Z" fill="black"/>
<path d="M173.999 203.8C175.499 204.7 175.999 205.9 176.199 207.1C176.799 209.5 176.599 212.1 177.199 214.6C177.699 217 179.199 219.3 179.599 221.8C180.099 224.4 181.599 229.9 182.199 232.6C182.399 233.2 181.999 233.9 181.299 234C180.899 234.1 180.599 234 180.299 233.8C178.999 232.7 178.399 231.6 177.599 230.2C176.299 227.8 175.399 225.6 174.599 222.9C173.899 220.5 174.199 217.9 173.599 215.4C173.099 213 171.699 210.7 171.199 208.2C170.899 207 170.799 205.7 171.699 204.2C172.299 203.6 173.299 203.4 173.999 203.8Z" fill="black"/>
<path d="M181.2 230.2C162.1 229.2 146.5 223.2 131.3 196.1C144.1 207.4 159.2 211.7 175.1 213.7L177.2 222.9C177.6 224.5 180 229.2 181.2 230.2Z" fill="black"/>
<path d="M180.4 226.5C183.8 232.9 185.8 240.9 183.7 248C182.1 253 177.5 256.7 172.5 258.1C160.9 261.2 147.5 256.3 137.2 250.8C124.5 243.7 115.1 231.8 109.1 218.8C108.7 217.8 110.1 217 110.7 218C112.8 222.2 115.2 226.3 117.9 230C120.6 233.8 123.7 237.3 127.2 240.4C137.4 249.6 151.2 255.3 165 255.3C179.2 254.9 184.6 247.4 181.3 233.6C180.8 231.4 180 229.1 178.9 227.2C178.3 226.4 179.8 225.5 180.4 226.5Z" fill="black"/>
<path d="M219.1 106.4C220.9 114.8 214.9 123.8 214.9 146.2C214.9 169.1 210.7 194 193.4 211.3C178.5 226.2 161.4 225.6 141.3 209.9C138.5 207.7 128.7 200.3 126.2 197.8C123.3 194.9 121.7 192.8 120.3 190.6C119.1 188.6 119.4 177 117.7 174.3C113.3 167 112.4 174.9 106.7 168.5C98.7996 159.9 89.2996 142.6 93.9996 112C101.6 62.4 140.9 56.6 170 62.1C199.3 67.7 214.3 84.3 219.1 106.4Z" fill="white"/>
<path d="M111.7 177.4C109.4 173.6 106.5 170.2 103.8 166.7C101.1 163 98.8996 159.1 97.0996 154.9C86.8996 130.2 88.3996 97.8999 106.5 77.0999C118.9 62.8999 138.5 58.1999 156.5 59.1999C174.5 60.2999 193.2 64.8999 206.5 77.8999C214.2 85.3999 219.1 95.3999 221.3 105.8C222 109.1 221.5 112.7 220.7 115.8C218.4 124.5 216.2 132.8 216 141.8C216.1 155.2 215.7 168.9 211.8 181.8C209 190.4 205.7 199 200.5 206.5C195.1 214.1 187 220.2 177.7 222C159 225.8 141.5 214 129.1 201.2C128.6 200.6 129.3 199.9 129.9 200.3C137 205.7 144.3 210.7 152.2 214.1C175 224.6 193.9 214.9 203.9 192.9C212.3 176.9 214.7 159.6 214 141.7C214 137.2 214.2 132.7 214.8 128.2C215.4 121.7 217.6 115.2 217.5 108.8C215.8 98.3999 211 88.3999 203.8 80.6999C186.7 62.5999 153.9 57.2999 130.9 65.4999C103.8 75.0999 96.4996 102.4 94.9996 128.5C93.9996 144.1 98.5996 159.4 110.4 170.1L115.1 175C116.7 177.2 113.3 179.8 111.7 177.4Z" fill="black"/>
<path d="M123.5 145.6C123.5 145.6 120.4 130.6 105.8 132.4C93.1997 134 88.7997 164.2 117.4 172.6" fill="white"/>
<path d="M116.1 159.5C113.8 158.2 112.2 156 112.1 153.3C112.2 151.3 112.5 149 112 147C111.7 145.1 109.7 144.6 108.2 144.7C106.6 145 105.6 147 105.3 148.6C105.3 148.7 105.2 149 105.2 149.1C105.1 149.6 104.3 149.6 104.1 149.1C102.8 145.2 105.7 140.9 109.9 141.4C115.8 141.8 116.6 148 115.5 152.7C114.9 154.7 115.7 156.5 116.8 158.2L117 158.5C117.5 159.1 116.7 159.9 116.1 159.5Z" fill="black"/>
<path d="M196.1 135C197.6 142.1 200.4 148.7 203.9 154.9C207 162.5 199 169.7 191.9 169.4C191.1 169.4 191 168.3 191.7 168.1C196.2 166.7 200.3 163.7 201 159.1C201.3 157.7 200.9 156.5 200.2 155.3C196.9 149.1 194.9 142 195.4 135C195.4 134.5 196.1 134.5 196.1 135Z" fill="black"/>
<path d="M123 145.7C120.7 139.8 115.7 134.2 109 134.3C108.4 134.2 107.4 134.4 106.8 134.4C105.1 134.5 103.7 135.1 102.4 136.3C96 142.7 97.1 154 102.3 161.1C104.1 163.6 106.4 165.8 109 167.6C111.6 169.4 114.5 170.8 117.6 172C118.3 172.2 118 173.3 117.3 173.2C110.6 171.8 104.2 168.5 99.8 163C93 154.8 91.6 141.1 99.7 133.1C101.5 131.5 104 130.3 106.5 130.3C107.3 130.3 108.5 130.1 109.3 130.3C113.5 130.5 117.5 132.6 120.1 135.9C122.4 138.7 123.7 142.1 124.1 145.5C124.1 146.1 123.2 146.3 123 145.7Z" fill="black"/>
</svg>
