<svg width="306" height="306" viewBox="0 0 306 306" fill="none" xmlns="http://www.w3.org/2000/svg">
<path d="M183 245.6C180.9 255.9 167.3 262.1 144.4 252.8C120.6 243.2 110.3 220.3 107.7 213.5C121.8 187.1 112 168.8 112 168.8C144.5 166 172.9 204 172.9 204L177.3 222.8C177.7 224.4 178.5 225.8 179.7 226.8C181.8 230.5 184.3 239 183 245.6Z" fill="white"/>
<path d="M107.2 213.8C109.1 210.9 110.3 207.5 111.1 204.2C112.6 197.3 113.1 190.3 113.2 183.3V180.7C112.9 178.1 112 175.4 111 173C109.7 169.8 114.4 167.8 115.9 171C116.1 171.4 116.1 172.1 116.1 172.5C116.4 186.1 117 203.6 108.4 214.9C107.8 215.5 106.6 214.6 107.2 213.8Z" fill="black"/>
<path d="M174 203.8C175.5 204.7 176 205.9 176.2 207.1C176.8 209.5 176.6 212.1 177.2 214.6C177.7 217 179.2 219.3 179.6 221.8C180.1 224.4 181.6 229.9 182.2 232.6C182.4 233.2 182 233.9 181.3 234C180.9 234.1 180.6 234 180.3 233.8C179 232.7 178.4 231.6 177.6 230.2C176.3 227.8 175.4 225.6 174.6 222.9C173.9 220.5 174.2 217.9 173.6 215.4C173.1 213 171.7 210.7 171.2 208.2C170.9 207 170.8 205.7 171.7 204.2C172.3 203.6 173.3 203.4 174 203.8Z" fill="black"/>
<path d="M181.2 230.2C162.1 229.2 146.5 223.2 131.3 196.1C144.1 207.4 159.2 211.7 175.1 213.7L177.2 222.9C177.6 224.5 180 229.2 181.2 230.2Z" fill="black"/>
<path d="M180.401 226.5C183.801 232.9 185.801 240.9 183.701 248C182.101 253 177.501 256.7 172.501 258.1C160.901 261.2 147.501 256.3 137.201 250.8C124.501 243.7 115.101 231.8 109.101 218.8C108.701 217.8 110.101 217 110.701 218C112.801 222.2 115.201 226.3 117.901 230C120.601 233.8 123.701 237.3 127.201 240.4C137.401 249.6 151.201 255.3 165.001 255.3C179.201 254.9 184.601 247.4 181.301 233.6C180.801 231.4 180.001 229.1 178.901 227.2C178.301 226.4 179.801 225.5 180.401 226.5Z" fill="black"/>
<path d="M219.101 106.4C220.901 114.8 217.401 118.6 217.401 141.1C217.401 152.4 218.401 159.6 215.101 173.3C213.601 179.6 208.901 187.3 205.701 193.1C202.501 198.9 204.601 208.6 199.201 213.1C183.001 226.6 163.401 222.8 145.601 211.4C144.901 211 141.001 206.4 139.801 205.5C135.701 202.4 128.901 199.1 126.901 197.1C121.301 191.6 125.501 181.9 122.101 176.2C117.701 168.9 112.401 174.8 106.701 168.5C98.8006 159.9 89.3006 142.6 94.0006 112C101.601 62.4 140.901 56.6 170.001 62.1C199.301 67.7 214.301 84.3 219.101 106.4Z" fill="white"/>
<path d="M111.7 177.4C109.4 173.6 106.5 170.3 103.8 166.7C99.8004 161.2 96.8004 155.1 94.8004 148.7C86.2004 121.2 90.9004 85.3999 116.5 68.3999C139.9 52.5999 185.4 57.5999 205.7 77.0999C214.7 85.1999 223.4 102.1 221.5 114.3C219.8 123 218.3 131.6 218.6 140.5C218.6 144.9 219.1 149.3 219.1 153.8C219.4 162.8 217.8 171.9 214.4 180.3C212.7 184.5 210.6 188.5 208.3 192.4C207.9 193 207.6 193.9 207.4 195C206.6 198.2 206.2 201.4 205.5 204.7C204.7 208.2 203.8 212.2 200.8 214.8C192.5 221.5 181.4 223.5 171.1 222.7C163.9 222.1 156.9 220.2 150.4 217.1C144.7 213.7 140.9 208.2 136.1 203.8C135.6 203.3 136.2 202.5 136.8 202.8C140.3 204.7 144.5 208.1 147.7 210.6C151.2 213.5 154.8 214.7 158.9 215.9C163 217.1 167.2 218 171.4 218.3C180.7 219 190.7 217.3 198.2 211.5C200.2 209.6 200.9 206.6 201.6 203.8C202.5 200 203 196 204.3 192.3C204.5 191.7 204.9 190.9 205.2 190.5C207.6 186.9 209.8 183.1 211.6 179.2C215.3 171.3 217.2 162.7 217.2 154C217.2 149.6 216.8 145.2 216.7 140.8C216.6 134.1 216.5 127.4 217.1 120.7C217.4 117.4 217.9 114.3 217.8 111.1C216.5 99.6999 211.1 88.4999 203.1 80.2999C185.8 62.6999 153 57.6999 130.3 66.0999C103.5 76.0999 96.5004 103.2 95.0004 129.1C94.0004 144.6 98.7004 159.8 110.4 170.5L115.1 175.4C116.7 177.2 113.3 179.8 111.7 177.4Z" fill="black"/>
<path d="M123.5 145.6C123.5 145.6 120.4 130.6 105.8 132.4C93.2004 134 88.8004 164.2 117.4 172.6" fill="white"/>
<path d="M116.1 159.5C113.8 158.2 112.2 156 112.1 153.3C112.2 151.3 112.5 149 112 147C111.7 145.1 109.7 144.6 108.2 144.7C106.6 145 105.6 147 105.3 148.6C105.3 148.7 105.2 149 105.2 149.1C105.1 149.6 104.3 149.6 104.1 149.1C102.8 145.2 105.7 140.9 109.9 141.4C115.8 141.8 116.6 148 115.5 152.7C114.9 154.7 115.7 156.5 116.8 158.2L117 158.5C117.5 159.1 116.7 159.9 116.1 159.5Z" fill="black"/>
<path d="M196.101 135C197.601 142.1 200.401 148.7 203.901 154.9C207.001 162.5 199.001 169.7 191.901 169.4C191.101 169.4 191.001 168.3 191.701 168.1C196.201 166.7 200.301 163.7 201.001 159.1C201.301 157.7 200.901 156.5 200.201 155.3C196.901 149.1 194.901 142 195.401 135C195.401 134.5 196.101 134.5 196.101 135Z" fill="black"/>
<path d="M123 145.7C120.7 139.8 115.7 134.2 109 134.3C108.4 134.2 107.4 134.4 106.8 134.4C105.1 134.5 103.7 135.1 102.4 136.3C96 142.7 97.1 154 102.3 161.1C104.1 163.6 106.4 165.8 109 167.6C111.6 169.4 114.5 170.8 117.6 172C118.3 172.2 118 173.3 117.3 173.2C110.6 171.8 104.2 168.5 99.8 163C93 154.8 91.6 141.1 99.7 133.1C101.5 131.5 104 130.3 106.5 130.3C107.3 130.3 108.5 130.1 109.3 130.3C113.5 130.5 117.5 132.6 120.1 135.9C122.4 138.7 123.7 142.1 124.1 145.5C124.1 146.1 123.2 146.3 123 145.7Z" fill="black"/>
</svg>
