<svg width="306" height="306" viewBox="0 0 306 306" fill="none" xmlns="http://www.w3.org/2000/svg">
<path d="M183 245.6C180.9 255.9 167.3 262.1 144.4 252.8C120.6 243.2 110.3 220.3 107.7 213.5C121.8 187.1 112 168.8 112 168.8C144.5 166 172.9 204 172.9 204L177.3 222.8C177.7 224.4 178.5 225.8 179.7 226.8C181.8 230.5 184.3 239 183 245.6Z" fill="white"/>
<path d="M107.201 213.8C109.101 210.9 110.301 207.5 111.101 204.2C112.601 197.3 113.101 190.3 113.201 183.3V180.7C112.901 178.1 112.001 175.4 111.001 173C109.701 169.8 114.401 167.8 115.901 171C116.101 171.4 116.101 172.1 116.101 172.5C116.401 186.1 117.001 203.6 108.401 214.9C107.801 215.5 106.601 214.6 107.201 213.8Z" fill="black"/>
<path d="M174 203.8C175.5 204.7 176 205.9 176.2 207.1C176.8 209.5 176.6 212.1 177.2 214.6C177.7 217 179.2 219.3 179.6 221.8C180.1 224.4 181.6 229.9 182.2 232.6C182.4 233.2 182 233.9 181.3 234C180.9 234.1 180.6 234 180.3 233.8C179 232.7 178.4 231.6 177.6 230.2C176.3 227.8 175.4 225.6 174.6 222.9C173.9 220.5 174.2 217.9 173.6 215.4C173.1 213 171.7 210.7 171.2 208.2C170.9 207 170.8 205.7 171.7 204.2C172.3 203.6 173.3 203.4 174 203.8Z" fill="black"/>
<path d="M181.201 230.2C162.101 229.2 146.501 223.2 131.301 196.1C144.101 207.4 159.201 211.7 175.101 213.7L177.201 222.9C177.601 224.5 180.001 229.2 181.201 230.2Z" fill="black"/>
<path d="M180.401 226.5C183.801 232.9 185.801 240.9 183.701 248C182.101 253 177.501 256.7 172.501 258.1C160.901 261.2 147.501 256.3 137.201 250.8C124.501 243.7 115.101 231.8 109.101 218.8C108.701 217.8 110.101 217 110.701 218C112.801 222.2 115.201 226.3 117.901 230C120.601 233.8 123.701 237.3 127.201 240.4C137.401 249.6 151.201 255.3 165.001 255.3C179.201 254.9 184.601 247.4 181.301 233.6C180.801 231.4 180.001 229.1 178.901 227.2C178.301 226.4 179.801 225.5 180.401 226.5Z" fill="black"/>
<path d="M219.1 106.4C220.9 114.8 219.5 120.4 218.7 143.6C209.5 182 210.2 203.3 205.1 208.4C201.1 212.4 177.2 217.6 159.5 213.1C150.5 210.8 142.9 205.6 136.7 201.9C128.9 197.2 123 181.9 117.4 172.6C113 165.3 112.5 174.9 106.8 168.6C98.9002 160 89.4002 142.7 94.1002 112.1C101.7 62.5001 141 56.7001 170.1 62.2001C199.3 67.7001 214.3 84.3001 219.1 106.4Z" fill="white"/>
<path d="M111.7 177.4C108.2 171.6 103.2 166.8 100 160.8C90.3003 142.6 88.3003 120.5 93.9003 100.7C105.6 58.5001 148 52.3001 184.8 64.7001C205.4 71.7001 219.9 89.1001 222 111C222.2 118 220.4 124.5 220.3 131.4C219.8 149.6 214.1 167.1 211.9 184.6C211.4 190.1 211.4 195.9 210.6 201.5C210.4 202.7 210.2 203.8 209.8 205.1C208.9 207.8 206.9 209.7 204.7 211.2C196.4 216.3 187 217.2 177.6 217.7C158 218.5 140.8 212.8 129.1 196.5C128.7 195.9 129.5 195.2 130 195.8C143.1 209.8 158.8 214.3 177.4 213.4C185.3 213 202.2 211.5 205.7 203.8C207.4 197.5 207.4 190.9 208.4 184.3C209.5 176.5 212.5 165.6 214.3 157.9C216.3 149.2 218 140.4 218.1 131.5C218.2 127 218.2 122.5 218.2 118C218.4 113.5 217.5 109.6 216.4 105.3C212.4 88.2001 200.1 74.0001 183.5 67.7001C167.2 61.4001 148.3 59.8001 131.6 65.3001C114.6 70.7001 103 85.3001 98.6003 102.3C96.3003 110.7 95.1003 119.5 94.5003 128.2C94.0003 137 94.9003 146 98.4003 154.2C100.9 160.4 105 165.8 109.8 170.3L114.5 175.2C116.7 177.2 113.3 179.8 111.7 177.4Z" fill="black"/>
<path d="M123.5 145.6C123.5 145.6 120.4 130.6 105.8 132.4C93.2004 134 88.8004 164.2 117.4 172.6" fill="white"/>
<path d="M116.101 159.5C113.801 158.2 112.201 156 112.101 153.3C112.201 151.3 112.501 149 112.001 147C111.701 145.1 109.701 144.6 108.201 144.7C106.601 145 105.601 147 105.301 148.6C105.301 148.7 105.201 149 105.201 149.1C105.101 149.6 104.301 149.6 104.101 149.1C102.801 145.2 105.701 140.9 109.901 141.4C115.801 141.8 116.601 148 115.501 152.7C114.901 154.7 115.701 156.5 116.801 158.2L117.001 158.5C117.501 159.1 116.701 159.9 116.101 159.5Z" fill="black"/>
<path d="M196.1 135C197.6 142.1 200.4 148.7 203.9 154.9C207 162.5 199 169.7 191.9 169.4C191.1 169.4 191 168.3 191.7 168.1C196.2 166.7 200.3 163.7 201 159.1C201.3 157.7 200.9 156.5 200.2 155.3C196.9 149.1 194.9 142 195.4 135C195.4 134.5 196.1 134.5 196.1 135Z" fill="black"/>
<path d="M123 145.7C120.7 139.8 115.7 134.2 109 134.3C108.4 134.2 107.4 134.4 106.8 134.4C105.1 134.5 103.7 135.1 102.4 136.3C96 142.7 97.1 154 102.3 161.1C104.1 163.6 106.4 165.8 109 167.6C111.6 169.4 114.5 170.8 117.6 172C118.3 172.2 118 173.3 117.3 173.2C110.6 171.8 104.2 168.5 99.8 163C93 154.8 91.6 141.1 99.7 133.1C101.5 131.5 104 130.3 106.5 130.3C107.3 130.3 108.5 130.1 109.3 130.3C113.5 130.5 117.5 132.6 120.1 135.9C122.4 138.7 123.7 142.1 124.1 145.5C124.1 146.1 123.2 146.3 123 145.7Z" fill="black"/>
</svg>
