<svg width="306" height="306" viewBox="0 0 306 306" fill="none" xmlns="http://www.w3.org/2000/svg">
<path d="M219.379 135.1C219.479 134.6 219.579 134.1 219.579 133.6C220.579 127.3 221.279 121.5 221.679 116C222.479 104.8 220.379 84.5996 204.279 72.4996C202.879 71.3996 201.379 70.3996 199.679 69.4996C198.279 68.6996 196.779 67.9996 195.279 67.2996C182.179 61.6996 161.079 54.9996 140.179 58.5996C132.179 59.8996 124.179 62.7996 116.679 67.6996C116.579 67.6996 116.579 67.7996 116.579 67.7996C98.3785 79.7996 91.9785 98.7996 88.5785 116.7C87.4785 122.4 86.6785 128.1 85.9785 133.3C85.5785 136 85.1785 138.6 84.7785 141C83.2785 150.1 78.2785 158.2 72.9785 164.6C72.6785 164.9 72.3785 165.3 72.0785 165.6C67.7785 170.5 63.4785 174.4 60.4785 176.7C60.2785 176.8 60.0785 177 59.9785 177.1C66.5785 197.9 91.7785 213.5 115.079 218.2C118.479 203.3 120.779 188.2 117.879 172.7C117.079 172.4 116.679 172.1 116.679 171.9C89.0785 163.2 93.4785 133.6 105.979 132C110.479 131.4 113.779 132.5 116.379 134.1C119.879 136.7 123.679 143.2 123.679 145.1C123.879 140.7 125.779 134.6 128.079 134.4C130.479 134.2 132.879 133.7 135.179 132.8C146.679 128.8 157.179 118 166.479 108.4C179.279 95.1996 189.679 83.9996 197.079 95.0996C197.479 95.6996 197.879 96.2996 198.179 96.8996C206.979 96.6996 211.079 101.8 213.179 107.1C213.179 107.1 213.179 107.1 213.179 107.2C214.879 111.7 215.079 116.3 215.279 117.5C215.279 117.7 215.279 117.8 215.379 117.8C215.179 121.8 214.679 128.6 214.579 137.4C214.579 141.4 214.979 149.4 214.679 154C214.579 155.4 214.479 156.8 214.379 158.1C214.279 158.8 214.279 159.5 214.179 160.1C214.079 160.7 214.079 161.4 213.979 162.1C213.879 163.1 213.779 164.1 213.679 165.2C213.579 166.1 213.479 167 213.379 167.9V168C213.279 168.7 213.179 169.3 213.079 169.9C211.579 177.9 209.279 186.4 205.979 191.5C199.379 201.8 194.179 210.5 184.679 214.9C175.279 219.2 164.579 220.1 164.579 220.1C164.579 220.1 167.579 222 174.679 222.4C181.679 222.8 186.879 220.7 192.079 221.6C203.179 223.5 222.679 223.5 222.679 223.5C237.279 185.1 212.579 183.3 219.379 135.1Z" fill="black"/>
</svg>
