<svg width="306" height="306" viewBox="0 0 306 306" fill="none" xmlns="http://www.w3.org/2000/svg">
<path d="M151.7 57.2001C92.6 56.0001 86.6 105.5 90.3 135C94.4 167.8 114 180.7 114 180.7L115.3 172C115.3 172 110.6 170.4 106.1 167.1C90.5 155.3 95.3 133.8 105.9 132.5C116.5 131.1 121.1 138.8 122.7 143C128.3 124.5 120.4 119.9 128.3 106.8C153 80.1001 170.2 98.1001 182.3 101.6C195.5 105.3 204.2 101.1 209.1 96.4001C212.6 93.0001 217.1 99.4001 217.1 99.4001C217.1 99.4001 210.6 58.4001 151.7 57.2001Z" fill="black"/>
</svg>
