<svg width="306" height="306" viewBox="0 0 306 306" fill="none" xmlns="http://www.w3.org/2000/svg">
<path d="M207.4 77.2001C202.3 72.5001 195.9 67.9001 188.1 64.8001C165 55.4001 143.5 55.7001 126.6 63.0001C126.1 53.2001 123.5 38.2001 112 35.7001C94.6004 31.8001 100.6 50.8001 106 62.7001C106 62.7001 85.2004 44.1001 76.1004 56.7001C67.4004 68.8001 89.2004 82.0001 89.2004 82.0001C89.2004 82.0001 56.9004 84.6001 63.7004 103C67.7004 113.6 81.1004 110.1 91.8004 105.3C83.1004 139.8 98.2004 163.3 106 172.7C114 182.3 114.7 189.6 114.7 189.6C118.8 187.3 113.9 177 114.1 171.6C89.1004 162 93.6004 134.1 105.8 132.5C118.6 130.9 122.6 142.3 123.3 145.1C127.9 139.6 127.9 134.3 127 128.8C123.5 108.7 125.5 97.8001 137.6 95.2001C156.9 91.0001 174.3 100.8 197.3 103.9C205.8 105.1 211.1 97.3001 217.4 100.1C218.1 102.2 218.7 104.3 219.2 106.5C219.6 108.2 219.9 109.8 220.1 111.5C221.1 97.5001 218.2 87.2001 207.4 77.2001Z" fill="black"/>
</svg>
