<svg width="306" height="306" viewBox="0 0 306 306" fill="none" xmlns="http://www.w3.org/2000/svg">
<path d="M238.7 94.4002C238.7 81.8002 230.2 71.3002 218.7 68.0002C219.3 65.5002 219.4 62.9002 218.8 60.2002C216.8 51.5002 209 45.4002 200.1 46.0002C196.6 46.2002 193.3 47.5002 190.6 49.5002C186.6 38.5002 180.7 34.7002 168.8 34.0002C162.6 33.7002 151.3 35.8002 147.9 47.5002C144.3 44.5002 139.2 43.0002 132.2 43.0002C120 43.0002 110 52.6002 109.4 64.7002C107.5 64.1002 105.4 63.8002 103.3 63.9002C95.2 64.4002 88.6 71.0002 88 79.1002C87.8 81.8002 88.3 84.4002 89.3 86.8002C77.9 88.0002 69 97.7002 69 109.4C69 118.2 74 125.9 81.4 129.7C78.7 130.8 74.8 136.1 74.1 140.6C72.9 148.3 76.3 155 81.1 157.6C80.6 159.2 80.4 161.1 81 163C81.9 166.3 84.6 168.9 87.9 169.6C89.9 170 91.8 169.8 93.5 169.1C95.1 172.5 97.1 174.6 98.7 175.9C104.9 181 117.6 180.5 114.2 171.6C114.2 171.5 114.2 171.5 114.2 171.4C89.2 161.8 93.7 133.9 105.9 132.3C118.7 130.7 122.7 142.1 123.4 144.9C137.1 136.1 117.6 104.4 137.7 95.0002C155.6 86.7002 174.4 99.3002 197.4 102.4C205.9 103.6 213.9 95.2002 217.5 99.9002C218.2 102 218.8 104.1 219.3 106.3C220.2 110.2 219.5 113.9 218.6 119.2C217.4 125.9 225.5 121.3 226.3 120.3C228.3 117.8 229.7 115 228.7 111.7C234.3 106.8 238.7 102.6 238.7 94.4002Z" fill="black"/>
</svg>
