<svg width="306" height="306" viewBox="0 0 306 306" fill="none" xmlns="http://www.w3.org/2000/svg">
<path d="M219.1 106.4C218.8 104.9 218.4 103.3 217.9 101.8C217.4 100.3 216.2 99.0003 214.6 98.7003C209.4 97.8003 204.4 100.4 197.2 99.4003C174.3 96.3003 159 86.6003 137.5 95.0003C115.3 103.6 127.9 139.4 123.2 144.9C122.4 142.1 118.5 130.7 105.7 132.3C93.6004 133.8 89.0004 161.8 114 171.4C113.8 176.9 103.9 182.1 95.9004 172.5C87.9004 162.9 71.9004 138 82.7004 101.6C93.5004 65.2003 142.4 46.2003 187.9 64.7003C195.7 67.9003 200.7 74.8003 207.2 77.1003C220.6 82.0003 220.7 113.5 219.1 106.4Z" fill="black"/>
<path d="M114.2 171.5C114.2 171.5 114 179.7 105.6 194.9C105.6 194.9 103.6 186.5 99.2004 178.8C94.9004 171.1 86.4004 155 81.2004 138.9C76.0004 122.8 85.6004 142.8 90.5004 149.5C95.4004 156.2 98.5004 172.5 114.2 171.5Z" fill="black"/>
<path d="M100.1 163.4C100.1 163.4 97.3004 182.1 115.2 205.7C133.1 229.3 134.1 253.5 127.5 279.1C127.5 279.1 117.1 271.4 85.6004 248.8C54.1004 226.2 46.5004 187.6 87.9004 151.2C88.0004 151.2 99.7004 153.4 100.1 163.4Z" fill="black"/>
<path d="M171.801 82.7004C175.501 85.0004 179.501 86.5004 183.801 86.8004C189.101 87.2004 197.001 90.8004 208.601 101.3C222.301 113.7 215.501 32.6004 130.201 51.8004C101.001 58.3004 80.2009 84.1004 76.6009 113C76.4009 115 76.2009 117 76.1009 119C75.3009 145.6 96.8009 168.8 96.8009 168.8C96.8009 168.8 88.0009 131.8 108.101 116.5C126.301 102.6 139.001 86.3004 154.901 86.3004C164.501 86.2004 169.601 81.4004 171.801 82.7004Z" fill="black"/>
<path d="M174.601 61.2006C174.601 61.2006 204.901 118.901 219.901 118.401C234.901 117.901 250.501 70.9006 218.701 53.1006C196.501 40.6006 174.601 61.2006 174.601 61.2006Z" fill="black"/>
<path d="M188.1 77.5005C188.1 77.5005 212.9 104 201.2 111.6C194.5 115.9 188.1 102.9 188.1 102.9C188.1 102.9 180.2 115.8 167.6 109.3C155 102.9 163.4 84.4005 163.4 84.4005C163.4 84.4005 180.5 67.2005 188.1 77.5005Z" fill="black"/>
<path d="M165.9 86.5C165.9 86.5 161.4 113.8 140.2 117.8C119 121.8 116.5 100 116.5 100C116.5 100 147.9 65.5 165.9 86.5Z" fill="black"/>
</svg>
