<svg width="306" height="306" viewBox="0 0 306 306" fill="none" xmlns="http://www.w3.org/2000/svg">
<path d="M167.6 139.8C162.2 139.4 157.2 137.1 153 133.7C152.2 133.1 153.1 131.9 153.9 132.5C157 134.5 160.4 135.9 164.1 136.5C165.3 136.7 166.6 136.8 167.7 136.8C169.7 136.8 169.7 139.9 167.6 139.8Z" fill="black"/>
<path d="M196.999 138.4C200.099 138 203.699 137.5 206.099 135.3C206.299 135 206.799 135 206.999 135.3C207.899 136.2 205.599 137.7 204.999 138.2C202.699 139.7 200.099 140.7 197.499 141.4C196.699 141.6 195.899 141.1 195.699 140.3C195.399 139.4 196.099 138.5 196.999 138.4Z" fill="black"/>
<path d="M172.4 130.6C174.3 131.7 176.7 130.2 176.8 127.9C176.8 126.7 176.6 125.4 175.8 124.3C173.4 121.1 161.7 116.2 153.6 118.3C146.6 120.1 163.7 125.6 172.4 130.6Z" fill="black"/>
<path d="M203.1 131.8C201.7 132.9 199.4 131.6 199.1 129.5C198.9 128.4 198.999 127.2 199.499 126.2C201.099 123.2 208.499 119.1 214.499 121.1C219.699 123 209.8 126.9 203.1 131.8Z" fill="black"/>
<path d="M156.3 134.9C155.5 135.6 155 136.7 154.9 137.8L154.8 140.6C154.7 143 156.5 145 158.8 145.1C161.2 145.2 163.2 143.4 163.3 141.1L163.4 138.3C163.4 138.2 163.4 138.1 163.4 138C160.7 137.8 158.5 136.7 156.3 134.9Z" fill="black"/>
<path d="M197.3 139.7C197.3 139.8 197.3 139.8 197.3 139.9L197.2 142.5C197.1 144.7 198.8 146.6 201 146.7C203.2 146.8 205.1 145.1 205.2 142.9L205.3 140.3C205.4 139.3 205 138.4 204.5 137.7C202.3 139 199.8 139.3 197.3 139.7Z" fill="black"/>
</svg>
