<svg width="306" height="306" viewBox="0 0 306 306" fill="none" xmlns="http://www.w3.org/2000/svg">
<path d="M173.5 124.4C175.7 124.7 177.4 122.4 176.6 120.2C176.2 119 175.5 117.9 174.4 117.2C171 115.1 158.3 114.9 151.6 119.7C145.6 124.1 163.5 123 173.5 124.4Z" fill="black"/>
<path d="M201.2 125.5C199.4 125.5 198.3 123.2 199.2 121.3C199.7 120.3 200.4 119.4 201.4 118.9C204.5 117.4 212.8 118.3 216.5 123.4C219.8 127.9 209.5 125.4 201.2 125.5Z" fill="black"/>
<path d="M170.2 137.6C166.7 140.7 161.3 140.7 157.1 139.1C156.4 138.8 152.4 137 153.2 136C153.3 135.9 153.5 135.8 153.6 135.8C156.4 135.9 159 136.2 161.7 136.4C164.4 136.6 166.8 136.5 169.6 136.4C170.3 136.4 170.7 137.2 170.2 137.6Z" fill="black"/>
<path d="M209.7 139.3C206.5 143 200 142.5 197 138.9C196.7 138.6 197 138 197.4 138.1C198.5 138.2 199.5 138.4 200.5 138.5C203.5 139 206 138.9 209.2 138.8C209.7 138.6 209.9 139.1 209.7 139.3Z" fill="black"/>
</svg>
