<svg width="306" height="306" viewBox="0 0 306 306" fill="none" xmlns="http://www.w3.org/2000/svg">
<path d="M174.2 122C176.4 121.8 177.5 119.2 176.3 117.2C175.6 116.2 174.7 115.3 173.4 114.8C169.6 113.6 157.2 116.3 151.8 122.5C147 128.2 164.2 122.9 174.2 122Z" fill="black"/>
<path d="M200.6 123.6C198.9 123.1 198.4 120.6 199.8 119C200.5 118.2 201.5 117.5 202.6 117.3C206 116.7 213.8 119.8 216 125.7C218 130.8 208.7 125.6 200.6 123.6Z" fill="black"/>
<path d="M158.8 145.2C156.4 145.1 154.6 143.1 154.8 140.7L154.9 137.9C155 135.5 157 133.7 159.4 133.9C161.8 134 163.6 136 163.4 138.4L163.3 141.2C163.2 143.5 161.2 145.3 158.8 145.2Z" fill="black"/>
<path d="M200.9 146.7C198.7 146.6 197 144.7 197.1 142.5L197.2 139.9C197.3 137.7 199.2 136 201.4 136.1C203.6 136.2 205.3 138.1 205.2 140.3L205.1 142.9C205 145.1 203.1 146.8 200.9 146.7Z" fill="black"/>
<path d="M167.8 139.8C164.5 137.6 160.9 136.1 156.9 136.9C155.6 137.1 154.3 137.5 153.5 138.4C153.2 138.8 152.5 138.7 152.5 138.1C152.6 136.1 154.3 134.8 155.9 134C159 132.4 163.3 132.7 166.1 134.8C167.1 135.4 170.5 139.1 168.7 139.9C168.3 140.1 168.1 140 167.8 139.8Z" fill="black"/>
<path d="M196.399 140.3C196.399 136.1 201.599 134.6 204.799 136.1C206.599 136.9 207.899 138.5 208.399 140.4C208.599 141 207.699 141.5 207.299 141C205.599 139 202.699 138 200.399 139.2C199.699 139.6 199.599 139.9 199.399 140.3C199.399 142.3 196.499 142.2 196.399 140.3Z" fill="black"/>
</svg>
