<svg width="306" height="306" viewBox="0 0 306 306" fill="none" xmlns="http://www.w3.org/2000/svg">
<path d="M163.5 138.1C163.5 138.2 163.5 138.3 163.5 138.3L163.4 141.1C163.3 143.5 161.3 145.3 158.9 145.2C156.5 145.1 154.7 143 154.9 140.7L155 137.9C155 137.4 155.2 136.8 155.4 136.4L163.4 136.8C163.4 137.2 163.5 137.6 163.5 138.1Z" fill="black"/>
<path d="M205.3 140.3L205.2 142.9C205.1 145.1 203.2 146.8 201 146.7C198.8 146.6 197.1 144.7 197.2 142.5L197.3 139.9C197.3 139.4 197.4 138.9 197.6 138.5L205.1 138.8C205.2 139.3 205.3 139.8 205.3 140.3Z" fill="black"/>
<path d="M173.5 124.4C175.7 124.7 177.4 122.4 176.6 120.2C176.2 119 175.5 117.9 174.4 117.2C171 115.1 158.3 114.9 151.6 119.7C145.6 124.1 163.5 123 173.5 124.4Z" fill="black"/>
<path d="M201.2 125.5C199.4 125.5 198.3 123.2 199.2 121.3C199.7 120.3 200.4 119.4 201.4 118.9C204.5 117.4 212.8 118.3 216.5 123.4C219.8 127.9 209.5 125.4 201.2 125.5Z" fill="black"/>
<path d="M169.899 138.1L153.399 137.8C151.399 137.7 151.499 134.7 153.499 134.8L169.999 136C171.399 136.1 171.299 138.1 169.899 138.1Z" fill="black"/>
<path d="M209.5 139.8L197.3 140C195.3 140 195.2 137.1 197.2 137C197.3 137 197.3 137 197.4 137L209.6 138.3C210.5 138.4 210.4 139.7 209.5 139.8Z" fill="black"/>
</svg>
