<?xml version="1.0" standalone="no"?>
<!DOCTYPE svg PUBLIC "-//W3C//DTD SVG 20010904//EN"
 "http://www.w3.org/TR/2001/REC-SVG-20010904/DTD/svg10.dtd">
<svg version="1.0" xmlns="http://www.w3.org/2000/svg"
 width="640.000000pt" height="640.000000pt" viewBox="0 0 640.000000 640.000000"
 preserveAspectRatio="xMidYMid meet">
<metadata>
Created by potrace 1.14, written by Peter Selinger 2001-2017
</metadata>
<g transform="translate(0.000000,640.000000) scale(0.100000,-0.100000)"
fill="#000000" stroke="none">
<path d="M2775 5153 c-204 -28 -423 -142 -547 -285 -30 -34 -92 -117 -136
-183 -53 -78 -119 -158 -190 -231 -119 -120 -164 -190 -206 -314 -104 -312
-61 -666 123 -1015 62 -118 139 -234 250 -375 115 -146 191 -288 191 -357 0
-80 -11 -123 -30 -123 -29 0 -127 -37 -165 -63 -66 -45 -99 -119 -108 -237
l-2 -34 -155 -49 c-705 -221 -777 -256 -899 -446 -105 -164 -159 -317 -286
-813 -48 -183 -88 -341 -91 -350 -5 -17 108 -18 2265 -18 1249 0 2271 3 2271
6 0 3 -9 40 -20 82 -10 43 -35 156 -54 252 -59 294 -111 447 -207 616 -81 141
-165 215 -381 332 -97 54 -185 91 -371 156 l-147 52 40 23 c21 12 62 40 89 61
61 48 78 90 119 292 25 121 37 157 70 214 69 120 120 250 152 387 10 43 20 80
22 81 1 1 24 10 50 20 123 45 239 195 282 363 26 99 31 235 12 323 -30 143
-115 278 -213 340 l-43 27 60 6 c38 3 76 14 103 30 57 34 129 112 164 178 26
49 28 63 28 159 0 95 -3 110 -28 157 -42 80 -121 153 -221 204 -86 43 -87 44
-79 74 4 17 7 58 7 91 0 117 -83 205 -226 240 -62 16 -120 19 -398 19 -179 1
-338 5 -355 9 -305 85 -431 107 -603 105 -59 -1 -120 -4 -137 -6z m654 -1151
c128 -121 296 -214 464 -257 l92 -23 -3 -32 c-2 -17 -15 -56 -29 -86 -14 -31
-27 -73 -30 -95 -6 -38 -6 -39 -42 -33 -33 5 -101 -3 -172 -21 -24 -6 -27 -4
-33 35 -18 112 -128 270 -234 333 -94 58 -166 77 -284 77 -117 0 -200 -24
-289 -80 -102 -66 -202 -206 -233 -326 -8 -31 -18 -50 -29 -52 -14 -3 -17 5
-17 43 0 41 -13 191 -24 272 -4 29 0 34 54 67 71 44 144 122 205 220 l45 73
68 -67 c54 -54 79 -71 122 -84 69 -21 83 -20 129 4 45 22 74 65 93 133 l12 48
35 -43 c19 -24 64 -71 100 -106z m-154 -171 c14 -6 5 -9 -36 -14 -101 -12
-229 -69 -229 -102 0 -8 16 -18 38 -24 62 -17 423 -40 451 -29 29 11 37 2 76
-72 43 -85 58 -156 52 -250 -7 -104 -30 -177 -81 -253 -91 -137 -240 -218
-401 -218 -133 0 -241 46 -329 141 -96 104 -136 204 -136 340 0 139 43 243
144 348 60 63 122 102 201 127 44 14 218 18 250 6z m1211 -40 c116 -84 174
-219 175 -411 2 -166 -43 -288 -142 -395 -55 -58 -122 -105 -134 -94 -3 3 -5
152 -5 330 -1 316 0 338 36 557 3 23 12 42 19 42 6 0 30 -13 51 -29z m-142
-59 l-7 -62 -32 29 c-18 16 -39 31 -47 35 -7 3 -9 8 -3 11 6 3 28 16 50 29 22
12 41 22 43 21 1 -1 -1 -29 -4 -63z m-11 -331 c9 -278 9 -445 1 -493 -6 -35
-10 -38 -38 -38 -47 0 -93 16 -153 52 -45 27 -53 37 -53 62 0 16 -23 76 -51
133 -45 94 -89 203 -89 224 0 5 15 0 33 -10 17 -11 46 -22 64 -26 37 -8 106
11 128 35 15 16 9 18 -91 24 -111 8 -137 13 -129 26 3 4 12 40 20 80 8 40 24
92 35 116 l19 44 149 -3 149 -2 6 -224z m-2048 28 c52 -25 124 -99 155 -160
12 -24 24 -46 26 -48 9 -9 77 73 95 114 14 31 26 45 39 45 18 0 20 -7 20 -57
0 -155 75 -297 219 -415 100 -83 180 -123 272 -138 138 -21 241 21 374 155
135 137 189 240 202 390 l6 75 36 10 c20 6 61 13 92 16 71 8 84 -4 93 -90 8
-78 36 -173 76 -258 17 -35 30 -76 30 -92 0 -72 -74 -159 -157 -187 -51 -16
-44 -41 10 -33 65 9 124 42 165 90 l36 44 46 -44 c76 -74 132 -93 165 -56 31
34 33 22 10 -57 -31 -110 -78 -219 -136 -314 -76 -124 -78 -129 -114 -291 -19
-82 -44 -165 -55 -183 -70 -113 -348 -193 -582 -167 -192 21 -352 75 -458 155
-132 100 -203 147 -222 147 -17 0 -14 -7 21 -57 78 -110 156 -196 241 -264
140 -113 273 -172 459 -204 89 -16 94 -18 137 -62 38 -40 45 -54 52 -107 22
-170 -44 -284 -193 -330 -86 -28 -305 -18 -430 18 -175 51 -363 159 -499 285
-94 89 -217 256 -285 389 -12 23 -28 42 -35 42 -8 0 -17 11 -20 25 -5 19 4 43
33 93 44 74 85 206 101 325 5 43 10 161 10 263 0 177 1 184 20 184 37 0 19 15
-72 59 -167 81 -273 214 -301 376 -21 125 22 258 102 312 46 31 152 32 216 2z
m-265 -1677 c0 -58 41 -190 90 -289 150 -303 490 -588 843 -706 107 -36 284
-61 373 -53 160 15 303 74 377 156 98 109 132 236 125 462 -3 103 -2 148 6
145 21 -7 39 -132 40 -277 1 -127 -2 -153 -22 -212 -45 -130 -128 -226 -247
-286 -22 -11 -87 -30 -144 -42 -272 -58 -591 16 -871 203 -292 194 -495 453
-575 731 -29 102 -34 196 -10 196 10 0 15 -10 15 -28z"/>
<path d="M3070 3405 c38 -45 161 -77 242 -61 42 8 103 45 92 55 -5 5 -85 12
-178 16 -157 6 -169 5 -156 -10z"/>
<path d="M2114 3276 c-27 -27 -34 -42 -34 -74 0 -53 15 -61 30 -17 17 50 51
71 90 55 36 -15 42 -33 44 -130 2 -83 16 -116 61 -146 34 -22 40 -13 20 27
-14 26 -16 47 -10 114 11 133 -33 205 -125 205 -34 0 -48 -6 -76 -34z"/>
<path d="M3293 2715 c-31 -22 -45 -78 -32 -134 23 -102 102 -189 198 -217 118
-34 217 10 273 121 11 22 30 48 42 57 16 13 19 21 11 34 -8 12 -27 17 -75 19
-69 2 -104 15 -248 95 -80 43 -132 51 -169 25z m255 -261 c23 -9 42 -20 42
-25 0 -12 -58 -21 -92 -14 -34 7 -118 51 -118 62 0 11 125 -6 168 -23z"/>
</g>
</svg>
