<?xml version="1.0" encoding="UTF-8"?>
<!-- Uploaded to: SVG Repo, www.svgrepo.com, Generator: SVG Repo Mixer Tools -->
<svg width="800px" height="800px" viewBox="0 0 512 512" version="1.1" xmlns="http://www.w3.org/2000/svg" xmlns:xlink="http://www.w3.org/1999/xlink">
    <title>sound-off-filled</title>
    <g id="Page-1" stroke="none" stroke-width="1" fill="none" fill-rule="evenodd">
        <g id="icon" fill="#000000" transform="translate(42.666667, 59.581722)">
            <path d="M47.0849493,-1.42108547e-14 L298.668,251.583611 L304.101001,257.015597 L304.101,257.016 L353.573532,306.488791 C353.573732,306.488458 353.573933,306.488124 353.574133,306.48779 L384.435257,337.348961 L384.434,337.349 L409.751616,362.666662 L379.581717,392.836561 L191.749,205.003 L191.749973,369.105851 L81.0208,283.647505 L7.10542736e-15,283.647505 L7.10542736e-15,112.980838 L80.8957867,112.980838 L91.433,104.688 L16.9150553,30.169894 L47.0849493,-1.42108547e-14 Z M361.298133,28.0146513 C429.037729,103.653701 443.797162,209.394226 405.578884,298.151284 L372.628394,265.201173 C396.498256,194.197542 381.626623,113.228555 328.013013,54.642278 L361.298133,28.0146513 Z M276.912853,95.5237713 C305.539387,127.448193 318.4688,168.293162 315.701304,208.275874 L266.464558,159.040303 C261.641821,146.125608 254.316511,133.919279 244.488548,123.156461 L243.588693,122.182545 L276.912853,95.5237713 Z M191.749973,25.7516113 L191.749,84.3256113 L158.969,51.5456113 L191.749973,25.7516113 Z" id="Combined-Shape">

</path>
        </g>
    </g>
</svg>