<?xml version="1.0" encoding="UTF-8"?>
<!-- Uploaded to: SVG Repo, www.svgrepo.com, Generator: SVG Repo Mixer Tools -->
<svg width="800px" height="800px" viewBox="0 0 512 512" version="1.1" xmlns="http://www.w3.org/2000/svg" xmlns:xlink="http://www.w3.org/1999/xlink">
    <title>sound-loud-filled</title>
    <g id="Page-1" stroke="none" stroke-width="1" fill="none" fill-rule="evenodd">
        <g id="icon" fill="#000000" transform="translate(42.666667, 85.333333)">
            <path d="M361.299413,341.610667 L328.014293,314.98176 C402.206933,233.906133 402.206933,109.96608 328.013013,28.8906667 L361.298133,2.26304 C447.910187,98.97536 447.908907,244.898347 361.299413,341.610667 Z M276.912853,69.77216 L243.588693,96.4309333 C283.38432,138.998613 283.38304,204.87488 243.589973,247.44256 L276.914133,274.101333 C329.118507,215.880107 329.118507,127.992107 276.912853,69.77216 Z M191.749973,1.42108547e-14 L80.8957867,87.2292267 L7.10542736e-15,87.2292267 L7.10542736e-15,257.895893 L81.0208,257.895893 L191.749973,343.35424 L191.749973,1.42108547e-14 L191.749973,1.42108547e-14 Z" id="Shape">

</path>
        </g>
    </g>
</svg>