<svg width="306" height="343" viewBox="0 0 306 343" fill="none" xmlns="http://www.w3.org/2000/svg">
<path d="M256.6 338.6L16.5 340.4C16.5 340.4 26.4 300.2 38 265.7C42.3 252.9 44.2 236.6 54.4 228.9C65.9 220.2 82.1 217 92.8 213.2C98.5 211.2 102.8 211.3 106.8 210.2C106.8 210.7 106.9 211.1 106.9 211.6C106.9 211.6 117.7 243.7 145.8 255.1C168.7 264.4 182.3 258.2 184.4 247.9C185.7 241.3 181.6 230.5 179.5 227C178.3 226 177.5 224.5 177.1 223L176.3 219.7C178.2 219.3 180 218.8 181.8 218.2C182.4 218 183.6 219.8 184.1 219.6C197 223 223 231.5 235 244.7C249.8 260.5 256.6 338.6 256.6 338.6Z" fill="black"/>
<mask id="mask0_409_3241" style="mask-type:alpha" maskUnits="userSpaceOnUse" x="16" y="210" width="241" height="131">
<path d="M256.6 338.6L16.5 340.4C16.5 340.4 26.4 300.2 38 265.7C42.3 252.9 44.2 236.6 54.4 228.9C65.9 220.2 82.1 217 92.8 213.2C98.5 211.2 102.8 211.3 106.8 210.2C106.8 210.7 106.9 211.1 106.9 211.6C106.9 211.6 117.7 243.7 145.8 255.1C168.7 264.4 182.3 258.2 184.4 247.9C185.7 241.3 181.6 230.5 179.5 227C178.3 226 177.5 224.5 177.1 223L176.3 219.7C178.2 219.3 180 218.8 181.8 218.2C182.4 218 183.6 219.8 184.1 219.6C197 223 223 231.5 235 244.7C249.8 260.5 256.6 338.6 256.6 338.6Z" fill="black"/>
</mask>
<g mask="url(#mask0_409_3241)">
<path d="M120.21 228.069L106.775 241.504L120.21 254.939L133.645 241.504L120.21 228.069Z" fill="white"/>
<path d="M172.897 228.038L159.462 241.473L172.897 254.908L186.332 241.473L172.897 228.038Z" fill="white"/>
<path d="M67.5941 228.029L54.1592 241.464L67.5941 254.899L81.029 241.464L67.5941 228.029Z" fill="white"/>
<path d="M224.809 228.069L211.374 241.504L224.809 254.939L238.244 241.504L224.809 228.069Z" fill="white"/>
<path d="M95.8753 279.97L82.4404 293.405L95.8753 306.84L109.31 293.405L95.8753 279.97Z" fill="white"/>
<path d="M148.562 279.939L135.127 293.374L148.562 306.809L161.997 293.374L148.562 279.939Z" fill="white"/>
<path d="M200.474 279.97L187.039 293.405L200.474 306.84L213.909 293.405L200.474 279.97Z" fill="white"/>
<path d="M120.219 331.965L106.784 345.399L120.219 358.834L133.654 345.399L120.219 331.965Z" fill="white"/>
<path d="M172.907 331.933L159.472 345.368L172.907 358.803L186.341 345.368L172.907 331.933Z" fill="white"/>
<path d="M67.6038 331.924L54.1689 345.359L67.6038 358.794L81.0387 345.359L67.6038 331.924Z" fill="white"/>
<path d="M224.819 331.964L211.384 345.399L224.819 358.834L238.254 345.399L224.819 331.964Z" fill="white"/>
</g>
<path d="M258.5 340.3C187.1 341 86.8004 342.6 16.5004 342.9C15.1004 342.9 13.9004 341.8 13.9004 340.4C19.0004 318.9 25.2004 297.6 31.8004 276.5C32.9004 273 34.0004 269.5 35.2004 266.1C37.6004 259.2 39.1004 252.1 41.4004 245.1C45.7004 231.8 51.4004 226 64.0004 220.3C72.6004 216.4 81.4004 214.2 90.1004 211.4L92.7004 210.5C97.0004 208.9 102.4 208.7 106.3 207.7C107.7 207.4 109 208.2 109.4 209.5C109.5 209.6 109.6 211.2 109.6 211.4L107 209C108.1 209 109.1 209.7 109.4 210.7C110.2 213 111.3 215.4 112.4 217.7C120.2 233.6 132.7 247.9 149.8 253.8C158.6 256.9 169.9 259.3 177.8 253.9C181.6 251.3 182.8 246.7 182 242.3C181.3 237.6 179.7 232.6 177.4 228.4L177.9 229C176.1 227.2 175.3 224.5 175.2 222.1L175 220.1C174.8 219.2 175.2 218.3 176.2 218.2C177.9 217.9 179.6 217.4 181.2 216.9C181.5 216.8 182.1 216.6 182.4 216.7C183.7 217 183.9 217.7 184.7 218.2C184.6 218.2 184.4 218 183.9 218.2H184.8C191.1 219.8 197.3 221.7 203.4 224C215.7 228.7 228 234 237.2 243.9C250.2 260.2 256.1 311.7 258.7 333.6C258.7 333.8 259 336.9 259.1 337.2L259.2 337.8V338.1V338.2C259.2 338.9 258.9 339.8 258.5 340.3ZM254.7 336.9C254.4 337.2 254.1 337.6 254.1 338C254.1 338.2 254 338.4 254.1 338.6V338.5C254.1 338.1 254 336.9 253.9 336.4C251.3 311.9 248.2 286.9 241.4 263.2C239.1 256 236.6 248.3 230.7 243.5C222.4 236.3 212.2 231.7 202 227.8C196.1 225.6 190 223.6 183.8 222L185.3 221.9C184.5 222.2 183.9 222.1 183.3 221.8C182.5 221.4 181.8 220.7 181.4 220.1C181.6 220.2 182.3 220.3 182.7 220.2H182.8H182.7L182.4 220.3C180.6 220.7 178.7 220.9 176.9 221.1L178.1 219.2C178.9 221.3 179.4 223.9 181.4 225C183.3 227.5 184.2 230.5 185.2 233.4C186.5 237.4 187.5 241.6 187.3 245.9C186.8 257.9 174.6 262.9 164.1 262.1C147.5 260.9 132 252.6 121.2 240.2C114 232 108.3 222.6 104.5 212.4L106.9 214.1C105.5 214.1 104.4 213.1 104.3 211.7L104.2 210.4L107.4 212.7C105.4 213.2 103.5 213.5 101.7 213.7C96.3004 214.3 91.5004 216.4 86.3004 217.9C79.3004 220 72.4004 222.1 66.0004 225C59.9004 227.9 53.7004 231.2 50.3004 237.3C46.8004 243.3 45.0004 250.3 43.1004 257.1C41.3004 264.1 38.7004 271.1 36.5004 278.1C29.9004 298.9 24.1004 319.9 18.8004 341.1L16.3004 337.9C85.3004 337.4 184.8 336.9 254.7 336.9Z" fill="black"/>
<path d="M168.101 251C168.101 251 161.201 256.2 162.701 261.1C164.201 266 177.501 265.2 180.101 261.1C182.601 257 171.301 250 168.101 251Z" fill="black"/>
<path d="M167.9 250.8C168 250.9 168 250.9 168.1 251C168.1 250.9 168.1 250.8 168.1 250.8C168.1 250.8 168 250.8 167.9 250.8Z" fill="white"/>
<path d="M141.401 246.8C113.301 235.4 108.501 214 108.501 214L123.801 207.5C123.801 207 127.901 202.8 127.801 202.4C127.701 200.9 117.501 199.3 106.301 203C104.501 203.6 102.301 204.8 100.301 205.9C96.7005 208 93.8005 211 92.0005 214.7C92.0005 214.8 91.9005 214.8 91.9005 214.9C91.7005 241.2 118.001 263.3 138.101 270.6C150.301 275 163.401 266.6 167.301 254.3C167.601 253.2 167.901 252.2 168.101 251.1C168.001 251 168.001 251 167.901 250.9C161.401 252.2 152.401 251.3 141.401 246.8Z" fill="white"/>
<path d="M140.9 248.2C127.6 242.9 115.4 233.4 109.3 220.3C108.4 218.4 107.7 216.5 107.1 214.3C106.9 213.6 107.3 212.9 108 212.6C112 210.9 118.4 208.2 122.3 206.5C122.5 206.4 123 206.2 123.2 206.1C122.9 206.2 122.3 206.7 122.3 207.4C122.3 208.3 123.2 208.9 123.8 208.9L122.3 207.5C122.3 207.2 122.4 206.8 122.4 206.8C122.8 205.9 123.6 205.1 124.2 204.4C124.6 204 126.2 202 126.4 201.8C126.3 202.1 126.3 202.7 126.5 202.9C126.7 203.2 126.6 203 126.4 202.9C122.6 201.6 118.3 201.6 114.3 202C107.7 202.5 101.1 205.4 97.1002 210.8C95.9002 212.3 94.8002 214.2 94.0002 215.8C94.0002 215.7 94.0002 215.8 94.2002 215.3C94.3002 214.3 94.2002 215 94.3002 214.8V214.9C94.5002 236.4 110.8 254.6 128.6 265.1C134.4 268.2 140.8 271.8 147.6 270.7C157.5 269.3 165.7 260.5 166.7 250.6L167.1 251.9L166.9 251.7L168.3 252.1C158.9 254.1 149.5 251.6 140.9 248.2ZM142 245.5C150 248.7 159 251.1 167.6 249.4C168.1 249.3 168.6 249.5 169 249.8C169.4 250.1 169.7 250.7 169.6 251.3C167.2 261.8 158.5 270.8 147.7 272.2C144.2 272.7 140.5 272.2 137.2 270.9C130.7 268.5 124.5 265.2 118.8 261.2C103.5 250.8 89.6002 234.4 89.6002 214.9V214.8C89.6002 214.6 89.5002 215.3 89.7002 214.3C89.8002 213.8 89.9002 213.9 89.9002 213.8C91.8002 209.9 95.2002 206.9 99.1002 205.1C103.9 202.8 108.9 201.2 114.2 200.3C116.9 199.8 129.5 198.1 129.4 202.6C129.2 203.4 128.7 203.9 128.3 204.5C127.6 205.4 126.2 207 125.5 207.9C125.5 207.9 125.3 208.1 125.4 208.1V208C125.4 208 125.5 207.7 125.5 207.5L124 206.1C124.2 206.1 124.8 206.2 125 206.6C125.6 207.2 125.5 208.3 124.9 208.8C124.4 209.1 124.6 209 124.5 209H124.4L124.3 209.1C123.9 209.3 123.1 209.6 122.6 209.8C119.1 211.3 112.8 214 109.2 215.5L110.1 213.8C110.6 215.5 111.3 217.4 112.1 219.1C118.1 231.3 129.4 240.4 142 245.5Z" fill="black"/>
<path d="M194.901 243.8C193.301 229.9 185.801 222.1 182.001 218.1C180.201 218.7 177.201 219.4 175.301 219.8C175.301 219.8 181.801 228.2 180.101 239.6C179.301 245 175.201 249.1 168.201 250.7C168.201 250.8 168.201 250.8 168.101 250.9C170.701 253.9 172.901 260.4 181.201 264.3C186.901 267 190.501 263.9 193.001 258.2C195.101 253.3 195.401 247.7 194.901 243.8Z" fill="white"/>
<path d="M193.701 244C192.801 234.4 188.201 225.5 181.601 218.5L182.201 218.6C180.001 219.6 177.901 220.5 175.601 221.3L176.501 218.9C180.401 224.5 182.301 231.2 181.801 238C181.601 245.6 175.501 250.8 168.501 252.2L169.601 251.2L169.501 251.4L169.201 249.9C171.801 253.4 173.201 256.8 176.401 259.6C179.001 261.8 182.701 264.6 186.201 264C193.001 262 194.401 250 193.701 244ZM196.101 243.7C196.801 250.1 195.701 256.7 192.201 262.1C187.501 269.5 180.101 266.2 174.701 261.6C171.501 259 169.301 255 166.901 251.9C166.101 251 166.701 249.4 167.801 249.2C170.701 248.5 173.501 247.3 175.501 245.3C181.601 239.3 178.501 226.9 174.101 220.6L173.901 219.8C173.701 219.1 174.101 218.4 174.701 218.2C177.101 217.9 179.501 217.8 181.801 217.4C182.001 217.3 182.201 217.4 182.401 217.5C189.801 224.5 194.901 233.7 196.101 243.7Z" fill="black"/>
</svg>
