<svg width="306" height="352" viewBox="0 0 306 352" fill="none" xmlns="http://www.w3.org/2000/svg">
<path d="M229.101 240.7C221.501 233.8 197.201 223 179.001 218.6C171.001 216.7 152.201 211.2 137.901 209.8C130.201 209 116.001 210.9 107.101 211.2C98.5006 211.5 69.5006 217.4 55.6006 227.2C52.6006 229.3 39.2006 242.6 33.4006 276.7C28.9006 303 23.3006 337.1 23.1006 348.7H251.001C254.801 280.9 237.001 247.9 229.101 240.7Z" fill="black"/>
<path d="M227.4 242.6C222.8 238.7 216.9 235.7 211.4 233.1C202.8 229 193.8 225.5 184.6 222.8C175.4 220.3 165.8 217.9 156.6 215.7C150.4 214.3 144.1 213.1 137.8 212.4C131.7 211.9 125.1 212.6 118.9 213C114.2 213.4 109.3 213.6 104.5 214C90.5002 215.9 76.3002 219.6 63.5002 225.6C61.1002 226.8 58.8002 228 56.7002 229.6C51.4002 234.4 47.6002 241.1 44.6002 247.6C39.7002 258.4 37.0002 270.2 35.2002 281.9C33.7002 291.1 31.9002 301.4 30.5002 310.6C28.6002 323.2 26.4002 336 25.8002 348.7L23.2002 346.1H251L248.4 348.5C249.8 320.9 248.6 292.5 239.9 266C237 257.8 233.5 249 227.4 242.6ZM230.9 238.8C234.7 242.4 237.2 246.5 239.9 250.8C247.5 263.3 251.1 277.5 253.1 291.9C255.9 310.7 255.8 329.9 253.7 348.8C253.7 350.2 252.5 351.3 251.1 351.2H23.3002C21.9002 351.2 20.7002 350 20.7002 348.6C20.8002 345.2 21.2002 342 21.5002 338.7C22.6002 329 24.1002 319.4 25.7002 309.8C27.1002 300.6 29.0002 290.3 30.5002 281.1C32.5002 269 35.3002 256.8 40.3002 245.6C43.7002 238.4 47.6002 231.3 53.7002 225.9C56.1002 224.1 58.7002 222.6 61.4002 221.3C74.9002 215 89.3002 211.3 103.9 209.2C108.7 208.8 113.6 208.6 118.5 208.1C125.1 207.6 131.5 206.9 138.3 207.4C144.9 208.1 151.3 209.3 157.7 210.7C167.3 212.9 176.6 215.2 186.1 217.8C195.5 220.6 204.7 224.1 213.6 228.3C219.7 231.5 225.5 234.3 230.9 238.8Z" fill="black"/>
<path d="M233.3 348.7C226.6 285.1 213.4 252.7 213.4 252.7C210.3 235.6 202.1 222.1 199.5 220.9C194.8 218.8 194 219.5 194 219.5C201.6 229.8 205.5 247.3 206.5 256.4C177.8 268.9 124.8 260.2 106.3 256.2C100.2 245.3 88.4999 222.5 78.2999 213.8C77.3999 213.1 76.1999 213 75.1999 213.4C74.3999 213.8 73.2999 214.5 72.2999 215.7C71.7999 216.3 71.7999 217.1 72.3999 217.7C72.4999 217.8 72.5999 217.9 72.6999 218C89.6999 236.6 98.9999 269.1 96.6999 294.2C92.5999 338.8 84.7999 348.6 84.7999 348.6H233.3V348.7Z" fill="white"/>
<path d="M231.4 347C230.5 343.6 229.9 340.3 229.7 336.8C226.7 308.5 222.5 279.8 212.5 253.1L213.9 253.6C213.4 253.9 212.8 253.7 212.5 253.3C211.1 246.6 209.1 240 206.1 233.8C204.1 229.8 202.1 225.7 199 222.6C197.8 222 196.2 221.5 194.9 221.1C194.7 221 194.5 221 194.4 221C194.4 221 194.4 221 194.5 221H194.6C194.7 221 194.6 221 194.8 220.8L195 218.9C195.9 220.4 197.9 224.1 198.6 225.6C201.8 232.3 203.8 239.6 205.4 246.8C206 250 206.6 253.3 207 256.6C207 256.9 206.9 257.1 206.6 257.3C190.8 263.9 173.3 264.5 156.4 264.3C147.9 264.1 139.4 263.4 131 262.5C122.6 261.5 114.2 260.2 105.8 258.5C105.2 258.4 104.8 258 104.5 257.6C100.4 250.3 96.6 243.1 92.4 236C88.3 229.1 84 221.9 78.2 216.3L77.2 215.4C75.8 214.4 74.2 216.2 73.2 217.1C73.1 217.2 73.1 217.3 73.2 217.4L73.3 217.5C76.5 221.1 79.3 225 81.8 229.1C86.2 236.3 89.6 243.9 93.2 251.5C98.4 263.2 98.6 276.2 98.5 288.8C97.9 301.3 96.4 313.8 94.4 326.1C92.7 334.5 91.2 343.3 86.7 350.8L84.7 346.6C131.4 345.9 184.6 346.3 231.4 347ZM235.3 350.5C187.3 351.2 132.7 351.6 84.7 351.3L82.7 347.1C85.7 342.1 87.1 336.3 88.7 330.7C91.3 320.8 93 310.7 94.2 300.5L94.9 294.4C96.7 280.1 92.1 266.2 89 252.4C86.6 240.4 80.5 229.2 72.5 220L71.5 218.9L71.4 218.8L71.3 218.7C70.8 218.1 70.5 217.4 70.5 216.6C70.6 215.2 71.9 214.1 72.9 213.3C74.9 211.6 77.5 211.3 79.5 213.3C83 216.3 85.8 219.8 88.5 223.4C95.9 233.4 101.9 244.5 107.9 255.4L106.6 254.4C123 257.9 139.7 260.4 156.5 261.5C173.1 262.3 190.5 262.3 206.1 255.9L205.7 256.6C205.3 253.4 204.8 250.2 204.1 247C202.7 240.7 200.6 234.5 197.8 228.6C197.3 227.5 196.1 225.4 195.5 224.3C194.7 222.9 193.7 221.6 192.7 220.4C192.1 219.7 192.5 218.7 193.1 218.3C195.1 217.3 197.4 218.5 199.3 219.2C199.7 219.4 200.4 219.7 200.8 220C204.4 223.4 206.4 228.2 208.4 232.6C209.8 235.8 210.9 239.1 211.8 242.4C212.8 245.7 213.5 249.1 214.1 252.5L212.6 251.8C213.1 251.5 213.7 251.6 214 252.1C220.9 271.5 225.7 291.7 229.6 311.9C231.2 320 232.5 328.1 233.8 336.2C234.9 340.9 235.2 345.9 235.3 350.5Z" fill="black"/>
<path d="M113.2 278.5C115.851 278.5 118 276.351 118 273.7C118 271.049 115.851 268.9 113.2 268.9C110.549 268.9 108.4 271.049 108.4 273.7C108.4 276.351 110.549 278.5 113.2 278.5Z" fill="black"/>
<path d="M205.7 272.8C208.02 272.8 209.9 270.92 209.9 268.6C209.9 266.28 208.02 264.4 205.7 264.4C203.38 264.4 201.5 266.28 201.5 268.6C201.5 270.92 203.38 272.8 205.7 272.8Z" fill="black"/>
</svg>
