<svg width="306" height="352" viewBox="0 0 306 352" fill="none" xmlns="http://www.w3.org/2000/svg">
<path d="M81.5 218.1C81.5 218.1 91.2 212.1 107 211.5C122.8 210.9 175.8 216.5 196.9 226.1C196.9 226.1 221.7 243.3 197.7 261.7C173.7 280.1 121.7 268.6 109.9 254.4C98.1 240.3 81.5 218.1 81.5 218.1Z" fill="white"/>
<path d="M78.3003 217.5C78.4003 216.7 79.3003 215.6 80.0003 215.3C80.1003 215.3 80.3003 215.3 80.4003 215.3C85.5003 215.2 90.0003 212.4 94.9003 211.6C109.6 208.4 124.8 210.7 139.5 212.1C149.3 213.2 159.1 214.6 168.8 216.5C178.6 218.5 188.3 220.6 197.5 224.5C204.1 229.3 209.9 236.4 209.9 245C209.8 251.5 206 256.9 201.4 261C194.1 267.8 184.1 271.2 174.4 272.5C154.8 275.1 128.7 271.2 112.2 260C110.5 258.8 108.8 257.3 107.5 255.7C102.5 249.8 97.7003 243.9 93.0003 237.9C90.7003 235 84.6003 227.3 82.4003 224.4C81.9003 223.7 80.2003 221.7 79.8003 221L79.4003 220.4C78.6003 219.8 78.2003 218.6 78.3003 217.5ZM84.7003 218.7C85.0003 218 84.7003 216.9 84.3003 216.4C84.4003 216.5 84.8003 217.1 84.9003 217.3C89.0003 222.9 93.4003 228.9 97.7003 234.5C102.3 240.5 107 246.6 111.7 252.4C116.2 257.7 123.4 260.8 129.9 263.3C149.4 270 176.4 272.8 194.6 261.5C200.3 257.7 206.1 252.1 206.4 245C206.6 238 201.3 231.6 195.9 227.5C188.5 224.3 177.3 221.5 168.2 219.7C149 216.1 129.4 213.5 109.9 213C105.1 213 100.3 213.4 95.6003 214.5C92.1003 215.4 88.5003 216.1 85.5003 218C84.6003 218.7 83.6003 219.6 83.2003 220.7C83.9003 220.5 84.6003 219.5 84.7003 218.7Z" fill="black"/>
<path d="M200.801 237.9C200.501 248 194.501 259.399 177.801 265.299C153.001 274.099 242.701 267.6 242.701 267.6C242.701 267.6 237.201 249.4 227.501 241.3C214.801 230.7 196.901 224.5 196.901 224.5C196.901 224.5 201.001 230.2 200.801 237.9Z" fill="white"/>
<path d="M203.201 238C202.301 252.6 190.601 262.3 177.601 266.7C176.701 267.1 175.501 267.5 174.801 268.1C174.601 268.2 174.701 268.4 174.801 267.9C174.801 267.7 174.701 267.4 174.601 267.4C175.801 267.9 177.801 268.1 179.301 268.2C200.401 269.2 221.601 267 242.601 265L240.301 268.3C240.401 267 240.201 265.6 240.001 264.2C238.801 257.5 235.301 251.4 231.201 246.1C226.001 239.9 218.501 236 211.401 232.5C206.601 230.2 201.401 228.3 196.301 226.9L199.201 223C201.901 227.5 203.301 232.7 203.201 238ZM198.401 237.8C198.401 233.6 197.201 229.4 194.901 225.9C193.401 223.9 195.601 221.1 197.801 222C203.201 223.9 208.201 226.2 213.201 228.8C219.401 232.1 225.601 235.8 230.801 240.7C237.901 248 242.001 257.3 245.201 266.8C245.701 268.3 244.501 270 242.901 270L214.601 270.8C202.801 271 190.901 271.5 179.101 270.6C177.001 270.3 174.601 270.4 172.801 268.9C170.901 266.4 175.001 264.9 176.801 264.3C188.701 260.7 198.701 251 198.401 237.8Z" fill="black"/>
<path d="M252.4 348.699H23.2002C23.3002 341.599 23.9002 325.799 26.2002 308.799C27.7002 297.899 30.0002 286.6 33.4002 276.7C37.8002 264 44.4002 240.599 49.8002 234.099C50.0002 233.999 50.0002 233.999 50.0002 233.999C52.6002 229.899 55.6002 226.799 58.1002 225.399C67.5002 219.899 73.1002 218.199 77.3002 216.599C78.8002 216.099 81.1002 215.399 81.6002 216.199C96.3002 239.099 127.6 255.699 155.6 261.599C194.9 269.899 241.8 264.799 242.8 267.599C247.1 279.399 249.9 304.799 247.6 315.999C244.6 330.199 251.7 342.699 252.4 348.699Z" fill="white"/>
<path d="M254.301 350.5C186.101 350.7 90.4006 351.6 23.2006 351.3C21.8006 351.3 20.6006 350.2 20.6006 348.7C21.0006 328.7 22.6006 308.6 27.1006 289C29.4006 279.2 33.0006 270 36.0006 260.4C38.8006 252.1 41.4006 243.5 45.6006 235.7C46.4006 234.4 47.1006 233.2 48.1006 232.1L47.7006 232.5C50.0006 229.1 52.7006 225.6 56.3006 223.2C62.4006 219.5 69.0006 216.5 75.7006 214.3C77.7006 213.7 79.6006 212.8 81.9006 213.4C82.5006 213.6 83.3006 214.1 83.6006 214.8L83.9006 215.3C85.3006 217.5 86.9006 219.6 88.5006 221.6C106.301 242.4 132.401 255.2 159.001 260.7C171.001 262.9 183.401 264.2 195.601 264.6C206.101 264.9 217.401 263.8 227.901 263.2C231.501 263 236.101 262.8 239.801 263C242.301 263.1 245.201 263.5 246.301 266.4C249.301 275.2 250.701 284.5 251.501 293.6C252.001 299.9 252.301 306.2 251.501 312.8C251.201 315.8 250.301 318.7 250.201 321.8C249.601 330 252.501 337.9 254.401 345.8C254.901 347.3 255.201 349.1 254.301 350.5ZM250.501 347C250.001 347.3 249.701 348.1 249.801 348.5L249.701 348.1C249.301 346.3 248.101 342.4 247.601 340.6C244.901 332.3 243.601 323.1 245.701 314.5C246.701 307.9 246.501 301 246.001 294.2C245.301 285.5 244.101 276.7 241.501 268.4V268.3C241.501 268.3 241.401 268.1 241.501 268.4C241.701 268.7 241.801 268.7 241.801 268.8C241.201 268.6 240.501 268.5 239.601 268.5C206.701 267.7 172.301 269.2 140.701 258.5C118.201 250.6 96.0006 238.1 82.1006 218.2L81.4006 217.2L81.1006 216.7L81.0006 216.6C80.8006 216.5 80.5006 216.5 80.1006 216.6C79.8006 216.6 79.4006 216.7 79.0006 216.8C76.8006 217.4 74.6006 218.3 72.5006 219.1C67.5006 221 62.7006 223.5 58.2006 226.3C55.1006 228.4 52.8006 231.4 50.7006 234.6C47.7006 238.4 46.1006 243.2 44.3006 247.7C42.6006 252.3 41.1006 257 39.6006 261.7C37.1006 270 32.9006 281.7 31.2006 290.1C27.0006 309.3 25.8006 329.2 25.7006 348.8L23.1006 346.2C89.0006 346.2 183.801 346.5 250.501 347Z" fill="black"/>
<path d="M235.1 295.8C232.8 294.3 230.5 292.9 228.2 291.4C230.4 289.8 232.6 288.2 234.8 286.6L241.7 291L235.1 295.8Z" fill="black"/>
<path d="M162.601 291C160.601 289.1 158.701 287.1 156.801 285.1C159.301 284 161.801 283 164.201 281.9C166.101 283.8 168.001 285.7 170.001 287.6C167.601 288.7 165.101 289.8 162.601 291Z" fill="black"/>
<path d="M198.8 295.3C196.6 293.6 194.5 292 192.4 290.2C194.8 288.9 197.1 287.4 199.4 286C201.5 287.7 203.7 289.4 205.8 291C203.5 292.5 201.1 293.9 198.8 295.3Z" fill="black"/>
<path d="M127.2 281.6C125.6 279.3 124 277.1 122.5 274.9C125.1 274.3 127.8 273.6 130.4 272.9C131.9 275.1 133.6 277.2 135.2 279.4C132.6 280.1 129.9 281 127.2 281.6Z" fill="black"/>
<path d="M66.1005 240.8C65.9005 238 65.8005 235.1 66.1005 232.4C68.5005 233.6 71.0005 234.5 73.5005 235.2C73.5005 237.8 73.7005 240.5 74.1005 243.2C71.4005 242.6 68.8005 241.8 66.1005 240.8Z" fill="black"/>
<path d="M94.0004 265.6C93.4004 264.4 92.9004 263 92.4004 261.8C91.9004 260.5 91.4004 259.3 90.9004 258C92.3004 258 93.6004 258 95.0004 258C96.3004 258 97.7004 258 99.0004 257.9C100 260.3 101.1 262.9 102.3 265.3C99.5004 265.5 96.8004 265.6 94.0004 265.6Z" fill="black"/>
<path d="M252.401 348.7H88.9006C55.2006 336 31.5006 320.1 26.3006 308.8C25.4006 306.8 25.0006 305 25.3006 303.3C30.2006 268.9 48.3006 235.8 49.9006 234C50.0006 234 50.0006 234 50.0006 234C50.0006 234 87.7006 317.6 247.501 316.1C250.201 330.3 251.701 342.7 252.401 348.7Z" fill="black"/>
<path d="M81.501 257.5C85.367 257.5 88.501 254.366 88.501 250.5C88.501 246.634 85.367 243.5 81.501 243.5C77.635 243.5 74.501 246.634 74.501 250.5C74.501 254.366 77.635 257.5 81.501 257.5Z" fill="black"/>
<path d="M112.4 278.1C116.266 278.1 119.4 274.966 119.4 271.1C119.4 267.234 116.266 264.1 112.4 264.1C108.534 264.1 105.4 267.234 105.4 271.1C105.4 274.966 108.534 278.1 112.4 278.1Z" fill="black"/>
<path d="M146.001 289.899C149.867 289.899 153.001 286.765 153.001 282.899C153.001 279.033 149.867 275.899 146.001 275.899C142.135 275.899 139.001 279.033 139.001 282.899C139.001 286.765 142.135 289.899 146.001 289.899Z" fill="black"/>
<path d="M181.601 295.7C185.467 295.7 188.601 292.566 188.601 288.7C188.601 284.834 185.467 281.7 181.601 281.7C177.735 281.7 174.601 284.834 174.601 288.7C174.601 292.566 177.735 295.7 181.601 295.7Z" fill="black"/>
<path d="M218.001 297.8C221.867 297.8 225.001 294.666 225.001 290.8C225.001 286.934 221.867 283.8 218.001 283.8C214.135 283.8 211.001 286.934 211.001 290.8C211.001 294.666 214.135 297.8 218.001 297.8Z" fill="black"/>
</svg>
