<svg width="306" height="352" viewBox="0 0 306 352" fill="none" xmlns="http://www.w3.org/2000/svg">
<path d="M236.1 278.4C235.4 278.9 234.6 279.4 233.9 279.9C233.1 280.4 232.4 280.9 231.6 281.3C230.9 281.7 230.3 282.1 229.6 282.5C229.5 282.6 229.4 282.6 229.3 282.7C227 284.1 224.6 285.4 222.2 286.6C221.5 287 220.7 287.4 220 287.7C220 287.7 219.9 287.8 219.8 287.8C219 288.2 218.2 288.6 217.4 289C215.8 289.8 214.1 290.5 212.5 291.2C211.7 291.6 210.8 291.9 210 292.2C209.2 292.5 208.3 292.9 207.5 293.2C206.7 293.5 205.8 293.9 205 294.2C205 294.2 205 294.2 204.9 294.2C204.1 294.5 203.2 294.8 202.4 295.1C200.6 295.7 198.7 296.3 196.9 296.9C196.3 297.1 195.6 297.3 195 297.5C193.1 298.1 191.2 298.6 189.3 299C188.6 299.2 187.9 299.3 187.1 299.5C185.3 299.9 183.4 300.3 181.6 300.7C181.2 300.8 180.9 300.8 180.5 300.9C179.9 301 179.2 301.1 178.6 301.2C177.7 301.3 176.9 301.5 176 301.6C175.6 301.7 175.2 301.7 174.8 301.8C174.3 301.9 173.7 302 173.1 302C171.5 302.2 169.8 302.4 168.2 302.6C167.7 302.7 167.1 302.7 166.6 302.8H166.5C165.8 302.9 165.1 302.9 164.4 303C163.7 303.1 163 303.1 162.3 303.1C161.9 303.1 161.4 303.2 161 303.2C160.2 303.2 159.5 303.3 158.8 303.3C157.8 303.3 156.9 303.4 155.9 303.4C154.9 303.4 154 303.4 153 303.4C152.3 303.4 151.6 303.4 150.9 303.4C108.7 302.8 70.7996 284.9 43.6996 256.5C43.6996 256.5 43.6996 256.4 43.5996 256.4C46.6996 250.3 58.1996 239.3 70.1996 230.2C74.3996 227.1 71.0996 220.6 75.7996 218.5C89.3996 212.5 106.9 211.6 106.9 211.6C106.9 211.6 121 209.3 173.3 220.2C221.8 230.3 220.1 235.1 236.1 278.4Z" fill="white"/>
<path d="M173.6 219C185.2 221.4 197.1 223.1 208.3 227.4C216.2 230.4 222.5 236.6 225.9 244.2C230.9 255.1 234.1 266.5 238.5 277.5C238.9 278.6 238.5 279.9 237.6 280.5C208.2 301.1 171 308.7 135.7 304.6C100.3 300.6 65.8998 284.8 41.6998 258.2C40.8998 257.4 40.7998 256.2 41.2998 255.3C44.1998 249 47.5998 242.7 51.4998 236.8C56.5998 229.4 62.6998 222.3 70.7998 218.1C75.5998 215.8 80.8998 214.6 86.0998 213.4C92.8998 211.8 99.9998 211 106.9 210.7C108.1 210.7 108.2 212.4 107.1 212.5C96.7998 213.8 86.8998 216.2 77.0998 219.4C67.2998 222.5 60.3998 230.6 54.5998 238.8C50.6998 244.4 47.1998 250.4 44.1998 256.5L44.0998 256C49.7998 262.7 56.1998 268.7 63.1998 273.9C97.4998 299.5 146.5 305.8 187.6 296.2C204.3 292.3 220.3 285.4 234.4 275.7C234.4 275.7 233.2 279.4 233.3 279.4C230.7 271.9 228.4 264.3 226 256.9C223.6 249.5 221.2 242 216.1 236.8C210.8 231.4 203.3 229 196.1 226.9C188.6 224.8 180.9 223.1 173.2 221.3C171.5 221 172 218.7 173.6 219Z" fill="black"/>
<path d="M97.7002 254.3C97.7002 254.3 139.4 272.7 176.4 270.7C189.3 270 201.6 266.9 211.4 259.6C211.4 259.6 213.6 279.7 184.7 291.5C155.9 303.3 106.6 271.1 97.7002 254.3Z" fill="black"/>
<path d="M169.601 270.8C169.601 270.8 160.701 298.3 152.101 299.4C143.501 300.5 97.8006 263.9 94.1006 253.1C94.1006 253.1 133.001 269.7 169.601 270.8Z" fill="white"/>
<path d="M170.401 270.3C170.701 270.5 170.501 271.3 170.501 271.2V271.3V271.4L170.401 271.6C167.801 279.2 161.101 299.2 152.501 300.9C143.601 301.6 118.601 281.3 111.101 275C107.601 272 104.101 268.9 100.801 265.6C97.4007 262 93.8007 258.7 91.8007 254C91.0007 252 93.2007 250 95.1007 250.9C100.901 253.4 107.001 255.8 113.101 257.9C128.301 263.1 144.001 267.3 160.001 269.2C163.401 269.5 167.001 269.5 170.401 270.3ZM168.801 271.4C167.401 271.7 166.101 271.8 164.601 271.6C146.601 270.7 128.901 266.9 111.701 261.7C105.401 259.8 99.3007 257.7 93.1007 255.3L96.4007 252.2C98.0007 256 101.201 259.2 104.001 262.2C107.101 265.5 110.401 268.6 113.801 271.6C120.601 277.7 127.601 283.4 135.001 288.7C138.701 291.3 142.501 293.9 146.401 295.9C148.001 296.7 150.301 297.9 152.001 297.8C157.101 296.5 161.201 287.6 163.501 283C165.401 278.9 167.101 274.7 168.601 270.5C168.801 270.3 168.501 271.2 168.801 271.4Z" fill="black"/>
<path d="M169.601 270.8C169.601 270.8 183.401 292 189.501 293.1C195.601 294.2 208.001 274.7 210.801 259.9C210.901 260 198.701 270.4 169.601 270.8Z" fill="white"/>
<path d="M170.801 271.4C171.001 271.1 171.001 270.4 170.801 270.2C170.801 270.1 170.801 270.2 170.801 270.2C171.101 270.6 171.701 271.4 172.001 271.9C175.001 276.1 178.101 280.3 181.501 284.1C184.001 286.8 186.301 289.7 189.601 291.2C194.001 292 201.201 279.3 202.901 275.6C205.401 270.4 207.501 264.9 208.501 259.4L212.601 261.8C211.701 262.5 211.001 263 210.001 263.5C202.701 267.7 194.401 269.9 186.101 271.1C182.501 271.7 178.801 271.9 175.101 272C173.501 272.1 172.401 271.7 170.801 271.4ZM168.401 270.2C173.901 268.8 179.901 268.9 185.401 267.7C192.201 266.3 199.101 264.2 205.101 260.8C206.501 260 207.901 259.1 209.101 258.1C210.801 256.5 213.701 258.2 213.201 260.5C210.901 271.3 202.801 288.1 193.401 294.1C190.601 295.8 187.701 295.1 185.301 293C182.801 291 180.801 288.6 178.901 286.3C175.201 281.8 171.901 277 168.701 272.1L168.501 271.9L168.401 271.8C168.301 271.3 168.201 270.6 168.401 270.2Z" fill="black"/>
<path d="M251 348.7H23.2002C23.4002 337.1 24.7002 301.9 33.5002 276.7C37.3002 265.7 43.1002 242.3 48.4002 235.3C49.0002 234.5 49.6002 233.6 50.3002 232.8C58.3002 224 70.1002 218.4 71.5002 217.7C72.8002 217 74.1002 217.4 74.9002 218C177.4 329.9 220.7 260.1 210.7 230.4C210.7 230.4 210.7 230.3 210.8 230.3C211.7 230.3 218.3 232.2 225.4 237.1C233.6 242.7 239.3 251.2 241.9 260.7C243.9 268.3 246.9 280.2 248.8 292.4C248.8 292.5 248.9 292.6 248.9 292.7C253.9 305 246.3 305.5 248.9 324.8C249.9 332.3 250.6 340.2 251 348.7Z" fill="white"/>
<path d="M252.8 350.5C178.4 351.3 97.3002 351.4 23.2002 351.3C21.8002 351.3 20.7002 350.2 20.7002 348.8C21.2002 329.9 23.0002 311 27.3002 292.6C28.4002 288 29.7002 283.4 31.2002 278.9C33.8002 271.5 36.1002 264.1 38.6002 256.7C41.2002 249.3 43.4002 241.5 47.8002 234.9C50.6002 231 54.3002 227.9 58.1002 225.1C61.9002 222.3 66.0002 219.9 70.2002 217.8L71.3002 217.3C71.7002 217.1 72.2002 217 72.6002 216.9C73.6002 216.8 74.6002 217.1 75.3002 217.8C86.0002 229.4 97.3002 240.5 109.6 250.4C118.8 257.8 128.6 264.6 139.1 269.8C155.9 278.2 177.9 283.1 194.2 271.2C203.4 264.5 209.1 253.5 209.8 242.2C210 238.5 209.6 234.7 208.3 231.4C208.1 230.7 208.1 230 208.5 229.5C209 228.4 210.4 227.9 211.5 228.3C216.1 229.7 220.1 232.3 224 235C232.2 239.9 238.7 247.7 242.1 256.6C245.1 265.5 247.1 274.6 249.1 283.7C249.6 286.1 250.5 290.6 250.7 292C251.2 293.1 252.1 295.5 252.4 297.1C253.6 301.9 251.7 307 251.1 311.5C250.5 315.8 250.8 320.2 251.4 324.6L250.7 326.7C250.9 326.5 251.2 326.1 251.4 325.5C251.6 325 251.4 324.2 251.4 324.2C251.4 324.3 251.5 324.5 251.5 324.9V324.6C252.3 330.6 253 336.6 253.4 342.6L253.6 345.6C253.5 347.1 253.5 349.2 252.8 350.5ZM249.2 347C248.8 346.9 248.4 347.2 248.4 347.3L248.3 345.9C247.9 339 247.3 332.1 246.3 325.3V325C246.3 325.4 246.4 325.7 246.4 325.7C246.4 325.8 246.4 325.7 246.3 325.5C246.3 325.3 246.2 324.8 246.3 324.3C246.4 323.8 246.7 323.4 247 323.1L246.3 325.2C245.1 318.3 245.8 310.5 247.6 303.8C248.5 300.2 247.6 296.4 246.3 293.4C245.7 290.4 245.3 287.4 244.7 284.4C243.4 277.6 241.8 270.9 240.1 264.3C238.6 257.9 236 251.7 231.8 246.6C226.4 240 218.8 235.3 210.6 233H210.5H210.6L212.7 231.8L212.6 231.9L212.9 229.8C215.6 238 214.5 246.8 211.6 254.7C201 281.6 173.8 287.1 148.7 277.6C133.5 272.1 119.9 262.9 107.5 252.9C95.1002 242.8 83.7002 231.6 73.0002 219.9L73.3002 220.2C73.1002 220.1 72.9002 220 72.8002 220C68.3002 222.1 63.9002 224.8 59.9002 227.7C55.1002 231.3 50.5002 235.4 48.2002 240.5C46.9002 243.2 45.8002 246 44.8002 248.9C41.7002 257.7 39.3002 266.7 36.4002 275.7C35.5002 278.5 34.4002 281.7 33.6002 284.5C27.9002 305.4 26.2002 327.2 25.6002 348.8L23.1002 346.3C98.6002 346.2 173.7 346.6 249.2 347Z" fill="black"/>
<path d="M93.2002 348.7H23.2002C23.4002 337.1 24.7002 301.9 33.5002 276.7C37.3002 265.7 41.5002 244.9 46.8002 237.9C47.4002 237.1 82.9002 243.1 91.7002 308.9C94.2002 327.6 93.4002 336.1 93.2002 348.7Z" fill="black"/>
<path d="M234.401 331.7C236.301 294.6 235.001 274.3 232.901 260.5C231.001 248.2 224.601 239 224.601 239C226.301 240.9 231.601 244.5 233.101 247C235.301 250.8 237.401 255.3 239.301 260.2C239.301 260.3 239.401 260.4 239.401 260.5C244.801 274.8 248.801 292.6 251.601 307.8C252.601 315.2 253.401 323.1 253.701 331.6H234.401V331.7Z" fill="black"/>
<path d="M65.4004 235.7C65.0004 235.7 64.6004 235.5 64.3004 235.2C63.9004 234.7 63.6004 234.4 63.6004 234.4C63.1004 233.8 63.2004 232.8 63.8004 232.3C64.4004 231.8 65.4004 231.9 65.9004 232.5C65.9004 232.5 66.1004 232.8 66.5004 233.2C67.0004 233.8 67.0004 234.8 66.3004 235.3C66.1004 235.6 65.7004 235.7 65.4004 235.7Z" fill="black"/>
<path d="M169 300.7C168.3 300.7 167.6 300.7 166.9 300.6C166.1 300.6 165.4 299.9 165.5 299C165.5 298.2 166.2 297.5 167.1 297.6C167.8 297.6 168.4 297.6 169.1 297.7C169.9 297.7 170.6 298.4 170.6 299.2C170.5 300.1 169.9 300.7 169 300.7ZM181 299.7C180.3 299.7 179.7 299.2 179.5 298.5C179.3 297.7 179.9 296.9 180.7 296.7C181.3 296.6 182 296.4 182.6 296.3C183.4 296.1 184.2 296.6 184.4 297.4C184.6 298.2 184.1 299 183.3 299.2C182.6 299.4 182 299.5 181.3 299.6C181.2 299.7 181.1 299.7 181 299.7ZM155.1 299.1C155 299.1 154.9 299.1 154.8 299.1C154.1 299 153.5 298.8 152.8 298.6C152 298.4 151.5 297.6 151.7 296.8C151.9 296 152.7 295.5 153.5 295.7C154.1 295.9 154.8 296 155.4 296.1C156.2 296.3 156.7 297.1 156.6 297.9C156.4 298.6 155.8 299.1 155.1 299.1ZM194.3 295.2C193.8 295.2 193.2 294.9 193 294.4C192.6 293.7 192.9 292.8 193.7 292.4C194.3 292.1 194.9 291.8 195.4 291.5C196.1 291.1 197 291.4 197.4 292.1C197.8 292.8 197.5 293.7 196.8 294.1C196.2 294.4 195.6 294.8 195 295.1C194.7 295.1 194.5 295.2 194.3 295.2ZM141.7 295.1C141.5 295.1 141.3 295.1 141.2 295C140.6 294.8 139.9 294.5 139.3 294.3C138.5 294 138.2 293.1 138.5 292.3C138.8 291.5 139.7 291.2 140.5 291.5C141.1 291.7 141.7 292 142.3 292.2C143.1 292.5 143.5 293.4 143.2 294.1C142.8 294.7 142.3 295.1 141.7 295.1ZM128.9 289.3C128.7 289.3 128.4 289.2 128.2 289.1C127.6 288.8 127 288.5 126.4 288.1C125.7 287.7 125.4 286.8 125.8 286.1C126.2 285.4 127.1 285.1 127.8 285.5C128.4 285.8 129 286.1 129.5 286.4C130.2 286.8 130.5 287.7 130.1 288.4C129.9 289 129.4 289.3 128.9 289.3ZM205.6 287C205.2 287 204.8 286.9 204.5 286.6C203.9 286 203.9 285.1 204.5 284.5C205 284 205.4 283.6 205.8 283.1C206.4 282.5 207.3 282.4 207.9 283C208.5 283.6 208.6 284.5 208 285.1C207.5 285.6 207.1 286.1 206.6 286.6C206.4 286.9 206 287 205.6 287ZM116.9 282C116.6 282 116.3 281.9 116.1 281.7C115.5 281.3 115 280.9 114.4 280.6C113.7 280.1 113.5 279.2 114 278.5C114.5 277.8 115.4 277.6 116.1 278.1C116.6 278.5 117.2 278.8 117.8 279.2C118.5 279.7 118.7 280.6 118.2 281.3C117.8 281.8 117.3 282 116.9 282ZM213.7 275.6C213.5 275.6 213.3 275.6 213 275.4C212.3 275 211.9 274.1 212.3 273.4C212.6 272.8 212.9 272.2 213.1 271.6C213.4 270.8 214.3 270.5 215.1 270.8C215.9 271.1 216.2 272 215.9 272.8C215.6 273.4 215.3 274.1 215 274.7C214.8 275.3 214.2 275.6 213.7 275.6ZM105.5 273.8C105.2 273.8 104.9 273.7 104.6 273.5C104.1 273.1 103.5 272.7 103 272.3C102.4 271.8 102.2 270.8 102.8 270.2C103.3 269.6 104.3 269.4 104.9 270C105.4 270.4 105.9 270.8 106.5 271.2C107.2 271.7 107.3 272.7 106.8 273.3C106.4 273.6 105.9 273.8 105.5 273.8ZM94.7002 264.8C94.3002 264.8 94.0002 264.7 93.7002 264.4C93.2002 264 92.7002 263.5 92.2002 263.1C91.6002 262.6 91.5002 261.6 92.1002 261C92.6002 260.4 93.6002 260.3 94.2002 260.9C94.7002 261.3 95.2002 261.8 95.7002 262.2C96.3002 262.7 96.4002 263.7 95.8002 264.3C95.5002 264.6 95.1002 264.8 94.7002 264.8ZM217.9 262.2C217.8 262.2 217.7 262.2 217.7 262.2C216.9 262.1 216.3 261.3 216.5 260.5C216.6 259.8 216.7 259.2 216.8 258.6C216.9 257.8 217.6 257.2 218.5 257.3C219.3 257.4 219.9 258.1 219.8 259C219.7 259.7 219.6 260.3 219.5 261C219.2 261.7 218.6 262.2 217.9 262.2ZM84.3002 255.3C83.9002 255.3 83.5002 255.2 83.3002 254.9C82.8002 254.4 82.3002 254 81.9002 253.5C81.3002 252.9 81.3002 252 81.9002 251.4C82.5002 250.8 83.4002 250.8 84.0002 251.4C84.5002 251.9 85.0002 252.3 85.4002 252.8C86.0002 253.4 86.0002 254.3 85.4002 254.9C85.1002 255.2 84.7002 255.3 84.3002 255.3ZM74.4002 245.3C74.0002 245.3 73.6002 245.1 73.3002 244.8C72.8002 244.3 72.4002 243.8 71.9002 243.3C71.3002 242.7 71.4002 241.7 72.0002 241.2C72.6002 240.7 73.6002 240.7 74.1002 241.3C74.5002 241.8 75.0002 242.3 75.5002 242.8C76.1002 243.4 76.0002 244.3 75.4002 244.9C75.1002 245.2 74.8002 245.3 74.4002 245.3Z" fill="black"/>
<path d="M218 249.2C217.3 249.2 216.6 248.7 216.5 247.9C216.4 247.3 216.4 247 216.4 247C216.2 246.2 216.8 245.4 217.6 245.2C218.4 245 219.2 245.6 219.4 246.4C219.4 246.4 219.5 246.8 219.6 247.5C219.7 248.3 219.1 249.1 218.3 249.2C218.2 249.2 218.1 249.2 218 249.2Z" fill="black"/>
<path d="M110.2 210.3C130.4 207.8 151.1 210.9 170.1 218.2C171.7 218.8 170.8 221.2 169.2 220.6C155.2 215.3 140.4 212.3 125.4 211.7C120.4 211.5 115.4 211.5 110.5 211.9C109.4 212 109.2 210.5 110.2 210.3Z" fill="black"/>
</svg>
