<svg width="306" height="356" viewBox="0 0 306 356" fill="none" xmlns="http://www.w3.org/2000/svg">
<path d="M89.0996 210.6C89.0996 210.6 103.7 204.8 106.4 204.6L106.6 206.9C106.6 206.9 94.9996 211.9 94.2996 212.7C93.6996 213.4 89.0996 210.6 89.0996 210.6Z" fill="#7E5D6D"/>
<path d="M269.299 340.4H16.3994C16.3994 340.4 22.9994 293.5 38.2994 260.5C49.7994 235.5 72.1994 219.5 92.3994 212.3C98.0994 210.3 102.499 208.1 106.599 207C106.599 207.2 124.999 204 139.899 205.7C163.199 208.3 186.999 216.2 187.299 216.1C200.199 219.5 215.999 229.1 238.899 248.3C264.699 269.9 269.299 340.4 269.299 340.4Z" fill="white"/>
<mask id="mask0_409_3272" style="mask-type:alpha" maskUnits="userSpaceOnUse" x="16" y="205" width="254" height="136">
<path d="M269.299 340.4H16.3994C16.3994 340.4 22.9994 293.5 38.2994 260.5C49.7994 235.5 72.1994 219.5 92.3994 212.3C98.0994 210.3 102.499 208.1 106.599 207C106.599 207.2 124.999 204 139.899 205.7C163.199 208.3 186.999 216.2 187.299 216.1C200.199 219.5 215.999 229.1 238.899 248.3C264.699 269.9 269.299 340.4 269.299 340.4Z" fill="white"/>
</mask>
<g mask="url(#mask0_409_3272)">
<path d="M68.3994 204.7C73.8994 204.9 76.6994 205 82.1994 204.9C87.0994 207.8 89.4994 209.2 94.4994 211.9C99.5994 211.6 102.199 211.4 107.299 210.8C112.399 213.2 114.899 214.4 119.999 216.7C125.199 215.9 127.799 215.4 132.899 214.4C138.099 216.4 140.799 217.3 145.999 219C151.199 217.7 153.799 216.9 158.999 215.4C164.399 216.8 167.099 217.5 172.499 218.7C177.699 216.8 180.299 215.9 185.499 213.8C190.999 214.7 193.799 215.1 199.299 215.8C204.399 213.4 206.999 212.2 212.099 209.6C217.699 209.9 220.499 210 226.099 210.1C231.099 207.1 233.599 205.6 238.599 202.5C244.899 202 247.999 201.7 254.299 201C253.799 203.4 253.599 204.6 253.199 207C247.999 207.6 245.299 207.9 240.099 208.3C234.999 211.5 232.499 213.1 227.299 216.1C221.599 216.1 218.799 216 213.099 215.7C207.899 218.3 205.299 219.6 200.099 222C194.499 221.3 191.699 220.9 186.099 220.1C180.899 222.2 178.199 223.2 172.999 225C167.499 223.8 164.799 223.1 159.399 221.7C154.199 223.2 151.499 224 146.299 225.3C140.999 223.5 138.299 222.6 132.999 220.6C127.799 221.6 125.199 222.1 119.899 222.9C114.699 220.6 112.199 219.5 106.999 217C101.799 217.5 99.1994 217.7 94.0994 218C89.0994 215.3 86.5994 213.9 81.6994 210.9C77.0994 210.9 74.7994 210.9 70.1994 210.7C69.4994 208.4 69.0994 207.2 68.3994 204.7Z" fill="black"/>
<path d="M67 230.1C72.5 230.2 75.2 230.2 80.8 230C85.8 232.8 88.3 234.1 93.3 236.7C98.4 236.3 100.9 236 106 235.3C111.1 237.6 113.7 238.7 118.9 240.8C124 239.9 126.5 239.3 131.7 238.2C137 240 139.7 240.9 145 242.5C150.1 241 152.7 240.3 157.8 238.6C163.2 239.9 166 240.5 171.4 241.6C176.5 239.6 179 238.6 184.1 236.4C189.7 237.2 192.4 237.5 198 238C203 235.5 205.5 234.2 210.5 231.5C216.1 231.7 219 231.7 224.6 231.6C229.5 228.6 231.9 227 236.8 223.8C243.1 223.2 246.3 222.9 252.6 222C252.2 224.4 252.1 225.6 251.7 227.9C246.4 228.6 243.8 228.9 238.6 229.4C233.6 232.7 231.2 234.3 226.2 237.4C220.5 237.5 217.6 237.5 211.9 237.3C206.8 240 204.3 241.3 199.2 243.9C193.6 243.4 190.7 243.1 185.1 242.3C180 244.5 177.4 245.5 172.2 247.5C166.7 246.4 163.9 245.8 158.4 244.5C153.2 246.2 150.7 246.9 145.5 248.4C140.1 246.8 137.4 245.9 132.1 244.1C126.9 245.2 124.4 245.8 119.2 246.7C114 244.6 111.3 243.5 106.1 241.1C101 241.7 98.4 242 93.3 242.5C88.2 239.9 85.7 238.5 80.7 235.7C76.1 235.8 73.8 235.9 69.3 235.8C68.3 233.6 67.9 232.4 67 230.1Z" fill="black"/>
<path d="M65.5996 255.1C70.9996 255 73.7996 254.9 79.2996 254.7C84.2996 257.4 86.8996 258.7 91.9996 261.1C96.9996 260.5 99.4996 260.2 104.5 259.4C109.7 261.6 112.3 262.6 117.6 264.6C122.6 263.5 125.1 263 130.2 261.7C135.6 263.4 138.3 264.2 143.7 265.7C148.7 264.1 151.2 263.3 156.2 261.6C161.7 262.8 164.5 263.3 170 264.3C175 262.2 177.5 261.2 182.4 258.9C188 259.5 190.8 259.8 196.4 260.2C201.3 257.6 203.8 256.3 208.6 253.5C214.3 253.5 217.1 253.5 222.8 253.3C227.6 250.2 230 248.6 234.7 245.4C241 244.7 244.2 244.3 250.5 243.3C250.2 245.6 250.1 246.8 249.9 249.2C244.6 250 242 250.4 236.7 251C231.9 254.3 229.4 256 224.6 259.1C218.8 259.3 215.9 259.4 210.2 259.3C205.2 262.1 202.8 263.4 197.8 266.1C192.1 265.7 189.3 265.5 183.6 264.8C178.6 267.1 176.1 268.2 171 270.3C165.4 269.4 162.6 268.8 157.1 267.6C152 269.4 149.5 270.2 144.4 271.8C138.9 270.3 136.2 269.5 130.8 267.8C125.7 269.1 123.2 269.7 118.1 270.7C112.8 268.7 110.1 267.6 104.9 265.4C99.7996 266.2 97.2996 266.5 92.1996 267.1C86.9996 264.6 84.4996 263.3 79.3996 260.6C74.8996 260.8 72.5996 260.9 68.0996 261C66.9996 258.7 66.5996 257.5 65.5996 255.1Z" fill="black"/>
<path d="M64.0996 280C69.4996 279.8 72.1996 279.6 77.5996 279.2C82.6996 281.8 85.2996 283 90.4996 285.3C95.3996 284.6 97.8996 284.2 102.9 283.3C108.2 285.4 110.9 286.4 116.2 288.2C121.1 287 123.6 286.4 128.6 285C134 286.6 136.8 287.3 142.2 288.6C147.1 286.9 149.6 286 154.5 284.2C160.1 285.2 162.8 285.7 168.4 286.5C173.3 284.3 175.7 283.2 180.6 280.9C186.3 281.4 189.1 281.6 194.8 281.9C199.6 279.3 202 277.9 206.8 275.1C212.5 275 215.4 274.9 221.1 274.6C225.8 271.5 228.1 269.9 232.7 266.6C239.1 265.8 242.3 265.3 248.6 264.2C248.4 266.5 248.4 267.7 248.2 270C242.9 270.9 240.3 271.3 235 272C230.3 275.4 227.9 277 223.2 280.2C217.4 280.5 214.5 280.6 208.7 280.7C203.9 283.6 201.4 285 196.6 287.6C190.9 287.3 188 287.2 182.3 286.7C177.4 289.1 174.9 290.2 170 292.4C164.3 291.6 161.5 291.1 155.9 290.1C150.9 292 148.4 292.9 143.4 294.6C137.9 293.3 135.1 292.5 129.6 291C124.6 292.4 122.1 293 117.1 294.2C111.7 292.3 109 291.4 103.6 289.3C98.5996 290.2 96.0996 290.6 91.0996 291.3C85.7996 288.9 83.1996 287.7 78.0996 285.1C73.5996 285.5 71.3996 285.6 66.8996 285.8C65.7996 283.5 65.1996 282.3 64.0996 280Z" fill="black"/>
<path d="M62.6992 304.6C67.9992 304.2 70.6992 304 76.0992 303.4C81.2992 305.8 83.8992 307 89.1992 309.2C94.0992 308.4 96.4992 307.9 101.399 306.9C106.799 308.8 109.499 309.8 114.899 311.5C119.799 310.2 122.199 309.5 126.999 308C132.499 309.4 135.299 310.1 140.799 311.3C145.599 309.5 147.999 308.6 152.899 306.6C158.499 307.5 161.299 307.9 166.999 308.6C171.799 306.3 174.099 305.2 178.899 302.8C184.599 303.2 187.499 303.3 193.199 303.5C197.899 300.8 200.199 299.4 204.899 296.5C210.699 296.3 213.499 296.2 219.299 295.8C223.799 292.6 226.099 291 230.599 287.7C236.999 286.8 240.199 286.3 246.599 285.1C246.499 287.4 246.499 288.5 246.399 290.8C241.099 291.8 238.499 292.2 233.199 293C228.599 296.4 226.299 298.1 221.699 301.3C215.899 301.8 212.899 301.9 207.099 302.1C202.399 305 199.999 306.5 195.299 309.2C189.499 309.1 186.599 309 180.799 308.6C175.999 311.1 173.599 312.2 168.799 314.5C163.099 313.8 160.199 313.4 154.499 312.5C149.599 314.5 147.199 315.4 142.299 317.2C136.699 316 133.899 315.3 128.299 313.9C123.399 315.4 120.899 316.1 115.999 317.4C110.499 315.7 107.799 314.8 102.299 312.8C97.3992 313.8 94.8992 314.3 89.9992 315.1C84.6992 312.9 81.9992 311.7 76.6992 309.3C72.2992 309.8 70.0992 310 65.6992 310.3C64.4992 308.1 63.8992 306.9 62.6992 304.6Z" fill="black"/>
<path d="M61.0996 329C66.3996 328.5 68.9996 328.2 74.2996 327.5C79.5996 329.8 82.2996 330.9 87.5996 333C92.3996 332 94.7996 331.5 99.5996 330.4C105.1 332.2 107.8 333.1 113.3 334.7C118.1 333.3 120.4 332.5 125.2 330.9C130.8 332.2 133.6 332.8 139.2 333.9C143.9 332 146.3 331 151 329C156.7 329.8 159.5 330.1 165.2 330.7C169.9 328.4 172.2 327.2 176.8 324.7C182.6 325 185.4 325 191.2 325.1C195.8 322.3 198 320.9 202.6 318C208.4 317.7 211.3 317.5 217.1 317C221.5 313.8 223.7 312.099 228.1 308.799C234.5 307.799 237.8 307.3 244.2 306C244.2 308.2 244.2 309.4 244.3 311.6C239 312.6 236.4 313.1 231.1 313.9C226.6 317.3 224.4 318.999 219.9 322.299C214 322.899 211.1 323.1 205.2 323.4C200.6 326.4 198.3 327.8 193.7 330.7C187.9 330.7 184.9 330.6 179.1 330.4C174.4 332.9 172.1 334.2 167.3 336.5C161.5 336 158.6 335.6 152.9 334.9C148.1 337 145.7 338 141 339.9C135.3 338.8 132.5 338.2 126.8 336.9C122 338.5 119.6 339.3 114.8 340.7C109.2 339.1 106.5 338.3 100.9 336.5C96.0996 337.7 93.5996 338.2 88.7996 339.2C83.3996 337.1 80.6996 336 75.2996 333.7C70.8996 334.3 68.7996 334.6 64.3996 335C63.1996 332.5 62.4996 331.3 61.0996 329Z" fill="black"/>
</g>
<path d="M271.199 342.1C196.099 342.3 90.4995 343.1 16.4995 342.9C14.9995 342.9 13.6995 341.5 13.9995 340C17.5995 318.5 22.5995 297.4 29.7995 276.8C37.2995 254.8 47.7995 237.8 67.0995 224.2C75.9995 217.8 85.9995 213.3 96.1995 209.7C99.4995 208.4 102.899 207 106.499 206L107.499 206.7V206.6C107.499 206.1 106.499 205.8 106.799 205.9V205.8C106.899 205.6 107.099 205.5 107.199 205.3C108.299 204.1 109.899 203.7 111.499 203.6C113.199 203.4 114.899 203.2 116.699 203C123.599 202.2 130.599 202 137.599 202.7C144.599 203.5 151.299 204.8 158.099 206.3C167.899 208.5 177.599 211.7 187.199 214.6L187.499 214.7H187.599C187.599 214.7 187.699 214.7 187.599 214.7C187.599 214.7 187.499 214.7 187.399 214.7C187.299 214.7 187.199 214.7 187.099 214.8H187.799C200.999 218.3 212.399 225.9 223.399 233.8C228.799 237.8 234.099 241.9 239.299 246.2C244.699 250.4 248.899 256.2 252.199 262.2C258.699 274.1 262.699 287.2 265.799 300.3C268.599 312.6 270.599 325.1 271.899 337.6L271.999 338.9L272.099 339.5V339.8C271.899 340.7 271.599 341.6 271.199 342.1ZM267.399 338.6C266.999 339 266.599 339.8 266.699 340.3V340.2V339.9V339.3C264.999 320 261.799 300.7 255.799 282.3C251.699 270.3 246.399 257.6 236.399 249.5C226.299 241.1 215.799 232.8 204.399 226.2C198.699 223 192.799 220.1 186.699 218.5L188.199 218.4C187.999 218.6 187.099 218.6 186.999 218.5C181.099 217.3 172.999 214.2 167.199 212.3C159.099 209.6 150.699 208.2 142.199 207.5C133.799 206.7 125.399 207.4 117.099 208.3C115.399 208.5 113.699 208.6 112.099 208.8C110.299 209.2 108.399 209.1 106.799 207.8C106.799 207.8 106.799 207.8 106.699 207.8H106.599C106.799 207.9 105.799 207.6 105.899 207.1V207L106.899 207.7C103.499 208.6 100.299 210.2 96.8995 211.5C93.5995 212.9 90.1995 214 86.8995 215.5C73.9995 221.3 62.1995 229.9 52.8995 240.7C43.3995 251.4 37.7995 264.6 33.2995 278.1C26.5995 298.4 21.9995 319.6 18.9995 340.7L16.4995 337.8C88.9995 337.9 193.799 338.2 267.399 338.6Z" fill="black"/>
<path d="M65.8994 340.4L61.3994 303.3" stroke="#544D4D" stroke-width="3" stroke-miterlimit="10" stroke-linecap="round" stroke-linejoin="round"/>
<path d="M240.6 290.7C240.6 290.7 237.6 298 238.5 305.3C239.4 312.6 242 323.3 238.3 340.4" stroke="#544D4D" stroke-width="3" stroke-miterlimit="10" stroke-linecap="round" stroke-linejoin="round"/>
<path d="M89.0998 210.6C90.9998 210 94.2998 210.6 95.2998 212.3C99.1998 218.7 108.6 237.4 112.5 274.5C115.6 303.5 110.9 355.7 110.9 355.7L13.7998 351.1C13.7998 351.1 23.8998 315.1 32.3998 282.1C36.9998 264.3 38.4998 238.6 51.1998 229.1C61.3998 221.5 74.0998 215.8 89.0998 210.6Z" fill="black"/>
<path d="M189.7 216.7C189.7 216.7 220.6 274.8 211.6 352.4H278.3C278.3 352.4 275.9 343.9 267.5 308.2C260.1 277 252.6 250.2 244.8 242.9C224.4 223.7 195.5 214.2 195.5 214.2C195.5 214.2 192.2 215.8 189.7 216.7Z" fill="black"/>
<path d="M189.7 216.7L187.3 216C187.3 216 190.8 214.3 192.3 213.3L193.2 212.8C193.2 212.8 198 215 199.7 215.8C201.4 216.6 193.8 220.3 193.8 220.3C193.8 220.3 190 216.8 189.7 216.7Z" fill="#7E5D6D"/>
<path d="M111.4 265.2C111.4 265.2 108 255.5 100.3 246.9C93.1995 238.9 80.1995 226.5 79.2995 223.7C78.6995 221.8 79.4995 218.3 81.2995 214.2C85.0995 205.5 93.5995 194.1 104.8 189C132 179.4 136.2 196.5 136.6 201.9C136.7 203.4 106.8 209.9 106.9 211.4V211.5C106.9 211.5 102.3 213 105.6 235.9C106.4 241.5 109.9 251.3 111.4 265.2Z" fill="white"/>
<path d="M111.7 266.7C111 266.8 110.1 266.3 109.9 265.6L109.8 265.4L109.7 265.1C107.6 259.8 104.7 254.8 101.2 250.3C94.0997 241.5 85.2997 234.4 78.4997 225.3C78.2997 225 78.0997 224.7 77.9997 224.3C77.0997 221.2 78.3997 217.9 79.3997 215.1C84.2997 203.5 92.7997 193.1 104.3 187.7C107.2 186.7 110.3 185.8 113.4 185.3C119.6 184.2 126.8 184.5 131.9 188.8C135.8 192.1 137.8 196.9 138.3 201.9C138.4 202.9 137.4 203.6 136.7 204C127.8 207.4 117.4 209 108.5 212.3C108.4 212.4 108.2 212.4 108.2 212.5C108.2 212.5 108.2 212.5 108.4 212.3C108.5 212.1 108.7 211.8 108.7 211.5C108.7 211.3 108.7 211.6 108.7 211.6L107.7 213C107.8 213 107.9 212.9 107.9 212.9C107.9 212.9 107.8 213 107.8 213.1C106.9 214.5 106.7 216.3 106.5 218C106.2 221.3 106.3 224.7 106.6 228L106.9 231.4C107.5 238.3 109.6 244.6 111 251.4C111.7 254.8 112.3 258.2 112.8 261.6C112.9 262.3 113 263.2 113 264C112.6 264.9 112.1 265.8 111.7 266.7ZM111.1 263.7C110.8 263.3 110.2 263 109.8 263C109.7 263 109.6 262.9 109.6 262.8L109.5 262C108.4 252.9 105.4 244.3 103.9 235.1C103.7 233.4 103.3 229.9 103.1 228.2C102.8 222.9 102.2 217.2 104.4 212.1C104.9 211.2 105.2 210.5 106.4 210L105.3 211.5C105.3 211.4 105.3 211.3 105.3 211.3C105.3 210.7 105.9 210 106.3 209.7C109 208.3 111.9 207.7 114.8 206.8C121.2 204.9 129.4 203.2 135.5 200.8C135.5 200.8 135.5 200.8 135.3 201L135.2 201.1C135.1 201.2 135 201.4 135 201.6C135 201.7 135 201.9 135 201.9C134.7 197.8 132.9 193.5 129.7 190.9C125.3 187.2 119.2 187.1 113.7 188C111 188.4 107.5 189.5 105.3 190.2C98.0997 193.4 91.9997 198.9 87.1997 205.2C83.6997 210 80.3997 215.4 79.5997 221.3C79.1997 223.4 80.6997 224.8 81.8997 226.3C86.4997 231.6 93.8997 238.8 98.7997 243.9C104.5 249.7 109.3 256.6 112.5 264L112.6 264.2C112.6 263.9 111.7 263.5 111.1 263.7Z" fill="black"/>
<path d="M207.199 268.3C207.199 268.3 200.499 242.3 197.199 234C193.899 225.8 187.699 216.5 187.399 216C177.899 200.6 178.199 193.9 181.299 191.2C184.399 188.5 191.899 189 205.699 201.1C208.199 203.9 223.099 220.7 224.699 229.9C225.599 235 222.799 238.6 218.999 243.9C215.099 249.3 210.299 256.4 207.199 268.3Z" fill="white"/>
<path d="M207.2 268.3C203.8 257.3 200.7 246 196.6 235.2C194 228.9 190.3 223 186.5 217.3C182.8 211.2 178.9 204.9 177.9 197.7C177 190.9 181.9 187 188.4 188.7C195.5 190.6 201.2 195.4 206.6 200C211 204.9 215.2 209.9 219 215.4C223.6 222.5 229.5 230.8 223.8 239C221.2 243.1 217.9 246.8 215.3 250.9C211.8 256.3 209.1 262.1 207.2 268.3ZM207.2 266.8C207 266.3 206.7 266.2 206.5 265.9C206.8 265 207.1 264.1 207.4 263.3C220 230.9 239.6 240.2 204.5 202.2C200.1 198.5 193.9 193.4 187.7 191.8C183.2 190.7 180.4 192.7 181 197.4C182.8 208.8 191.3 217.7 196.1 227.9C200.4 236.3 202.5 245.5 205.1 254.5C205.7 256.7 207.3 262.5 207.8 264.6C208 265.3 208.4 266.8 208.6 267.6V267.7C208.4 267.1 207.6 266.7 207.2 266.8Z" fill="black"/>
</svg>
