<svg width="306" height="342" viewBox="0 0 306 342" fill="none" xmlns="http://www.w3.org/2000/svg">
<path d="M91.9004 193.7C91.9004 193.7 101.2 191.5 105.1 191.2L106.3 202.1C106.3 202 92.0004 196.5 91.9004 193.7Z" fill="black"/>
<path d="M250.2 340.4H16.4004C16.4004 340.4 31.3004 308.5 36.5004 272.5C40.1004 247.4 44.4004 233.9 57.7004 225.9C72.7004 216.9 96.9004 212.8 106.7 210.2C106.7 210.7 106.8 211.1 106.8 211.6C106.8 211.6 117.6 243.7 145.7 255.1C168.6 264.4 182.2 258.2 184.3 247.9C185.6 241.3 181.5 230.5 179.4 227C178.2 226 177.4 224.5 177 223L176.2 219.7C178.7 219.2 181.1 218.5 183.4 217.6C196.3 221 221.2 227.5 236.4 246.8C240.2 251.6 252.1 277.1 249.9 320.2C249.1 342.6 250.2 340.4 250.2 340.4Z" fill="black"/>
<path d="M65.9004 340.4L61.4004 303.3" stroke="white" stroke-width="3" stroke-miterlimit="10" stroke-linecap="round" stroke-linejoin="round"/>
<path d="M240.601 290.7C240.601 290.7 237.601 298 238.501 305.3C239.401 312.6 242.001 323.3 238.301 340.4" stroke="white" stroke-width="3" stroke-miterlimit="10" stroke-linecap="round" stroke-linejoin="round"/>
<path d="M138.2 273.7C82.9 257.7 69 225.2 69 225.2C69 225.2 77.7 219.8 81.8 214.2C84.3 210.8 106.8 206.9 106.8 206.9C107.2 211.2 106.8 206.9 107.1 211.6C107.1 211.6 117.9 243.7 146 255.1C168.9 264.4 182.5 258.2 184.6 247.9C185.9 241.3 181.8 230.5 179.7 227C178.5 226 177.7 224.5 177.3 223L176.5 219.7C182.2 218.5 187.6 216.3 192.3 213.4C192.5 213.7 192.6 214 192.7 214.3C194.8 219.4 201.2 224 201.2 224C214.5 255.6 194.5 290 138.2 273.7Z" fill="black"/>
<path d="M205.2 222.6C205.2 222.6 209.8 220.4 214.4 220.9C219 221.4 240.9 239.1 243 242.8C245.2 246.5 245.1 258.3 242.5 259.8C239.9 261.3 238.4 258 238.4 258C238.4 258 240.3 247.2 238.2 245.2C236.1 243.2 215.8 226.2 215.1 226.1C214.4 226 210.6 229.2 210.6 229.2L205.2 222.6Z" fill="black"/>
<path d="M84.0002 216.5C84.0002 216.5 73.6002 211.2 69.7002 211.2C65.8002 211.2 43.1002 225.2 40.0002 232.5C36.9002 239.8 41.1002 254.5 41.1002 254.5L46.6002 248.2C46.6002 248.2 45.1002 237.2 46.7002 233.2C48.3002 229.2 66.4002 217.4 68.0002 217.7C69.6002 217.9 78.5002 223.6 78.5002 223.6L84.0002 216.5Z" fill="black"/>
<path d="M107.601 235.8C117.201 254.2 136.401 278.7 168.501 290.2C197.401 300.6 195.601 265.7 191.401 244.8C162.601 251.1 133.701 251.6 107.601 235.8Z" fill="white"/>
<path d="M191.4 244.9C190.3 239.4 189 234.9 188.1 232.4C186.1 227 183.1 222.2 180.4 218.6C179.1 219 177.8 219.3 176.5 219.6L177.3 222.9C177.7 224.5 178.5 225.9 179.7 226.9C179.9 227.3 180.2 227.8 180.5 228.4C157.8 237.2 131 225.6 131 225.6C122.9 225.2 123.5 233.2 127.3 242.7C112.9 229 107 211.6 107 211.6C106.8 208.6 106.6 205.7 106.3 202.8C106.3 202.8 98.9001 206.9 100.2 216.1C100.8 220 103.1 227.3 107.6 235.8C133.7 251.6 162.6 251.1 191.4 244.9Z" fill="white"/>
<path d="M191 244.6C190.7 244.1 190.6 243.8 190.4 243.2C189.2 239.3 187.9 235.2 186.1 231.6C184 227.4 181.3 223.6 178.3 220.1L181.1 221L177 222.1L179 219C179.2 219.9 179.7 222 179.9 222.8C180.2 224 181.1 224.8 181.8 225.7C181.7 226.5 181.6 227.3 181.4 228C181.6 228.6 181.4 229.3 180.8 229.6C177.9 231 174.7 232.1 171.5 232.8C159.7 235.2 147.7 232.5 136.4 229.2C134.2 228.5 132.2 228 129.8 228.2L130.7 228.4C130.1 228.4 129.4 228.4 128.8 228.6C125.8 229.5 127.2 234.7 127.8 237.2C128.3 238.8 128.8 240.4 129.5 242C130.1 243.3 129.4 244.8 128.1 245.4C127.1 245.8 126.1 245.5 125.4 244.8C123.1 242.5 120.9 240.2 118.9 237.7C112.8 230.1 108 221.8 104.5 212.7L106.9 214.4C105.5 214.4 104.4 213.3 104.3 212L103.6 203.3L107.4 205.3C102.9 208 101.6 213.6 103.1 218.4C104.6 224 107 229.6 109.7 234.8L108.7 233.8C133 250.1 163.3 251.4 191 244.6ZM191.8 245.1C188.5 247.5 182.8 249.5 178.6 250.4C168.7 252.6 158.3 251.3 148.4 249.7C145.3 249.2 140.8 248.6 137.6 248.1L132.3 247C125.2 245.3 118.2 243 111.4 240.2L108.9 239.1L106.3 238C106 237.9 105.7 237.6 105.5 237.3C102.2 230.9 99.1999 224.2 97.7999 217C96.4999 210.7 99.4999 203.8 105.1 200.5C106.7 199.6 108.8 200.7 108.9 202.5L109.6 211.3C109.6 211.3 107 208.9 107.1 208.9C108.2 208.9 109.2 209.6 109.5 210.6C112.6 219 117.3 227.1 123 234.1C124.9 236.5 127 238.6 129.1 240.8L125 243.6C123 238.2 120.3 231.3 123.9 225.9C125.6 223.7 128.5 222.9 131.2 223L132.1 223.2C133.5 225 135.5 225.8 137.4 226.4C147.2 229.6 157.8 230.2 168.1 229.4C172.2 229 176.2 228.2 180.2 227.2L179.6 228.8C178.9 228.5 178.3 228.3 177.6 228.2L178.1 228.8C176.2 227.2 175 224.5 174.6 222.1L174.1 220.1C173.8 218.7 174.7 217.3 176.1 217L179.8 216.1H180C181 215.8 182.1 216.3 182.6 217.1C186.6 223.3 189.6 230.3 190.9 237.6C191.3 239.3 191.5 241.2 191.8 243C191.7 243.6 191.8 244.5 191.8 245.1Z" fill="black"/>
<path d="M91.9004 193.7C91.9004 193.7 116.6 194.5 135.4 199.5C137.2 200 137.2 211.6 137.4 213.5C138.1 220.3 123.9 231.9 125.5 238C127.6 245.9 184.3 290.3 184.8 295.5C185.3 300.7 143.7 299.4 119 269.8C94.2004 240.2 96.1004 234.8 96.1004 234.8C96.1004 234.8 91.9004 206.4 91.9004 193.7Z" fill="black"/>
<path d="M202.8 204.4L209.2 207.1C211.2 207.9 212.2 210.2 211.5 212.3C208.6 221.1 201.4 243 201.1 250.6C200.7 260.2 180.9 321.9 180.9 321.9C180.9 321.9 168.8 306 177.7 290.3C184.7 277.9 185.1 251.4 184.4 247.9C183.5 243.3 179.7 232.5 177.6 225.7C176.5 222 176.3 219.7 176.3 219.7C176.3 219.7 190.1 217.4 202.8 204.4Z" fill="black"/>
<path d="M128.4 220.8C130.002 220.8 131.3 219.323 131.3 217.5C131.3 215.678 130.002 214.2 128.4 214.2C126.798 214.2 125.5 215.678 125.5 217.5C125.5 219.323 126.798 220.8 128.4 220.8Z" fill="white"/>
<path d="M179.9 287.4C179.1 292.8 178.3 298.3 178.7 303.8C180 311.9 180.5 320 181.2 328.1C181.3 330.1 178.4 330.3 178.2 328.3C177.9 320.2 177.7 312 176.7 303.9C176.5 298.2 177.5 292.6 178.6 287.1C178.8 286.4 180 286.6 179.9 287.4Z" fill="white"/>
<path d="M207.6 227.2C205.8 236.1 203.8 245.1 200.5 253.6C195.5 264.2 188.7 273.8 182.9 283.8C182.4 284.7 181 284 181.4 283.1C186.2 271.8 193.2 261.7 197.9 250.5C198.3 249.3 200.5 242.7 200.9 241.4C202.5 236.5 204.2 231.6 206.1 226.8C206.5 225.9 207.8 226.2 207.6 227.2Z" fill="black"/>
<path d="M193.8 285.9C195.623 285.9 197.1 284.423 197.1 282.6C197.1 280.778 195.623 279.3 193.8 279.3C191.977 279.3 190.5 280.778 190.5 282.6C190.5 284.423 191.977 285.9 193.8 285.9Z" fill="white"/>
</svg>
