<svg width="306" height="341" viewBox="0 0 306 341" fill="none" xmlns="http://www.w3.org/2000/svg">
<path d="M269.3 340.4H9.10027C9.10027 340.4 8.30027 277.4 30.6003 248.1C46.9003 226.6 76.6003 220.9 94.8003 215.6C99.5003 214.3 103.6 212.8 107 211.9C108.1 214.9 119.2 244.3 145.8 255.1C168.7 264.4 182.3 258.2 184.4 247.9C185.7 241.3 181.6 230.5 179.5 227C178.3 226 177.5 224.5 177.1 223L176.3 219.7C178.1 219.3 179.8 218.8 181.6 218.3C182.5 218.5 183.4 218.7 184.3 218.9C197.2 222 224 222.6 246.4 241.5C272.4 263.1 269.3 340.4 269.3 340.4Z" fill="black"/>
<path d="M207.501 243.2C207.001 236.1 199.001 235.2 199.001 235.2C199.001 235.2 205.901 234.7 206.201 229.1C206.401 225.9 203.401 222.8 198.501 220.9C199.801 220.2 200.801 219.3 200.101 218C198.501 215.1 192.601 214.6 191.301 214.1C186.201 212.2 175.201 201.3 140.701 197.6C131.801 196.7 113.301 196.2 106.001 200.7V200.6C105.101 200.6 103.501 201.9 101.701 203.8C99.7006 203.9 94.2006 204.5 89.4006 207.5C85.6006 209.8 85.0006 213.4 86.8006 215.9C84.5006 216.9 82.1006 218.5 80.4006 221C75.5006 228.5 86.6006 231.1 91.8006 229.1C91.8006 229.1 83.4006 233.6 86.4006 240.7C89.4006 247.8 99.0006 243.7 99.0006 243.7C99.0006 243.7 90.6006 252.9 97.7006 259.8C104.801 266.7 113.101 259.8 113.101 259.8C113.101 259.8 108.601 270.3 116.101 274.2C123.601 278.1 129.401 267.8 129.401 267.8C129.401 267.8 127.001 278.5 134.301 282.4C141.601 286.3 146.701 277.2 147.801 273.8C147.801 273.8 147.801 285.2 158.101 285.6C164.401 285.9 166.501 278.6 167.101 272.9C169.601 273 171.501 272.9 172.501 272.7C173.201 272.5 174.201 272 175.401 271.4C176.501 273.4 179.601 277.9 184.601 277.6C191.101 277.3 192.701 270 189.801 263.8C189.801 263.8 195.301 267.5 201.001 263.8C206.801 260.1 201.601 251.2 198.401 250C198.701 249.7 208.001 250.2 207.501 243.2Z" fill="white"/>
<path d="M207.3 243.2C207.1 238.8 203 236 199 235.4C198.7 235.4 198.7 234.9 199 234.9C202.5 234.7 206.4 232.1 205.8 228.3C205.2 224.7 201.4 222.8 198.2 221.7C197.5 221.5 197.4 220.5 198 220.1C198.4 219.8 198.9 219.4 199 219.1C199.2 218.8 199.1 218.7 199 218.7C197.2 216.8 194.2 216.8 191.7 216.5C190.5 216.4 189.1 215.7 188 215.2C185.2 213.9 182.2 212.2 179.4 211.1C168 205.9 155.7 203.8 143.6 201C133.2 198.5 116.5 195.6 107.1 201.6L107 201.7C107.6 202.2 104.4 201.6 104.9 200.8C104.8 200.5 104.9 200.5 104.9 200.4V200.3C104.9 200.3 104.9 200.2 104.9 200.5L106.2 201.7C106.3 201.7 106.2 201.7 106.1 201.7C104.8 202.3 103.8 203.3 102.8 204.3C102.6 204.5 102.3 204.6 102 204.7C98.4003 205.1 94.7003 206.1 91.6003 207.8C90.2003 208.5 88.8003 209.6 88.1003 211C87.5003 212.3 87.6003 213.6 88.4003 214.7C88.9003 215.4 88.8003 216.5 88.0003 217C87.9003 217.1 87.8003 217.2 87.6003 217.2C83.8003 217.3 79.2003 221.7 80.4003 225.4C81.3003 227.2 83.5003 228 85.4003 228.3C87.5003 228.7 89.7003 228.6 91.6003 227.9C92.1003 227.7 92.7003 228 92.9003 228.5C93.1003 229 92.9003 229.5 92.4003 229.7C88.8003 231.7 85.6003 236 87.8003 240.1C88.6003 242 90.3003 243 92.4003 243.1C94.4003 243.3 96.7003 242.7 98.6003 242C99.4003 241.7 100.3 242.1 100.7 242.9C100.9 243.5 100.8 244.1 100.4 244.6C97.4003 248.3 95.1003 254.2 99.0003 257.9C102.5 261.8 108.2 260.9 111.9 257.9C113.7 256.4 116.3 258.4 115.4 260.5C114.6 262.5 114.1 265.2 114.4 267.3C114.7 271.5 119.3 273.9 122.8 271.3C124.6 270.1 126.3 268.1 127.4 266.2C128.8 263.7 132.7 265.2 132.2 267.9C132.1 268.4 132 269.1 132 269.8C131.9 271.6 132 273.6 132.5 275.3C133.6 279.4 138.4 282 141.6 278.6C143.3 277.1 144.8 274.7 145.5 272.6C146.5 269.7 150.8 270.4 150.8 273.4C150.9 275.6 151.5 278.1 152.9 279.9C154.5 282.1 158.4 283.5 160.9 282C163.7 279.8 164.4 275.8 165 272.2C165.5 269.2 169.1 270.5 171.2 270.2C172.4 270.1 172 270.2 173.2 269.7C173.7 269.5 174.1 269.3 174.6 269C175.7 268.4 177 268.9 177.5 269.9C178.5 271.8 179.9 273.5 181.5 274.4C189 278 191.5 269.8 188.8 263.9C188.3 262.7 189.7 261.6 190.7 262.3C193.3 264 196.9 264.5 199.8 263.1C205.8 260.9 202.7 252.4 198.5 250C198.2 249.9 198.1 249.6 198.2 249.3C198.3 249.1 198.5 249 198.7 249C202.6 249.5 207.7 247.9 207.3 243.2ZM207.8 243.1C208.4 248.2 203 250.4 198.7 250.2L198.9 249.2C200.2 249.7 201 250.7 201.8 251.6C204.1 254.5 205.7 258.8 203.6 262.3C200.9 266.1 195.3 267.1 191.1 265.4C190.5 265.2 189.9 264.9 189.3 264.5L191.2 262.9C193 266.5 193.7 271.1 191.7 274.9C189.5 279.2 183.6 280.2 179.6 278.1C177 276.8 175.1 274.5 173.7 272.1L176.7 273C175.6 273.6 174.5 274.2 173.2 274.6C171.2 275 169.3 275 167.2 274.9L169.7 272.8C169.2 277.5 168.2 283.1 163.8 286.3C159 289.5 152 287.6 148.6 283.2C146.4 280.3 145.4 277 145.3 273.5L150.6 274.4C143.4 293.8 123.2 286.2 127.1 267L131.8 268.8C130.9 270.2 130.1 271.3 129 272.5C126.8 274.9 124 276.9 120.5 277.2C115.1 277.7 110 273.1 109.7 267.8C109.4 264.6 110 261.7 111.2 258.7L114.7 261.3C113.9 261.9 113.3 262.3 112.5 262.7C105.3 266.9 96.1003 264.3 93.5003 256C92.3003 251 94.7003 246.1 97.9003 242.4L99.7003 244.9C92.9003 247.6 84.6003 245.8 84.6003 237.2C84.8003 233.1 87.9003 230 91.3003 228L92.1003 229.8C86.9003 231.7 76.2003 229.5 78.8003 222.1C80.3003 218.6 83.1003 216.3 86.1003 214L85.3003 216.6C80.1003 206.9 94.4003 202.6 101.6 202.4L100.8 202.8C102.2 201.3 103.7 199.2 106 199C106.7 199 107.3 199.6 107.3 200.2C107.3 200.5 107.3 200.5 107.3 200.5C107.3 200.4 107.3 200.4 107.3 200.1C107.8 199.4 104.7 198.7 105.3 199.2L105.5 199.1C109.4 197.2 113.8 196.6 118 196.3C126.6 195.7 135.2 196.1 143.8 197.3C159.8 199.4 175.6 203.6 189.3 212.3C192.2 214.1 195.4 213.5 198.4 215.3C199.8 216.1 201.4 217.6 200.8 219.4C200.5 220.4 199.5 221.1 198.7 221.5L198.6 219.8C200.4 220.6 202.1 221.6 203.5 222.9C209.2 228 206 234.6 198.8 235.2V234.7C203.3 235.4 207.6 238.5 207.8 243.1Z" fill="black"/>
<path d="M168.6 268.9C168.6 268.9 160 292 166.4 296.1C172.8 300.2 171.1 267.8 171.1 267.8C171.1 267.8 177.5 295.4 185.7 293.1C193.9 290.8 174.1 267.8 172.6 267.4" fill="white"/>
<path d="M171 269.8C168 275.1 162 289.9 166.4 295.1C170 298.3 170.1 284.3 170 282.5C169.9 277.6 169.5 272.6 168.5 267.8L168.6 267C169 264.1 173.3 264.2 173.5 267.1C173.6 272.4 178.2 294.3 185.6 292.3C188 291.3 186.5 288 185.7 286.3C182.5 280.1 177.7 274.6 172.3 270.2C171.9 270 171.6 269.6 171.2 269.5C171.2 269.5 171.2 269.5 171.3 269.6C171.4 269.7 171.6 269.8 171.8 269.8C170.4 269.4 169.7 268 170 266.6C170.4 265 172.3 264.2 173.7 265.1C174 265.2 174.2 265.5 174.4 265.7C176.2 267.7 177.5 269.9 179 272C181.3 275.8 192.7 290.9 186 293.5C178.2 296.5 171.2 273.9 168.5 268.3L173.6 267.6C173.1 272.7 172.8 277.6 172.3 282.6C171.7 287 171.7 291.6 169.6 295.7C168.6 297.4 166.8 297.5 165.4 296.2C163.8 294.8 163.4 292.5 163.2 290.6C162.8 282.9 164.8 275.6 166.1 268C166.4 266.6 167.7 265.7 169.1 265.9C171 266.2 171.9 268.3 171 269.8Z" fill="black"/>
<path d="M64.5002 224.7C64.5002 224.7 71.1002 285.3 14.1002 289.9C14.1002 289.9 4.90021 259.5 22.3002 236.5C38.4002 215.1 64.5002 224.7 64.5002 224.7Z" fill="white"/>
<path d="M64.9001 224.4C65.1001 224.7 65.0001 225.1 65.1001 225.4C65.4001 229 65.5001 232.7 65.3001 236.4C64.5001 256.3 55.9001 276.5 37.4001 285.9C30.2001 289.6 22.3001 291.6 14.3001 292.5C13.1001 292.6 12.0001 291.9 11.7001 290.8C10.5001 286.3 10.0001 282 9.70006 277.5C7.60006 251.2 21.8001 220.2 52.0001 221.9C56.2001 222.1 60.4001 222.8 64.4001 224.2C64.5001 224.2 64.7001 224.3 64.9001 224.4ZM62.7001 226.1C62.9001 226.4 63.4001 226.8 63.6001 226.8C63.3001 226.7 62.6001 226.5 62.3001 226.4C25.9001 216.8 9.50006 252.1 15.2001 283.2C15.5001 285.2 16.0001 287.3 16.5001 289.2L13.8001 287.4C48.4001 285 63.6001 258.8 62.3001 226.3C62.3001 226.1 62.2001 225.3 62.2001 225.1C62.3001 225.4 62.4001 225.9 62.7001 226.1Z" fill="black"/>
<path d="M220.501 226.8C220.501 226.8 232.101 235.6 243.701 257.4C249.701 268.7 254.901 281.9 266.901 287.7C266.901 287.7 272.801 259.6 261.201 242.7C245.001 219.1 220.501 226.8 220.501 226.8Z" fill="white"/>
<path d="M221.501 226.9C221.601 226.7 221.501 226.2 221.301 226.1L221.401 226.2C226.401 230.3 230.701 235.2 234.701 240.3C238.701 245.5 242.201 251 245.401 256.7C251.401 267.3 256.601 280.1 268.101 285.4L264.501 287.2C267.101 272.9 267.701 256.4 259.801 243.6C251.601 230.7 236.601 224.3 221.601 227.6L221.301 227.7H221.101H221.001C221.101 227.7 221.501 227.2 221.501 226.9ZM220.101 226.7C220.201 226.3 220.701 226.3 221.101 226.2C232.401 223.2 245.001 225.6 254.101 233C269.201 244.7 271.801 264.3 270.101 282.2C269.901 284.2 269.701 286.2 269.301 288.3C269.001 289.9 267.101 290.7 265.701 290C262.601 288.4 259.701 286.2 257.401 283.7C250.501 276.4 246.701 266.8 242.401 258.2C236.701 247 229.901 236.1 220.601 227.5C220.401 227.3 220.101 227 220.101 226.7Z" fill="black"/>
<path d="M102.501 204C100.501 207.7 98.7006 212.1 98.7006 216.4C98.8006 218.5 99.7006 220.5 100.601 222.4C107.701 236.2 119.901 247.3 133.801 253.9C141.801 257.7 150.301 260.6 159.001 262C163.201 262.6 167.601 263 171.801 262.6L171.001 262.8C189.901 253.4 198.701 236.6 189.201 216.6C188.701 215.6 190.201 214.7 190.801 215.7C193.301 220.1 195.001 224.9 195.601 230C197.901 246.6 187.001 259.7 173.301 267.4C173.101 267.5 172.801 267.6 172.501 267.6C169.901 267.8 167.701 267.7 165.201 267.5C153.601 266.5 142.401 262.6 132.101 257.2C117.801 249.8 105.401 237.9 98.5006 223.2C97.6006 221 96.7006 218.7 96.6006 216.2C96.9006 211.4 98.8006 207.1 101.101 203C101.701 202.2 103.101 203.1 102.501 204Z" fill="black"/>
<path d="M169.6 265.1C170.9 250.5 171.4 235.5 168.5 221.1C168.3 220.2 168.9 219.2 169.8 219C170.8 218.8 171.8 219.5 171.9 220.5C172.4 224.2 172.8 228 173.1 231.7C174 242.5 174.4 254.4 174.8 265.3C174.7 268.9 169.3 268.7 169.6 265.1Z" fill="black"/>
<path d="M171.6 238.4C174.306 238.4 176.5 236.206 176.5 233.5C176.5 230.794 174.306 228.6 171.6 228.6C168.894 228.6 166.7 230.794 166.7 233.5C166.7 236.206 168.894 238.4 171.6 238.4Z" fill="black"/>
<path d="M172.3 253.5C175.007 253.5 177.2 251.306 177.2 248.6C177.2 245.894 175.007 243.7 172.3 243.7C169.594 243.7 167.4 245.894 167.4 248.6C167.4 251.306 169.594 253.5 172.3 253.5Z" fill="black"/>
</svg>
