<svg width="306" height="399" viewBox="0 0 306 399" fill="none" xmlns="http://www.w3.org/2000/svg">
<path d="M269.3 340.4H16.4004C16.4004 340.4 19.4004 296.8 34.6004 263.7C40.0004 252 44.2004 235 54.1004 227.3C65.5004 218.5 88.0004 213 96.0004 211.4C101.9 210.2 102.7 211.3 106.8 210.2C106.8 210.7 106.9 211.1 106.9 211.6C106.9 211.6 117.7 243.7 145.8 255.1C168.7 264.4 182.3 258.2 184.4 247.9C185.7 241.3 181.6 230.5 179.5 227C178.3 226 177.5 224.5 177.1 223L176.3 219.7C178.2 219.3 180 218.8 181.8 218.2C182.4 218 182.9 217.8 183.5 217.6C198 221.7 215.6 229.1 231 240.8C239.4 247.2 246.4 263.7 255 291.6C265.1 323.7 269.3 340.4 269.3 340.4Z" fill="black"/>
<path d="M192.601 242.7C192.301 239.9 191.801 237.4 191.301 235.2C189.201 225.4 182.901 216.8 182.901 216.8C182.901 216.8 167.101 205.9 142.701 203C118.301 200.1 106.401 203 106.401 203C104.601 203.6 102.401 204.8 100.401 205.9C96.8007 208 93.9007 211 92.1007 214.7C92.1007 214.8 92.0007 214.8 92.0007 214.9C89.4007 222.4 102.801 250.1 137.301 265.6C172.901 281.6 195.001 262.9 192.601 242.7Z" fill="black"/>
<path d="M66.0008 398.7C64.7008 369.4 64.1008 338.5 63.7008 309.1C63.5008 297.7 63.0008 286.2 65.8008 275C70.1008 256.3 83.1008 238.8 101.701 232.7L101.001 233.4C103.101 228.1 105.401 222.2 110.501 219.1C110.701 219 110.801 219.3 110.701 219.4C107.201 221.8 105.301 225.9 103.701 229.8C103.101 231.1 102.801 232.7 102.201 233.9C95.2008 236.5 89.0008 241 83.9008 246.3C78.8008 251.7 74.7008 258.1 72.0008 265C68.5008 273.7 67.0008 283 66.7008 292.3C66.5008 327.4 67.5008 364.5 66.0008 398.7Z" fill="white"/>
<path d="M110.5 398.7C108.5 380.4 107.3 361.6 107.1 343.2C106.9 326.3 107.4 308.9 109.4 292.1C110.5 282.3 114 259.9 121.3 253.4L122.1 252.8C122.6 252.6 122.7 252.4 123.4 252.3L122.4 253.3C122.9 249.5 124.3 245.9 126.3 242.7C127 241.7 127.7 240.7 128.5 239.7C128.6 239.6 128.9 239.7 128.7 239.9C128 240.9 127.3 241.9 126.8 243C125.1 246.2 123.9 249.7 123.6 253.3C123.6 253.4 123.5 253.4 123.5 253.5C122.9 253.7 122.2 254.2 121.7 254.8C120.2 256.4 119.2 258.7 118.3 260.7C116.9 264.2 115.9 268 115.1 271.8C113.1 281.5 112 291.7 111.2 301.6C110.1 318.2 109.7 335.8 109.7 352.4L109.8 361.7C109.8 374 110.4 386.4 110.7 398.7C110.8 398.8 110.5 398.9 110.5 398.7Z" fill="white"/>
<path d="M151.6 398.7C151.7 368.2 150.4 337.6 150.3 307.1C150.2 293.3 150.2 279.1 150.5 265.3C151.4 261.7 152.1 257.9 152.4 254.1C152.5 252.9 152.5 251.6 152.4 250.3C152.4 250.1 152.7 250.1 152.7 250.3C153.5 255.3 152.9 260.4 151.9 265.4C152.3 276.3 152.7 287.6 152.9 298.7C153.6 323.7 153.8 348.7 153.2 373.7C153.1 378.5 152.8 385.6 152.5 390.4C152.3 393.2 152 395.9 151.8 398.7C151.8 398.8 151.7 398.8 151.6 398.8V398.7Z" fill="white"/>
<path d="M198.4 398.7C197.5 375.6 196.9 351.4 194.9 328.4C193.7 313.8 191.8 299.4 189 285.1C187.3 276.5 185.1 267.8 181.6 259.7C181 255.1 179.5 250.1 175.9 246.9C175.8 246.8 175.8 246.7 175.9 246.7C176 246.6 176 246.6 176.1 246.7C177.1 247.4 178 248.3 178.8 249.3C181 252.2 182.4 256.2 182.9 259.5C187 267.4 189.3 276 191.4 284.6C192.7 290.2 193.9 296.3 194.8 301.9C196.1 309.9 197.3 320.1 197.9 328.2C198.4 333.1 198.7 340.8 199 345.8C199.4 357.6 199.5 369.3 199.3 381.1L198.8 398.7C198.8 398.8 198.7 398.8 198.6 398.8C198.5 398.8 198.4 398.7 198.4 398.7Z" fill="white"/>
<path d="M236 398.6C238.5 371.2 237.5 343.4 233.6 316.2C232.6 309.1 231.1 301.7 229.5 294.7C227.6 287.8 225.3 280.8 222.2 274.4C220 269.5 217.1 264.8 214.2 260.3C210.2 254.6 205.1 248.7 199.6 244.4C196.8 242.1 193.8 239.9 190.6 238.3C189 236.2 188 234.1 185.7 232.1C183.9 230.4 181.7 229 179.2 228.9C179.1 228.9 179 228.8 179 228.7C179 228.6 179.1 228.6 179.1 228.6C180.4 228.5 181.7 228.9 182.9 229.4C186.4 231.1 189 234.2 191.1 237.4C205 243.9 216 257.1 223.3 270.7C226.2 276.5 228.8 282.5 230.6 288.7L232.2 294C237 313.8 238.9 334.2 239.2 354.5C239.3 369.3 238.5 384.1 236.2 398.7C236.2 398.8 236.1 398.8 236 398.8C236 398.8 236 398.7 236 398.6Z" fill="white"/>
<path d="M191.001 283.6C205.001 284.1 215.401 279.6 217.001 264.5C217.101 263.3 218.001 262.4 219.101 262.2C225.201 260.7 229.301 255.3 230.501 249.2C230.801 248.2 230.901 246.9 231.101 245.9C231.201 244.8 231.301 243.6 231.401 242.4C231.401 242.3 231.501 242.3 231.601 242.3C231.701 242.3 231.701 242.4 231.701 242.4C231.901 244.5 232.101 247.3 231.901 249.4C231.501 256.5 226.801 263.2 219.701 265.1L219.901 264.9C219.101 276 212.301 284.1 200.901 284.8C197.601 285.1 194.201 284.8 190.901 284C190.801 284 190.801 283.9 190.801 283.8C190.801 283.6 190.901 283.6 191.001 283.6Z" fill="white"/>
<path d="M51.3004 237.5C52.4004 243.2 55.7004 248.8 60.7004 251.8C61.1004 252.1 62.0004 252.5 62.4004 252.8C63.3004 253.2 64.3004 253.6 65.2004 253.9L67.1004 254.4C67.6004 254.6 68.5004 254.7 69.1004 254.8L71.1004 255.1C73.1004 255.4 76.2004 254.3 77.2004 256.6C83.8004 270.6 96.7004 281.2 112.9 278.1C113.9 278 114.9 278.4 115.3 279.3C116.2 280.7 117.4 282.2 118.5 283.5C124.2 290.3 132.8 295.3 141.9 293.4C145.5 292.7 149 291.2 152.2 289.2C152.3 289.1 152.4 289.2 152.4 289.2C138.3 300.9 122.5 294.7 112.9 280.7L113.2 280.8C109.2 281.5 105.1 281.7 101 280.9C89.0004 278.7 79.8004 268.5 75.0004 257.4L75.2004 257.5C73.1004 257.4 70.8004 257.3 68.7004 256.8C68.1004 256.7 67.1004 256.5 66.6004 256.3C65.4004 256 63.6004 255.3 62.5004 254.7L61.5004 254.2L60.6004 253.6C60.2004 253.3 59.2004 252.8 58.8004 252.4C54.2004 248.8 51.5004 243.1 50.9004 237.4C50.9004 237.3 51.0004 237.2 51.0004 237.2C51.3004 237.4 51.3004 237.4 51.3004 237.5Z" fill="white"/>
<path d="M187.6 271.5C199.6 268.3 205.5 261.3 203.7 248.7C203.6 247.9 203.8 247.1 204.3 246.6C207.6 242.7 208.5 237.4 208 232.4C207.9 230.8 207.3 228.5 207 226.9C207 226.8 207 226.7 207.1 226.7C207.2 226.7 207.2 226.7 207.3 226.8C208.1 228.5 208.9 230.3 209.4 232.1C210.4 235.8 210.4 239.8 209.2 243.4C208.6 245.2 207.7 247 206.5 248.5L206.6 248.3C208.3 257.3 205.3 266.6 196.2 270.1C193.5 271.2 190.6 271.8 187.7 271.9C187.4 271.8 187.4 271.5 187.6 271.5Z" fill="white"/>
<path d="M74.6002 222.3C73.0002 227.5 74.8002 233.3 78.7002 237L79.2002 237.6L79.8002 238.1C81.0002 239.1 82.4002 240 83.7002 240.9L86.5002 242.4C87.1002 242.7 87.5002 243.3 87.6002 244C89.6002 251.5 95.7002 257.4 102.6 260.6C107 262.9 111.8 264 116.6 264.9C118 265.2 118.4 266.5 119.4 267.4C120.5 268.5 121.7 269.6 122.9 270.6C130.2 276.8 140 280.1 149.6 278.8L152.1 278.5C152.2 278.5 152.3 278.5 152.3 278.6C152.3 278.7 152.3 278.7 152.2 278.8C142.5 281.8 131.8 279.9 123.4 274.1C120.9 272.4 117.4 269.5 116 267.6C109.3 266.5 102.5 264.5 96.9002 260.6C91.5002 257 86.2002 250.2 85.5002 244.3C83.8002 243.3 81.3002 241.7 79.8002 240.5C79.5002 240.3 78.2002 239 77.9002 238.7C77.4002 238.1 76.7002 237.4 76.3002 236.7C73.3002 232.5 72.3002 226.8 74.4002 222C74.4002 221.9 74.5002 221.9 74.6002 221.9C74.7002 222.1 74.7002 222.2 74.6002 222.3Z" fill="white"/>
<path d="M92.1002 214.8C91.9002 219.4 93.6002 224 96.6002 227.4C97.2002 228.2 98.2002 229.1 99.0002 229.8C99.3002 230 100.3 230.8 100.6 231C101.6 231.8 103.4 232.2 103.5 233.6C103.8 235.8 104.9 238.1 106.2 239.9C110.3 245.9 117.4 249.1 124.3 251.1C124.9 251.3 125.3 251.6 125.6 252.1C131.7 259.8 141.8 263.8 151.5 262.8C153.2 262.9 154.7 263.8 156.5 264.1C160.3 265.1 164.5 265.6 168.4 265.3C173.6 265.1 178.4 262.9 181 258.4C181.5 257.7 182.2 257.6 182.8 257.1C185.6 255.2 187.9 252.6 189.3 249.5C191.1 245.8 190.7 241.6 189.7 237.8C189.9 236.2 190.2 234.4 190.1 232.6C190 227.6 188 222.7 184.8 218.8C184.6 218.7 184.9 218.4 185 218.6C190 223.5 192.3 230.8 191.3 237.7C194.5 246 190.8 255.1 183 259.9C180.6 264.6 174.3 267.9 168.7 268.1C163.2 268.6 156.6 267.4 151.9 265.8C141.2 266.9 130 262.3 123.5 253.6L123.6 253.7C121.4 253 118.4 251.9 116.4 250.9C115.9 250.6 114.3 249.8 113.8 249.5C113.2 249.1 111.9 248.3 111.4 247.9L109.9 246.7C105.9 243.4 102.7 238.9 102 233.7L102.1 233.9C101.3 233.3 100.5 232.8 99.8002 232.2L98.7002 231.3L98.2002 230.8C97.7002 230.3 97.2002 229.7 96.7002 229.3C95.8002 228.2 94.9002 227 94.2002 225.8C92.4002 222.5 91.5002 218.6 92.0002 214.8C92.0002 214.7 92.1002 214.7 92.2002 214.7C92.0002 214.7 92.1002 214.7 92.1002 214.8Z" fill="white"/>
<path d="M177.732 277.864C177.765 274.992 175.509 272.638 172.693 272.605C169.877 272.572 167.567 274.874 167.533 277.745C167.5 280.617 169.756 282.971 172.572 283.004C175.388 283.037 177.699 280.736 177.732 277.864Z" fill="white"/>
<path d="M183.6 291.4C184.3 296.7 180.8 301.6 175.8 302.2C170.8 302.8 166.2 299.1 165.5 293.7C164.8 288.4 168 281.1 173 280.4C178 279.8 182.9 286 183.6 291.4Z" fill="white"/>
<path d="M170.6 285C168 287.1 161 287.3 158.2 285.3C154.7 282.6 158.4 273.7 160.8 270.9C160.9 270.8 161.1 270.8 161.1 271L160.2 276.8C160 278.7 159.6 280.7 159.8 282.5C159.8 282.9 160.2 283.1 160.6 283.2C163.3 284.2 166.2 284.5 169.1 284.8C169.5 284.8 170.2 284.9 170.5 284.7C170.5 284.8 170.6 284.9 170.6 285Z" fill="white"/>
<path d="M169.8 290.9C166 293.6 161.8 294.8 157.1 294.3C156.8 294.3 156.2 294.1 155.9 294C151.1 292.4 149.5 286.5 150.5 282C150.5 281.8 150.7 281.7 150.8 281.9C151.9 285.4 153.4 290.5 157.5 291.2C159.5 291.5 161.6 291.4 163.6 291.2C165.6 291 167.7 290.8 169.7 290.4C169.9 290.5 170 290.7 169.8 290.9C169.9 290.8 169.8 290.9 169.8 290.9Z" fill="white"/>
<path d="M168.4 295.8C166.2 296.8 164.2 297.6 162.6 298.6C161.4 299.4 160.6 300 160.1 301.3C159.5 302.9 159.6 304.8 159.7 307C159.9 309 160.2 311.2 160.3 313.6C160.3 313.7 160.1 313.8 160 313.7C156.8 308.6 153.9 298.8 161.7 296.4C163.8 295.7 166.1 295.5 168.3 295.6C168.6 295.5 168.6 295.8 168.4 295.8Z" fill="white"/>
<path d="M170.9 298.999C170.5 301.599 169.5 303.399 170.3 305.399C171.7 308.299 172.9 311.299 172.9 314.799C172.9 314.899 172.7 314.999 172.7 314.899C171.8 313.699 170.9 312.399 170 311.099C168.9 309.099 167.2 307.099 167.2 304.699C167.3 302.299 168.9 300.199 170.6 298.699C170.9 298.599 171 298.799 170.9 298.999Z" fill="white"/>
<path d="M176.6 284C177.1 283.5 178.2 282.6 178.8 282.1C180.4 280.8 182.6 279.4 184.2 278.1C184.3 278 184.4 277.9 184.3 278.1C184.2 278.2 184.1 278.4 184 278.6C183.9 278.9 183.8 279.1 183.9 279.4C183 275.8 181.9 272.3 182.1 268.4V268.3C182.1 268.2 182.3 268.1 182.4 268.2C183.7 270.8 185 273.5 186 276.2C186.4 277.2 186.9 278.3 186.9 279.5C186.8 280 186.4 280.2 186.1 280.5C184.9 281.4 183.5 282 182.2 282.6C181.5 282.9 176.3 285.1 176.5 284.1C176.5 284 176.6 284 176.6 284Z" fill="white"/>
<path d="M178.7 289.4C182.3 287.1 186.5 286.1 190.1 284.6C191.1 284 191.6 282.999 192.2 281.799C193.1 280.199 193.8 278.2 194.8 276.1C194.8 276 194.9 276 195 276C195.3 279.1 194.9 282.499 193.3 285.299C191.6 288.199 187.8 288.4 184.8 289C182.7 289.3 180.7 289.6 178.6 289.7C178.5 289.7 178.5 289.5 178.7 289.4Z" fill="white"/>
<path d="M181.199 293.799C188.999 287.299 198.499 292.4 196.799 302.6C196.399 305 195.499 307.3 193.799 309.2C193.699 309.3 193.499 309.2 193.499 309.1C193.799 308 193.999 307 194.099 305.9C195.099 298.5 193.199 292.2 184.399 293.5C183.299 293.6 182.199 293.8 181.199 294.1C181.099 294.2 180.999 293.899 181.199 293.799Z" fill="white"/>
<path d="M179.8 297.6C183.3 297.2 187.1 299.9 187.2 303.8C187 307.8 185.2 311.4 181.9 313.8C181.8 313.9 181.6 313.9 181.6 313.7C182.6 310.8 183.6 307.9 184.1 304.9C184.5 303.4 184.1 302 183.1 300.8C182.2 299.7 181 298.7 179.7 297.9C179.5 297.7 179.6 297.5 179.8 297.6Z" fill="white"/>
</svg>
