<svg width="306" height="335" viewBox="0 0 306 335" fill="none" xmlns="http://www.w3.org/2000/svg">
<path d="M183.401 202.4C183.401 202.4 173.901 200 153.001 193.3C132.101 186.6 105.101 191 105.101 191C105.101 191 98.5005 191.1 96.0005 196.1C93.5005 201.1 93.7005 211.4 89.9005 214.2C89.0005 214.8 86.5005 215.5 82.8005 216.5C76.8005 218.2 67.7005 220.4 58.7005 225.4C52.0005 229.2 42.5005 240.8 41.0005 261.5C40.7005 265.6 40.8005 308 38.9005 312.1C23.1005 344.2 23.8005 329.8 23.8005 329.8H268.201C268.201 329.8 251.801 306 247.601 282.6C243.201 258.2 235.601 244 229.401 239.3C215.001 228.4 199.401 224.9 193.401 222.2L192.701 213.2C192.801 213.1 188.901 200.9 183.401 202.4Z" fill="black" stroke="black" stroke-width="3.5345" stroke-miterlimit="10" stroke-linecap="round" stroke-linejoin="round"/>
<path d="M193.601 218.7C195.601 229.1 197.801 240 194.801 250.4C191.001 265.5 178.501 275.8 162.701 275.2C151.801 275 141.501 270.8 132.101 265.7C116.501 257 103.601 243.3 96.701 226.8C95.301 223.4 94.101 220.2 93.401 216.6C93.301 216.2 93.601 215.7 94.101 215.6C94.501 215.5 94.901 215.8 95.001 216.2C95.901 219.4 97.301 222.8 98.801 225.8C106.401 241.3 118.801 254.3 133.801 262.6C145.501 268.9 159.501 274.3 172.701 270.6C190.101 265.7 196.001 245.4 193.301 229.2C192.901 225.7 192.401 222.3 191.901 218.8C191.701 218 193.401 217.6 193.601 218.7Z" fill="white"/>
<path d="M167.601 273.5C167.601 273.5 169.701 291.9 168.501 303.1" stroke="white" stroke-width="3.46" stroke-miterlimit="10" stroke-linecap="round" stroke-linejoin="round"/>
<path d="M105.301 242.6C98.8006 245.3 92.9006 249.7 88.1006 254.8C86.4006 256.5 85.0006 258.5 83.6006 260.4C82.9006 261.3 81.4006 260.3 82.1006 259.4C86.1006 253 91.3006 247.5 97.5006 243.3C99.6006 241.9 101.701 240.6 104.101 239.5C105.001 239.1 106.001 239.5 106.401 240.3C106.801 241.1 106.301 242.2 105.301 242.6Z" fill="white"/>
<path d="M195.7 236.3C204.2 239.8 211.6 246.1 215.6 254.4C215.8 254.8 215.6 255.2 215.3 255.4C214.9 255.6 214.5 255.4 214.3 255.1C212.1 251.4 209.3 248.1 205.8 245.5C202.5 243 198.5 240.8 194.5 239.6C192.3 238.8 193.5 235.5 195.7 236.3Z" fill="white"/>
</svg>
