<svg width="306" height="306" viewBox="0 0 306 306" fill="none" xmlns="http://www.w3.org/2000/svg">
<path d="M236.1 278.4C235.4 278.9 234.6 279.4 233.9 279.9C233.1 280.4 232.4 280.9 231.6 281.3C230.9 281.7 230.3 282.1 229.6 282.5C229.5 282.6 229.4 282.6 229.3 282.7C227 284.1 224.6 285.4 222.2 286.6C221.5 287 220.7 287.4 220 287.7C220 287.7 219.9 287.8 219.8 287.8C219 288.2 218.2 288.6 217.4 289C215.8 289.8 214.1 290.5 212.5 291.2C211.7 291.6 210.8 291.9 210 292.2C209.2 292.5 208.3 292.9 207.5 293.2C206.7 293.5 205.8 293.9 205 294.2C205 294.2 205 294.2 204.9 294.2C204.1 294.5 203.2 294.8 202.4 295.1C200.6 295.7 198.7 296.3 196.9 296.9C196.3 297.1 195.6 297.3 195 297.5C193.1 298.1 191.2 298.6 189.3 299C188.6 299.2 187.9 299.3 187.1 299.5C185.3 299.9 183.4 300.3 181.6 300.7C181.2 300.8 180.9 300.8 180.5 300.9C179.9 301 179.2 301.1 178.6 301.2C177.7 301.3 176.9 301.5 176 301.6C175.6 301.7 175.2 301.7 174.8 301.8C174.3 301.9 173.7 302 173.1 302C171.5 302.2 169.8 302.4 168.2 302.6C167.7 302.7 167.1 302.7 166.6 302.8H166.5C165.8 302.9 165.1 302.9 164.4 303C163.7 303.1 163 303.1 162.3 303.1C161.9 303.1 161.4 303.2 161 303.2C160.2 303.2 159.5 303.3 158.8 303.3C157.8 303.3 156.9 303.4 155.9 303.4C154.9 303.4 154 303.4 153 303.4C152.3 303.4 151.6 303.4 150.9 303.4C108.7 302.8 70.8002 284.9 43.7002 256.5C43.7002 256.5 43.7002 256.4 43.6002 256.4C40.6002 253.7 43.2002 239.3 55.3002 230.2C70.5002 218.7 106.9 211.5 106.9 211.5C106.9 211.5 121 209.2 173.3 220.1C203.9 226.5 227.2 235.8 240.2 261C242.9 266.2 245.6 274.2 236.1 278.4Z" fill="white"/>
<path d="M173.6 219C192.8 222.9 213.3 227.1 229.1 239.8C234.4 244.1 237.9 250.4 240.8 256.5C242.2 259.5 243.6 262.6 244.7 265.9C245.3 268.1 246.2 270.6 245.7 273.2C245.6 273.9 245 274.8 244.5 275.3C242.2 277.6 239.7 279 237.2 280.8C222.5 291 205.6 298.2 188.1 302C149.1 310.5 106.9 303.9 72.6002 283.4C61.2002 276.5 50.7002 268.1 41.7002 258.2C40.7002 257 40.7002 255 40.7002 253.7C40.8002 250.7 41.6002 247.8 42.6002 245.1C45.0002 238.9 48.1002 232.7 53.4002 228.4C57.2002 225.8 61.3002 223.6 65.5002 221.8C78.7002 216.2 92.6002 212.3 106.9 210.7C108.1 210.6 108.3 212.3 107.1 212.5C93.4002 215.3 79.8002 219.5 67.1002 225.2C62.5002 227.5 57.6002 229.5 53.9002 233.1C50.4002 236.9 47.9002 241.6 45.9002 246.4C44.6002 249.3 43.7002 253.9 44.1002 256.2C50.4002 263.7 57.8002 270.3 65.8002 276C109.6 306.6 176.1 308.6 222.7 283.1C226.9 280.8 231 278.2 234.9 275.5C236.8 274.2 238.8 273.1 240.3 271.6C240.4 271.5 240.3 271.6 240.3 271.7C240.3 271.8 240.2 271.9 240.2 271.9C240.3 270.7 239.9 269.1 239.4 267.5C237.6 261.7 234.7 255.6 231.6 250.3C226.7 242.4 218.4 237.4 210 233.4C204.2 230.7 198.1 228.6 191.9 226.6C185.7 224.6 179.4 222.9 173.1 221.4C171.5 221 172 218.7 173.6 219Z" fill="black"/>
</svg>
