<svg width="306" height="306" viewBox="0 0 306 306" fill="none" xmlns="http://www.w3.org/2000/svg">
<path d="M288.2 84.3001C348.9 201.2 242.2 333.1 115 300.9C57.9 286.7 12 237.2 2.49999 179.1C-8.30001 121.3 17.8 59.2001 66.6 26.5001C133.5 -19.4999 226.2 -4.19991 274.1 61.6001C274.4 61.9001 274.3 62.4001 273.9 62.7001C273.6 63.0001 273.1 62.9001 272.8 62.5001C266.2 54.0001 258.7 46.3001 250.5 39.4001C237 27.9001 221.2 18.9001 204.5 12.8001C119.5 -17.9999 26.2 33.2001 7.59999 122.1C-13.4 221.7 71.3 313.4 172.3 299.7C250.2 289.9 308.1 218 301.7 139.8C300.3 120.9 295.3 102.2 287 85.0001C286.8 84.7001 287 84.3001 287.3 84.1001C287.6 83.9001 288 84.0001 288.2 84.3001Z" fill="black"/>
</svg>
