<svg width="306" height="306" viewBox="0 0 306 306" fill="none" xmlns="http://www.w3.org/2000/svg">
<path d="M188.6 174.5C192.3 172.3 195.6 176.3 193.6 179.8C193.1 180.8 192.5 181.5 191.8 182.3L191.7 179.9C195.4 183.1 194.5 187.9 190.2 189.9C189.5 190.2 186.2 191.2 186.2 190C186.2 189.7 186.4 189.5 186.7 189.5C189.2 189.4 192.6 186.9 191.6 184.1C191.3 183.4 190.6 182.6 190 182.3C189.3 181.9 189.1 181.1 189.5 180.4C190.3 179.5 192.2 178.5 192.2 176.8C192 175.3 190.5 174.8 189.1 175.3C188.5 175.6 188.1 174.8 188.6 174.5Z" fill="black"/>
</svg>
