<svg width="306" height="306" viewBox="0 0 306 306" fill="none" xmlns="http://www.w3.org/2000/svg">
<path d="M188.8 179.5C188.6 181.2 188.5 182.4 188.2 183.4C187 188.7 184.6 186.1 180.2 186.2C174.7 186.3 165.3 191.6 163.3 184.5C162.9 183.2 162.7 182 162.6 180.9C161.6 170.9 171.4 174.2 181.2 178C185 179.6 187.4 179.7 188.8 179.5Z" fill="white"/>
<path d="M188.2 184.1L185.6 183.5C185.2 183.4 185.3 182.9 185.7 182.8L188.4 182.6C189.4 182.6 189.3 184.3 188.2 184.1Z" fill="black"/>
<path d="M191.8 178.2C189.9 181.2 185.6 180.1 182.8 179.3C178.6 178.1 165.3 171.3 163.2 177.5C162.6 179.5 163 181.8 163.4 183.9C163.7 185.3 164.3 186.7 165.6 187.4C167.6 188.4 169.8 187.9 171.9 187.3C174.9 186.5 177.6 185.2 180.8 185.2C182.4 185.2 184 185.7 185.2 185.7C185.8 185.7 186 185.6 186.3 185.3C186.6 185 186.9 184.3 187.1 183.7C187.5 182.4 187.8 180.9 188.1 179.5C188.2 179.1 188.5 178.9 188.9 179C189.2 179.1 189.4 179.3 189.4 179.6C189.4 180.7 189.3 181.9 189.2 183C188.6 187.2 187 188.6 182.7 187.6C177.5 186.8 172.8 189.3 167.4 188.8C165.8 188.7 164 187.8 163 186.3C162.5 185.6 162.2 184.7 161.9 184.1C161 181.8 160 179.2 160.6 176.6C163.1 168.6 174 173.3 179.2 175.5C182.1 176.7 188.3 180.2 190.8 177.5C191.3 177.2 192 177.7 191.8 178.2Z" fill="black"/>
<path d="M162.8 179.7C165.2 179.6 169.5 178.1 171.3 180.7C171.6 181.1 171.7 181.2 172.2 181.2C172.9 181.1 173.8 180.6 174.6 181C175.9 181.3 177.3 181.6 178.6 181.9C178.9 182 179.1 182.2 179 182.5C178.9 182.8 178.7 183 178.4 182.9C176.9 182.7 175.4 182.7 173.9 182.3C173.2 182.6 172 183.1 171 182.7C170.4 182.5 169.9 181.9 169.5 181.5C169.3 181.3 168.9 181.3 168.6 181.3C166.7 181.2 164.7 182 162.8 182.3C160.8 182.5 160.7 179.4 162.8 179.7Z" fill="black"/>
</svg>
