<svg width="306" height="306" viewBox="0 0 306 306" fill="none" xmlns="http://www.w3.org/2000/svg">
<path d="M186.2 179C186.3 182.3 181.4 190.7 172 186.8C162.9 183.1 160.2 165.7 173.2 174C179.8 178.4 184 179.1 186.2 179Z" fill="white"/>
<path d="M188.3 179.1C185.6 180 183 179.2 180.5 178.3C176.8 177 173.8 174.6 170.3 172.9C165.5 170.6 163.6 173.7 164.9 178.2C166.2 183 170.4 187.2 175.6 187.4C180.2 187.9 185.1 183.7 184.7 179C184.3 177 187.2 176.4 187.7 178.3C187.6 181.7 185.5 184.1 183.3 186.1C178.9 189.7 172.2 188.9 167.8 185.6C164.4 182.9 161.6 178.6 162.2 174C162.4 172 164.3 169.7 166.4 169.6C171.3 169.2 174.2 172.5 178 174.7C181 176.4 184.4 178.5 187.9 178.2C188.5 178 188.9 178.8 188.3 179.1Z" fill="black"/>
<path d="M165.099 175.4C166.699 177.7 169.199 178.9 171.799 179.5C172.399 179.7 172.899 179.7 173.399 179.7C174.299 179.7 175.199 180.4 175.699 180.9C178.099 182.8 181.399 183.1 184.399 183.2C185.099 183.2 185.099 184.4 184.399 184.3C181.199 184.1 177.799 183.8 174.799 182.3C174.199 182.1 173.899 181.9 173.399 181.9C171.499 182.1 169.999 180.9 168.599 180.1C166.999 179.2 165.399 178.3 163.499 177.9C162.599 177.7 162.099 176.9 162.199 176C162.399 174.6 164.399 174.2 165.099 175.4Z" fill="black"/>
</svg>
