<svg width="306" height="306" viewBox="0 0 306 306" fill="none" xmlns="http://www.w3.org/2000/svg">
<path d="M189.4 178.9C187.7 180.1 185.2 179.1 183.4 179.9C182.1 180.3 180 182.1 177 181.9C174.6 181.7 173.4 180.5 171.4 179.6C169.3 178.9 167.1 177.6 165.7 175.9C165.4 175.6 165.4 175.2 165.7 174.9C166.1 174.5 166.5 174.8 166.9 175C167.8 175.5 168.5 175.9 169.2 176.1C169.9 176.3 170.6 176.1 171.7 176.1C172.8 176 174.4 176.5 175.4 177.3C176.1 177.8 176.9 178.1 177.5 178.2C179.1 178.5 181.1 177.2 182.8 177C184 176.8 185.3 176.9 186.3 177.2C187.3 177.5 188 177.7 188.8 177.5C189.7 177.3 190.2 178.5 189.4 178.9Z" fill="black"/>
</svg>
