<svg width="306" height="306" viewBox="0 0 306 306" fill="none" xmlns="http://www.w3.org/2000/svg">
<path d="M188.5 179.3C185.4 181.8 181.1 181.9 177.4 181C176.2 180.7 174.8 180.5 174.1 179.2C173.4 178.1 174.1 176.7 175.4 176.5C176.7 176.2 177.5 176.8 178.6 177.1C181.5 178.1 184.7 178.7 187.7 177.7C188.5 177.5 189.3 178.7 188.5 179.3Z" fill="black"/>
<path d="M177.5 172.9C179.6 176.6 176.6 181 173 182.4C172.2 182.8 168.4 183.6 168.5 182.1C168.5 181.9 168.7 181.7 168.9 181.6C172.5 180 175.1 176.7 175.7 172.9C175.8 172.1 176.9 171.9 177.3 172.6L177.5 172.9Z" fill="black"/>
</svg>
