<svg width="306" height="306" viewBox="0 0 306 306" fill="none" xmlns="http://www.w3.org/2000/svg">
<path d="M131 121.7C131 121.7 102.1 124.4 89.7002 121.2C89.7002 121.2 91.7002 86.8001 106 68.5001C120.3 50.2001 175.8 50.1001 197.9 58.3001C217.9 65.8001 220.5 99.8001 220.5 99.8001L131 121.7Z" fill="black"/>
<path d="M220.6 99.8003L134.8 120.8C134.3 109.3 133.1 83.9003 139 70.5003C146.1 54.4003 187.4 54.5003 204.7 62.7003C218.5 76.2003 220.6 99.8003 220.6 99.8003Z" fill="white"/>
<path d="M221.8 100.7C193 108 164.1 115.2 135.2 122.2C134.4 122.4 133.6 121.9 133.4 121.1C132.9 110.9 132.8 100.6 133.7 90.3001C134.5 82.7001 135.4 74.6001 139.3 67.9001C146.7 57.9001 163.6 56.6001 175 56.6001C184.8 56.7001 197.4 58.6001 204.9 62.5001C214.9 72.0001 219.8 85.7001 222 99.0001C222.1 99.5001 222.2 100.1 221.8 100.7ZM219.4 98.9001C219.2 99.1001 219.1 99.7001 219.1 99.8001C219.1 99.5001 219 98.9001 219 98.6001C217.8 85.9001 212.9 71.8001 204.7 62.9001C192 57.4001 174.6 56.5001 160.1 59.1001C153 60.6001 145.3 62.8001 141 68.9001C134.1 82.0001 135.7 105.7 136.4 120.6L134.5 119.2C162.7 112.4 191 105.6 219.4 98.9001Z" fill="black"/>
<path d="M239.8 118.3C239.8 130.4 220.2 125 220.2 125C220.7 120.1 220.7 116.4 220.3 113.2C220 110.9 219.6 108.7 219.1 106.5C218.7 104.9 218.3 103.3 217.9 101.7C224.3 101 229.1 102.8 232.5 105.4C237.7 109.4 239.8 115.3 239.8 118.3Z" fill="black" stroke="black" stroke-width="3" stroke-miterlimit="10" stroke-linecap="round" stroke-linejoin="round"/>
<path d="M179.2 82.5002C184.391 82.5002 188.6 78.2917 188.6 73.1002C188.6 67.9087 184.391 63.7002 179.2 63.7002C174.008 63.7002 169.8 67.9087 169.8 73.1002C169.8 78.2917 174.008 82.5002 179.2 82.5002Z" fill="white"/>
<path d="M188.6 73.1001C188.6 77.4001 185.7 81.0001 181.8 82.1001C177.9 81.0001 175 77.4001 175 73.1001C175 68.8001 177.9 65.2001 181.8 64.1001C185.7 65.2001 188.6 68.8001 188.6 73.1001Z" fill="#C9C9C9"/>
<path d="M193.7 73.1C193.7 78.3 189.5 82.5 184.3 82.5C184.1 82.5 183.8 82.5 183.6 82.5C183.4 82.5 183.2 82.5 183 82.4C182.8 82.4 182.6 82.3 182.4 82.3C182.2 82.3 182 82.2 181.8 82.2C185.7 81.1 188.6 77.5 188.6 73.2C188.6 68.9 185.7 65.3 181.8 64.2C182 64.1 182.2 64.1 182.4 64.1C182.6 64.1 182.7 64 182.9 64C183 64 183.1 64 183.2 64C183.3 64 183.4 64 183.6 64C183.9 64 184.1 64 184.4 64C189.5 63.7 193.7 67.9 193.7 73.1Z" fill="black"/>
<path d="M179.2 66.1002C183.1 66.1002 186.2 69.2002 186.2 73.1002C186.2 77.0002 183.1 80.1002 179.2 80.1002C175.3 80.1002 172.2 77.0002 172.2 73.1002C172.2 69.2002 175.4 66.1002 179.2 66.1002ZM179.2 63.7002C174 63.7002 169.8 67.9002 169.8 73.1002C169.8 78.3002 174 82.5002 179.2 82.5002C184.4 82.5002 188.6 78.3002 188.6 73.1002C188.6 67.9002 184.4 63.7002 179.2 63.7002Z" fill="black"/>
<path d="M135 111.8C135 111.8 109.2 113.8 91.6002 112.8C90.6002 112.7 90.6002 111.9 90.6002 110.9L90.7002 109.1C90.7002 109.1 88.8002 109.6 88.0002 112.2C87.6002 113.6 87.3002 117 87.4002 119.1C87.5002 120.4 88.4002 121.5 89.7002 121.7C95.5002 122.7 105 125.1 131 121.8C131 121.7 134.4 116 135 111.8Z" fill="black"/>
<path d="M232.5 105.4C228.3 102.2 222 100.3 213.4 102.5C208.5 103.8 202.7 106.4 196.1 110.8C163.8 132.6 131 121.7 131 121.7C131 121.7 132 116.8 135.6 110.8C140.9 102 151.9 90.8001 174 89.4001C193.4 88.2001 207.7 91.9001 217.4 96.1001C227 100.3 232 104.9 232.5 105.4Z" fill="white"/>
<path d="M233.7 106.4C233.1 106.7 231.9 106.7 231.3 106.3C231 106.2 230.9 106 230.7 105.9C223.8 101.2 214.9 102.7 207.5 105.8C199.3 109.3 192.2 115.2 183.9 118.5C167.3 125.5 148.3 126.9 130.9 121.9C130.8 121.9 130.7 121.7 130.7 121.6C132.3 111.5 139.1 102.7 147.3 96.9001C155.7 91.0001 166 88.5001 176.1 88.0001C193.7 87.1001 212.1 90.1001 227.3 99.6001C229.2 100.8 231.1 102.1 232.8 103.6L233.2 103.9L233.4 104.1C233.7 104.3 233.8 104.6 233.9 105C234 105.7 233.8 106.2 233.7 106.4ZM231.4 104.4C231.2 104.6 230.9 105 231 105.6C231.1 105.9 231.2 106.2 231.4 106.4L231.2 106.3C229.5 104.8 227.7 103.5 225.8 102.3C206.5 89.8001 168.4 85.5001 148.9 99.1001C140.9 104.5 135.2 112.9 132.3 122L131.5 120.6C148.4 125.3 167.1 123.6 183.1 116.6C191.4 113.1 198.2 107.1 206.5 103.5C214.4 99.9001 224.7 98.3001 232.4 103.5L232.6 103.6C232.7 103.7 232.6 103.6 232.5 103.6C232.4 103.6 232.1 103.6 231.8 103.8C231.5 103.9 231.4 104.2 231.4 104.4Z" fill="black"/>
<path d="M91.0002 111.4C93.9002 112.2 97.3002 112.1 100.3 112.3C109.9 112.5 119.5 111.9 129.2 111.4C129.7 111.4 129.9 112.2 129.3 112.3C119.2 113.9 99.7002 116.6 90.5002 112.3C89.8002 112 90.3002 111.1 91.0002 111.4Z" fill="white"/>
<path d="M115 66.4003C114.2 67.3003 112.9 68.2003 112.6 69.1003C112.6 69.1003 112.6 69.1003 112.6 69.0003C112.6 68.9003 112.6 68.8003 112.5 68.8003C112.5 68.7003 112.4 68.7003 112.4 68.7003C112.7 68.8003 113 68.8003 113.4 68.8003C116.9 68.8003 122.4 67.8003 126.1 67.4003C128.2 67.1003 130.4 66.8003 132.6 66.6003C132.7 66.6003 132.8 66.7003 132.8 66.8003C132.8 66.9003 132.7 67.0003 132.7 67.0003C128.6 68.5003 124.4 69.6003 120.1 70.4003C117.6 70.8003 115 71.4003 112.4 70.9003C110.4 70.5003 110.1 68.7003 111.7 67.6003C112 67.0003 115.5 65.3003 115 66.4003Z" fill="white"/>
</svg>
