<svg width="306" height="306" viewBox="0 0 306 306" fill="none" xmlns="http://www.w3.org/2000/svg">
<path d="M175.001 157.6C170.401 157.7 156.201 157.8 151.801 157.9C144.201 158 138.501 151.4 139.201 143.9C139.301 141.4 139.201 137.9 139.301 135.4C139.501 128.9 145.301 123.4 151.801 123.6L168.701 123.8C170.001 123.8 173.701 123.9 175.001 123.9C180.401 123.8 185.501 127.8 186.701 133.1C187.101 134.6 187.001 136.2 187.001 137.5V146C186.901 152.3 181.301 157.7 175.001 157.6ZM175.001 155.4C180.201 155.6 185.001 151.1 185.101 145.9C185.201 143.2 185.101 140.3 185.101 137.5C185.701 131.4 181.101 125.8 174.901 126C170.601 126.1 156.201 126.2 151.701 126.3C146.301 126.3 141.701 131.2 142.101 136.6C142.101 137.3 142.101 139.1 142.101 139.8C142.201 142 141.901 145.8 142.401 147.8C143.401 152 147.401 155.2 151.701 155.2H153.801C156.701 155.2 172.001 155.4 175.001 155.4Z" fill="black"/>
<path d="M215.3 126.5L207.4 126.6C205.2 126.7 202.6 126.3 200.7 127.6C198.9 128.8 198.1 131 198.2 133.1C198.2 135.7 198.2 138.4 198.1 141L198 140.6C199.4 145.5 201.3 150.2 204.2 154.3L203.2 153.7C204 153.9 205.4 153.9 206.2 153.9C209.2 154 212.7 154.2 215.7 154.2C218.5 154.2 221.2 152.1 221.8 149.3C222 148.5 222 147.1 222 146.3C222 142 222.1 137.8 221.9 133.5C222.1 129.7 219.2 126.3 215.3 126.5ZM215.3 123.5C220.6 123.5 224.3 128.6 223.4 133.6C223.2 137.9 223.3 142.1 223.3 146.4C223.8 151.4 220.8 155.9 215.6 156.3C213.4 156.4 211.3 156.4 209.2 156.5C208.1 156.5 205.4 156.7 204.4 156.7C203.9 156.8 203.1 156.7 202.6 156.7C202.2 156.7 201.8 156.4 201.6 156.1C198.5 151.5 196.3 146.4 195 141.1C195 137.7 194.7 134.3 195 130.9C195.6 126.9 199.2 123.5 203.3 123.4C206.1 123.3 212.5 123.5 215.3 123.5Z" fill="black"/>
<path d="M185.9 132.7C188.6 131.5 191.6 131 194.6 131.2C195.6 131.3 196.6 131.6 197.5 132.4L198.8 133.5C200.1 134.6 198.5 136.5 197.2 135.4C195.6 134 193.7 134.2 191.8 134.3C189.9 134.5 188.1 134.9 186.3 135.6C184.6 136.3 183.5 133.8 185.1 133L185.9 132.7Z" fill="black"/>
<path d="M140.9 136.3C140.2 137.9 139.4 138.1 138.1 138L135.2 138.1C129.4 138.1 123.5 138 117.7 137.1C115.7 137 115.6 134.2 117.6 134.1L140.8 133.3C141.5 133.3 142 134 141.7 134.6L140.9 136.3Z" fill="black"/>
</svg>
